<svg width="12" height="12" viewBox="0 0 12 12" fill="none" xmlns="http://www.w3.org/2000/svg">
<path d="M7.0568 5.64622L6.70201 6.00019L7.0568 6.35415L11.3568 10.6442L11.3578 10.6452C11.4047 10.6917 11.4419 10.747 11.4673 10.8079C11.4927 10.8688 11.5057 10.9342 11.5057 11.0002C11.5057 11.0662 11.4927 11.1315 11.4673 11.1925C11.4419 11.2534 11.4047 11.3087 11.3578 11.3552L11.3549 11.3581C11.3085 11.405 11.2532 11.4421 11.1922 11.4675C11.1313 11.4929 11.0659 11.506 10.9999 11.506C10.9339 11.506 10.8686 11.4929 10.8077 11.4675C10.7467 11.4421 10.6914 11.405 10.6449 11.3581L10.6439 11.357L6.3539 7.05704L5.99994 6.70225L5.64597 7.05704L1.35597 11.357L1.35494 11.3581C1.30845 11.405 1.25315 11.4421 1.19223 11.4675C1.1313 11.4929 1.06595 11.506 0.999939 11.506C0.933931 11.506 0.868578 11.4929 0.807651 11.4675C0.746725 11.4421 0.691423 11.405 0.644938 11.3581L0.64204 11.3552C0.595174 11.3087 0.557978 11.2534 0.532595 11.1925C0.50721 11.1315 0.494141 11.0662 0.494141 11.0002C0.494141 10.9342 0.50721 10.8688 0.532595 10.8079C0.557978 10.747 0.595174 10.6917 0.642042 10.6452L0.64308 10.6442L4.94308 6.35415L5.29787 6.00019L4.94308 5.64622L0.643492 1.35663C0.643435 1.35658 0.643378 1.35652 0.643321 1.35646C0.548893 1.26194 0.495847 1.1338 0.495847 1.00019C0.495847 0.866492 0.548957 0.738274 0.643492 0.643739C0.738028 0.549203 0.866246 0.496094 0.999939 0.496094C1.13355 0.496094 1.26169 0.549139 1.35621 0.643567C1.35627 0.643625 1.35633 0.643682 1.35639 0.643739L5.64597 4.94333L5.99994 5.29812L6.3539 4.94333L10.6435 0.643739C10.6436 0.643638 10.6437 0.643538 10.6438 0.643437C10.7383 0.54909 10.8664 0.496094 10.9999 0.496094C11.1336 0.496094 11.2618 0.549203 11.3564 0.643739C11.4509 0.738275 11.504 0.866493 11.504 1.00019C11.504 1.13374 11.451 1.26182 11.3567 1.35633C11.3566 1.35643 11.3565 1.35653 11.3564 1.35663L7.0568 5.64622Z" fill="#D0D5DD" stroke="#D0D5DD"/>
</svg>
