<svg width="34" height="36" viewBox="0 0 34 36" fill="none" xmlns="http://www.w3.org/2000/svg">
<ellipse cx="17" cy="18" rx="17" ry="18" fill="white"/>
<ellipse cx="17" cy="18" rx="15" ry="16" fill="url(#paint0_linear_677_1839)"/>
<path d="M16.375 23.7081H16.875V23.2081V21.8321C16.9169 21.8328 16.9586 21.8331 17 21.8331C17.0414 21.8331 17.0831 21.8328 17.125 21.8321V23.2081V23.7081H17.625H19.5C20.1405 23.7081 20.6667 24.2343 20.6667 24.8748V25.0831V25.5831H21.1667H22C22.0301 25.5831 22.0614 25.5954 22.0871 25.6211C22.1127 25.6467 22.125 25.678 22.125 25.7081C22.125 25.7383 22.1127 25.7696 22.0871 25.7952C22.0614 25.8209 22.0301 25.8331 22 25.8331H12C11.9699 25.8331 11.9386 25.8209 11.9129 25.7952C11.8873 25.7696 11.875 25.7383 11.875 25.7081C11.875 25.678 11.8873 25.6467 11.9129 25.6211C11.9386 25.5954 11.9699 25.5831 12 25.5831H12.8333H13.3333V25.0831V24.8748C13.3333 24.2343 13.8595 23.7081 14.5 23.7081H16.375Z" fill="white" stroke="white"/>
<path d="M22.2233 17.2323L22.0193 17.3095L21.9372 17.5116C21.1444 19.4631 19.2399 20.8332 17.0004 20.8332C14.7609 20.8332 12.8564 19.4631 12.0636 17.5116L11.9815 17.3095L11.7775 17.2323C11.3084 17.0546 10.8866 16.7601 10.5462 16.4219C9.83698 15.633 9.40039 14.7255 9.40039 13.6832C9.40039 12.7593 10.1182 12.0415 11.0421 12.0415H11.5087H11.8209L11.9579 11.761C12.4197 10.8161 13.3837 10.1665 14.5004 10.1665H19.5004C20.6171 10.1665 21.581 10.8161 22.0428 11.761L22.1799 12.0415H22.4921H22.9587C23.8826 12.0415 24.6004 12.7593 24.6004 13.6832C24.6004 14.7255 24.1638 15.633 23.4546 16.4219C23.1142 16.7601 22.6924 17.0546 22.2233 17.2323ZM19.2244 16.0184C19.2274 16.0092 19.2304 16.002 19.2327 15.9972L19.2378 15.9909L19.7518 15.3609C19.9931 15.0741 20.1173 14.6973 19.9957 14.3234C19.8742 13.9498 19.5523 13.7172 19.1922 13.6241L19.1923 13.6241L19.1895 13.6234L18.4128 13.4272C18.4127 13.4272 18.4127 13.4272 18.4127 13.4272C18.4064 13.4238 18.3968 13.4179 18.3859 13.4096C18.375 13.4012 18.366 13.393 18.3599 13.3866C18.3584 13.385 18.3573 13.3837 18.3565 13.3829L18.3536 13.3784L17.912 12.6951L17.9118 12.6949C17.7119 12.3859 17.3953 12.1478 17.0004 12.1478C16.6054 12.1478 16.2889 12.3859 16.0889 12.6949L16.0888 12.6951L15.6471 13.3784L15.647 13.3784L15.6442 13.3829C15.6435 13.3838 15.6424 13.385 15.6408 13.3866C15.6347 13.393 15.6258 13.4012 15.6149 13.4096C15.6039 13.4179 15.5944 13.4238 15.5881 13.4272C15.588 13.4272 15.588 13.4272 15.588 13.4272L14.8113 13.6234L14.8113 13.6234L14.8085 13.6241C14.4485 13.7172 14.1266 13.9498 14.0051 14.3234C13.8835 14.6973 14.0077 15.0741 14.249 15.3608L14.763 15.9909L14.7681 15.9972C14.7704 16.002 14.7734 16.0092 14.7764 16.0184C14.7804 16.0305 14.7828 16.0413 14.784 16.0489C14.7841 16.0496 14.7842 16.0502 14.7843 16.0507L14.7348 16.8582C14.7348 16.8587 14.7348 16.8592 14.7347 16.8597C14.7104 17.2307 14.8297 17.609 15.1487 17.8401C15.467 18.0708 15.8634 18.0673 16.2082 17.9319L16.2093 17.9314L16.9485 17.639C16.9499 17.6388 16.9518 17.6385 16.954 17.6382C16.9658 17.6365 16.982 17.6353 17.0004 17.6353C17.0188 17.6353 17.035 17.6365 17.0468 17.6382C17.049 17.6385 17.0509 17.6388 17.0523 17.639L17.7915 17.9314L17.7926 17.9319C18.1374 18.0673 18.5337 18.0708 18.8521 17.8401C19.1711 17.609 19.2904 17.2307 19.266 16.8597C19.266 16.8592 19.266 16.8587 19.266 16.8582L19.2165 16.0507C19.2166 16.0502 19.2167 16.0496 19.2168 16.0489C19.218 16.0413 19.2204 16.0305 19.2244 16.0184Z" fill="white" stroke="white"/>
<defs>
<linearGradient id="paint0_linear_677_1839" x1="2" y1="18" x2="32" y2="18" gradientUnits="userSpaceOnUse">
<stop stop-color="#232526"/>
<stop offset="1" stop-color="#434343"/>
</linearGradient>
</defs>
</svg>
