<svg width="22" height="22" viewBox="0 0 22 22" fill="none" xmlns="http://www.w3.org/2000/svg">
<path d="M5.50561 0.657227L0.346172 4.35688L4.83572 5.72071L10.0531 1.63837L5.50561 0.657227ZM10.8018 2.1142L5.26838 6.33107L7.66228 12.4765L8.06231 12.127L8.26059 11.3907C8.12636 11.3033 8.01131 11.161 7.93407 10.9871C7.85682 10.8131 7.82191 10.6176 7.83497 10.4321C7.84779 10.2521 7.90514 10.0917 7.99824 9.97545C8.09134 9.85924 8.21506 9.79363 8.35045 9.78866C8.40644 9.78662 8.46352 9.79497 8.52014 9.81351C8.56989 9.83008 8.61887 9.85437 8.66606 9.88588L9.03825 8.50401C9.04277 8.48744 9.04829 8.47116 9.0548 8.45526C9.05569 8.45325 9.05659 8.45125 9.05752 8.44926C9.06206 8.43835 9.06707 8.42764 9.07252 8.41715C9.0739 8.41474 9.0753 8.41235 9.07673 8.40998C9.08212 8.39998 9.08791 8.39021 9.09408 8.38068C9.10185 8.36897 9.11021 8.35766 9.11911 8.34679C9.12013 8.34563 9.12117 8.34447 9.1222 8.34332C9.13022 8.33367 9.13867 8.32438 9.14752 8.31548C9.15721 8.30572 9.16738 8.29644 9.17798 8.28768C9.17805 8.28765 9.17811 8.28762 9.17817 8.28759C9.18519 8.28201 9.19238 8.27667 9.19974 8.27156C9.20383 8.2684 9.20799 8.26532 9.2122 8.26232C9.21989 8.25738 9.22774 8.25269 9.23573 8.24826C9.23991 8.24573 9.24413 8.24328 9.24839 8.2409C9.25518 8.23746 9.26205 8.23421 9.26902 8.23115C9.27489 8.22823 9.28083 8.22545 9.28683 8.2228C9.29359 8.22025 9.30043 8.21788 9.30731 8.21568C9.31366 8.21329 9.32007 8.21106 9.32653 8.20898C9.33281 8.20727 9.33912 8.20571 9.34547 8.20429C9.35276 8.20231 9.36011 8.20053 9.3675 8.19895C9.37544 8.19762 9.38341 8.19653 9.39141 8.19566C9.39717 8.19476 9.40295 8.19398 9.40875 8.19332C9.40891 8.19332 9.40906 8.19332 9.40922 8.19332C9.40938 8.19327 9.40953 8.19323 9.40969 8.19318L10.9858 8.05851C11.0219 7.92391 11.0858 7.81042 11.1709 7.72983C11.2561 7.64923 11.3593 7.60448 11.4698 7.60021C11.5259 7.59815 11.583 7.60651 11.6396 7.62505C11.7924 7.67554 11.9346 7.79769 12.0393 7.96851L12.6507 7.91634L10.8019 2.11401L10.8018 2.1142ZM5.43305 2.47073C5.63139 2.47485 5.79948 2.51787 5.90881 2.59249C6.01815 2.66711 6.06201 2.76873 6.03295 2.88013C5.99959 3.00817 5.8725 3.13936 5.67965 3.24483C5.4868 3.3503 5.24398 3.42142 5.00461 3.44254C4.88607 3.453 4.77196 3.45086 4.66877 3.43626C4.56558 3.42165 4.47535 3.39486 4.40322 3.35742C4.3311 3.31998 4.27849 3.27261 4.24841 3.21803C4.21832 3.16345 4.21135 3.10273 4.22789 3.03932C4.24439 2.97592 4.28408 2.91107 4.34469 2.84849C4.4053 2.7859 4.48565 2.72681 4.58114 2.67457C4.67663 2.62234 4.7854 2.57799 4.90123 2.54406C5.01707 2.51013 5.1377 2.48728 5.25623 2.47682C5.31643 2.47154 5.37563 2.4695 5.43295 2.47073H5.43305ZM10.1313 3.57309C10.1873 3.57104 10.2444 3.57939 10.301 3.59793C10.4672 3.65229 10.6203 3.79117 10.7268 3.98404C10.8332 4.17691 10.8843 4.40796 10.8688 4.62637C10.8611 4.73452 10.8372 4.83631 10.7986 4.92593C10.76 5.01555 10.7074 5.09124 10.6438 5.14868C10.5801 5.20612 10.5068 5.24418 10.4278 5.26069C10.3488 5.27721 10.2659 5.27185 10.1836 5.24493C10.1013 5.21803 10.0214 5.17009 9.94832 5.10385C9.87526 5.0376 9.81051 4.95435 9.75778 4.85885C9.70505 4.76335 9.66537 4.65747 9.641 4.54726C9.61663 4.43704 9.60805 4.32465 9.61575 4.21649C9.62858 4.03645 9.68594 3.87604 9.77905 3.75984C9.87215 3.64364 9.99593 3.57804 10.1313 3.57309ZM0.134766 5.17448L2.33752 10.524L6.75483 12.4169L4.59914 6.53076L0.134766 5.17443V5.17448ZM7.06692 5.99151C7.12293 5.98942 7.18005 5.99774 7.2367 6.01626C7.40282 6.07064 7.55595 6.20954 7.6624 6.40241C7.76886 6.59527 7.81992 6.8263 7.80436 7.0447C7.79666 7.15285 7.77282 7.25464 7.73422 7.34426C7.69562 7.43387 7.64301 7.50957 7.57939 7.56701C7.51577 7.62445 7.44239 7.66252 7.36343 7.67905C7.28448 7.69557 7.2015 7.69022 7.11923 7.6633C6.9531 7.60895 6.79995 7.47006 6.69348 7.27719C6.58701 7.08433 6.53593 6.85328 6.55148 6.63487C6.56431 6.45484 6.62166 6.29445 6.71475 6.17825C6.80784 6.06205 6.93154 5.99649 7.06692 5.99151ZM3.54553 6.60163C3.66172 6.5953 3.80737 6.66412 3.95423 6.79472C4.10109 6.92532 4.23868 7.10839 4.3403 7.30841C4.39413 7.41435 4.43631 7.52202 4.46444 7.62525C4.49258 7.72849 4.5061 7.82528 4.50425 7.91009C4.5024 7.99491 4.48521 8.06608 4.45366 8.11956C4.42211 8.17304 4.37682 8.20777 4.32038 8.22177C4.20636 8.25 4.05384 8.19208 3.89637 8.06075C3.73891 7.92943 3.58939 7.73546 3.4807 7.52151C3.37206 7.30763 3.31312 7.09129 3.31685 6.92006C3.32057 6.74883 3.38666 6.63672 3.50058 6.60838C3.51492 6.60478 3.52989 6.60252 3.54553 6.60163ZM15.8921 8.48648L10.6373 8.9354L15.9699 12.6819L21.2948 11.8871L15.8921 8.48634V8.48648ZM2.31914 8.9391C2.43533 8.93273 2.581 9.00153 2.72788 9.13213C2.87476 9.26274 3.01237 9.44583 3.114 9.64588C3.2227 9.85983 3.28167 10.0762 3.27793 10.2475C3.2742 10.4188 3.20806 10.5309 3.09408 10.5592C2.98007 10.5874 2.82755 10.5295 2.67009 10.3982C2.51262 10.2669 2.36309 10.0729 2.25441 9.85898C2.14573 9.64506 2.08678 9.42868 2.09051 9.25742C2.09425 9.08617 2.16037 8.97406 2.27433 8.94576C2.28867 8.94222 2.30369 8.94003 2.31933 8.9392L2.31914 8.9391ZM9.69623 9.30534L7.74914 16.5329L13.1686 21.1948L15.3787 13.2978L9.69623 9.30543V9.30534ZM15.6488 9.82884C15.7942 9.83153 15.9543 9.85336 16.1151 9.89243C16.276 9.9315 16.4328 9.98663 16.5719 10.053C16.6842 10.1067 16.7825 10.1665 16.8612 10.2291C16.9399 10.2917 16.9975 10.3558 17.0306 10.4178C17.0637 10.4798 17.0717 10.5385 17.0542 10.5904C17.0367 10.6424 16.9939 10.6867 16.9284 10.7207C16.863 10.7548 16.776 10.7779 16.6725 10.7889C16.569 10.7998 16.4511 10.7983 16.3253 10.7844C16.1996 10.7706 16.0686 10.7447 15.9397 10.7081C15.8109 10.6716 15.6867 10.6252 15.5744 10.5716C15.3476 10.4632 15.1825 10.332 15.1156 10.2068C15.0487 10.0816 15.0854 9.97264 15.2177 9.90388C15.3182 9.85166 15.4684 9.82551 15.6487 9.82888L15.6488 9.82884ZM21.8641 12.6553L16.1979 13.501L14.0031 21.344L19.4545 19.8547L21.8641 12.6553ZM13.3419 13.1615C13.4081 13.1616 13.4749 13.1765 13.5405 13.2057C13.6359 13.2483 13.7271 13.3205 13.8091 13.4182C13.891 13.516 13.962 13.6373 14.018 13.7754C14.0741 13.9135 14.114 14.0655 14.1356 14.2229C14.1572 14.3803 14.1601 14.5399 14.144 14.6926C14.1114 15.001 14.0037 15.2626 13.8446 15.4199C13.6854 15.5772 13.4878 15.6173 13.2953 15.5313C13.1999 15.4888 13.1087 15.4166 13.0268 15.3188C12.9448 15.2211 12.8738 15.0997 12.8178 14.9616C12.7617 14.8236 12.7218 14.6715 12.7002 14.5141C12.6786 14.3568 12.6757 14.1972 12.6918 14.0444C12.7187 13.7903 12.7968 13.5663 12.9142 13.4069C13.0316 13.2474 13.1818 13.1612 13.3419 13.1615ZM20.5647 13.7069C20.7176 13.7024 20.8444 13.7706 20.9243 13.9005C21.0183 14.0532 21.0406 14.2794 20.9863 14.5293C20.932 14.7793 20.8056 15.0326 20.6348 15.2334C20.4641 15.4343 20.2631 15.5663 20.076 15.6003C19.8888 15.6344 19.731 15.5678 19.637 15.4152C19.5431 15.2626 19.5208 15.0364 19.5751 14.7865C19.6294 14.5365 19.7558 14.2832 19.9265 14.0824C20.0234 13.9683 20.1312 13.8753 20.2417 13.8103C20.3522 13.7453 20.4627 13.71 20.5647 13.707L20.5647 13.7069ZM17.3445 14.2068C17.4975 14.2023 17.6242 14.2705 17.7042 14.4004C17.7981 14.5531 17.8204 14.7792 17.7661 15.0292C17.7118 15.2792 17.5854 15.5324 17.4147 15.7333C17.244 15.9341 17.0429 16.0661 16.8558 16.1002C16.6687 16.1343 16.5108 16.0677 16.4168 15.915C16.3229 15.7624 16.3007 15.5362 16.355 15.2863C16.4093 15.0363 16.5357 14.783 16.7064 14.5822C16.8034 14.4681 16.9111 14.3751 17.0216 14.3101C17.1321 14.2451 17.2425 14.2098 17.3446 14.2068H17.3445ZM9.18848 14.8305C9.25472 14.8306 9.32158 14.8455 9.38724 14.8748C9.48258 14.9173 9.57382 14.9896 9.65574 15.0873C9.73766 15.1851 9.80867 15.3064 9.86469 15.4445C9.92072 15.5826 9.96068 15.7346 9.98229 15.892C10.0039 16.0494 10.0067 16.209 9.99061 16.3617C9.9745 16.5144 9.93977 16.6572 9.8884 16.782C9.83703 16.9068 9.77003 17.0111 9.69122 17.089C9.61241 17.1669 9.52333 17.2168 9.42908 17.236C9.33482 17.2551 9.23724 17.243 9.14189 17.2004C9.04654 17.1579 8.9553 17.0857 8.87337 16.9879C8.79144 16.8902 8.72044 16.7688 8.6644 16.6308C8.60837 16.4927 8.56841 16.3406 8.5468 16.1832C8.52519 16.0259 8.52236 15.8663 8.53847 15.7136C8.56528 15.4594 8.64335 15.2354 8.76073 15.0759C8.87811 14.9164 9.02835 14.8302 9.18844 14.8304L9.18848 14.8305ZM19.139 17.6838C19.2919 17.6793 19.4186 17.7475 19.4985 17.8774C19.5925 18.03 19.6148 18.2562 19.5605 18.5061C19.5062 18.7561 19.3798 19.0093 19.2091 19.2102C19.0384 19.4111 18.8374 19.543 18.6503 19.5771C18.4631 19.6112 18.3052 19.5446 18.2113 19.3919C18.1174 19.2393 18.0951 19.0131 18.1494 18.7631C18.2037 18.5132 18.3301 18.2599 18.5008 18.0591C18.5977 17.945 18.7055 17.852 18.816 17.787C18.9265 17.722 19.037 17.6867 19.139 17.6837V17.6838ZM15.8422 18.5973C15.9951 18.5928 16.1218 18.6611 16.2017 18.791C16.2957 18.9436 16.318 19.1697 16.2637 19.4197C16.2094 19.6697 16.083 19.9229 15.9123 20.1238C15.8278 20.2232 15.7349 20.3068 15.639 20.3698C15.5431 20.4327 15.4461 20.4738 15.3534 20.4907C15.2608 20.5075 15.1743 20.4998 15.099 20.4681C15.0237 20.4363 14.961 20.381 14.9145 20.3054C14.8206 20.1528 14.7983 19.9266 14.8526 19.6766C14.9069 19.4267 15.0333 19.1734 15.204 18.9726C15.301 18.8585 15.4087 18.7655 15.5193 18.7005C15.6298 18.6355 15.7402 18.6002 15.8423 18.5972L15.8422 18.5973Z" fill="url(#paint0_linear_3062_11606)"/>
<defs>
<linearGradient id="paint0_linear_3062_11606" x1="0.134766" y1="11.0006" x2="21.8641" y2="11.0006" gradientUnits="userSpaceOnUse">
<stop stop-color="#232526"/>
<stop offset="1" stop-color="#434343"/>
</linearGradient>
</defs>
</svg>
