<svg width="34" height="36" viewBox="0 0 34 36" fill="none" xmlns="http://www.w3.org/2000/svg">
<ellipse cx="17" cy="18" rx="17" ry="18" fill="#F6F5F4"/>
<ellipse cx="17" cy="18" rx="15" ry="16" fill="url(#paint0_linear_677_2930)"/>
<path d="M24.1295 10.8704L24.1315 10.8725C24.7297 11.4638 24.9636 12.3067 24.7566 13.128L24.7563 13.1291L22.7146 21.3041L22.7145 21.3046C22.4177 22.4988 21.4921 23.4179 20.3036 23.7151C20.3035 23.7151 20.3035 23.7151 20.3035 23.7151L12.1286 25.7568L12.1204 25.7588L12.1124 25.7611C11.934 25.8121 11.7404 25.8335 11.5414 25.8335C10.9266 25.8335 10.3273 25.588 9.86861 25.137C9.26872 24.5362 9.03617 23.6924 9.24289 22.8724L9.24315 22.8714L11.2848 14.6965C11.2848 14.6964 11.2848 14.6964 11.2848 14.6964C11.582 13.5078 12.5011 12.5822 13.6953 12.2855L13.696 12.2853L21.8627 10.2436L21.8636 10.2434C22.6842 10.0365 23.5286 10.2696 24.1295 10.8704L24.1295 10.8704ZM13.2664 18.0002C13.2664 20.0597 14.9402 21.7335 16.9997 21.7335C19.0592 21.7335 20.7331 20.0597 20.7331 18.0002C20.7331 15.9407 19.0592 14.2669 16.9997 14.2669C14.9402 14.2669 13.2664 15.9407 13.2664 18.0002Z" fill="white" stroke="white"/>
<defs>
<linearGradient id="paint0_linear_677_2930" x1="2" y1="18" x2="32" y2="18" gradientUnits="userSpaceOnUse">
<stop stop-color="#232526"/>
<stop offset="1" stop-color="#434343"/>
</linearGradient>
</defs>
</svg>
