<svg width="34" height="36" viewBox="0 0 34 36" fill="none" xmlns="http://www.w3.org/2000/svg">
<ellipse cx="17" cy="18" rx="17" ry="18" fill="white"/>
<ellipse cx="17" cy="18" rx="15" ry="16" fill="url(#paint0_linear_677_3974)"/>
<path d="M13.1243 13.2666H20.8743C23.0565 13.2666 24.8327 15.0427 24.8327 17.2249V21.8749C24.8327 24.0571 23.0565 25.8333 20.8743 25.8333H13.1243C10.9422 25.8333 9.16602 24.0571 9.16602 21.8749V17.2249C9.16602 15.0427 10.9422 13.2666 13.1243 13.2666ZM19.916 16.6833C19.1815 16.6833 18.5827 17.2821 18.5827 18.0166V18.0333C18.5827 18.1531 18.5985 18.2689 18.6282 18.3788C18.5179 18.3491 18.4021 18.3333 18.2827 18.3333H18.266C17.525 18.3333 16.941 18.9387 16.941 19.6666C16.941 20.4075 17.5547 20.9999 18.2827 20.9999C18.4025 20.9999 18.5181 20.9844 18.6279 20.9553C18.5984 21.0653 18.5827 21.1808 18.5827 21.2999V21.3166C18.5827 22.0576 19.1881 22.6416 19.916 22.6416C20.6685 22.6416 21.2493 22.0246 21.2493 21.2999C21.2493 21.1787 21.233 21.0612 21.2025 20.9495C21.3186 20.9824 21.4406 20.9999 21.566 20.9999C22.3121 20.9999 22.8993 20.3978 22.8993 19.6666C22.8993 18.9321 22.3005 18.3333 21.566 18.3333H21.5493C21.4277 18.3333 21.3102 18.3496 21.1989 18.3801C21.2318 18.264 21.2493 18.142 21.2493 18.0166C21.2493 17.2821 20.6505 16.6833 19.916 16.6833ZM19.616 19.6666C19.616 19.5441 19.5994 19.4254 19.5682 19.3126C19.6794 19.3424 19.796 19.3583 19.916 19.3583C20.0397 19.3583 20.1593 19.3412 20.2726 19.3093C20.2411 19.4233 20.2243 19.5432 20.2243 19.6666C20.2243 19.7872 20.2406 19.9039 20.271 20.0147C20.1579 19.9834 20.0389 19.9666 19.916 19.9666C19.7968 19.9666 19.6811 19.9824 19.571 20.012C19.6004 19.9016 19.616 19.7858 19.616 19.6666ZM14.9993 22.0749C15.2831 22.0749 15.5709 21.9689 15.7946 21.7452C16.2315 21.3082 16.2315 20.5916 15.7946 20.1547L15.2898 19.6499L15.7612 19.1785C16.1982 18.7416 16.1982 18.025 15.7612 17.588C15.3243 17.1511 14.6077 17.1511 14.1708 17.588L13.6993 18.0595L13.2529 17.613C12.816 17.1761 12.0994 17.1761 11.6625 17.613C11.2255 18.05 11.2255 18.7666 11.6625 19.2035L12.1089 19.6499L11.6375 20.1214C11.2005 20.5583 11.2005 21.2749 11.6375 21.7118C11.8612 21.9355 12.1489 22.0416 12.4327 22.0416C12.7165 22.0416 13.0042 21.9355 13.2279 21.7118L13.6993 21.2404L14.2041 21.7452C14.4278 21.9689 14.7156 22.0749 14.9993 22.0749Z" fill="white" stroke="white"/>
<path d="M17.2159 12.3657C17.1454 12.3772 17.0731 12.3832 16.9995 12.3832C16.9967 12.3832 16.9939 12.3832 16.9911 12.3833V12.2665C16.9939 12.2665 16.9967 12.2665 16.9995 12.2666C17.084 12.269 17.1611 12.3069 17.2159 12.3657ZM16.4991 12.0848C16.444 12.1399 16.4012 12.2015 16.3696 12.2665H16.1897C16.3136 11.9441 16.6253 11.7165 16.9828 11.7165C17.3548 11.7165 17.6893 11.4382 17.6911 11.0282L17.6994 10.2524C17.702 10.2003 17.7453 10.1665 17.7828 10.1665H17.7911C17.812 10.1665 17.8273 10.1737 17.84 10.1869C17.8537 10.2011 17.8657 10.2244 17.8661 10.2565L17.8578 11.0358C17.8526 11.4966 17.4659 11.8832 16.9995 11.8832C16.8223 11.8832 16.6391 11.9447 16.4991 12.0848Z" fill="white" stroke="white"/>
<defs>
<linearGradient id="paint0_linear_677_3974" x1="2" y1="18" x2="32" y2="18" gradientUnits="userSpaceOnUse">
<stop stop-color="#232526"/>
<stop offset="1" stop-color="#434343"/>
</linearGradient>
</defs>
</svg>
