<svg width="16" height="17" viewBox="0 0 16 17" fill="none" xmlns="http://www.w3.org/2000/svg">
<path d="M12.084 15.7422L8.35788 14.0102C8.11107 13.8954 8.00369 13.6019 8.11851 13.3547L10.7552 7.68211C10.8698 7.43511 11.1636 7.32792 11.4103 7.44251L15.1365 9.17483C15.3834 9.28961 15.4906 9.58311 15.3758 9.82995L12.7392 15.5026C12.6243 15.7496 12.3306 15.8568 12.084 15.7422ZM3.09219 15.1233L0.618443 9.3778C0.510693 9.12758 0.626411 8.83711 0.876255 8.72955L2.10113 8.20229L3.6316 13.9537C3.77829 14.5033 4.34269 14.8311 4.89285 14.6846L6.1126 14.36L3.7405 15.3815C3.49029 15.4891 3.20001 15.3735 3.09226 15.1233L3.09219 15.1233ZM4.15125 13.8151L2.54257 7.76992C2.47257 7.50679 2.62944 7.23623 2.89226 7.16642L3.95579 6.88354L3.82772 7.83558C3.75204 8.3992 4.14722 8.91845 4.71163 8.99454L7.20626 9.33073L6.19072 12.7516C6.08619 13.1041 6.17916 13.4687 6.40529 13.726L4.75466 14.165C4.49154 14.235 4.22125 14.0785 4.15125 13.8151ZM7.53963 13.6664L7.03901 13.5176C6.77776 13.4398 6.62901 13.1655 6.70638 12.9043L8.48669 6.90742C8.56432 6.64617 8.83919 6.49742 9.09988 6.57461L10.6334 7.03033L10.6337 7.03017L10.6374 7.03154L10.6333 7.03048C10.4792 7.13217 10.3508 7.27636 10.2675 7.45564L7.6306 13.1285C7.54976 13.303 7.52166 13.4884 7.53951 13.6665L7.53963 13.6664ZM7.36129 8.8092L4.7836 8.46179C4.51382 8.42536 4.3241 8.1768 4.36054 7.90686L5.19585 1.70717C5.2321 1.43739 5.48101 1.24786 5.75022 1.28411L9.82294 1.83295C10.0925 1.86939 10.2821 2.11811 10.2458 2.3877L9.73188 6.20186L9.25282 6.05961C8.70697 5.8972 8.13326 6.20911 7.97144 6.75436L7.36129 8.8092ZM7.1991 7.82608C7.34504 7.73061 7.43266 7.59364 7.46222 7.41529C7.49147 7.23926 7.45107 7.08351 7.34141 6.94826C7.23172 6.81033 7.07922 6.72514 6.88341 6.6927C6.68516 6.65967 6.5106 6.69042 6.35997 6.78508C6.20916 6.87976 6.1196 7.0137 6.09076 7.18726C6.06269 7.35558 6.10404 7.51289 6.21482 7.65858C6.32622 7.79933 6.48122 7.88623 6.67929 7.9192C6.87772 7.95223 7.05094 7.92114 7.1991 7.82608ZM8.01091 5.28723C8.15757 5.20204 8.28866 5.11742 8.4046 5.03358C8.52032 4.9497 8.62069 4.85901 8.70569 4.76092C8.79069 4.66311 8.86091 4.55551 8.9161 4.43883C8.9711 4.32195 9.01135 4.18783 9.03641 4.03679C9.07585 3.79867 9.06829 3.58811 9.01344 3.40448C8.95875 3.22104 8.86679 3.06261 8.73741 2.92886C8.60819 2.79542 8.44866 2.68658 8.25872 2.60292C8.06904 2.51904 7.8586 2.45814 7.62829 2.41979C7.38791 2.37979 7.15016 2.36973 6.91532 2.38926C6.68044 2.40845 6.45813 2.45948 6.24826 2.54176L6.06232 3.66058C6.27522 3.52776 6.49263 3.43858 6.71404 3.39286C6.9356 3.34676 7.14297 3.33973 7.33632 3.37198C8.00716 3.49986 7.94382 4.15004 7.61007 4.43542C7.43344 4.5752 7.25588 4.71048 7.11188 4.78995C6.78438 4.97476 6.24657 5.51261 6.40744 6.20073L7.38507 6.36329C7.16288 5.80839 7.74954 5.44261 8.01094 5.28723H8.01091Z" fill="url(#paint0_linear_2239_2475)"/>
<defs>
<linearGradient id="paint0_linear_2239_2475" x1="0.578125" y1="8.53388" x2="15.4219" y2="8.53388" gradientUnits="userSpaceOnUse">
<stop stop-color="#232526"/>
<stop offset="1" stop-color="#434343"/>
</linearGradient>
</defs>
</svg>
