<svg width="16" height="17" viewBox="0 0 16 17" fill="none" xmlns="http://www.w3.org/2000/svg">
<path d="M10.3 2.68164C10.0938 2.68164 9.9 2.75414 9.79062 2.86414L6.9625 5.69383C6.85 5.8032 6.77812 6.00008 6.77812 6.2032C6.775 6.4032 6.84688 6.59695 6.94688 6.69383L14.0344 13.7813C14.1438 13.8938 14.3375 13.9657 14.5406 13.9657C14.7437 13.9657 14.9375 13.8938 15.0469 13.7813L15.4375 13.3907V7.50008L10.8062 2.86414C10.6969 2.75414 10.5031 2.68164 10.3 2.68164ZM1.45906 3.03508C1.25625 3.03508 1.06125 3.10758 0.950938 3.21789L0.5625 3.60602V9.5032L5.19375 14.1345C5.30312 14.247 5.49687 14.3188 5.7 14.3188C5.90625 14.3188 6.1 14.247 6.20937 14.1345L9.0375 11.3063C9.15 11.197 9.22188 11.0032 9.22188 10.8001C9.22188 10.5938 9.15 10.4001 9.0375 10.2907L1.96719 3.21789C1.85688 3.10758 1.66188 3.03508 1.45938 3.03508H1.45906ZM10.3031 3.57883C10.4344 3.57883 10.5562 3.63445 10.65 3.72508C10.8469 3.92195 10.8469 4.23758 10.65 4.43445C10.4562 4.6282 10.1375 4.6282 9.94375 4.43445C9.74688 4.23758 9.74688 3.92195 9.94375 3.72508C10.0406 3.63133 10.1688 3.57695 10.3031 3.57883ZM1.46563 3.93445C1.59563 3.93758 1.72 3.9907 1.81187 4.08133C2.00656 4.27508 2.00656 4.59383 1.81187 4.78758C1.61656 4.98133 1.30031 4.98133 1.105 4.78758C0.910313 4.59383 0.910313 4.27508 1.105 4.08133C1.20031 3.98445 1.33063 3.93133 1.46563 3.93445ZM8.18125 5.70008H8.18437C8.3125 5.7032 8.4375 5.75633 8.52812 5.84695C8.72188 6.0407 8.72188 6.35945 8.52812 6.5532C8.33437 6.74695 8.01562 6.74695 7.82188 6.5532C7.62813 6.35945 7.62813 6.0407 7.82188 5.84695C7.91563 5.75008 8.04687 5.70008 8.18125 5.70008ZM12.425 5.70008C12.5563 5.7032 12.6813 5.7532 12.7719 5.84695C12.9656 6.0407 12.9656 6.35945 12.7719 6.5532C12.5781 6.74695 12.2594 6.74695 12.0656 6.5532C11.8719 6.35945 11.8719 6.0407 12.0656 5.84695C12.1594 5.75008 12.2906 5.70008 12.425 5.70008ZM1.46563 6.0532C1.59563 6.05633 1.72 6.10945 1.81187 6.20008C2.00875 6.39695 2.00875 6.71258 1.81187 6.90945C1.61656 7.1032 1.30031 7.1032 1.105 6.90945C0.908125 6.71258 0.908125 6.39695 1.105 6.20008C1.20031 6.1032 1.33063 6.05008 1.46563 6.0532ZM3.58437 6.0532H3.5875C3.71875 6.05633 3.84375 6.10633 3.93438 6.20008C4.13125 6.39695 4.13125 6.71258 3.93438 6.90945C3.7375 7.10633 3.42188 7.10633 3.225 6.90945C3.02812 6.71258 3.02812 6.39695 3.225 6.20008C3.31875 6.1032 3.45 6.0532 3.58437 6.0532ZM13.6344 6.70945L14.0344 7.10945L11.2063 9.93758L10.8062 9.53758L13.6344 6.70945ZM4.79375 7.06258L5.19375 7.46258L2.36531 10.2907L1.9675 9.8907L4.79375 7.06258ZM10.3031 7.82195C10.4344 7.82508 10.5594 7.87508 10.65 7.96883C10.8438 8.16258 10.8438 8.48133 10.65 8.67508C10.4562 8.86883 10.1375 8.86883 9.94375 8.67508C9.75 8.48133 9.75 8.16258 9.94375 7.96883C10.0375 7.87195 10.1688 7.82195 10.3031 7.82195ZM14.5469 7.82195C14.6781 7.82508 14.8031 7.87508 14.8938 7.96883C15.0875 8.16258 15.0875 8.48133 14.8938 8.67508C14.7 8.86883 14.3813 8.86883 14.1875 8.67508C13.9937 8.48133 13.9937 8.16258 14.1875 7.96883C14.2812 7.87195 14.4125 7.82195 14.5469 7.82195ZM1.46563 8.17508C1.59563 8.1782 1.72 8.23133 1.81187 8.32195C2.00656 8.5157 2.00656 8.83445 1.81187 9.0282C1.61656 9.22195 1.30031 9.22195 1.105 9.0282C0.910313 8.83445 0.910313 8.5157 1.105 8.32195C1.20031 8.22508 1.33063 8.17195 1.46563 8.17508ZM5.70625 8.17508H5.70937C5.8375 8.1782 5.9625 8.23133 6.05312 8.32195C6.24687 8.5157 6.24687 8.83445 6.05312 9.0282C5.85938 9.22195 5.54063 9.22195 5.34688 9.0282C5.15313 8.83445 5.15313 8.5157 5.34688 8.32195C5.44063 8.22508 5.57188 8.17508 5.70625 8.17508ZM14.5469 9.94383C14.6781 9.94695 14.8031 9.99695 14.8938 10.0907C15.0875 10.2845 15.0875 10.6032 14.8938 10.797C14.7 10.9907 14.3813 10.9907 14.1875 10.797C13.9937 10.6032 13.9937 10.2845 14.1875 10.0907C14.2812 9.99383 14.4125 9.94383 14.5469 9.94383ZM3.58437 10.297H3.5875C3.71875 10.3001 3.84375 10.3501 3.93438 10.4438C4.12812 10.6376 4.12812 10.9563 3.93438 11.1501C3.7375 11.347 3.42188 11.347 3.225 11.1501C3.03031 10.9563 3.03031 10.6376 3.225 10.4438C3.31875 10.347 3.45 10.297 3.58437 10.297ZM7.82812 10.297C7.95937 10.3001 8.08438 10.3501 8.175 10.4438C8.36875 10.6376 8.36875 10.9563 8.175 11.1501C7.98125 11.3438 7.6625 11.3438 7.46875 11.1501C7.275 10.9563 7.275 10.6376 7.46875 10.4438C7.5625 10.347 7.69375 10.297 7.82812 10.297ZM14.5469 12.0657C14.6781 12.0688 14.8031 12.1188 14.8938 12.2126C15.0875 12.4063 15.0875 12.7251 14.8938 12.9188C14.7 13.1126 14.3813 13.1126 14.1875 12.9188C13.9937 12.7251 13.9937 12.4063 14.1875 12.2126C14.2812 12.1157 14.4125 12.0657 14.5469 12.0657ZM5.70625 12.4188H5.70937C5.8375 12.422 5.9625 12.4751 6.05312 12.5657C6.24687 12.7595 6.24687 13.0782 6.05312 13.272C5.85938 13.4657 5.54063 13.4657 5.34688 13.272C5.15313 13.0782 5.15313 12.7595 5.34688 12.5657C5.44063 12.4688 5.57188 12.4188 5.70625 12.4188Z" fill="url(#paint0_linear_1350_6562)"/>
<defs>
<linearGradient id="paint0_linear_1350_6562" x1="0.5625" y1="8.50023" x2="15.4375" y2="8.50023" gradientUnits="userSpaceOnUse">
<stop stop-color="#232526"/>
<stop offset="1" stop-color="#434343"/>
</linearGradient>
</defs>
</svg>
