<svg width="16" height="17" viewBox="0 0 16 17" fill="none" xmlns="http://www.w3.org/2000/svg">
<path d="M2.04501 1.07474L1.97229 1.37839C1.68595 2.57455 1.53345 3.87143 1.53345 5.22796C1.53345 8.14718 2.25523 10.7931 3.44117 12.7284C3.97923 13.6064 4.61779 14.3409 5.33013 14.8821C6.1642 15.5464 7.09117 15.9122 8.06067 15.9122C8.07204 15.9122 8.09651 15.9085 8.12088 15.9044C8.14035 15.9046 8.15985 15.905 8.17932 15.905C10.0584 15.905 11.7315 14.6636 12.9174 12.7284C14.1034 10.793 14.8252 8.14718 14.8252 5.22793C14.8252 3.92927 14.6734 2.69033 14.4109 1.54005L14.3383 1.22161L14.0389 1.35211C12.4476 2.04574 10.477 2.46789 8.34867 2.46814C8.28573 2.46746 8.22335 2.46627 8.1611 2.46493V2.46255C8.1206 2.46255 8.08029 2.46202 8.03985 2.46161C5.85913 2.39746 4.1182 1.89668 2.33532 1.1898L2.04501 1.07474ZM13.9455 1.97308C14.1578 2.99727 14.2838 4.08705 14.2838 5.22796C14.2838 8.05755 13.5776 10.6148 12.4558 12.4455C11.3339 14.2762 9.81957 15.3637 8.17932 15.3637C8.17323 15.3637 8.16713 15.3635 8.16107 15.3635V13.3639C8.07857 13.3646 7.99607 13.3629 7.91376 13.3588C6.18382 13.2722 4.49763 12.1428 4.10032 10.2418L4.02673 9.89008H6.9922L8.16107 10.334V3.00649C8.22188 3.0078 8.28282 3.00893 8.34426 3.00955H8.34698C10.4147 3.00955 12.3367 2.62258 13.9455 1.97305L13.9455 1.97308ZM5.2102 5.03933C6.31535 5.03933 7.21132 5.45333 7.21132 5.96402C7.21132 6.47464 6.31545 6.88855 5.21023 6.88855C4.10507 6.88855 3.2091 6.47461 3.2091 5.96399C3.2091 5.45336 4.10504 5.03936 5.21026 5.03936L5.2102 5.03933ZM11.0315 5.03933C9.92629 5.03933 9.03042 5.45333 9.03042 5.96402C9.03042 6.47464 9.92635 6.88855 11.0315 6.88855C12.1367 6.88855 13.0326 6.47461 13.0326 5.96399C13.0326 5.45336 12.1367 5.03933 11.0315 5.03933ZM4.76788 10.4741C5.22789 11.882 6.55685 12.7062 7.94295 12.7755C9.34295 12.8456 10.7629 12.1677 11.3934 10.4741H9.59823L8.21685 10.98L6.88498 10.4741H4.76785H4.76788Z" fill="url(#paint0_linear_2239_2034)"/>
<defs>
<linearGradient id="paint0_linear_2239_2034" x1="1.53345" y1="8.49346" x2="14.8252" y2="8.49346" gradientUnits="userSpaceOnUse">
<stop stop-color="#232526"/>
<stop offset="1" stop-color="#434343"/>
</linearGradient>
</defs>
</svg>
