<svg width="16" height="17" viewBox="0 0 16 17" fill="none" xmlns="http://www.w3.org/2000/svg">
<path d="M0.65625 1.15625V2.99219H2.49219V1.15625H0.65625ZM2.49219 2.99219V4.82812H4.32812V2.99219H2.49219ZM4.32812 2.99219H6.16406V1.15625H4.32812V2.99219ZM6.16406 2.99219V4.82812H8V2.99219H6.16406ZM8 2.99219H9.83594V1.15625H8V2.99219ZM9.83594 2.99219V4.82812H11.6719V2.99219H9.83594ZM11.6719 2.99219H13.5078V1.15625H11.6719V2.99219ZM13.5078 2.99219V4.82812H15.3438V2.99219H13.5078ZM13.5078 4.82812H11.6719V6.66406H13.5078V4.82812ZM13.5078 6.66406V8.5H15.3438V6.66406H13.5078ZM13.5078 8.5H11.6719V10.3359H13.5078V8.5ZM13.5078 10.3359V12.1719H15.3438V10.3359H13.5078ZM13.5078 12.1719H11.6719V14.0078H13.5078V12.1719ZM13.5078 14.0078V15.8438H15.3438V14.0078H13.5078ZM11.6719 14.0078H9.83594V15.8438H11.6719V14.0078ZM9.83594 14.0078V12.1719H8V14.0078H9.83594ZM8 14.0078H6.16406V15.8438H8V14.0078ZM6.16406 14.0078V12.1719H4.32812V14.0078H6.16406ZM4.32812 14.0078H2.49219V15.8438H4.32812V14.0078ZM2.49219 14.0078V12.1719H0.65625V14.0078H2.49219ZM2.49219 12.1719H4.32812V10.3359H2.49219V12.1719ZM2.49219 10.3359V8.5H0.65625V10.3359H2.49219ZM2.49219 8.5H4.32812V6.66406H2.49219V8.5ZM2.49219 6.66406V4.82812H0.65625V6.66406H2.49219ZM4.32812 6.66406H6.16406V4.82812H4.32812V6.66406ZM6.16406 6.66406V8.5H8V6.66406H6.16406ZM8 6.66406H9.83594V4.82812H8V6.66406ZM9.83594 6.66406V8.5H11.6719V6.66406H9.83594ZM9.83594 8.5H8V10.3359H9.83594V8.5ZM9.83594 10.3359V12.1719H11.6719V10.3359H9.83594ZM8 10.3359H6.16406V12.1719H8V10.3359ZM6.16406 10.3359V8.5H4.32812V10.3359H6.16406Z" fill="url(#paint0_linear_2239_4571)"/>
<defs>
<linearGradient id="paint0_linear_2239_4571" x1="0.65625" y1="8.5" x2="15.3437" y2="8.5" gradientUnits="userSpaceOnUse">
<stop stop-color="#232526"/>
<stop offset="1" stop-color="#434343"/>
</linearGradient>
</defs>
</svg>
