<svg width="16" height="17" viewBox="0 0 16 17" fill="none" xmlns="http://www.w3.org/2000/svg">
<path d="M5.61331 1.19727L5.10065 2.34177C4.99884 2.32977 4.89759 2.32289 4.7969 2.32227C4.46637 2.3202 4.14512 2.37877 3.84471 2.48727L3.11815 1.46973L1.74221 2.47461L2.49418 3.52639C2.26887 3.85177 2.1098 4.22952 2.04105 4.64358L0.706055 4.79005L0.873086 6.48536L2.29396 6.32911C2.45277 6.64786 2.6714 6.93448 2.93752 7.17192L2.33109 8.52739L3.87406 9.21783L4.48343 7.85645C4.84768 7.89527 5.20468 7.86045 5.53812 7.7627L6.41699 8.96677L7.40824 8.2422L7.77246 8.87208C7.31296 9.22305 6.90231 9.63436 6.55077 10.0937L5.01265 9.20798L4.20896 10.668L5.71287 11.541C5.49199 12.0702 5.3389 12.634 5.26465 13.2226H3.51565V14.9014H5.27252C5.3244 15.278 5.40915 15.6437 5.52346 15.997H10.8145C10.0671 15.6608 9.5469 14.9099 9.5469 14.0371C9.5469 12.8507 10.508 11.8887 11.6944 11.8887C12.8807 11.8887 13.8428 12.8507 13.8428 14.0371C13.8428 14.9099 13.3219 15.6609 12.5742 15.997H15.4336V6.7617L15.0684 6.56152L14.2061 8.06248C13.6798 7.83736 13.1183 7.68017 12.5313 7.60248V5.86717H10.8525V7.60061C10.2806 7.67489 9.73284 7.82508 9.21784 8.03905L8.37015 6.56155L7.24515 7.19436L6.95609 6.78905C7.17734 6.50083 7.34452 6.16623 7.44046 5.7978L8.82912 5.64645L8.66218 3.95114L7.34187 4.08105C7.18812 3.68673 6.94662 3.33252 6.63677 3.04686L7.15627 1.88767L5.61331 1.19727ZM4.75881 3.83008C5.48693 3.82258 6.10068 4.38717 6.14556 5.12205C6.19181 5.88064 5.61418 6.5328 4.85556 6.57908C4.09687 6.62542 3.44477 6.04864 3.39849 5.29002C3.35224 4.53145 3.9289 3.87933 4.68756 3.83302C4.71131 3.83158 4.73537 3.83033 4.75881 3.83008Z" fill="url(#paint0_linear_2239_215)"/>
<defs>
<linearGradient id="paint0_linear_2239_215" x1="0.706055" y1="8.59716" x2="15.4336" y2="8.59716" gradientUnits="userSpaceOnUse">
<stop stop-color="#232526"/>
<stop offset="1" stop-color="#434343"/>
</linearGradient>
</defs>
</svg>
