<svg width="16" height="17" viewBox="0 0 16 17" fill="none" xmlns="http://www.w3.org/2000/svg">
<path d="M3.83436 1.22876L3.88749 1.9122L3.36561 2.35751L4.03436 2.51907L4.29686 3.15188L4.65624 2.56813L5.33749 2.51345L4.89374 1.99126L5.05311 1.32501L4.41874 1.58595L3.83436 1.22876ZM14.5 1.50001C14.3674 1.50001 14.2402 1.55269 14.1464 1.64646C14.0527 1.74022 14 1.8674 14 2.00001C14 2.13262 14.0527 2.25979 14.1464 2.35356C14.2402 2.44733 14.3674 2.50001 14.5 2.50001C14.6326 2.50001 14.7598 2.44733 14.8535 2.35356C14.9473 2.25979 15 2.13262 15 2.00001C15 1.8674 14.9473 1.74022 14.8535 1.64646C14.7598 1.55269 14.6326 1.50001 14.5 1.50001ZM7.49374 1.82813C7.36113 1.82813 7.23395 1.88081 7.14018 1.97458C7.04641 2.06835 6.99374 2.19553 6.99374 2.32813C6.99374 2.46074 7.04641 2.58792 7.14018 2.68169C7.23395 2.77546 7.36113 2.82813 7.49374 2.82813C7.62634 2.82813 7.75352 2.77546 7.84729 2.68169C7.94106 2.58792 7.99374 2.46074 7.99374 2.32813C7.99374 2.19553 7.94106 2.06835 7.84729 1.97458C7.75352 1.88081 7.62634 1.82813 7.49374 1.82813ZM13.2406 2.04188C12.9531 2.09626 12.6875 2.26626 12.4312 2.48813C12.1937 2.6922 11.9719 2.94626 11.7844 3.22095C11.1969 3.31501 10.6094 3.55438 10.2156 3.88126C9.71249 4.29376 9.26561 5.00001 9.02186 5.72814C8.79061 5.82501 8.57186 5.94063 8.39374 6.06563C7.90936 6.40626 7.65936 7.05938 7.47499 7.62813C7.29061 8.20001 7.19999 8.70001 7.19999 8.70001L7.75624 8.80001C7.75624 8.80001 7.84061 8.33126 8.00936 7.80313C8.18123 7.27501 8.47186 6.70001 8.71874 6.52813C8.75936 6.50001 8.81249 6.46876 8.85936 6.44063C8.84061 6.61876 8.84061 6.79688 8.86873 6.96563C8.92498 7.32188 9.11874 7.66251 9.46249 7.84688C9.70623 7.97813 9.98124 7.94689 10.2125 7.85314C10.4437 7.75626 10.65 7.59688 10.8281 7.40938C11.0062 7.22188 11.1531 7.00001 11.2406 6.76563C11.3281 6.53126 11.3594 6.26563 11.2469 6.01876H11.2437C11.1219 5.75626 10.8875 5.58751 10.6375 5.51563C10.3875 5.44376 10.1187 5.44688 9.84999 5.48751C9.80311 5.49376 9.75936 5.50938 9.71249 5.51876C9.94374 5.02501 10.275 4.55938 10.5719 4.31251C10.7656 4.15313 11.0906 4.00001 11.4375 3.88751C11.3937 4.00626 11.3594 4.12501 11.3437 4.24688C11.2937 4.57501 11.3656 4.93126 11.6281 5.17501C11.8187 5.35001 12.075 5.37813 12.3 5.34063C12.5219 5.30313 12.7375 5.20313 12.9312 5.07501C13.125 4.94376 13.2969 4.78126 13.4187 4.59063C13.5406 4.40001 13.6219 4.15626 13.5437 3.91251V3.90938C13.4406 3.5947 13.1844 3.37845 12.9 3.27595C12.7781 3.2322 12.65 3.20751 12.5187 3.19282C12.6094 3.09095 12.7031 2.99563 12.7969 2.91407C13.0094 2.73157 13.225 2.6172 13.3469 2.59438L13.2406 2.04188ZM5.46249 3.1372L4.98749 3.43595L6.06561 5.16251L4.30311 5.25313L5.13124 7.05938L5.64374 6.82189L5.15936 5.77188L7.05311 5.67501L5.46249 3.1372ZM12.225 3.74063C12.4156 3.73751 12.5844 3.75938 12.7094 3.80626C12.8781 3.86563 12.9625 3.94063 13.0062 4.08126C13.0187 4.11563 13.0125 4.18438 12.9469 4.28751C12.8781 4.39376 12.7562 4.51251 12.6187 4.60626C12.4781 4.70001 12.3219 4.76564 12.2062 4.78438C12.0875 4.80626 12.0344 4.78438 12.0094 4.76251C11.9 4.66251 11.8687 4.53751 11.9 4.32813C11.925 4.15938 12.0031 3.95626 12.1187 3.74688C12.1562 3.74688 12.1906 3.74063 12.225 3.74063ZM2.96842 4.34376C2.83581 4.34376 2.70864 4.39644 2.61487 4.49021C2.5211 4.58397 2.46842 4.71115 2.46842 4.84376C2.46842 4.97637 2.5211 5.10354 2.61487 5.19731C2.70864 5.29108 2.83581 5.34376 2.96842 5.34376C3.03411 5.3438 3.09916 5.3309 3.15986 5.30579C3.22056 5.28068 3.27572 5.24386 3.32218 5.19742C3.36864 5.15099 3.4055 5.09586 3.43065 5.03517C3.45579 4.97449 3.46874 4.90945 3.46874 4.84376C3.46874 4.77807 3.45579 4.71303 3.43065 4.65235C3.4055 4.59166 3.36864 4.53653 3.32218 4.4901C3.27572 4.44366 3.22056 4.40684 3.15986 4.38173C3.09916 4.35662 3.03411 4.34372 2.96842 4.34376ZM14.0969 5.50626L13.6469 6.02501L12.9656 5.96876L13.3219 6.55626L13.0562 7.18751L13.725 7.03126L14.2437 7.47814L14.3031 6.79376L14.8875 6.43751L14.2562 6.17188L14.0969 5.50626ZM10.2375 6.02188C10.3281 6.02501 10.4125 6.03751 10.4781 6.05626C10.6125 6.09376 10.6844 6.15001 10.7344 6.25626C10.7625 6.31563 10.7656 6.42501 10.7125 6.56876C10.6594 6.71563 10.55 6.88439 10.4187 7.02501C10.2875 7.16564 10.1281 7.27813 9.99686 7.33126C9.86561 7.38438 9.78436 7.38126 9.73124 7.35314H9.72811C9.54686 7.25314 9.45936 7.10938 9.42499 6.87813C9.39374 6.68126 9.41561 6.43126 9.48124 6.16251C9.63436 6.10939 9.78749 6.06563 9.93436 6.04376C10.0437 6.02813 10.1437 6.02188 10.2375 6.02188ZM3.91249 7.64376C3.68749 7.63751 3.54686 7.69063 3.45936 7.77813C3.37186 7.86563 3.31874 8.00626 3.32499 8.23126C3.33124 8.45938 3.40624 8.75938 3.54999 9.09376C3.83749 9.76563 4.40311 10.575 5.16249 11.3375C5.92186 12.0969 6.73436 12.6594 7.40624 12.9469C7.73749 13.0906 8.03749 13.1656 8.26561 13.1719C8.49374 13.1813 8.63124 13.125 8.71874 13.0375C8.80624 12.95 8.86248 12.8125 8.85311 12.5844C8.84686 12.3563 8.77186 12.0563 8.62811 11.7219C8.34061 11.0531 7.77811 10.2406 7.01874 9.48126C6.25936 8.71876 5.44686 8.15626 4.77499 7.86876C4.44061 7.72501 4.14061 7.65001 3.91249 7.64376ZM11.1625 8.62188L10.1312 10.3094L9.22186 9.43751L8.83436 9.84376L10.2437 11.1969L11.3 9.47188L12.5094 10.4813L15.3 9.28751L15.0812 8.76876L12.6031 9.83126L11.1625 8.62188ZM2.91967 9.01876L2.36842 10.8281C3.66249 12.3625 5.17186 13.225 6.80936 13.7875L7.48436 13.5813C7.38749 13.5469 7.28436 13.5063 7.18124 13.4625C6.41874 13.1375 5.56561 12.5375 4.76561 11.7344C3.96249 10.9313 3.36249 10.0781 3.03624 9.31563C2.99217 9.21563 2.95342 9.11563 2.91967 9.01876ZM2.1753 11.4625L1.73749 12.9C2.6403 13.7438 3.58124 14.125 4.56874 14.4688L5.92499 14.0563C4.57499 13.5063 3.29999 12.7031 2.1753 11.4625ZM11.5 11.5C11.3674 11.5 11.2402 11.5527 11.1464 11.6465C11.0527 11.7402 11 11.8674 11 12C11 12.1326 11.0527 12.2598 11.1464 12.3536C11.2402 12.4473 11.3674 12.5 11.5 12.5C11.6326 12.5 11.7598 12.4473 11.8535 12.3536C11.9473 12.2598 12 12.1326 12 12C12 11.8674 11.9473 11.7402 11.8535 11.6465C11.7598 11.5527 11.6326 11.5 11.5 11.5ZM1.55655 13.4969L0.922485 15.5781L3.68124 14.7375C2.96967 14.4531 2.25061 14.0906 1.55655 13.4969Z" fill="url(#paint0_linear_2239_2489)"/>
<defs>
<linearGradient id="paint0_linear_2239_2489" x1="0.922485" y1="8.40345" x2="15.3" y2="8.40345" gradientUnits="userSpaceOnUse">
<stop stop-color="#232526"/>
<stop offset="1" stop-color="#434343"/>
</linearGradient>
</defs>
</svg>
