<svg width="16" height="17" viewBox="0 0 16 17" fill="none" xmlns="http://www.w3.org/2000/svg">
<path d="M4.33746 1.60443L0.897834 4.07087L3.89087 4.98009L7.36915 2.25852L4.33746 1.60443ZM7.86827 2.57574L4.1793 5.38699L5.77524 9.48393L6.04193 9.25096L6.17412 8.76009C6.08462 8.70178 6.00792 8.60697 5.95643 8.49099C5.90493 8.37502 5.88166 8.24466 5.89037 8.12102C5.89891 8.00099 5.93715 7.89406 5.99921 7.81658C6.06128 7.73911 6.14376 7.69537 6.23402 7.69206C6.27134 7.69069 6.3094 7.69626 6.34715 7.70862C6.38031 7.71966 6.41297 7.73586 6.44443 7.75687L6.69255 6.83562C6.69556 6.82457 6.69925 6.81372 6.70358 6.80312C6.70418 6.80178 6.70478 6.80045 6.7054 6.79912C6.70843 6.79185 6.71176 6.7847 6.7154 6.77771C6.71632 6.77611 6.71726 6.77452 6.71821 6.77293C6.7218 6.76627 6.72566 6.75975 6.72977 6.7534C6.73495 6.74559 6.74052 6.73805 6.74646 6.73081C6.74714 6.73003 6.74783 6.72926 6.74852 6.72849C6.75387 6.72206 6.7595 6.71586 6.7654 6.70993C6.77186 6.70343 6.77864 6.69724 6.78571 6.6914C6.78575 6.69138 6.78579 6.69136 6.78583 6.69134C6.79051 6.68762 6.79531 6.68406 6.80021 6.68065C6.80294 6.67855 6.80571 6.67649 6.80852 6.67449C6.81365 6.6712 6.81888 6.66807 6.82421 6.66512C6.82699 6.66343 6.82981 6.6618 6.83265 6.66021C6.83717 6.65792 6.84176 6.65575 6.8464 6.65371C6.85031 6.65177 6.85427 6.64991 6.85827 6.64815C6.86278 6.64645 6.86734 6.64487 6.87193 6.6434C6.87616 6.64181 6.88043 6.64032 6.88474 6.63893C6.88892 6.63779 6.89313 6.63675 6.89737 6.63581C6.90223 6.63449 6.90713 6.6333 6.91205 6.63224C6.91734 6.63136 6.92266 6.63063 6.92799 6.63006C6.93183 6.62946 6.93569 6.62893 6.93955 6.62849C6.93966 6.62849 6.93976 6.62849 6.93987 6.62849C6.93997 6.62846 6.94007 6.62843 6.94018 6.6284L7.99093 6.53862C8.01499 6.44889 8.05761 6.37323 8.11435 6.3195C8.1711 6.26577 8.2399 6.23593 8.31362 6.23309C8.35096 6.23171 8.38903 6.23729 8.4268 6.24965C8.52867 6.28331 8.62344 6.36474 8.69327 6.47862L9.10086 6.44384L7.8683 2.57562L7.86827 2.57574ZM4.28908 2.81343C4.42131 2.81618 4.53337 2.84486 4.60626 2.89461C4.67915 2.94435 4.70839 3.0121 4.68902 3.08637C4.66678 3.17173 4.58205 3.25919 4.45349 3.3295C4.32492 3.39981 4.16304 3.44723 4.00346 3.46131C3.92444 3.46828 3.84836 3.46685 3.77957 3.45712C3.71077 3.44738 3.65062 3.42952 3.60253 3.40456C3.55445 3.3796 3.51938 3.34802 3.49932 3.31164C3.47927 3.27525 3.47462 3.23476 3.48565 3.19249C3.49665 3.15022 3.5231 3.10699 3.56351 3.06527C3.60392 3.02355 3.65748 2.98415 3.72114 2.94933C3.78481 2.91451 3.85732 2.88494 3.93454 2.86232C4.01176 2.8397 4.09218 2.82447 4.17121 2.81749C4.21134 2.81398 4.25081 2.81261 4.28902 2.81343H4.28908ZM7.42127 3.54834C7.45859 3.54697 7.49665 3.55254 7.5344 3.5649C7.64515 3.60114 7.74725 3.69373 7.81823 3.82231C7.88921 3.95089 7.92327 4.10492 7.9129 4.25052C7.90776 4.32263 7.89187 4.39049 7.86613 4.45023C7.84039 4.50998 7.80532 4.56044 7.7629 4.59873C7.72048 4.63702 7.67156 4.6624 7.61892 4.67341C7.56628 4.68442 7.51096 4.68085 7.45612 4.6629C7.40127 4.64497 7.34797 4.61301 7.29926 4.56884C7.25056 4.52468 7.20739 4.46918 7.17224 4.40552C7.13709 4.34185 7.11063 4.27126 7.09439 4.19778C7.07814 4.12431 7.07242 4.04938 7.07755 3.97727C7.08611 3.85724 7.12435 3.75031 7.18642 3.67284C7.24849 3.59537 7.331 3.55164 7.42127 3.54834ZM0.756897 4.61593L2.2254 8.18231L5.17027 9.44418L3.73315 5.52012L0.756897 4.6159V4.61593ZM5.37833 5.16062C5.41567 5.15922 5.45375 5.16477 5.49152 5.17712C5.60227 5.21337 5.70435 5.30597 5.77532 5.43455C5.84629 5.56313 5.88033 5.71715 5.86996 5.86274C5.86482 5.93484 5.84893 6.0027 5.8232 6.06245C5.79747 6.1222 5.76239 6.17266 5.71998 6.21095C5.67756 6.24925 5.62864 6.27463 5.57601 6.28564C5.52337 6.29666 5.46805 6.29309 5.41321 6.27515C5.30245 6.23891 5.20035 6.14632 5.12937 6.01774C5.05839 5.88916 5.02434 5.73513 5.03471 5.58952C5.04326 5.46951 5.08149 5.36258 5.14355 5.28512C5.20561 5.20765 5.28808 5.16394 5.37833 5.16062ZM3.03074 5.56737C3.1082 5.56315 3.2053 5.60902 3.30321 5.69609C3.40111 5.78316 3.49284 5.90521 3.56058 6.03856C3.59647 6.10918 3.62459 6.18096 3.64335 6.24978C3.6621 6.31861 3.67112 6.38313 3.66989 6.43967C3.66865 6.49622 3.65719 6.54367 3.63616 6.57932C3.61513 6.61497 3.58493 6.63813 3.5473 6.64746C3.47129 6.66628 3.36961 6.62767 3.26464 6.54012C3.15966 6.45257 3.05998 6.32325 2.98752 6.18062C2.91509 6.03803 2.8758 5.89381 2.87828 5.77965C2.88077 5.6655 2.92483 5.59076 3.00077 5.57187C3.01033 5.56946 3.02031 5.56796 3.03074 5.56737ZM11.2618 6.82393L7.75858 7.12321L11.3136 9.6209L14.8636 9.09102L11.2618 6.82384V6.82393ZM2.21315 7.12568C2.2906 7.12144 2.38772 7.1673 2.48564 7.25437C2.58356 7.34144 2.6753 7.4635 2.74305 7.59687C2.81552 7.7395 2.85483 7.88377 2.85234 7.99796C2.84985 8.11214 2.80576 8.18689 2.72977 8.20574C2.65376 8.22457 2.55209 8.18596 2.44711 8.09842C2.34213 8.01087 2.24245 7.88156 2.16999 7.73893C2.09754 7.59632 2.05824 7.45206 2.06073 7.33789C2.06322 7.22372 2.1073 7.14899 2.18327 7.13012C2.19283 7.12776 2.20285 7.1263 2.21327 7.12574L2.21315 7.12568ZM7.13121 7.36984L5.83315 12.1882L9.44615 15.2961L10.9195 10.0315L7.13121 7.3699V7.36984ZM11.0996 7.71884C11.1965 7.72064 11.3032 7.73519 11.4105 7.76123C11.5177 7.78728 11.6222 7.82403 11.715 7.86831C11.7898 7.90407 11.8554 7.94395 11.9079 7.98567C11.9603 8.02739 11.9987 8.07014 12.0208 8.11148C12.0429 8.15281 12.0482 8.19192 12.0365 8.22657C12.0248 8.26122 11.9963 8.29074 11.9527 8.31343C11.909 8.33613 11.851 8.35157 11.7821 8.35885C11.7131 8.36614 11.6344 8.36514 11.5506 8.35591C11.4668 8.34667 11.3794 8.32939 11.2935 8.30504C11.2076 8.28069 11.1249 8.24975 11.05 8.21399C10.8988 8.14178 10.7887 8.05431 10.7441 7.97083C10.6995 7.88736 10.724 7.81471 10.8122 7.76887C10.8792 7.73405 10.9793 7.71662 11.0995 7.71887L11.0996 7.71884ZM15.2431 9.60312L11.4656 10.167L10.0024 15.3956L13.6367 14.4028L15.2431 9.60312ZM9.56165 9.94062C9.60578 9.94067 9.65033 9.95058 9.69408 9.97009C9.75765 9.99845 9.81848 10.0466 9.8731 10.1118C9.92771 10.1769 9.97505 10.2578 10.0124 10.3499C10.0498 10.4419 10.0764 10.5433 10.0908 10.6482C10.1052 10.7531 10.1071 10.8595 10.0964 10.9613C10.0747 11.1669 10.0029 11.3413 9.89677 11.4462C9.79067 11.5511 9.65895 11.5778 9.53058 11.5205C9.46702 11.4921 9.40618 11.444 9.35156 11.3788C9.29694 11.3137 9.2496 11.2328 9.21224 11.1407C9.17488 11.0487 9.14824 10.9473 9.13383 10.8424C9.11942 10.7375 9.11753 10.6311 9.12827 10.5292C9.14616 10.3598 9.19822 10.2105 9.27649 10.1042C9.35476 9.99788 9.45492 9.94043 9.56165 9.94062ZM14.3768 10.3042C14.4788 10.3012 14.5633 10.3467 14.6166 10.4333C14.6792 10.5351 14.6941 10.6859 14.6579 10.8525C14.6217 11.0191 14.5374 11.188 14.4236 11.3219C14.3098 11.4558 14.1758 11.5438 14.051 11.5665C13.9263 11.5892 13.821 11.5448 13.7584 11.4431C13.6958 11.3413 13.6809 11.1906 13.7171 11.0239C13.7533 10.8573 13.8376 10.6884 13.9514 10.5545C14.016 10.4785 14.0879 10.4165 14.1615 10.3731C14.2352 10.3298 14.3088 10.3063 14.3769 10.3043L14.3768 10.3042ZM12.2301 10.6375C12.332 10.6345 12.4165 10.68 12.4698 10.7666C12.5325 10.8683 12.5473 11.0191 12.5111 11.1857C12.4749 11.3524 12.3906 11.5212 12.2768 11.6551C12.163 11.789 12.029 11.877 11.9042 11.8997C11.7795 11.9225 11.6742 11.8781 11.6116 11.7763C11.549 11.6745 11.5342 11.5238 11.5704 11.3571C11.6066 11.1905 11.6908 11.0216 11.8046 10.8877C11.8693 10.8117 11.9411 10.7497 12.0148 10.7064C12.0885 10.663 12.1621 10.6395 12.2301 10.6375H12.2301ZM6.79271 11.0533C6.83686 11.0533 6.88144 11.0633 6.92521 11.0828C6.98877 11.1112 7.0496 11.1593 7.10421 11.2245C7.15883 11.2897 7.20616 11.3706 7.24352 11.4626C7.28087 11.5547 7.30751 11.656 7.32191 11.7609C7.33631 11.8659 7.3382 11.9723 7.32746 12.0741C7.31672 12.1759 7.29357 12.2711 7.25932 12.3543C7.22507 12.4375 7.18041 12.507 7.12786 12.559C7.07532 12.6109 7.01594 12.6442 6.9531 12.6569C6.89027 12.6697 6.82521 12.6616 6.76165 12.6332C6.69808 12.6049 6.63725 12.5567 6.58263 12.4916C6.52802 12.4264 6.48068 12.3455 6.44332 12.2534C6.40597 12.1614 6.37932 12.06 6.36492 11.9551C6.35051 11.8502 6.34863 11.7438 6.35936 11.642C6.37724 11.4725 6.42928 11.3232 6.50754 11.2169C6.5858 11.1106 6.68595 11.0531 6.79268 11.0532L6.79271 11.0533ZM13.4264 12.9555C13.5283 12.9525 13.6128 12.998 13.6661 13.0845C13.7287 13.1863 13.7436 13.337 13.7074 13.5037C13.6712 13.6703 13.5869 13.8392 13.4731 13.9731C13.3593 14.107 13.2253 14.195 13.1006 14.2177C12.9758 14.2404 12.8705 14.196 12.8079 14.0942C12.7453 13.9925 12.7305 13.8417 12.7666 13.675C12.8028 13.5084 12.8871 13.3396 13.0009 13.2056C13.0655 13.1296 13.1374 13.0676 13.2111 13.0243C13.2847 12.9809 13.3584 12.9574 13.4264 12.9554V12.9555ZM11.2285 13.5645C11.3305 13.5615 11.4149 13.607 11.4682 13.6936C11.5308 13.7953 11.5457 13.9461 11.5095 14.1127C11.4733 14.2794 11.3891 14.4482 11.2753 14.5821C11.2189 14.6484 11.157 14.7042 11.0931 14.7461C11.0291 14.7881 10.9644 14.8155 10.9027 14.8267C10.8409 14.838 10.7833 14.8328 10.7331 14.8116C10.6828 14.7905 10.6411 14.7536 10.6101 14.7032C10.5474 14.6014 10.5326 14.4507 10.5688 14.284C10.605 14.1174 10.6892 13.9486 10.8031 13.8146C10.8677 13.7386 10.9395 13.6766 11.0132 13.6333C11.0869 13.5899 11.1605 13.5664 11.2286 13.5644L11.2285 13.5645Z" fill="url(#paint0_linear_2239_311)"/>
<defs>
<linearGradient id="paint0_linear_2239_311" x1="0.756897" y1="8.50001" x2="15.2431" y2="8.50001" gradientUnits="userSpaceOnUse">
<stop stop-color="#232526"/>
<stop offset="1" stop-color="#434343"/>
</linearGradient>
</defs>
</svg>
