<svg width="16" height="17" viewBox="0 0 16 17" fill="none" xmlns="http://www.w3.org/2000/svg">
<path d="M15.4375 2.41763L12.8569 4.85307L15.3254 9.00807L15.4375 8.86876V2.41763ZM0.5625 2.45317V9.51232C0.7025 9.53051 0.870719 9.54054 1.04047 9.54232C1.41141 9.54623 1.71716 9.52201 1.88891 9.50657L3.53437 5.34298L0.5625 2.45317ZM12.7236 5.73004L12.5036 5.87242C12.4989 5.87545 12.336 5.97666 12.2882 6.00648L11.9567 6.2071L11.9614 6.20992C11.8079 6.30545 11.7652 6.33232 11.5909 6.44054C11.5025 6.49545 11.5003 6.49673 11.4164 6.54882C10.7823 6.20798 10.0943 5.94601 9.29147 5.74001C8.28172 6.04507 7.21203 6.48651 6.14391 6.9007C6.58734 7.43467 7.08016 7.60854 7.57656 7.61476C8.15219 7.62195 8.74063 7.37163 9.14587 7.0912L9.37712 6.9312L9.60919 7.26651L13.2171 9.87057L14.6268 8.93348L12.7236 5.73004ZM3.95241 5.81567L2.53469 9.40276L3.055 9.80285L4.01734 8.71207L4.09444 8.62473L4.21069 8.61748C4.25756 8.61454 4.30381 8.61316 4.34944 8.61341C4.66856 8.61548 4.95387 8.69829 5.16787 8.88717C5.32638 9.02692 5.43175 9.21298 5.49288 9.42842L5.56413 9.42398C5.93897 9.40054 6.27669 9.47788 6.52131 9.69367C6.76591 9.90951 6.88475 10.235 6.90819 10.6099L6.91038 10.6437C7.11163 10.6817 7.29178 10.7609 7.43828 10.8902C7.68291 11.106 7.80172 11.4314 7.82516 11.8063L7.83131 11.9038C7.85138 11.9101 7.87116 11.9171 7.89069 11.9244L7.95422 11.8352L8.12516 11.5953L8.21306 11.4719L8.44213 11.6351L10.2992 12.9581C10.5012 12.9083 10.6217 12.8307 10.6886 12.7366C10.7557 12.6425 10.7897 12.5032 10.7706 12.2958L8.54381 10.7011L8.31513 10.5374L8.47731 10.3109L8.68575 10.0183L8.91481 10.1815L11.4253 11.9698C11.6273 11.92 11.7478 11.8425 11.8147 11.7484C11.8818 11.6543 11.9157 11.5154 11.8968 11.3083L9.00934 9.25988L8.77997 9.09707L9.10541 8.63832L9.33488 8.80107L12.2228 10.85C12.425 10.8002 12.5455 10.7226 12.6126 10.6285C12.6797 10.5343 12.7136 10.3949 12.6945 10.1871L9.24322 7.69613C8.78525 7.96763 8.19941 8.18513 7.56956 8.17726C6.83247 8.16804 6.04403 7.81582 5.46403 6.9257C5.44109 6.8905 5.42633 6.8506 5.42083 6.80895C5.41533 6.7673 5.41923 6.72494 5.43225 6.68499C5.44527 6.64504 5.46707 6.60852 5.49606 6.5781C5.52504 6.54769 5.56047 6.52415 5.59975 6.50923C6.00644 6.3547 6.41734 6.19142 6.82922 6.02942L3.95247 5.81585L3.95241 5.81567ZM4.35559 9.17879L2.86922 10.8635C2.89819 11.0743 2.96422 11.2054 3.05319 11.2839C3.14216 11.3624 3.28053 11.4116 3.49331 11.414L4.97966 9.72941C4.95069 9.51857 4.88466 9.38738 4.79569 9.30888C4.70672 9.23038 4.56838 9.18126 4.35556 9.17882L4.35559 9.17879ZM5.70897 9.98535L4.03044 11.8879C4.05938 12.0987 4.12544 12.2299 4.21438 12.3084C4.30344 12.3868 4.44172 12.436 4.65453 12.4384L6.33306 10.5359C6.30413 10.3251 6.23806 10.1939 6.14909 10.1154C6.06016 10.0369 5.92181 9.98776 5.709 9.98529L5.70897 9.98535ZM6.62584 11.1818L5.13959 12.8665C5.16856 13.0773 5.23459 13.2084 5.32356 13.287C5.41256 13.3655 5.55091 13.4146 5.76369 13.417L7.25 11.7325C7.22103 11.5216 7.155 11.3904 7.06603 11.3119C6.97706 11.2334 6.83872 11.1843 6.62591 11.1819L6.62584 11.1818ZM7.39778 12.4048L6.18547 13.7886C6.21438 13.9998 6.28041 14.1311 6.36947 14.2097C6.45837 14.2881 6.59656 14.3373 6.80906 14.3398L8.02144 12.956C7.9925 12.7449 7.92644 12.6135 7.83738 12.5349C7.7485 12.4565 7.61031 12.4074 7.39781 12.4049L7.39778 12.4048ZM8.50222 12.5545C8.55516 12.6989 8.58575 12.8589 8.59641 13.0293L8.60366 13.145L8.345 13.4403L9.18013 14.0352C9.38212 13.9854 9.5025 13.9078 9.5695 13.8137C9.63653 13.7197 9.67053 13.5805 9.65162 13.3733L8.50225 12.5546L8.50222 12.5545Z" fill="url(#paint0_linear_2239_1084)"/>
<defs>
<linearGradient id="paint0_linear_2239_1084" x1="0.5625" y1="8.3787" x2="15.4375" y2="8.3787" gradientUnits="userSpaceOnUse">
<stop stop-color="#232526"/>
<stop offset="1" stop-color="#434343"/>
</linearGradient>
</defs>
</svg>
