<svg width="16" height="17" viewBox="0 0 16 17" fill="none" xmlns="http://www.w3.org/2000/svg">
<path d="M3.30313 1.78625L1.83345 1.82719L2.74907 2.97875L3.62501 2.66032L3.30313 1.78625ZM12.6969 1.78625L12.375 2.66063L13.25 2.97938L14.1656 1.8275L12.6969 1.78625ZM3.99688 2.04188L4.34376 2.99594L3.39063 3.34407L11.5844 7.15938L12.1906 5.85938L3.99688 2.04188ZM12.0031 2.04188L8.66876 3.595L10.3688 4.38751L12.6094 3.34438L11.6563 2.99625L12.0031 2.04188ZM5.63126 5.00938L3.80938 5.85938L4.41563 7.15938L7.33126 5.80313L5.63126 5.00938ZM13.1656 5.09688L11.6281 8.39375L12.0344 8.85938L13.7813 5.10938L13.1656 5.09688ZM2.83345 5.1L2.22095 5.1125L3.96563 8.85625L4.36876 8.39375L2.83345 5.1ZM13.7531 6.49688L12.7969 8.54688L11.7344 11.1938L9.99063 12.2344C9.89376 12.4625 9.77813 12.6719 9.64063 12.8594C9.24063 13.4125 8.65626 13.7813 8.00001 13.7813C7.34376 13.7813 6.75938 13.4125 6.35938 12.8594C6.22188 12.6688 6.10314 12.4594 6.00626 12.2281L4.28438 11.1906L3.41251 9.00313L2.2522 6.5125L1.33032 7.11875L2.7522 11.8625L5.29063 14.8969V15.7188H10.7281V14.9L13.2469 11.8656L14.6719 7.11875L13.7531 6.49688ZM8.00001 8.28125C7.55313 8.28125 7.13438 8.52813 6.81251 8.97188C6.49063 9.41251 6.28126 10.0469 6.28126 10.75C6.28126 11.4531 6.49063 12.0875 6.81251 12.5281C7.13438 12.9719 7.55313 13.2188 8.00001 13.2188C8.44688 13.2188 8.86563 12.9719 9.18751 12.5281C9.50938 12.0875 9.71876 11.4531 9.71876 10.75C9.71876 10.0469 9.50938 9.41251 9.18751 8.97188C8.86563 8.52813 8.44688 8.28125 8.00001 8.28125Z" fill="url(#paint0_linear_2239_1044)"/>
<defs>
<linearGradient id="paint0_linear_2239_1044" x1="1.33032" y1="8.7525" x2="14.6719" y2="8.7525" gradientUnits="userSpaceOnUse">
<stop stop-color="#232526"/>
<stop offset="1" stop-color="#434343"/>
</linearGradient>
</defs>
</svg>
