<svg width="16" height="17" viewBox="0 0 16 17" fill="none" xmlns="http://www.w3.org/2000/svg">
<path d="M8 1C6.5 1 5.5 2 5.5 3C5.5 4.5 6 5.5 6.5 6V6.5H9.5V6C10 5.5 10.5 4.5 10.5 3C10.5 2 9.5 1 8 1ZM6.0125 3.04156L8 3.70312L9.9875 3.04156L8.7625 6.10313L8.2375 5.89687L9.0125 3.95937L8 4.29688L6.9875 3.95937L7.7625 5.89687L7.2375 6.10313L6.0125 3.04156ZM3.40937 5.5125C2.67812 5.60625 2.01562 6.46562 2.01562 7.57188C2.01562 8.18438 2.22812 8.725 2.5375 9.1L2.90937 9.54375L2.3375 9.65C1.93438 9.72812 1.64062 9.94063 1.3875 10.2875C1.13438 10.6344 0.940625 11.1156 0.80625 11.675C0.5625 12.6813 0.50625 13.9125 0.5 15H1.8375L1.9075 15.9375H5.3L5.3625 15H6.6375C6.6375 13.9 6.625 12.6531 6.40312 11.6344C6.27812 11.075 6.09375 10.5938 5.8375 10.25C5.58125 9.90625 5.27187 9.69375 4.81875 9.625L4.24062 9.53438L4.60625 9.075C4.90312 8.70312 5.10313 8.16875 5.10313 7.57188C5.10313 6.39062 4.36562 5.51562 3.55938 5.51562L3.40937 5.5125ZM12.2719 5.5125C11.5406 5.60625 10.8781 6.46562 10.8781 7.57188C10.8781 8.18438 11.0906 8.725 11.4 9.1L11.7719 9.54375L11.2 9.65C10.7969 9.72812 10.5031 9.94063 10.25 10.2875C9.99687 10.6344 9.80312 11.1156 9.66875 11.675C9.425 12.6813 9.36875 13.9125 9.3625 15H10.7L10.7688 15.9375H14.1625L14.225 15H15.5C15.5 13.9 15.4875 12.6531 15.2656 11.6344C15.1406 11.075 14.9563 10.5938 14.7 10.25C14.4437 9.90625 14.1344 9.69375 13.6812 9.625L13.1031 9.53438L13.4688 9.075C13.7656 8.70312 13.9656 8.16875 13.9656 7.57188C13.9656 6.39062 13.2281 5.51562 12.4219 5.51562L12.2719 5.5125ZM6.5 7.03125V7.59375H9.5V7.03125H6.5ZM7 8.09375V8.65625H9V8.09375H7Z" fill="url(#paint0_linear_2239_941)"/>
<defs>
<linearGradient id="paint0_linear_2239_941" x1="0.5" y1="8.46875" x2="15.5" y2="8.46875" gradientUnits="userSpaceOnUse">
<stop stop-color="#232526"/>
<stop offset="1" stop-color="#434343"/>
</linearGradient>
</defs>
</svg>
