<svg width="34" height="36" viewBox="0 0 34 36" fill="none" xmlns="http://www.w3.org/2000/svg">
<ellipse cx="17" cy="18" rx="17" ry="18" fill="white"/>
<ellipse cx="17" cy="18" rx="15" ry="16" fill="url(#paint0_linear_677_2559)"/>
<path d="M15.4213 10.69L15.4217 10.6897C16.2943 9.98888 17.7012 9.9923 18.5883 10.6989C18.5884 10.699 18.5886 10.6991 18.5887 10.6992L24.0444 15.0638C24.3449 15.3094 24.6096 15.698 24.7811 16.1471C24.9526 16.5958 25.0149 17.0622 24.9566 17.4458L23.9077 23.7226C23.9076 23.7231 23.9075 23.7236 23.9074 23.7241C23.7061 24.8787 22.5785 25.8332 21.417 25.8332H12.5836C11.4042 25.8332 10.3028 24.9025 10.1016 23.733C10.1015 23.7326 10.1015 23.7323 10.1014 23.732L9.05179 17.4508L9.0516 17.4496C8.98612 17.0633 9.04443 16.5961 9.2154 16.1478C9.38634 15.6995 9.65415 15.3114 9.96214 15.0657L9.96301 15.065L15.4213 10.69ZM17.0003 24.1249C17.6181 24.1249 18.1253 23.6177 18.1253 22.9999V20.4999C18.1253 19.882 17.6181 19.3749 17.0003 19.3749C16.3825 19.3749 15.8753 19.882 15.8753 20.4999V22.9999C15.8753 23.6177 16.3825 24.1249 17.0003 24.1249Z" fill="white" stroke="white"/>
<defs>
<linearGradient id="paint0_linear_677_2559" x1="2" y1="18" x2="32" y2="18" gradientUnits="userSpaceOnUse">
<stop stop-color="#232526"/>
<stop offset="1" stop-color="#434343"/>
</linearGradient>
</defs>
</svg>
