<svg width="120" height="109" viewBox="0 0 120 109" fill="none" xmlns="http://www.w3.org/2000/svg">
<g clip-path="url(#clip0_1218_15118)">
<path d="M118.948 41.8072C118.905 41.8073 118.863 41.7941 118.828 41.7695L60.6047 1.22141C60.4275 1.09859 60.217 1.03295 60.0014 1.03332C59.7858 1.03369 59.5755 1.10004 59.3987 1.22346L1.59515 41.7691C1.54943 41.8012 1.49285 41.8138 1.43784 41.8041C1.38284 41.7945 1.33392 41.7634 1.30185 41.7176C1.26978 41.6719 1.25719 41.6153 1.26684 41.5603C1.2765 41.5053 1.30761 41.4564 1.35333 41.4243L59.1569 0.878687C59.4044 0.705918 59.6989 0.613047 60.0007 0.612551C60.3025 0.612055 60.5973 0.703957 60.8453 0.875911L119.068 41.4239C119.105 41.4495 119.133 41.4862 119.147 41.5287C119.162 41.5711 119.162 41.617 119.149 41.6598C119.135 41.7026 119.109 41.7399 119.072 41.7665C119.036 41.793 118.993 41.8073 118.948 41.8072Z" fill="#3F3D56"/>
<path d="M4.89844 43.2444L60.0589 2.36377L115.638 46.1532L62.901 77.4164L34.2694 70.8901L4.89844 43.2444Z" fill="#F8EA0E"/>
<path d="M36.6855 96.7262H9.43492C9.2676 96.7264 9.10187 96.6936 8.94721 96.6298C8.79256 96.5659 8.65202 96.4721 8.53363 96.3539C8.41523 96.2356 8.32131 96.0952 8.25723 95.9406C8.19314 95.7861 8.16016 95.6204 8.16016 95.4531C8.16016 95.2857 8.19314 95.12 8.25723 94.9655C8.32131 94.8109 8.41523 94.6705 8.53363 94.5522C8.65202 94.434 8.79256 94.3403 8.94721 94.2764C9.10187 94.2125 9.2676 94.1797 9.43492 94.1799H36.6855C36.8528 94.1797 37.0186 94.2125 37.1732 94.2764C37.3279 94.3403 37.4684 94.434 37.5868 94.5522C37.7052 94.6705 37.7991 94.8109 37.8632 94.9655C37.9273 95.12 37.9603 95.2857 37.9603 95.4531C37.9603 95.6204 37.9273 95.7861 37.8632 95.9406C37.7991 96.0952 37.7052 96.2356 37.5868 96.3539C37.4684 96.4721 37.3279 96.5659 37.1732 96.6298C37.0186 96.6936 36.8528 96.7264 36.6855 96.7262Z" fill="#FB1515"/>
<path d="M19.2118 91.2526H9.43492C9.2676 91.2528 9.10187 91.22 8.94721 91.1561C8.79256 91.0922 8.65202 90.9985 8.53363 90.8802C8.41523 90.762 8.32131 90.6216 8.25723 90.467C8.19314 90.3124 8.16016 90.1468 8.16016 89.9794C8.16016 89.8121 8.19314 89.6464 8.25723 89.4918C8.32131 89.3373 8.41523 89.1969 8.53363 89.0786C8.65202 88.9604 8.79256 88.8666 8.94721 88.8027C9.10187 88.7389 9.2676 88.7061 9.43492 88.7063H19.2118C19.3792 88.7061 19.5449 88.7389 19.6995 88.8027C19.8542 88.8666 19.9947 88.9604 20.1131 89.0786C20.2315 89.1969 20.3254 89.3373 20.3895 89.4918C20.4536 89.6464 20.4866 89.8121 20.4866 89.9794C20.4866 90.1468 20.4536 90.3124 20.3895 90.467C20.3254 90.6216 20.2315 90.762 20.1131 90.8802C19.9947 90.9985 19.8542 91.0922 19.6995 91.1561C19.5449 91.22 19.3792 91.2528 19.2118 91.2526Z" fill="#FB1515"/>
<path d="M60.833 66.0144C60.6259 66.0146 60.4207 65.9744 60.229 65.896L26.2098 51.7805V7.59649C26.2103 7.20578 26.3657 6.83121 26.642 6.55494C26.9182 6.27867 27.2928 6.12326 27.6835 6.1228H92.9467C93.3374 6.12326 93.712 6.27867 93.9882 6.55494C94.2645 6.83121 94.4199 7.20578 94.4204 7.59649V51.8113L94.3564 51.8387L61.4553 65.8891C61.2583 65.9719 61.0467 66.0145 60.833 66.0144Z" fill="white"/>
<path d="M60.8339 66.1188C60.613 66.1191 60.3942 66.0763 60.1898 65.9928L26.1055 51.8501V7.59579C26.1059 7.17718 26.2724 6.77584 26.5685 6.47983C26.8645 6.18383 27.2658 6.01732 27.6844 6.01685H92.9476C93.3662 6.01732 93.7675 6.18383 94.0635 6.47983C94.3595 6.77584 94.526 7.17718 94.5265 7.59579V51.8801L61.4975 65.9852C61.2874 66.0736 61.0618 66.119 60.8339 66.1188ZM26.5265 51.5689L60.3503 65.6035C60.6658 65.7315 61.0191 65.7294 61.333 65.5976L94.1055 51.6022V7.59579C94.1051 7.28881 93.983 6.99451 93.7659 6.77744C93.5489 6.56037 93.2546 6.43826 92.9476 6.4379H27.6844C27.3774 6.43826 27.0831 6.56037 26.8661 6.77744C26.649 6.99451 26.5269 7.28881 26.5265 7.59579L26.5265 51.5689Z" fill="#3F3D56"/>
<path d="M118.526 41.3857H118.484L94.3158 51.7057L61.2485 65.8257C61.1192 65.8801 60.9806 65.9084 60.8404 65.9092C60.7002 65.9099 60.5613 65.883 60.4315 65.83L26.3158 51.6763L1.55366 41.4026L1.51583 41.3857H1.47368C1.08297 41.3862 0.708385 41.5416 0.43211 41.8179C0.155834 42.0941 0.000433526 42.4687 0 42.8594V106.859C0.000434083 107.25 0.155834 107.625 0.43211 107.901C0.708385 108.177 1.08297 108.333 1.47368 108.333H118.526C118.917 108.333 119.292 108.177 119.568 107.901C119.844 107.625 120 107.25 120 106.859V42.8594C120 42.4687 119.844 42.0941 119.568 41.8179C119.292 41.5416 118.917 41.3862 118.526 41.3857ZM119.579 106.859C119.579 107.139 119.468 107.406 119.271 107.604C119.073 107.801 118.805 107.912 118.526 107.912H1.47368C1.19454 107.912 0.926868 107.801 0.729486 107.604C0.532103 107.406 0.421164 107.139 0.421053 106.859V42.8594C0.421434 42.5872 0.527023 42.3257 0.715743 42.1295C0.904463 41.9333 1.1617 41.8177 1.4337 41.8068L26.3158 52.131L60.2695 66.2194C60.6371 66.369 61.0489 66.3667 61.4148 66.2131L94.3158 52.1626L118.568 41.8068C118.84 41.8185 119.097 41.9345 119.285 42.1305C119.473 42.3266 119.578 42.5877 119.579 42.8594V106.859Z" fill="#3F3D56"/>
<path d="M60.4941 53.4852C59.2382 53.4875 58.0156 53.0814 57.0107 52.3281L56.9484 52.2813L43.8303 42.2376C43.2228 41.7721 42.7129 41.1916 42.3297 40.529C41.9466 39.8665 41.6977 39.1349 41.5973 38.3762C41.4968 37.6175 41.5468 36.8464 41.7444 36.107C41.942 35.3676 42.2832 34.6743 42.7487 34.0668C43.2142 33.4592 43.7948 32.9494 44.4573 32.5662C45.1199 32.1831 45.8514 31.9342 46.6101 31.8337C47.3689 31.7333 48.14 31.7833 48.8794 31.9808C49.6188 32.1784 50.3121 32.5197 50.9196 32.9852L59.4165 39.5005L79.4961 13.3138C79.9618 12.7064 80.5425 12.1967 81.2052 11.8138C81.8679 11.4309 82.5995 11.1823 83.3583 11.0821C84.117 10.9819 84.8881 11.0322 85.6275 11.2301C86.3668 11.4279 87.0599 11.7694 87.6673 12.2352L87.5424 12.4047L87.6705 12.2376C88.8957 13.1792 89.6973 14.5683 89.8995 16.1002C90.1017 17.6321 89.688 19.1816 88.7492 20.4089L65.1308 51.2107C64.5845 51.9205 63.8821 52.4949 63.078 52.8893C62.2739 53.2838 61.3897 53.4877 60.4941 53.4852Z" fill="#2F3190"/>
</g>
<defs>
<clipPath id="clip0_1218_15118">
<rect width="120" height="107.721" fill="white" transform="translate(0 0.612061)"/>
</clipPath>
</defs>
</svg>
