<svg width="21" height="24" viewBox="0 0 21 24" fill="none" xmlns="http://www.w3.org/2000/svg">
<path d="M1.06715 0.861375L0.95807 1.31686C0.528555 3.11109 0.299805 5.05641 0.299805 7.0912C0.299805 11.47 1.38248 15.4389 3.16138 18.3419C3.96848 19.6589 4.92632 20.7606 5.99484 21.5725C7.24593 22.5689 8.63638 23.1176 10.0906 23.1176C10.1077 23.1176 10.1444 23.112 10.181 23.1059C10.2102 23.1062 10.2394 23.1068 10.2686 23.1068C13.0872 23.1068 15.5969 21.2447 17.3758 18.3418C19.1547 15.4388 20.2374 11.47 20.2374 7.09116C20.2374 5.14317 20.0097 3.28477 19.616 1.55934L19.5071 1.08169L19.0579 1.27744C16.671 2.31787 13.7151 2.95111 10.5226 2.95148C10.4282 2.95045 10.3347 2.94867 10.2413 2.94666V2.94309C10.1805 2.94309 10.1201 2.9423 10.0594 2.94169C6.78834 2.84545 4.17693 2.09428 1.50262 1.03397L1.06715 0.861375ZM18.9179 2.20889C19.2363 3.74517 19.4253 5.37984 19.4253 7.0912C19.4253 11.3356 18.3661 15.1715 16.6834 17.9176C15.0006 20.6636 12.729 22.2948 10.2686 22.2948C10.2595 22.2948 10.2503 22.2945 10.2412 22.2945V19.2951C10.1175 19.2961 9.99374 19.2937 9.87027 19.2874C7.27537 19.1576 4.74609 17.4635 4.15012 14.612L4.03973 14.0844H8.48793L10.2412 14.7503V3.759C10.3325 3.76097 10.4239 3.76266 10.516 3.76359H10.5201C13.6217 3.76359 16.5047 3.18314 18.9179 2.20884L18.9179 2.20889ZM5.81493 6.80827C7.47266 6.80827 8.81662 7.42927 8.81662 8.1953C8.81662 8.96123 7.4728 9.58209 5.81498 9.58209C4.15724 9.58209 2.81329 8.96119 2.81329 8.19525C2.81329 7.42931 4.1572 6.80831 5.81502 6.80831L5.81493 6.80827ZM14.5469 6.80827C12.8891 6.80827 11.5453 7.42927 11.5453 8.1953C11.5453 8.96123 12.8892 9.58209 14.5469 9.58209C16.2047 9.58209 17.5485 8.96119 17.5485 8.19525C17.5485 7.42931 16.2046 6.80827 14.5469 6.80827ZM5.15146 14.9604C5.84146 17.0723 7.83491 18.3086 9.91405 18.4126C12.0141 18.5176 14.144 17.5009 15.0898 14.9604H12.397L10.3249 15.7192L8.3271 14.9604H5.15141H5.15146Z" fill="url(#paint0_linear_3062_12553)"/>
<defs>
<linearGradient id="paint0_linear_3062_12553" x1="0.299805" y1="11.9895" x2="20.2374" y2="11.9895" gradientUnits="userSpaceOnUse">
<stop stop-color="#232526"/>
<stop offset="1" stop-color="#434343"/>
</linearGradient>
</defs>
</svg>
