<svg width="14" height="16" viewBox="0 0 14 16" fill="none" xmlns="http://www.w3.org/2000/svg">
<path d="M5.04832 0.682064C4.98055 0.569112 4.85849 0.5 4.72676 0.5H1.10141C0.809922 0.5 0.62988 0.817989 0.779848 1.06794L4.82985 7.81794C4.89762 7.93089 5.01968 8 5.15141 8H8.77676C9.06825 8 9.24829 7.68201 9.09832 7.43206L5.04832 0.682064Z" fill="#C52229"/>
<path fill-rule="evenodd" clip-rule="evenodd" d="M4.72619 0.125H1.10083C0.517859 0.125 0.157773 0.760979 0.457709 1.26087L4.50771 8.01087C4.64325 8.23678 4.88738 8.375 5.15083 8.375H8.77619C9.35916 8.375 9.71924 7.73902 9.41931 7.23913L5.36931 0.489128C5.23376 0.263225 4.98963 0.125 4.72619 0.125ZM4.72619 0.5C4.85791 0.5 4.97997 0.569112 5.04775 0.682064L9.09775 7.43206C9.24771 7.68201 9.06767 8 8.77619 8H5.15083C5.0191 8 4.89704 7.93089 4.82927 7.81794L0.779269 1.06794C0.629301 0.817989 0.809343 0.5 1.10083 0.5H4.72619Z" fill="#9B0F15"/>
<path d="M8.95363 0.682064C9.0214 0.569112 9.14347 0.5 9.27519 0.5H12.9005C13.192 0.5 13.3721 0.817989 13.2221 1.06794L9.17211 7.81794C9.10433 7.93089 8.98227 8 8.85055 8H5.22519C4.9337 8 4.75366 7.68201 4.90363 7.43206L8.95363 0.682064Z" fill="#F1333B"/>
<path fill-rule="evenodd" clip-rule="evenodd" d="M9.27577 0.125H12.9011C13.4841 0.125 13.8442 0.760979 13.5442 1.26087L9.49424 8.01087C9.3587 8.23678 9.11457 8.375 8.85112 8.375H5.22577C4.6428 8.375 4.28271 7.73902 4.58265 7.23913L8.63265 0.489128C8.76819 0.263225 9.01232 0.125 9.27577 0.125ZM9.27577 0.5C9.14404 0.5 9.02198 0.569112 8.95421 0.682064L4.90421 7.43206C4.75424 7.68201 4.93428 8 5.22577 8H8.85112C8.98285 8 9.10491 7.93089 9.17268 7.81794L13.2227 1.06794C13.3727 0.817989 13.1926 0.5 12.9011 0.5H9.27577Z" fill="#9B0F15"/>
<path fill-rule="evenodd" clip-rule="evenodd" d="M9.34418 0.712883C9.43373 0.764881 9.46418 0.879629 9.41218 0.969181L7.72468 3.87543C7.67268 3.96498 7.55793 3.99543 7.46838 3.94343C7.37883 3.89143 7.34839 3.77668 7.40038 3.68713L9.08788 0.78088C9.13988 0.691329 9.25463 0.660885 9.34418 0.712883Z" fill="#FE666D"/>
<path fill-rule="evenodd" clip-rule="evenodd" d="M1.09332 0.712883C1.00377 0.764881 0.973323 0.879629 1.02532 0.969181L2.71282 3.87543C2.76482 3.96498 2.87957 3.99543 2.96912 3.94343C3.05867 3.89143 3.08911 3.77668 3.03712 3.68713L1.34962 0.78088C1.29762 0.691329 1.18287 0.660885 1.09332 0.712883Z" fill="#DF3840"/>
<path d="M4.65625 1.11523C4.65625 1.24791 4.55132 1.35547 4.42188 1.35547C4.29243 1.35547 4.1875 1.24791 4.1875 1.11523C4.1875 0.982557 4.29243 0.875 4.42188 0.875C4.55132 0.875 4.65625 0.982557 4.65625 1.11523Z" fill="#AA161D"/>
<path d="M3.83308 1.17383C3.83308 1.33887 3.70255 1.47266 3.54154 1.47266C3.38053 1.47266 3.25 1.33887 3.25 1.17383C3.25 1.00879 3.38053 0.875 3.54154 0.875C3.70255 0.875 3.83308 1.00879 3.83308 1.17383Z" fill="#AA161D"/>
<path d="M4.56355 2.0293C4.56355 2.19434 4.43302 2.32812 4.27201 2.32812C4.111 2.32812 3.98047 2.19434 3.98047 2.0293C3.98047 1.86426 4.111 1.73047 4.27201 1.73047C4.43302 1.73047 4.56355 1.86426 4.56355 2.0293Z" fill="#AA161D"/>
<path d="M5.22904 1.62207C5.22904 1.70459 5.16378 1.77148 5.08327 1.77148C5.00276 1.77148 4.9375 1.70459 4.9375 1.62207C4.9375 1.53955 5.00276 1.47266 5.08327 1.47266C5.16378 1.47266 5.22904 1.53955 5.22904 1.62207Z" fill="#AA161D"/>
<path d="M3.68802 1.87988C3.68802 1.9624 3.62276 2.0293 3.54225 2.0293C3.46175 2.0293 3.39648 1.9624 3.39648 1.87988C3.39648 1.79736 3.46175 1.73047 3.54225 1.73047C3.62276 1.73047 3.68802 1.79736 3.68802 1.87988Z" fill="#AA161D"/>
<path d="M2.87552 0.96582C2.87552 1.04834 2.81026 1.11523 2.72975 1.11523C2.64925 1.11523 2.58398 1.04834 2.58398 0.96582C2.58398 0.883301 2.64925 0.816406 2.72975 0.816406C2.81026 0.816406 2.87552 0.883301 2.87552 0.96582Z" fill="#AA161D"/>
<path d="M5.08451 2.66504C5.08451 2.74756 5.01925 2.81445 4.93874 2.81445C4.85823 2.81445 4.79297 2.74756 4.79297 2.66504C4.79297 2.58252 4.85823 2.51562 4.93874 2.51562C5.01925 2.51562 5.08451 2.58252 5.08451 2.66504Z" fill="#AA161D"/>
<path d="M4.33451 2.81445C4.33451 2.89697 4.26925 2.96387 4.18874 2.96387C4.10823 2.96387 4.04297 2.89697 4.04297 2.81445C4.04297 2.73193 4.10823 2.66504 4.18874 2.66504C4.26925 2.66504 4.33451 2.73193 4.33451 2.81445Z" fill="#AA161D"/>
<path d="M5.78697 2.27246C5.78697 2.40676 5.68075 2.51562 5.54973 2.51562C5.41871 2.51562 5.3125 2.40676 5.3125 2.27246C5.3125 2.13817 5.41871 2.0293 5.54973 2.0293C5.68075 2.0293 5.78697 2.13817 5.78697 2.27246Z" fill="#AA161D"/>
<path d="M6.09623 2.96387C6.09623 3.04639 6.03096 3.11328 5.95046 3.11328C5.86995 3.11328 5.80469 3.04639 5.80469 2.96387C5.80469 2.88135 5.86995 2.81445 5.95046 2.81445C6.03096 2.81445 6.09623 2.88135 6.09623 2.96387Z" fill="#AA161D"/>
<path d="M12.0625 10.4375C12.0625 13.2334 9.79594 15.5 7 15.5C4.20406 15.5 1.9375 13.2334 1.9375 10.4375C1.9375 7.64156 4.20406 5.375 7 5.375C9.79594 5.375 12.0625 7.64156 12.0625 10.4375Z" fill="#FFBB0D"/>
<path fill-rule="evenodd" clip-rule="evenodd" d="M12.4375 10.4375C12.4375 13.4405 10.003 15.875 7 15.875C3.99695 15.875 1.5625 13.4405 1.5625 10.4375C1.5625 7.43445 3.99695 5 7 5C10.003 5 12.4375 7.43445 12.4375 10.4375ZM7 15.5C9.79594 15.5 12.0625 13.2334 12.0625 10.4375C12.0625 7.64156 9.79594 5.375 7 5.375C4.20406 5.375 1.9375 7.64156 1.9375 10.4375C1.9375 13.2334 4.20406 15.5 7 15.5Z" fill="#E89B05"/>
<path fill-rule="evenodd" clip-rule="evenodd" d="M2.3125 10.625C2.20895 10.625 2.125 10.5411 2.125 10.4375C2.125 7.74511 4.30761 5.5625 7 5.5625C7.10355 5.5625 7.1875 5.64645 7.1875 5.75C7.1875 5.85355 7.10355 5.9375 7 5.9375C4.51472 5.9375 2.5 7.95222 2.5 10.4375C2.5 10.5411 2.41605 10.625 2.3125 10.625Z" fill="#E8AA0A"/>
<path fill-rule="evenodd" clip-rule="evenodd" d="M11.6875 10.25C11.7911 10.25 11.875 10.3339 11.875 10.4375C11.875 13.1299 9.69239 15.3125 7 15.3125C6.89645 15.3125 6.8125 15.2286 6.8125 15.125C6.8125 15.0214 6.89645 14.9375 7 14.9375C9.48528 14.9375 11.5 12.9228 11.5 10.4375C11.5 10.3339 11.5839 10.25 11.6875 10.25Z" fill="#E8AA0A"/>
<path d="M10.75 10.4375C10.75 12.5086 9.07107 14.1875 7 14.1875C4.92893 14.1875 3.25 12.5086 3.25 10.4375C3.25 8.36643 4.92893 6.6875 7 6.6875C9.07107 6.6875 10.75 8.36643 10.75 10.4375Z" fill="#FFDD28"/>
<path fill-rule="evenodd" clip-rule="evenodd" d="M11.125 10.4375C11.125 12.7157 9.27817 14.5625 7 14.5625C4.72183 14.5625 2.875 12.7157 2.875 10.4375C2.875 8.15933 4.72183 6.3125 7 6.3125C9.27817 6.3125 11.125 8.15933 11.125 10.4375ZM7 14.1875C9.07107 14.1875 10.75 12.5086 10.75 10.4375C10.75 8.36643 9.07107 6.6875 7 6.6875C4.92893 6.6875 3.25 8.36643 3.25 10.4375C3.25 12.5086 4.92893 14.1875 7 14.1875Z" fill="#E89B05"/>
<path fill-rule="evenodd" clip-rule="evenodd" d="M7 13.625C8.76041 13.625 10.1875 12.1979 10.1875 10.4375C10.1875 10.3339 10.2714 10.25 10.375 10.25C10.4786 10.25 10.5625 10.3339 10.5625 10.4375C10.5625 12.405 8.96751 14 7 14C6.89645 14 6.8125 13.9161 6.8125 13.8125C6.8125 13.7089 6.89645 13.625 7 13.625Z" fill="#ECC704"/>
<path fill-rule="evenodd" clip-rule="evenodd" d="M7 7.25C5.23959 7.25 3.8125 8.67709 3.8125 10.4375C3.8125 10.5411 3.72855 10.625 3.625 10.625C3.52145 10.625 3.4375 10.5411 3.4375 10.4375C3.4375 8.46999 5.03249 6.875 7 6.875C7.10355 6.875 7.1875 6.95895 7.1875 7.0625C7.1875 7.16605 7.10355 7.25 7 7.25Z" fill="#FFEF9C"/>
</svg>
