<svg width="32" height="32" viewBox="0 0 32 32" fill="none" xmlns="http://www.w3.org/2000/svg">
<path d="M26.6654 14.6667C26.6654 20.5577 21.8897 25.3333 15.9987 25.3333C10.1077 25.3333 5.33203 20.5577 5.33203 14.6667C5.33203 8.77563 10.1077 4 15.9987 4C21.8897 4 26.6654 8.77563 26.6654 14.6667Z" fill="#FFBB0D"/>
<path fill-rule="evenodd" clip-rule="evenodd" d="M27.4565 14.6677C27.4565 20.9951 22.3272 26.1245 15.9998 26.1245C9.67235 26.1245 4.54297 20.9951 4.54297 14.6677C4.54297 8.34032 9.67235 3.21094 15.9998 3.21094C22.3272 3.21094 27.4565 8.34032 27.4565 14.6677ZM15.9998 25.3344C21.8908 25.3344 26.6664 20.5588 26.6664 14.6677C26.6664 8.77669 21.8908 4.00106 15.9998 4.00106C10.1087 4.00106 5.33309 8.77669 5.33309 14.6677C5.33309 20.5588 10.1087 25.3344 15.9998 25.3344Z" fill="#E89B05"/>
<path fill-rule="evenodd" clip-rule="evenodd" d="M6.12293 15.0625C5.90474 15.0625 5.72786 14.8856 5.72786 14.6674C5.72786 8.99459 10.3266 4.39583 15.9995 4.39583C16.2177 4.39583 16.3945 4.57271 16.3945 4.7909C16.3945 5.00908 16.2177 5.18596 15.9995 5.18596C10.763 5.18596 6.51799 9.43096 6.51799 14.6674C6.51799 14.8856 6.34111 15.0625 6.12293 15.0625Z" fill="#E8AA0A"/>
<path fill-rule="evenodd" clip-rule="evenodd" d="M25.8771 14.2734C26.0953 14.2734 26.2721 14.4503 26.2721 14.6685C26.2721 20.3414 21.6734 24.9401 16.0005 24.9401C15.7823 24.9401 15.6055 24.7632 15.6055 24.545C15.6055 24.3269 15.7823 24.15 16.0005 24.15C21.237 24.15 25.482 19.905 25.482 14.6685C25.482 14.4503 25.6589 14.2734 25.8771 14.2734Z" fill="#E8AA0A"/>
<path d="M23.9001 14.6669C23.9001 19.0306 20.3626 22.5681 15.9989 22.5681C11.6352 22.5681 8.09766 19.0306 8.09766 14.6669C8.09766 10.3031 11.6352 6.76562 15.9989 6.76562C20.3626 6.76562 23.9001 10.3031 23.9001 14.6669Z" fill="#FFDD28"/>
<path fill-rule="evenodd" clip-rule="evenodd" d="M24.6913 14.6679C24.6913 19.468 20.8001 23.3593 16 23.3593C11.1998 23.3593 7.30859 19.468 7.30859 14.6679C7.30859 9.86782 11.1998 5.97656 16 5.97656C20.8001 5.97656 24.6913 9.86782 24.6913 14.6679ZM16 22.5692C20.3637 22.5692 23.9012 19.0317 23.9012 14.6679C23.9012 10.3042 20.3637 6.76669 16 6.76669C11.6362 6.76669 8.09872 10.3042 8.09872 14.6679C8.09872 19.0317 11.6362 22.5692 16 22.5692Z" fill="#E89B05"/>
<path fill-rule="evenodd" clip-rule="evenodd" d="M15.9997 21.3837C19.7089 21.3837 22.7157 18.3768 22.7157 14.6677C22.7157 14.4495 22.8926 14.2726 23.1108 14.2726C23.329 14.2726 23.5059 14.4495 23.5059 14.6677C23.5059 18.8132 20.1452 22.1738 15.9997 22.1738C15.7815 22.1738 15.6046 21.997 15.6046 21.7788C15.6046 21.5606 15.7815 21.3837 15.9997 21.3837Z" fill="#ECC704"/>
<path fill-rule="evenodd" clip-rule="evenodd" d="M16.0003 7.95223C12.2911 7.95223 9.28426 10.9591 9.28426 14.6683C9.28426 14.8865 9.10739 15.0633 8.8892 15.0633C8.67102 15.0633 8.49414 14.8865 8.49414 14.6683C8.49414 10.5227 11.8548 7.16211 16.0003 7.16211C16.2185 7.16211 16.3954 7.33898 16.3954 7.55717C16.3954 7.77536 16.2185 7.95223 16.0003 7.95223Z" fill="#FFEF9C"/>
<path d="M3.92662 25.1836L2.90902 23.1484C2.79821 22.9268 2.95937 22.666 3.20716 22.666L7.66782 22.666C7.85192 22.666 8.00115 22.8153 8.00115 22.9993L8.00115 27.666C8.00115 27.8501 7.85192 27.9993 7.66782 27.9993L3.20716 27.9993C2.95937 27.9993 2.79821 27.7386 2.90902 27.5169L3.92662 25.4818C3.97354 25.3879 3.97354 25.2775 3.92662 25.1836Z" fill="#C52229"/>
<path d="M28.0757 25.1836L29.0933 23.1484C29.2041 22.9268 29.0429 22.666 28.7951 22.666L24.3345 22.666C24.1504 22.666 24.0012 22.8153 24.0012 22.9993L24.0012 27.666C24.0012 27.8501 24.1504 27.9993 24.3345 27.9993L28.7951 27.9993C29.0429 27.9993 29.2041 27.7386 29.0933 27.5169L28.0757 25.4818C28.0288 25.3879 28.0288 25.2775 28.0757 25.1836Z" fill="#C52229"/>
<path fill-rule="evenodd" clip-rule="evenodd" d="M3.25624 25.3333L2.31318 23.4472C1.98073 22.7823 2.46422 22 3.20761 22L7.66826 22C8.22055 22 8.66826 22.4477 8.66826 23L8.66826 27.6667C8.66826 28.219 8.22055 28.6667 7.66826 28.6667L3.20761 28.6667C2.46422 28.6667 1.98073 27.8843 2.31318 27.2195L3.25624 25.3333ZM3.33058 25.482C3.33065 25.4822 3.33071 25.4823 3.33078 25.4824L3.62892 25.3333L3.33077 25.4824L3.33058 25.482ZM28.747 25.3333L29.69 23.4472C30.0225 22.7823 29.539 22 28.7956 22L24.3349 22C23.7826 22 23.3349 22.4477 23.3349 23L23.3349 27.6667C23.3349 28.219 23.7826 28.6667 24.3349 28.6667L28.7956 28.6667C29.539 28.6667 30.0225 27.8844 29.69 27.2195L28.747 25.3333ZM29.0937 23.1491L28.0761 25.1843C28.0292 25.2781 28.0292 25.3886 28.0761 25.4824L29.0937 27.5176C29.2045 27.7392 29.0434 28 28.7956 28L24.3349 28C24.1508 28 24.0016 27.8508 24.0016 27.6667L24.0016 23C24.0016 22.8159 24.1508 22.6667 24.3349 22.6667L28.7956 22.6667C29.0434 22.6667 29.2045 22.9274 29.0937 23.1491ZM2.90947 23.1491L3.92706 25.1843C3.97398 25.2781 3.97398 25.3886 3.92706 25.4824L2.90947 27.5176C2.79865 27.7392 2.95981 28 3.20761 28L7.66826 28C7.85236 28 8.0016 27.8508 8.0016 27.6667L8.0016 23C8.0016 22.8159 7.85236 22.6667 7.66826 22.6667L3.20761 22.6667C2.95981 22.6667 2.79865 22.9274 2.90947 23.1491Z" fill="#9B0F15"/>
<path fill-rule="evenodd" clip-rule="evenodd" d="M3.38727 22.9681C3.44831 22.8713 3.55479 22.8125 3.66927 22.8125H5.08594C5.27003 22.8125 5.41927 22.9617 5.41927 23.1458C5.41927 23.3299 5.27003 23.4792 5.08594 23.4792H4.19819L4.88665 24.9187C4.96608 25.0848 4.89583 25.2838 4.72976 25.3632C4.56368 25.4426 4.36466 25.3724 4.28523 25.2063L3.36856 23.2897C3.31916 23.1864 3.32623 23.065 3.38727 22.9681Z" fill="#DF3840"/>
<path d="M25.3359 26.334L25.3359 21.6673C25.3359 21.4832 25.1867 21.334 25.0026 21.334L7.0026 21.334C6.81851 21.334 6.66927 21.4832 6.66927 21.6673L6.66927 26.334C6.66927 26.5181 6.81851 26.6673 7.0026 26.6673L25.0026 26.6673C25.1867 26.6673 25.3359 26.5181 25.3359 26.334Z" fill="#F1333B"/>
<path fill-rule="evenodd" clip-rule="evenodd" d="M26.002 21.666L26.002 26.3327C26.002 26.885 25.5542 27.3327 25.002 27.3327L7.00195 27.3327C6.44967 27.3327 6.00195 26.885 6.00195 26.3327L6.00195 21.666C6.00195 21.1137 6.44967 20.666 7.00195 20.666L25.002 20.666C25.5542 20.666 26.002 21.1137 26.002 21.666ZM25.3353 21.666L25.3353 26.3327C25.3353 26.5168 25.186 26.666 25.002 26.666L7.00195 26.666C6.81786 26.666 6.66862 26.5168 6.66862 26.3327L6.66862 21.666C6.66862 21.4819 6.81786 21.3327 7.00195 21.3327L25.002 21.3327C25.186 21.3327 25.3353 21.4819 25.3353 21.666Z" fill="#9B0F15"/>
<path d="M24.4141 24.1259C24.2253 24.1259 24.0723 23.9766 24.0723 23.7924C24.0723 23.6083 24.2253 23.459 24.4141 23.459C24.6028 23.459 24.7559 23.6083 24.7559 23.7924C24.7559 23.9766 24.6028 24.1259 24.4141 24.1259Z" fill="#DB1B24"/>
<path d="M23.1139 23.9916C22.8791 23.9916 22.6888 23.8059 22.6888 23.5769C22.6888 23.3478 22.8791 23.1621 23.1139 23.1621C23.3487 23.1621 23.5391 23.3478 23.5391 23.5769C23.5391 23.8059 23.3487 23.9916 23.1139 23.9916Z" fill="#DB1B24"/>
<path d="M23.6937 24.9401C23.5763 24.9401 23.4811 24.8473 23.4811 24.7328C23.4811 24.6182 23.5763 24.5254 23.6937 24.5254C23.8111 24.5254 23.9062 24.6182 23.9062 24.7328C23.9062 24.8473 23.8111 24.9401 23.6937 24.9401Z" fill="#DB1B24"/>
<path d="M23.3265 22.7468C23.2091 22.7468 23.1139 22.6539 23.1139 22.5394C23.1139 22.4249 23.2091 22.332 23.3265 22.332C23.4439 22.332 23.5391 22.4249 23.5391 22.5394C23.5391 22.6539 23.4439 22.7468 23.3265 22.7468Z" fill="#DB1B24"/>
<path d="M22.2093 24.7331C22.0919 24.7331 21.9967 24.6403 21.9967 24.5257C21.9967 24.4112 22.0919 24.3184 22.2093 24.3184C22.3267 24.3184 22.4219 24.4112 22.4219 24.5257C22.4219 24.6403 22.3267 24.7331 22.2093 24.7331Z" fill="#DB1B24"/>
<path d="M21.9964 23.6667C21.879 23.6667 21.7839 23.5739 21.7839 23.4593C21.7839 23.3448 21.879 23.252 21.9964 23.252C22.1138 23.252 22.209 23.3448 22.209 23.4593C22.209 23.5739 22.1138 23.6667 21.9964 23.6667Z" fill="#DB1B24"/>
<path d="M20.5492 26.073C20.4318 26.073 20.3366 25.9801 20.3366 25.8656C20.3366 25.7511 20.4318 25.6582 20.5492 25.6582C20.6666 25.6582 20.7617 25.7511 20.7617 25.8656C20.7617 25.9801 20.6666 26.073 20.5492 26.073Z" fill="#DB1B24"/>
<path d="M24.7777 25.28C24.6603 25.28 24.5651 25.1871 24.5651 25.0726C24.5651 24.9581 24.6603 24.8652 24.7777 24.8652C24.8951 24.8652 24.9902 24.9581 24.9902 25.0726C24.9902 25.1871 24.8951 25.28 24.7777 25.28Z" fill="#DB1B24"/>
<path d="M22.7693 25.7336C22.5782 25.7336 22.4234 25.5825 22.4234 25.3961C22.4234 25.2097 22.5782 25.0586 22.7693 25.0586C22.9604 25.0586 23.1152 25.2097 23.1152 25.3961C23.1152 25.5825 22.9604 25.7336 22.7693 25.7336Z" fill="#DB1B24"/>
<path d="M24.2537 26.0715C24.0626 26.0715 23.9077 25.9204 23.9077 25.734C23.9077 25.5476 24.0626 25.3965 24.2537 25.3965C24.4447 25.3965 24.5996 25.5476 24.5996 25.734C24.5996 25.9204 24.4447 26.0715 24.2537 26.0715Z" fill="#DB1B24"/>
<path d="M21.2283 25.4074C21.0372 25.4074 20.8823 25.2563 20.8823 25.0699C20.8823 24.8835 21.0372 24.7324 21.2283 24.7324C21.4193 24.7324 21.5742 24.8835 21.5742 25.0699C21.5742 25.2563 21.4193 25.4074 21.2283 25.4074Z" fill="#DB1B24"/>
<path d="M21.7855 26.1745C21.6681 26.1745 21.5729 26.0817 21.5729 25.9671C21.5729 25.8526 21.6681 25.7598 21.7855 25.7598C21.9029 25.7598 21.998 25.8526 21.998 25.9671C21.998 26.0817 21.9029 26.1745 21.7855 26.1745Z" fill="#DB1B24"/>
<path fill-rule="evenodd" clip-rule="evenodd" d="M6.87695 21.8118C6.87695 21.6278 7.02619 21.4785 7.21029 21.4785H19.7103C19.8944 21.4785 20.0436 21.6278 20.0436 21.8118C20.0436 21.9959 19.8944 22.1452 19.7103 22.1452H7.54362V24.4785C7.54362 24.6626 7.39438 24.8118 7.21029 24.8118C7.02619 24.8118 6.87695 24.6626 6.87695 24.4785V21.8118Z" fill="#FE666D"/>
<path d="M16.8573 17.5332H15.6447V12.8593L14.1973 13.3082V12.3223L16.7272 11.416H16.8573V17.5332Z" fill="#FFEF9C"/>
<path fill-rule="evenodd" clip-rule="evenodd" d="M17.5726 17.5325C17.5726 17.9279 17.252 18.2485 16.8565 18.2485H15.644C15.2485 18.2485 14.928 17.9279 14.928 17.5325V13.8303L14.4086 13.9914C14.1913 14.0588 13.9549 14.0189 13.7718 13.8839C13.5886 13.749 13.4805 13.535 13.4805 13.3075V12.3215C13.4805 12.0192 13.6704 11.7494 13.955 11.6474L16.485 10.7412C16.5625 10.7134 16.6442 10.6992 16.7265 10.6992H16.8565C17.252 10.6992 17.5726 11.0198 17.5726 11.4153V17.5325ZM15.644 12.8586V17.5325H16.8565V11.4153H16.7265L14.1965 12.3215V13.3075L15.644 12.8586Z" fill="#E89B05"/>
</svg>
