<svg width="14" height="16" viewBox="0 0 14 16" fill="none" xmlns="http://www.w3.org/2000/svg">
<path d="M5.04637 0.682064C4.9786 0.569112 4.85653 0.5 4.72481 0.5H1.09945C0.807969 0.5 0.627927 0.817989 0.777894 1.06794L4.82789 7.81794C4.89567 7.93089 5.01773 8 5.14945 8H8.77481C9.0663 8 9.24634 7.68201 9.09637 7.43206L5.04637 0.682064Z" fill="#C52229"/>
<path fill-rule="evenodd" clip-rule="evenodd" d="M4.72423 0.125H1.09888C0.515905 0.125 0.15582 0.760979 0.455756 1.26087L4.50576 8.01087C4.6413 8.23678 4.88543 8.375 5.14888 8.375H8.77423C9.3572 8.375 9.71729 7.73902 9.41735 7.23913L5.36735 0.489128C5.23181 0.263225 4.98768 0.125 4.72423 0.125ZM4.72423 0.5C4.85596 0.5 4.97802 0.569112 5.04579 0.682064L9.09579 7.43206C9.24576 7.68201 9.06572 8 8.77423 8H5.14888C5.01715 8 4.89509 7.93089 4.82732 7.81794L0.777316 1.06794C0.627348 0.817989 0.80739 0.5 1.09888 0.5H4.72423Z" fill="#9B0F15"/>
<path d="M8.95168 0.682064C9.01945 0.569112 9.14151 0.5 9.27324 0.5H12.8986C13.1901 0.5 13.3701 0.817989 13.2202 1.06794L9.17015 7.81794C9.10238 7.93089 8.98032 8 8.84859 8H5.22324C4.93175 8 4.75171 7.68201 4.90168 7.43206L8.95168 0.682064Z" fill="#F1333B"/>
<path fill-rule="evenodd" clip-rule="evenodd" d="M9.27381 0.125H12.8992C13.4821 0.125 13.8422 0.760979 13.5423 1.26087L9.49229 8.01087C9.35675 8.23678 9.11262 8.375 8.84917 8.375H5.22381C4.64084 8.375 4.28076 7.73902 4.58069 7.23913L8.63069 0.489128C8.76624 0.263225 9.01037 0.125 9.27381 0.125ZM9.27381 0.5C9.14209 0.5 9.02003 0.569112 8.95225 0.682064L4.90225 7.43206C4.75229 7.68201 4.93233 8 5.22381 8H8.84917C8.98089 8 9.10296 7.93089 9.17073 7.81794L13.2207 1.06794C13.3707 0.817989 13.1907 0.5 12.8992 0.5H9.27381Z" fill="#9B0F15"/>
<path fill-rule="evenodd" clip-rule="evenodd" d="M9.34418 0.712883C9.43373 0.764881 9.46418 0.879629 9.41218 0.969181L7.72468 3.87543C7.67268 3.96498 7.55793 3.99543 7.46838 3.94343C7.37883 3.89143 7.34839 3.77668 7.40038 3.68713L9.08788 0.78088C9.13988 0.691329 9.25463 0.660885 9.34418 0.712883Z" fill="#FE666D"/>
<path fill-rule="evenodd" clip-rule="evenodd" d="M1.09332 0.712883C1.00377 0.764881 0.973323 0.879629 1.02532 0.969181L2.71282 3.87543C2.76482 3.96498 2.87957 3.99543 2.96912 3.94343C3.05867 3.89143 3.08911 3.77668 3.03712 3.68713L1.34962 0.78088C1.29762 0.691329 1.18287 0.660885 1.09332 0.712883Z" fill="#DF3840"/>
<path d="M4.6543 1.11523C4.6543 1.24791 4.54936 1.35547 4.41992 1.35547C4.29048 1.35547 4.18555 1.24791 4.18555 1.11523C4.18555 0.982557 4.29048 0.875 4.41992 0.875C4.54936 0.875 4.6543 0.982557 4.6543 1.11523Z" fill="#AA161D"/>
<path d="M3.83113 1.17383C3.83113 1.33887 3.7006 1.47266 3.53959 1.47266C3.37857 1.47266 3.24805 1.33887 3.24805 1.17383C3.24805 1.00879 3.37857 0.875 3.53959 0.875C3.7006 0.875 3.83113 1.00879 3.83113 1.17383Z" fill="#AA161D"/>
<path d="M4.5616 2.0293C4.5616 2.19434 4.43107 2.32812 4.27006 2.32812C4.10904 2.32812 3.97852 2.19434 3.97852 2.0293C3.97852 1.86426 4.10904 1.73047 4.27006 1.73047C4.43107 1.73047 4.5616 1.86426 4.5616 2.0293Z" fill="#AA161D"/>
<path d="M5.22709 1.62207C5.22709 1.70459 5.16182 1.77148 5.08132 1.77148C5.00081 1.77148 4.93555 1.70459 4.93555 1.62207C4.93555 1.53955 5.00081 1.47266 5.08132 1.47266C5.16182 1.47266 5.22709 1.53955 5.22709 1.62207Z" fill="#AA161D"/>
<path d="M3.68607 1.87988C3.68607 1.9624 3.62081 2.0293 3.5403 2.0293C3.45979 2.0293 3.39453 1.9624 3.39453 1.87988C3.39453 1.79736 3.45979 1.73047 3.5403 1.73047C3.62081 1.73047 3.68607 1.79736 3.68607 1.87988Z" fill="#AA161D"/>
<path d="M2.87357 0.96582C2.87357 1.04834 2.80831 1.11523 2.7278 1.11523C2.64729 1.11523 2.58203 1.04834 2.58203 0.96582C2.58203 0.883301 2.64729 0.816406 2.7278 0.816406C2.80831 0.816406 2.87357 0.883301 2.87357 0.96582Z" fill="#AA161D"/>
<path d="M5.0806 2.66504C5.0806 2.74756 5.01534 2.81445 4.93483 2.81445C4.85433 2.81445 4.78906 2.74756 4.78906 2.66504C4.78906 2.58252 4.85433 2.51562 4.93483 2.51562C5.01534 2.51562 5.0806 2.58252 5.0806 2.66504Z" fill="#AA161D"/>
<path d="M4.3306 2.81445C4.3306 2.89697 4.26534 2.96387 4.18483 2.96387C4.10433 2.96387 4.03906 2.89697 4.03906 2.81445C4.03906 2.73193 4.10433 2.66504 4.18483 2.66504C4.26534 2.66504 4.3306 2.73193 4.3306 2.81445Z" fill="#AA161D"/>
<path d="M5.78501 2.27246C5.78501 2.40676 5.6788 2.51562 5.54778 2.51562C5.41676 2.51562 5.31055 2.40676 5.31055 2.27246C5.31055 2.13817 5.41676 2.0293 5.54778 2.0293C5.6788 2.0293 5.78501 2.13817 5.78501 2.27246Z" fill="#AA161D"/>
<path d="M6.09427 2.96387C6.09427 3.04639 6.02901 3.11328 5.9485 3.11328C5.868 3.11328 5.80273 3.04639 5.80273 2.96387C5.80273 2.88135 5.868 2.81445 5.9485 2.81445C6.02901 2.81445 6.09427 2.88135 6.09427 2.96387Z" fill="#AA161D"/>
<path d="M12.0625 10.4375C12.0625 13.2334 9.79594 15.5 7 15.5C4.20406 15.5 1.9375 13.2334 1.9375 10.4375C1.9375 7.64156 4.20406 5.375 7 5.375C9.79594 5.375 12.0625 7.64156 12.0625 10.4375Z" fill="#DCA16A"/>
<path fill-rule="evenodd" clip-rule="evenodd" d="M12.4375 10.4375C12.4375 13.4405 10.003 15.875 7 15.875C3.99695 15.875 1.5625 13.4405 1.5625 10.4375C1.5625 7.43445 3.99695 5 7 5C10.003 5 12.4375 7.43445 12.4375 10.4375ZM7 15.5C9.79594 15.5 12.0625 13.2334 12.0625 10.4375C12.0625 7.64156 9.79594 5.375 7 5.375C4.20406 5.375 1.9375 7.64156 1.9375 10.4375C1.9375 13.2334 4.20406 15.5 7 15.5Z" fill="#C38144"/>
<path fill-rule="evenodd" clip-rule="evenodd" d="M2.3125 10.625C2.20895 10.625 2.125 10.5411 2.125 10.4375C2.125 7.74511 4.30761 5.5625 7 5.5625C7.10355 5.5625 7.1875 5.64645 7.1875 5.75C7.1875 5.85355 7.10355 5.9375 7 5.9375C4.51472 5.9375 2.5 7.95222 2.5 10.4375C2.5 10.5411 2.41605 10.625 2.3125 10.625Z" fill="#F0B57F"/>
<path fill-rule="evenodd" clip-rule="evenodd" d="M11.6875 10.25C11.7911 10.25 11.875 10.3339 11.875 10.4375C11.875 13.1299 9.69239 15.3125 7 15.3125C6.89645 15.3125 6.8125 15.2286 6.8125 15.125C6.8125 15.0214 6.89645 14.9375 7 14.9375C9.48528 14.9375 11.5 12.9228 11.5 10.4375C11.5 10.3339 11.5839 10.25 11.6875 10.25Z" fill="#CF945D"/>
<path d="M10.75 10.4375C10.75 12.5086 9.07107 14.1875 7 14.1875C4.92893 14.1875 3.25 12.5086 3.25 10.4375C3.25 8.36643 4.92893 6.6875 7 6.6875C9.07107 6.6875 10.75 8.36643 10.75 10.4375Z" fill="#F7BA82"/>
<path fill-rule="evenodd" clip-rule="evenodd" d="M11.125 10.4375C11.125 12.7157 9.27817 14.5625 7 14.5625C4.72183 14.5625 2.875 12.7157 2.875 10.4375C2.875 8.15933 4.72183 6.3125 7 6.3125C9.27817 6.3125 11.125 8.15933 11.125 10.4375ZM7 14.1875C9.07107 14.1875 10.75 12.5086 10.75 10.4375C10.75 8.36643 9.07107 6.6875 7 6.6875C4.92893 6.6875 3.25 8.36643 3.25 10.4375C3.25 12.5086 4.92893 14.1875 7 14.1875Z" fill="#C38144"/>
<path fill-rule="evenodd" clip-rule="evenodd" d="M7 13.625C8.76041 13.625 10.1875 12.1979 10.1875 10.4375C10.1875 10.3339 10.2714 10.25 10.375 10.25C10.4786 10.25 10.5625 10.3339 10.5625 10.4375C10.5625 12.405 8.96751 14 7 14C6.89645 14 6.8125 13.9161 6.8125 13.8125C6.8125 13.7089 6.89645 13.625 7 13.625Z" fill="#E6A66C"/>
<path fill-rule="evenodd" clip-rule="evenodd" d="M7 7.25C5.23959 7.25 3.8125 8.67709 3.8125 10.4375C3.8125 10.5411 3.72855 10.625 3.625 10.625C3.52145 10.625 3.4375 10.5411 3.4375 10.4375C3.4375 8.46999 5.03249 6.875 7 6.875C7.10355 6.875 7.1875 6.95895 7.1875 7.0625C7.1875 7.16605 7.10355 7.25 7 7.25Z" fill="#FFD5AE"/>
<mask id="path-25-outside-1_1857_10946" maskUnits="userSpaceOnUse" x="4.6875" y="7.8125" width="4" height="5" fill="black">
<rect fill="white" x="4.6875" y="7.8125" width="4" height="5"/>
<path d="M6.55542 9.93823H6.8938C7.0022 9.93823 7.09155 9.91992 7.16187 9.8833C7.23218 9.84521 7.28418 9.79248 7.31787 9.7251C7.35303 9.65625 7.37061 9.57642 7.37061 9.4856C7.37061 9.40356 7.35449 9.33105 7.32227 9.26807C7.2915 9.20361 7.2439 9.15381 7.17944 9.11865C7.11499 9.08203 7.03369 9.06372 6.93555 9.06372C6.85791 9.06372 6.78613 9.0791 6.72021 9.10986C6.6543 9.14062 6.60156 9.18384 6.56201 9.2395C6.52246 9.29517 6.50269 9.36255 6.50269 9.44165H5.86768C5.86768 9.26587 5.91455 9.11279 6.0083 8.98242C6.10352 8.85205 6.23096 8.75024 6.39062 8.677C6.55029 8.60376 6.72607 8.56714 6.91797 8.56714C7.13477 8.56714 7.32446 8.60229 7.48706 8.67261C7.64966 8.74146 7.77637 8.84326 7.86719 8.97803C7.95801 9.11279 8.00342 9.27979 8.00342 9.479C8.00342 9.58008 7.97998 9.67822 7.93311 9.77344C7.88623 9.86719 7.81885 9.95215 7.73096 10.0283C7.64453 10.103 7.53906 10.1631 7.41455 10.2085C7.29004 10.2524 7.15015 10.2744 6.99487 10.2744H6.55542V9.93823ZM6.55542 10.4194V10.092H6.99487C7.16919 10.092 7.32227 10.1118 7.4541 10.1514C7.58594 10.1909 7.69653 10.248 7.78589 10.3228C7.87524 10.396 7.94263 10.4832 7.98804 10.5842C8.03345 10.6838 8.05615 10.7944 8.05615 10.916C8.05615 11.0654 8.02759 11.1987 7.97046 11.3159C7.91333 11.4316 7.83276 11.5298 7.72876 11.6104C7.62622 11.6909 7.5061 11.7524 7.36841 11.7949C7.23071 11.8359 7.08057 11.8564 6.91797 11.8564C6.7832 11.8564 6.65063 11.8381 6.52026 11.8015C6.39136 11.7634 6.27417 11.707 6.1687 11.6323C6.0647 11.5562 5.9812 11.4609 5.91821 11.3467C5.85669 11.231 5.82593 11.094 5.82593 10.9358H6.46094C6.46094 11.0178 6.48145 11.0911 6.52246 11.1555C6.56348 11.22 6.61987 11.2705 6.69165 11.3071C6.76489 11.3438 6.84619 11.3621 6.93555 11.3621C7.03662 11.3621 7.12305 11.3438 7.19482 11.3071C7.26807 11.269 7.32373 11.2163 7.36182 11.1489C7.40137 11.0801 7.42114 11.0002 7.42114 10.9094C7.42114 10.7922 7.3999 10.6985 7.35742 10.6282C7.31494 10.5564 7.25415 10.5037 7.17505 10.47C7.09595 10.4363 7.0022 10.4194 6.8938 10.4194H6.55542Z"/>
</mask>
<path d="M6.55542 9.93823H6.8938C7.0022 9.93823 7.09155 9.91992 7.16187 9.8833C7.23218 9.84521 7.28418 9.79248 7.31787 9.7251C7.35303 9.65625 7.37061 9.57642 7.37061 9.4856C7.37061 9.40356 7.35449 9.33105 7.32227 9.26807C7.2915 9.20361 7.2439 9.15381 7.17944 9.11865C7.11499 9.08203 7.03369 9.06372 6.93555 9.06372C6.85791 9.06372 6.78613 9.0791 6.72021 9.10986C6.6543 9.14062 6.60156 9.18384 6.56201 9.2395C6.52246 9.29517 6.50269 9.36255 6.50269 9.44165H5.86768C5.86768 9.26587 5.91455 9.11279 6.0083 8.98242C6.10352 8.85205 6.23096 8.75024 6.39062 8.677C6.55029 8.60376 6.72607 8.56714 6.91797 8.56714C7.13477 8.56714 7.32446 8.60229 7.48706 8.67261C7.64966 8.74146 7.77637 8.84326 7.86719 8.97803C7.95801 9.11279 8.00342 9.27979 8.00342 9.479C8.00342 9.58008 7.97998 9.67822 7.93311 9.77344C7.88623 9.86719 7.81885 9.95215 7.73096 10.0283C7.64453 10.103 7.53906 10.1631 7.41455 10.2085C7.29004 10.2524 7.15015 10.2744 6.99487 10.2744H6.55542V9.93823ZM6.55542 10.4194V10.092H6.99487C7.16919 10.092 7.32227 10.1118 7.4541 10.1514C7.58594 10.1909 7.69653 10.248 7.78589 10.3228C7.87524 10.396 7.94263 10.4832 7.98804 10.5842C8.03345 10.6838 8.05615 10.7944 8.05615 10.916C8.05615 11.0654 8.02759 11.1987 7.97046 11.3159C7.91333 11.4316 7.83276 11.5298 7.72876 11.6104C7.62622 11.6909 7.5061 11.7524 7.36841 11.7949C7.23071 11.8359 7.08057 11.8564 6.91797 11.8564C6.7832 11.8564 6.65063 11.8381 6.52026 11.8015C6.39136 11.7634 6.27417 11.707 6.1687 11.6323C6.0647 11.5562 5.9812 11.4609 5.91821 11.3467C5.85669 11.231 5.82593 11.094 5.82593 10.9358H6.46094C6.46094 11.0178 6.48145 11.0911 6.52246 11.1555C6.56348 11.22 6.61987 11.2705 6.69165 11.3071C6.76489 11.3438 6.84619 11.3621 6.93555 11.3621C7.03662 11.3621 7.12305 11.3438 7.19482 11.3071C7.26807 11.269 7.32373 11.2163 7.36182 11.1489C7.40137 11.0801 7.42114 11.0002 7.42114 10.9094C7.42114 10.7922 7.3999 10.6985 7.35742 10.6282C7.31494 10.5564 7.25415 10.5037 7.17505 10.47C7.09595 10.4363 7.0022 10.4194 6.8938 10.4194H6.55542Z" fill="#FFD5AE"/>
<path d="M6.55542 9.93823V9.56323C6.34831 9.56323 6.18042 9.73113 6.18042 9.93823H6.55542ZM7.16187 9.8833L7.33511 10.2159L7.34047 10.213L7.16187 9.8833ZM7.31787 9.7251L6.98388 9.55455L6.98246 9.55739L7.31787 9.7251ZM7.32227 9.26807L6.98371 9.42965L6.98842 9.43887L7.32227 9.26807ZM7.17944 9.11865L6.99416 9.44475L6.99987 9.44786L7.17944 9.11865ZM6.50269 9.44165V9.81665C6.70979 9.81665 6.87769 9.64876 6.87769 9.44165H6.50269ZM5.86768 9.44165H5.49268C5.49268 9.64876 5.66057 9.81665 5.86768 9.81665V9.44165ZM6.0083 8.98242L5.70546 8.76124L5.70385 8.76349L6.0083 8.98242ZM7.48706 8.67261L7.33821 9.01681L7.34084 9.01793L7.48706 8.67261ZM7.93311 9.77344L8.26852 9.94115L8.26954 9.93907L7.93311 9.77344ZM7.73096 10.0283L7.97619 10.312L7.97656 10.3117L7.73096 10.0283ZM7.41455 10.2085L7.53937 10.5621L7.54304 10.5608L7.41455 10.2085ZM6.55542 10.2744H6.18042C6.18042 10.4815 6.34831 10.6494 6.55542 10.6494V10.2744ZM6.55542 10.4194H6.18042C6.18042 10.6265 6.34831 10.7944 6.55542 10.7944V10.4194ZM6.55542 10.092V9.71704C6.34831 9.71704 6.18042 9.88493 6.18042 10.092H6.55542ZM7.78589 10.3228L7.54534 10.6105L7.54817 10.6128L7.78589 10.3228ZM7.98804 10.5842L7.64597 10.7379L7.64682 10.7398L7.98804 10.5842ZM7.97046 11.3159L8.30672 11.4819L8.30754 11.4802L7.97046 11.3159ZM7.72876 11.6104L7.49911 11.3139L7.49708 11.3155L7.72876 11.6104ZM7.36841 11.7949L7.47547 12.1543L7.47896 12.1533L7.36841 11.7949ZM6.52026 11.8015L6.414 12.1612L6.41885 12.1625L6.52026 11.8015ZM6.1687 11.6323L5.9471 11.9349L5.95194 11.9383L6.1687 11.6323ZM5.91821 11.3467L5.58706 11.5227L5.58981 11.5277L5.91821 11.3467ZM5.82593 10.9358V10.5608C5.61882 10.5608 5.45093 10.7287 5.45093 10.9358H5.82593ZM6.46094 10.9358H6.83594C6.83594 10.7287 6.66804 10.5608 6.46094 10.5608V10.9358ZM6.69165 11.3071L6.52122 11.6412L6.52395 11.6425L6.69165 11.3071ZM7.19482 11.3071L7.36526 11.6412L7.36783 11.6398L7.19482 11.3071ZM7.36182 11.1489L7.03664 10.9621L7.03536 10.9644L7.36182 11.1489ZM7.35742 10.6282L7.03469 10.8192L7.03645 10.8221L7.35742 10.6282ZM6.55542 10.3132H6.8938V9.56323H6.55542V10.3132ZM6.8938 10.3132C7.04145 10.3132 7.1953 10.2887 7.33509 10.2159L6.98864 9.55071C6.9878 9.55114 6.96294 9.56323 6.8938 9.56323V10.3132ZM7.34047 10.213C7.47404 10.1407 7.58301 10.0333 7.65328 9.8928L6.98246 9.55739C6.98294 9.55644 6.98443 9.55407 6.98659 9.55188C6.9886 9.54984 6.98841 9.55077 6.98326 9.55357L7.34047 10.213ZM7.65185 9.89564C7.71831 9.76549 7.74561 9.62536 7.74561 9.4856H6.99561C6.99561 9.52747 6.98775 9.54701 6.98389 9.55456L7.65185 9.89564ZM7.74561 9.4856C7.74561 9.35366 7.7194 9.22097 7.65611 9.09726L6.98842 9.43887C6.98959 9.44114 6.99561 9.45347 6.99561 9.4856H7.74561ZM7.6607 9.10654C7.59494 8.96877 7.49067 8.86125 7.35901 8.78944L6.99987 9.44786C7.0004 9.44815 6.99702 9.44631 6.99241 9.44149C6.98773 9.4366 6.98495 9.43194 6.98384 9.42959L7.6607 9.10654ZM7.3647 8.79261C7.22838 8.71515 7.07828 8.68872 6.93555 8.68872V9.43872C6.98911 9.43872 7.00161 9.44891 6.99419 9.4447L7.3647 8.79261ZM6.93555 8.68872C6.80687 8.68872 6.6805 8.71457 6.56163 8.77004L6.8788 9.44968C6.89176 9.44363 6.90895 9.43872 6.93555 9.43872V8.68872ZM6.56163 8.77004C6.44087 8.8264 6.33593 8.91026 6.25632 9.0223L6.8677 9.4567C6.86818 9.45603 6.86839 9.45582 6.86891 9.4554C6.86953 9.45489 6.87229 9.45272 6.8788 9.44968L6.56163 8.77004ZM6.25632 9.0223C6.16483 9.15107 6.12769 9.29745 6.12769 9.44165H6.87769C6.87769 9.4334 6.8787 9.43276 6.87734 9.43739C6.87668 9.43965 6.87557 9.44273 6.87384 9.44631C6.87211 9.44991 6.87003 9.45344 6.8677 9.4567L6.25632 9.0223ZM6.50269 9.06665H5.86768V9.81665H6.50269V9.06665ZM6.24268 9.44165C6.24268 9.33661 6.26924 9.26187 6.31276 9.20136L5.70385 8.76349C5.55986 8.96372 5.49268 9.19513 5.49268 9.44165H6.24268ZM6.31113 9.20359C6.36527 9.12947 6.44029 9.06679 6.54698 9.01785L6.23427 8.33615C6.02163 8.4337 5.84176 8.57463 5.70547 8.76125L6.31113 9.20359ZM6.54698 9.01785C6.65321 8.96912 6.775 8.94214 6.91797 8.94214V8.19214C6.67715 8.19214 6.44738 8.2384 6.23427 8.33615L6.54698 9.01785ZM6.91797 8.94214C7.09474 8.94214 7.23188 8.97082 7.33822 9.0168L7.6359 8.32841C7.41705 8.23377 7.17479 8.19214 6.91797 8.19214V8.94214ZM7.34084 9.01793C7.44257 9.061 7.50951 9.1183 7.55621 9.1876L8.17816 8.76846C8.04322 8.56822 7.85675 8.42191 7.63328 8.32729L7.34084 9.01793ZM7.55621 9.1876C7.59671 9.24769 7.62842 9.33744 7.62842 9.479H8.37842C8.37842 9.22213 8.31931 8.9779 8.17816 8.76846L7.55621 9.1876ZM7.62842 9.479C7.62842 9.51976 7.61948 9.56147 7.59667 9.60781L8.26954 9.93907C8.34048 9.79497 8.37842 9.64039 8.37842 9.479H7.62842ZM7.5977 9.60573C7.57516 9.6508 7.54009 9.6975 7.48536 9.74494L7.97656 10.3117C8.09761 10.2068 8.1973 10.0836 8.26852 9.94114L7.5977 9.60573ZM7.48572 9.74462C7.43877 9.78521 7.37456 9.82392 7.28606 9.85619L7.54304 10.5608C7.70357 10.5023 7.85029 10.4208 7.97619 10.312L7.48572 9.74462ZM7.28974 9.85487C7.21168 9.88243 7.11494 9.89941 6.99487 9.89941V10.6494C7.18535 10.6494 7.3684 10.6225 7.53936 10.5621L7.28974 9.85487ZM6.99487 9.89941H6.55542V10.6494H6.99487V9.89941ZM6.93042 10.2744V9.93823H6.18042V10.2744H6.93042ZM6.93042 10.4194V10.092H6.18042V10.4194H6.93042ZM6.55542 10.467H6.99487V9.71704H6.55542V10.467ZM6.99487 10.467C7.14192 10.467 7.25733 10.4838 7.34635 10.5106L7.56186 9.79218C7.3872 9.73979 7.19646 9.71704 6.99487 9.71704V10.467ZM7.34635 10.5106C7.43825 10.5381 7.50138 10.5737 7.54536 10.6104L8.02642 10.0351C7.89169 9.92241 7.73363 9.84371 7.56186 9.79218L7.34635 10.5106ZM7.54817 10.6128C7.59464 10.6509 7.62536 10.692 7.64597 10.7379L8.3301 10.4305C8.2599 10.2743 8.15585 10.1411 8.02361 10.0327L7.54817 10.6128ZM7.64682 10.7398C7.66762 10.7854 7.68115 10.8421 7.68115 10.916H8.43115C8.43115 10.7467 8.39928 10.5823 8.32925 10.4287L7.64682 10.7398ZM7.68115 10.916C7.68115 11.0168 7.66215 11.0926 7.63338 11.1516L8.30754 11.4802C8.39303 11.3049 8.43115 11.114 8.43115 10.916H7.68115ZM7.6342 11.1499C7.60275 11.2136 7.55905 11.2675 7.49911 11.3139L7.95841 11.9068C8.10648 11.7921 8.22391 11.6497 8.30672 11.4819L7.6342 11.1499ZM7.49708 11.3155C7.43429 11.3648 7.35623 11.4062 7.25786 11.4366L7.47896 12.1533C7.65597 12.0986 7.81815 12.017 7.96044 11.9052L7.49708 11.3155ZM7.26135 11.4355C7.16263 11.4649 7.04901 11.4814 6.91797 11.4814V12.2314C7.11213 12.2314 7.2988 12.2069 7.47546 12.1543L7.26135 11.4355ZM6.91797 11.4814C6.81765 11.4814 6.7192 11.4679 6.62168 11.4405L6.41885 12.1625C6.58207 12.2084 6.74875 12.2314 6.91797 12.2314V11.4814ZM6.62652 11.4419C6.53555 11.415 6.45596 11.3763 6.38546 11.3263L5.95194 11.9383C6.09238 12.0378 6.24717 12.1119 6.41401 12.1611L6.62652 11.4419ZM6.39028 11.3298C6.33084 11.2863 6.28359 11.2327 6.24662 11.1656L5.58981 11.5277C5.67881 11.6892 5.79855 11.826 5.94712 11.9349L6.39028 11.3298ZM6.24933 11.1706C6.22201 11.1193 6.20093 11.0452 6.20093 10.9358H5.45093C5.45093 11.1428 5.49137 11.3426 5.5871 11.5227L6.24933 11.1706ZM5.82593 11.3108H6.46094V10.5608H5.82593V11.3108ZM6.08594 10.9358C6.08594 11.0837 6.12394 11.2278 6.20609 11.3568L6.83883 10.9542C6.83798 10.9529 6.83772 10.9522 6.83743 10.9511C6.83708 10.9499 6.83594 10.9453 6.83594 10.9358H6.08594ZM6.20609 11.3568C6.28503 11.4809 6.39322 11.5759 6.52122 11.6412L6.86208 10.9731C6.84652 10.9652 6.84192 10.959 6.83883 10.9542L6.20609 11.3568ZM6.52395 11.6425C6.65389 11.7075 6.79338 11.7371 6.93555 11.7371V10.9871C6.899 10.9871 6.8759 10.98 6.85936 10.9717L6.52395 11.6425ZM6.93555 11.7371C7.08114 11.7371 7.22898 11.7107 7.36525 11.6412L7.0244 10.9731C7.01711 10.9768 6.9921 10.9871 6.93555 10.9871V11.7371ZM7.36783 11.6398C7.501 11.5706 7.61205 11.4683 7.68828 11.3334L7.03536 10.9644C7.0345 10.9659 7.03408 10.9663 7.0336 10.9668C7.03298 10.9674 7.02982 10.9703 7.02182 10.9744L7.36783 11.6398ZM7.68698 11.3357C7.76364 11.2023 7.79614 11.0562 7.79614 10.9094H7.04614C7.04614 10.9443 7.03909 10.9579 7.03665 10.9621L7.68698 11.3357ZM7.79614 10.9094C7.79614 10.7515 7.7682 10.5829 7.67839 10.4343L7.03645 10.8221C7.03161 10.8141 7.04614 10.833 7.04614 10.9094H7.79614ZM7.68014 10.4372C7.59564 10.2944 7.47217 10.1889 7.322 10.125L7.0281 10.815C7.03417 10.8176 7.03531 10.819 7.03424 10.8181C7.03308 10.8171 7.03325 10.8167 7.03471 10.8192L7.68014 10.4372ZM7.322 10.125C7.18602 10.067 7.04 10.0444 6.8938 10.0444V10.7944C6.9644 10.7944 7.00587 10.8055 7.0281 10.815L7.322 10.125ZM6.8938 10.0444H6.55542V10.7944H6.8938V10.0444Z" fill="#C28044" mask="url(#path-25-outside-1_1857_10946)"/>
</svg>
