<svg width="24" height="24" viewBox="0 0 24 24" fill="none" xmlns="http://www.w3.org/2000/svg">
<path d="M20 11C20 15.4183 16.4183 19 12 19C7.58172 19 4 15.4183 4 11C4 6.58172 7.58172 3 12 3C16.4183 3 20 6.58172 20 11Z" fill="#BCCCD2"/>
<path fill-rule="evenodd" clip-rule="evenodd" d="M20.5934 11.0008C20.5934 15.7464 16.7464 19.5934 12.0008 19.5934C7.25524 19.5934 3.4082 15.7464 3.4082 11.0008C3.4082 6.25524 7.25524 2.4082 12.0008 2.4082C16.7464 2.4082 20.5934 6.25524 20.5934 11.0008ZM12.0008 19.0008C16.4191 19.0008 20.0008 15.4191 20.0008 11.0008C20.0008 6.58252 16.4191 3.0008 12.0008 3.0008C7.58252 3.0008 4.0008 6.58252 4.0008 11.0008C4.0008 15.4191 7.58252 19.0008 12.0008 19.0008Z" fill="#81A5B0"/>
<path fill-rule="evenodd" clip-rule="evenodd" d="M4.59317 11.2969C4.42953 11.2969 4.29688 11.1642 4.29688 11.0006C4.29688 6.74594 7.74594 3.29687 12.0006 3.29687C12.1642 3.29687 12.2969 3.42953 12.2969 3.59317C12.2969 3.75681 12.1642 3.88947 12.0006 3.88947C8.07322 3.88947 4.88947 7.07322 4.88947 11.0006C4.88947 11.1642 4.75681 11.2969 4.59317 11.2969Z" fill="#D0DEE3"/>
<path fill-rule="evenodd" clip-rule="evenodd" d="M19.4068 10.7031C19.5705 10.7031 19.7031 10.8358 19.7031 10.9994C19.7031 15.2541 16.2541 18.7031 11.9994 18.7031C11.8358 18.7031 11.7031 18.5705 11.7031 18.4068C11.7031 18.2432 11.8358 18.1105 11.9994 18.1105C15.9268 18.1105 19.1105 14.9268 19.1105 10.9994C19.1105 10.8358 19.2432 10.7031 19.4068 10.7031Z" fill="#A2B9C1"/>
<path d="M17.9261 11.0001C17.9261 14.2729 15.2729 16.9261 12.0001 16.9261C8.72735 16.9261 6.07422 14.2729 6.07422 11.0001C6.07422 7.72735 8.72735 5.07422 12.0001 5.07422C15.2729 5.07422 17.9261 7.72735 17.9261 11.0001Z" fill="#C7D4D8"/>
<path fill-rule="evenodd" clip-rule="evenodd" d="M18.5195 11.0009C18.5195 14.601 15.601 17.5195 12.0009 17.5195C8.40086 17.5195 5.48242 14.601 5.48242 11.0009C5.48242 7.40086 8.40086 4.48242 12.0009 4.48242C15.601 4.48242 18.5195 7.40086 18.5195 11.0009ZM12.0009 16.9269C15.2737 16.9269 17.9269 14.2737 17.9269 11.0009C17.9269 7.72814 15.2737 5.07501 12.0009 5.07501C8.72814 5.07501 6.07501 7.72814 6.07501 11.0009C6.07501 14.2737 8.72814 16.9269 12.0009 16.9269Z" fill="#81A5B0"/>
<path fill-rule="evenodd" clip-rule="evenodd" d="M11.9993 16.0363C14.7812 16.0363 17.0363 13.7812 17.0363 10.9993C17.0363 10.8356 17.169 10.703 17.3326 10.703C17.4963 10.703 17.6289 10.8356 17.6289 10.9993C17.6289 14.1084 15.1084 16.6289 11.9993 16.6289C11.8356 16.6289 11.703 16.4962 11.703 16.3326C11.703 16.169 11.8356 16.0363 11.9993 16.0363Z" fill="#B5C3C8"/>
<path fill-rule="evenodd" clip-rule="evenodd" d="M12.0007 5.96369C9.21884 5.96369 6.96369 8.21884 6.96369 11.0007C6.96369 11.1644 6.83103 11.297 6.66739 11.297C6.50375 11.297 6.37109 11.1644 6.37109 11.0007C6.37109 7.89156 8.89156 5.37109 12.0007 5.37109C12.1644 5.37109 12.297 5.50375 12.297 5.66739C12.297 5.83103 12.1644 5.96369 12.0007 5.96369Z" fill="#D9EAEF"/>
<path d="M2.94399 18.8882L2.18079 17.3618C2.09768 17.1956 2.21855 17 2.4044 17L5.74989 17C5.88796 17 5.99989 17.1119 5.99989 17.25L5.99989 20.75C5.99989 20.8881 5.88796 21 5.74989 21L2.4044 21C2.21855 21 2.09768 20.8044 2.18079 20.6382L2.94399 19.1118C2.97918 19.0414 2.97918 18.9586 2.94399 18.8882Z" fill="#C52229"/>
<path d="M21.0558 18.8882L21.819 17.3618C21.9021 17.1956 21.7812 17 21.5954 17L18.2499 17C18.1118 17 17.9999 17.1119 17.9999 17.25L17.9999 20.75C17.9999 20.8881 18.1118 21 18.2499 21L21.5954 21C21.7812 21 21.9021 20.8044 21.819 20.6382L21.0558 19.1118C21.0206 19.0414 21.0206 18.9586 21.0558 18.8882Z" fill="#C52229"/>
<path fill-rule="evenodd" clip-rule="evenodd" d="M2.44023 19L1.73293 17.5854C1.4836 17.0867 1.84621 16.5 2.40375 16.5L5.74924 16.5C6.16346 16.5 6.49924 16.8358 6.49924 17.25L6.49924 20.75C6.49924 21.1642 6.16346 21.5 5.74924 21.5L2.40375 21.5C1.84621 21.5 1.4836 20.9133 1.73293 20.4146L2.44023 19ZM2.49598 19.1115C2.49603 19.1116 2.49608 19.1117 2.49613 19.1118L2.71974 19L2.49613 19.1118L2.49598 19.1115ZM21.5583 19L22.2656 17.5854C22.5149 17.0867 22.1523 16.5 21.5947 16.5L18.2492 16.5C17.835 16.5 17.4992 16.8358 17.4992 17.25L17.4992 20.75C17.4992 21.1642 17.835 21.5 18.2492 21.5L21.5947 21.5C22.1523 21.5 22.5149 20.9133 22.2656 20.4146L21.5583 19ZM21.8183 17.3618L21.0551 18.8882C21.02 18.9586 21.02 19.0414 21.0551 19.1118L21.8183 20.6382C21.9015 20.8044 21.7806 21 21.5947 21L18.2492 21C18.1112 21 17.9992 20.8881 17.9992 20.75L17.9992 17.25C17.9992 17.1119 18.1112 17 18.2492 17L21.5947 17C21.7806 17 21.9015 17.1956 21.8183 17.3618ZM2.18015 17.3618L2.94334 18.8882C2.97853 18.9586 2.97853 19.0414 2.94334 19.1118L2.18015 20.6382C2.09703 20.8044 2.21791 21 2.40375 21L5.74924 21C5.88732 21 5.99924 20.8881 5.99924 20.75L5.99924 17.25C5.99924 17.1119 5.88732 17 5.74924 17L2.40375 17C2.21791 17 2.09703 17.1956 2.18015 17.3618Z" fill="#9B0F15"/>
<path fill-rule="evenodd" clip-rule="evenodd" d="M2.5385 17.2261C2.58428 17.1534 2.66414 17.1094 2.75 17.1094H3.8125C3.95057 17.1094 4.0625 17.2213 4.0625 17.3594C4.0625 17.4974 3.95057 17.6094 3.8125 17.6094H3.14669L3.66303 18.689C3.72261 18.8136 3.66992 18.9628 3.54536 19.0224C3.42081 19.082 3.27154 19.0293 3.21197 18.9047L2.52447 17.4672C2.48742 17.3898 2.49272 17.2987 2.5385 17.2261Z" fill="#DF3840"/>
<path d="M19 19.75L19 16.25C19 16.1119 18.8881 16 18.75 16L5.25 16C5.11193 16 5 16.1119 5 16.25L5 19.75C5 19.8881 5.11193 20 5.25 20L18.75 20C18.8881 20 19 19.8881 19 19.75Z" fill="#F1333B"/>
<path fill-rule="evenodd" clip-rule="evenodd" d="M19.5 16.25L19.5 19.75C19.5 20.1642 19.1642 20.5 18.75 20.5L5.25 20.5C4.83579 20.5 4.5 20.1642 4.5 19.75L4.5 16.25C4.5 15.8358 4.83579 15.5 5.25 15.5L18.75 15.5C19.1642 15.5 19.5 15.8358 19.5 16.25ZM19 16.25L19 19.75C19 19.8881 18.8881 20 18.75 20L5.25 20C5.11193 20 5 19.8881 5 19.75L5 16.25C5 16.1119 5.11193 16 5.25 16L18.75 16C18.8881 16 19 16.1119 19 16.25Z" fill="#9B0F15"/>
<path d="M18.3081 18.0959C18.1666 18.0959 18.0518 17.9839 18.0518 17.8458C18.0518 17.7077 18.1666 17.5957 18.3081 17.5957C18.4497 17.5957 18.5645 17.7077 18.5645 17.8458C18.5645 17.9839 18.4497 18.0959 18.3081 18.0959Z" fill="#DB1B24"/>
<path d="M17.3335 17.9952C17.1574 17.9952 17.0147 17.8559 17.0147 17.6841C17.0147 17.5123 17.1574 17.373 17.3335 17.373C17.5096 17.373 17.6523 17.5123 17.6523 17.6841C17.6523 17.8559 17.5096 17.9952 17.3335 17.9952Z" fill="#DB1B24"/>
<path d="M17.7683 18.7056C17.6803 18.7056 17.6089 18.636 17.6089 18.5501C17.6089 18.4642 17.6803 18.3945 17.7683 18.3945C17.8564 18.3945 17.9277 18.4642 17.9277 18.5501C17.9277 18.636 17.8564 18.7056 17.7683 18.7056Z" fill="#DB1B24"/>
<path d="M17.4929 17.0611C17.4049 17.0611 17.3335 16.9914 17.3335 16.9055C17.3335 16.8196 17.4049 16.75 17.4929 16.75C17.581 16.75 17.6523 16.8196 17.6523 16.9055C17.6523 16.9914 17.581 17.0611 17.4929 17.0611Z" fill="#DB1B24"/>
<path d="M16.655 18.5513C16.567 18.5513 16.4956 18.4817 16.4956 18.3958C16.4956 18.3099 16.567 18.2402 16.655 18.2402C16.7431 18.2402 16.8145 18.3099 16.8145 18.3958C16.8145 18.4817 16.7431 18.5513 16.655 18.5513Z" fill="#DB1B24"/>
<path d="M16.4949 17.7505C16.4068 17.7505 16.3355 17.6809 16.3355 17.595C16.3355 17.5091 16.4068 17.4395 16.4949 17.4395C16.5829 17.4395 16.6543 17.5091 16.6543 17.595C16.6543 17.6809 16.5829 17.7505 16.4949 17.7505Z" fill="#DB1B24"/>
<path d="M15.4089 19.5552C15.3209 19.5552 15.2495 19.4856 15.2495 19.3997C15.2495 19.3138 15.3209 19.2441 15.4089 19.2441C15.497 19.2441 15.5684 19.3138 15.5684 19.3997C15.5684 19.4856 15.497 19.5552 15.4089 19.5552Z" fill="#DB1B24"/>
<path d="M18.5808 18.9615C18.4928 18.9615 18.4214 18.8918 18.4214 18.8059C18.4214 18.72 18.4928 18.6504 18.5808 18.6504C18.6689 18.6504 18.7402 18.72 18.7402 18.8059C18.7402 18.8918 18.6689 18.9615 18.5808 18.9615Z" fill="#DB1B24"/>
<path d="M17.0745 19.3012C16.9312 19.3012 16.8151 19.1878 16.8151 19.048C16.8151 18.9082 16.9312 18.7949 17.0745 18.7949C17.2178 18.7949 17.334 18.9082 17.334 19.048C17.334 19.1878 17.2178 19.3012 17.0745 19.3012Z" fill="#DB1B24"/>
<path d="M18.1878 19.5551C18.0445 19.5551 17.9284 19.4418 17.9284 19.302C17.9284 19.1622 18.0445 19.0488 18.1878 19.0488C18.3311 19.0488 18.4473 19.1622 18.4473 19.302C18.4473 19.4418 18.3311 19.5551 18.1878 19.5551Z" fill="#DB1B24"/>
<path d="M15.9183 19.057C15.775 19.057 15.6588 18.9437 15.6588 18.8039C15.6588 18.6641 15.775 18.5508 15.9183 18.5508C16.0616 18.5508 16.1777 18.6641 16.1777 18.8039C16.1777 18.9437 16.0616 19.057 15.9183 19.057Z" fill="#DB1B24"/>
<path d="M16.3367 19.6314C16.2486 19.6314 16.1772 19.5617 16.1772 19.4758C16.1772 19.3899 16.2486 19.3203 16.3367 19.3203C16.4247 19.3203 16.4961 19.3899 16.4961 19.4758C16.4961 19.5617 16.4247 19.6314 16.3367 19.6314Z" fill="#DB1B24"/>
<path fill-rule="evenodd" clip-rule="evenodd" d="M5.15625 16.3594C5.15625 16.2213 5.26818 16.1094 5.40625 16.1094H14.7812C14.9193 16.1094 15.0312 16.2213 15.0312 16.3594C15.0312 16.4974 14.9193 16.6094 14.7812 16.6094H5.65625V18.3594C5.65625 18.4974 5.54432 18.6094 5.40625 18.6094C5.26818 18.6094 5.15625 18.4974 5.15625 18.3594V16.3594Z" fill="#FE666D"/>
<path d="M13.5715 13.1484H10.4311V12.5254L11.9132 10.9457C12.1167 10.7234 12.2667 10.5293 12.3632 10.3636C12.4618 10.1979 12.5111 10.0405 12.5111 9.8916C12.5111 9.68812 12.4597 9.52868 12.3569 9.4133C12.2541 9.29583 12.1072 9.23709 11.9163 9.23709C11.7108 9.23709 11.5482 9.30841 11.4286 9.45106C11.3111 9.59162 11.2524 9.77727 11.2524 10.008H10.3398C10.3398 9.72902 10.4059 9.47414 10.5381 9.24338C10.6723 9.01262 10.8611 8.83221 11.1045 8.70215C11.3478 8.56999 11.6237 8.50391 11.9321 8.50391C12.4041 8.50391 12.7701 8.61719 13.0303 8.84375C13.2925 9.07031 13.4236 9.39023 13.4236 9.80349C13.4236 10.0301 13.3649 10.2608 13.2474 10.4958C13.1299 10.7307 12.9285 11.0045 12.6432 11.3171L11.6017 12.4153H13.5715V13.1484Z" fill="#D9EAEF"/>
<path fill-rule="evenodd" clip-rule="evenodd" d="M14.1085 13.1484C14.1085 13.445 13.868 13.6854 13.5714 13.6854H10.431C10.1344 13.6854 9.89399 13.445 9.89399 13.1484V12.5253C9.89399 12.3888 9.94598 12.2574 10.0394 12.1579L11.5191 10.5807C11.7084 10.3737 11.8297 10.2123 11.899 10.0933L11.9016 10.089C11.965 9.98232 11.974 9.91929 11.974 9.89153C11.974 9.83414 11.9666 9.80058 11.9613 9.78411C11.9604 9.78131 11.9596 9.77897 11.9588 9.77706C11.9502 9.77559 11.9364 9.77405 11.9163 9.77405C11.8761 9.77405 11.8593 9.78082 11.8559 9.7823C11.8538 9.78323 11.8523 9.7841 11.8508 9.78528C11.8492 9.78651 11.8456 9.78946 11.8403 9.7957C11.8227 9.81689 11.7894 9.87019 11.7894 10.008C11.7894 10.3046 11.5489 10.545 11.2523 10.545H10.3398C10.0432 10.545 9.80273 10.3046 9.80273 10.008C9.80273 9.6401 9.89097 9.29248 10.072 8.97641L10.0738 8.97323C10.2596 8.65388 10.5223 8.40462 10.8497 8.22929C11.1799 8.05031 11.5451 7.9668 11.932 7.9668C12.4854 7.9668 12.9934 8.09988 13.3821 8.43801C13.7847 8.78629 13.9606 9.26748 13.9606 9.80342C13.9606 10.1257 13.8765 10.4382 13.7277 10.7359C13.5788 11.0337 13.3408 11.3493 13.0398 11.679C13.0375 11.6816 13.0352 11.6841 13.0328 11.6865L12.8511 11.8781H13.5714C13.868 11.8781 14.1085 12.1186 14.1085 12.4152V13.1484ZM11.6016 12.4152L12.6432 11.317C12.9285 11.0044 13.1298 10.7306 13.2473 10.4957C13.3648 10.2607 13.4235 10.03 13.4235 9.80342C13.4235 9.39015 13.2924 9.07024 13.0302 8.84368C12.7701 8.61712 12.404 8.50383 11.932 8.50383C11.6236 8.50383 11.3478 8.56991 11.1044 8.70208C10.8611 8.83214 10.6723 9.01255 10.538 9.24331C10.496 9.31674 10.4606 9.39261 10.4319 9.47092C10.3705 9.63872 10.3398 9.81773 10.3398 10.008H11.2523C11.2523 9.7772 11.3111 9.59154 11.4285 9.45099C11.5481 9.30834 11.7107 9.23702 11.9163 9.23702C12.1072 9.23702 12.254 9.29575 12.3568 9.41323C12.4596 9.52861 12.511 9.68804 12.511 9.89153C12.511 10.0405 12.4617 10.1978 12.3631 10.3635C12.2666 10.5293 12.1166 10.7233 11.9131 10.9457L10.431 12.5253V13.1484H13.5714V12.4152H11.6016Z" fill="#81A5B0"/>
</svg>
