<svg width="14" height="16" viewBox="0 0 14 16" fill="none" xmlns="http://www.w3.org/2000/svg">
<path d="M5.04637 0.682064C4.9786 0.569112 4.85653 0.5 4.72481 0.5H1.09945C0.807969 0.5 0.627927 0.817989 0.777894 1.06794L4.82789 7.81794C4.89567 7.93089 5.01773 8 5.14945 8H8.77481C9.0663 8 9.24634 7.68201 9.09637 7.43206L5.04637 0.682064Z" fill="#C52229"/>
<path fill-rule="evenodd" clip-rule="evenodd" d="M4.72423 0.125H1.09888C0.515905 0.125 0.15582 0.760979 0.455756 1.26087L4.50576 8.01087C4.6413 8.23678 4.88543 8.375 5.14888 8.375H8.77423C9.3572 8.375 9.71729 7.73902 9.41735 7.23913L5.36735 0.489128C5.23181 0.263225 4.98768 0.125 4.72423 0.125ZM4.72423 0.5C4.85596 0.5 4.97802 0.569112 5.04579 0.682064L9.09579 7.43206C9.24576 7.68201 9.06572 8 8.77423 8H5.14888C5.01715 8 4.89509 7.93089 4.82732 7.81794L0.777316 1.06794C0.627348 0.817989 0.80739 0.5 1.09888 0.5H4.72423Z" fill="#9B0F15"/>
<path d="M8.95168 0.682064C9.01945 0.569112 9.14151 0.5 9.27324 0.5H12.8986C13.1901 0.5 13.3701 0.817989 13.2202 1.06794L9.17015 7.81794C9.10238 7.93089 8.98032 8 8.84859 8H5.22324C4.93175 8 4.75171 7.68201 4.90168 7.43206L8.95168 0.682064Z" fill="#F1333B"/>
<path fill-rule="evenodd" clip-rule="evenodd" d="M9.27381 0.125H12.8992C13.4821 0.125 13.8422 0.760979 13.5423 1.26087L9.49229 8.01087C9.35675 8.23678 9.11262 8.375 8.84917 8.375H5.22381C4.64084 8.375 4.28076 7.73902 4.58069 7.23913L8.63069 0.489128C8.76624 0.263225 9.01037 0.125 9.27381 0.125ZM9.27381 0.5C9.14209 0.5 9.02003 0.569112 8.95225 0.682064L4.90225 7.43206C4.75229 7.68201 4.93233 8 5.22381 8H8.84917C8.98089 8 9.10296 7.93089 9.17073 7.81794L13.2207 1.06794C13.3707 0.817989 13.1907 0.5 12.8992 0.5H9.27381Z" fill="#9B0F15"/>
<path fill-rule="evenodd" clip-rule="evenodd" d="M9.34418 0.712883C9.43373 0.764881 9.46418 0.879629 9.41218 0.969181L7.72468 3.87543C7.67268 3.96498 7.55793 3.99543 7.46838 3.94343C7.37883 3.89143 7.34839 3.77668 7.40038 3.68713L9.08788 0.78088C9.13988 0.691329 9.25463 0.660885 9.34418 0.712883Z" fill="#FE666D"/>
<path fill-rule="evenodd" clip-rule="evenodd" d="M1.09332 0.712883C1.00377 0.764881 0.973323 0.879629 1.02532 0.969181L2.71282 3.87543C2.76482 3.96498 2.87957 3.99543 2.96912 3.94343C3.05867 3.89143 3.08911 3.77668 3.03712 3.68713L1.34962 0.78088C1.29762 0.691329 1.18287 0.660885 1.09332 0.712883Z" fill="#DF3840"/>
<path d="M4.6543 1.11523C4.6543 1.24791 4.54936 1.35547 4.41992 1.35547C4.29048 1.35547 4.18555 1.24791 4.18555 1.11523C4.18555 0.982557 4.29048 0.875 4.41992 0.875C4.54936 0.875 4.6543 0.982557 4.6543 1.11523Z" fill="#AA161D"/>
<path d="M3.83113 1.17383C3.83113 1.33887 3.7006 1.47266 3.53959 1.47266C3.37857 1.47266 3.24805 1.33887 3.24805 1.17383C3.24805 1.00879 3.37857 0.875 3.53959 0.875C3.7006 0.875 3.83113 1.00879 3.83113 1.17383Z" fill="#AA161D"/>
<path d="M4.5616 2.0293C4.5616 2.19434 4.43107 2.32812 4.27006 2.32812C4.10904 2.32812 3.97852 2.19434 3.97852 2.0293C3.97852 1.86426 4.10904 1.73047 4.27006 1.73047C4.43107 1.73047 4.5616 1.86426 4.5616 2.0293Z" fill="#AA161D"/>
<path d="M5.22709 1.62207C5.22709 1.70459 5.16182 1.77148 5.08132 1.77148C5.00081 1.77148 4.93555 1.70459 4.93555 1.62207C4.93555 1.53955 5.00081 1.47266 5.08132 1.47266C5.16182 1.47266 5.22709 1.53955 5.22709 1.62207Z" fill="#AA161D"/>
<path d="M3.68607 1.87988C3.68607 1.9624 3.62081 2.0293 3.5403 2.0293C3.45979 2.0293 3.39453 1.9624 3.39453 1.87988C3.39453 1.79736 3.45979 1.73047 3.5403 1.73047C3.62081 1.73047 3.68607 1.79736 3.68607 1.87988Z" fill="#AA161D"/>
<path d="M2.87357 0.96582C2.87357 1.04834 2.80831 1.11523 2.7278 1.11523C2.64729 1.11523 2.58203 1.04834 2.58203 0.96582C2.58203 0.883301 2.64729 0.816406 2.7278 0.816406C2.80831 0.816406 2.87357 0.883301 2.87357 0.96582Z" fill="#AA161D"/>
<path d="M5.0806 2.66504C5.0806 2.74756 5.01534 2.81445 4.93483 2.81445C4.85433 2.81445 4.78906 2.74756 4.78906 2.66504C4.78906 2.58252 4.85433 2.51562 4.93483 2.51562C5.01534 2.51562 5.0806 2.58252 5.0806 2.66504Z" fill="#AA161D"/>
<path d="M4.3306 2.81445C4.3306 2.89697 4.26534 2.96387 4.18483 2.96387C4.10433 2.96387 4.03906 2.89697 4.03906 2.81445C4.03906 2.73193 4.10433 2.66504 4.18483 2.66504C4.26534 2.66504 4.3306 2.73193 4.3306 2.81445Z" fill="#AA161D"/>
<path d="M5.78501 2.27246C5.78501 2.40676 5.6788 2.51562 5.54778 2.51562C5.41676 2.51562 5.31055 2.40676 5.31055 2.27246C5.31055 2.13817 5.41676 2.0293 5.54778 2.0293C5.6788 2.0293 5.78501 2.13817 5.78501 2.27246Z" fill="#AA161D"/>
<path d="M6.09427 2.96387C6.09427 3.04639 6.02901 3.11328 5.9485 3.11328C5.868 3.11328 5.80273 3.04639 5.80273 2.96387C5.80273 2.88135 5.868 2.81445 5.9485 2.81445C6.02901 2.81445 6.09427 2.88135 6.09427 2.96387Z" fill="#AA161D"/>
<path d="M12.0625 10.4375C12.0625 13.2334 9.79594 15.5 7 15.5C4.20406 15.5 1.9375 13.2334 1.9375 10.4375C1.9375 7.64156 4.20406 5.375 7 5.375C9.79594 5.375 12.0625 7.64156 12.0625 10.4375Z" fill="#BCCCD2"/>
<path fill-rule="evenodd" clip-rule="evenodd" d="M12.4375 10.4375C12.4375 13.4405 10.003 15.875 7 15.875C3.99695 15.875 1.5625 13.4405 1.5625 10.4375C1.5625 7.43445 3.99695 5 7 5C10.003 5 12.4375 7.43445 12.4375 10.4375ZM7 15.5C9.79594 15.5 12.0625 13.2334 12.0625 10.4375C12.0625 7.64156 9.79594 5.375 7 5.375C4.20406 5.375 1.9375 7.64156 1.9375 10.4375C1.9375 13.2334 4.20406 15.5 7 15.5Z" fill="#81A5B0"/>
<path fill-rule="evenodd" clip-rule="evenodd" d="M2.3125 10.625C2.20895 10.625 2.125 10.5411 2.125 10.4375C2.125 7.74511 4.30761 5.5625 7 5.5625C7.10355 5.5625 7.1875 5.64645 7.1875 5.75C7.1875 5.85355 7.10355 5.9375 7 5.9375C4.51472 5.9375 2.5 7.95222 2.5 10.4375C2.5 10.5411 2.41605 10.625 2.3125 10.625Z" fill="#D0DEE3"/>
<path fill-rule="evenodd" clip-rule="evenodd" d="M11.6875 10.25C11.7911 10.25 11.875 10.3339 11.875 10.4375C11.875 13.1299 9.69239 15.3125 7 15.3125C6.89645 15.3125 6.8125 15.2286 6.8125 15.125C6.8125 15.0214 6.89645 14.9375 7 14.9375C9.48528 14.9375 11.5 12.9228 11.5 10.4375C11.5 10.3339 11.5839 10.25 11.6875 10.25Z" fill="#A2B9C1"/>
<path d="M10.75 10.4375C10.75 12.5086 9.07107 14.1875 7 14.1875C4.92893 14.1875 3.25 12.5086 3.25 10.4375C3.25 8.36643 4.92893 6.6875 7 6.6875C9.07107 6.6875 10.75 8.36643 10.75 10.4375Z" fill="#C7D4D8"/>
<path fill-rule="evenodd" clip-rule="evenodd" d="M11.125 10.4375C11.125 12.7157 9.27817 14.5625 7 14.5625C4.72183 14.5625 2.875 12.7157 2.875 10.4375C2.875 8.15933 4.72183 6.3125 7 6.3125C9.27817 6.3125 11.125 8.15933 11.125 10.4375ZM7 14.1875C9.07107 14.1875 10.75 12.5086 10.75 10.4375C10.75 8.36643 9.07107 6.6875 7 6.6875C4.92893 6.6875 3.25 8.36643 3.25 10.4375C3.25 12.5086 4.92893 14.1875 7 14.1875Z" fill="#81A5B0"/>
<path fill-rule="evenodd" clip-rule="evenodd" d="M7 13.625C8.76041 13.625 10.1875 12.1979 10.1875 10.4375C10.1875 10.3339 10.2714 10.25 10.375 10.25C10.4786 10.25 10.5625 10.3339 10.5625 10.4375C10.5625 12.405 8.96751 14 7 14C6.89645 14 6.8125 13.9161 6.8125 13.8125C6.8125 13.7089 6.89645 13.625 7 13.625Z" fill="#B5C3C8"/>
<path fill-rule="evenodd" clip-rule="evenodd" d="M7 7.25C5.23959 7.25 3.8125 8.67709 3.8125 10.4375C3.8125 10.5411 3.72855 10.625 3.625 10.625C3.52145 10.625 3.4375 10.5411 3.4375 10.4375C3.4375 8.46999 5.03249 6.875 7 6.875C7.10355 6.875 7.1875 6.95895 7.1875 7.0625C7.1875 7.16605 7.10355 7.25 7 7.25Z" fill="#D9EAEF"/>
<mask id="path-25-outside-1_1857_3793" maskUnits="userSpaceOnUse" x="4.6875" y="7.8125" width="4" height="5" fill="black">
<rect fill="white" x="4.6875" y="7.8125" width="4" height="5"/>
<path d="M8.0957 11.3181V11.8125H5.90723V11.3906L6.94214 10.281C7.04614 10.1653 7.12817 10.0635 7.18823 9.97559C7.24829 9.88623 7.2915 9.8064 7.31787 9.73608C7.3457 9.66431 7.35962 9.59619 7.35962 9.53174C7.35962 9.43506 7.34351 9.35229 7.31128 9.28345C7.27905 9.21313 7.23145 9.15894 7.16846 9.12085C7.10693 9.08276 7.03076 9.06372 6.93994 9.06372C6.84326 9.06372 6.75977 9.08716 6.68945 9.13403C6.62061 9.18091 6.56787 9.24609 6.53125 9.32959C6.49609 9.41309 6.47852 9.50757 6.47852 9.61304H5.84351C5.84351 9.42261 5.88892 9.24829 5.97974 9.09009C6.07056 8.93042 6.19873 8.80371 6.36426 8.70996C6.52979 8.61475 6.72607 8.56714 6.95312 8.56714C7.17725 8.56714 7.36621 8.60376 7.52002 8.677C7.67529 8.74878 7.79248 8.85278 7.87158 8.98901C7.95215 9.12378 7.99243 9.28491 7.99243 9.47241C7.99243 9.57788 7.97559 9.68115 7.94189 9.78223C7.9082 9.88184 7.85986 9.98145 7.79688 10.0811C7.73535 10.1792 7.66064 10.2788 7.57275 10.3799C7.48486 10.481 7.38745 10.5857 7.28052 10.6941L6.72461 11.3181H8.0957Z"/>
</mask>
<path d="M8.0957 11.3181V11.8125H5.90723V11.3906L6.94214 10.281C7.04614 10.1653 7.12817 10.0635 7.18823 9.97559C7.24829 9.88623 7.2915 9.8064 7.31787 9.73608C7.3457 9.66431 7.35962 9.59619 7.35962 9.53174C7.35962 9.43506 7.34351 9.35229 7.31128 9.28345C7.27905 9.21313 7.23145 9.15894 7.16846 9.12085C7.10693 9.08276 7.03076 9.06372 6.93994 9.06372C6.84326 9.06372 6.75977 9.08716 6.68945 9.13403C6.62061 9.18091 6.56787 9.24609 6.53125 9.32959C6.49609 9.41309 6.47852 9.50757 6.47852 9.61304H5.84351C5.84351 9.42261 5.88892 9.24829 5.97974 9.09009C6.07056 8.93042 6.19873 8.80371 6.36426 8.70996C6.52979 8.61475 6.72607 8.56714 6.95312 8.56714C7.17725 8.56714 7.36621 8.60376 7.52002 8.677C7.67529 8.74878 7.79248 8.85278 7.87158 8.98901C7.95215 9.12378 7.99243 9.28491 7.99243 9.47241C7.99243 9.57788 7.97559 9.68115 7.94189 9.78223C7.9082 9.88184 7.85986 9.98145 7.79688 10.0811C7.73535 10.1792 7.66064 10.2788 7.57275 10.3799C7.48486 10.481 7.38745 10.5857 7.28052 10.6941L6.72461 11.3181H8.0957Z" fill="#D9EAEF"/>
<path d="M8.0957 11.3181H8.4707C8.4707 11.111 8.30281 10.9431 8.0957 10.9431V11.3181ZM8.0957 11.8125V12.1875C8.30281 12.1875 8.4707 12.0196 8.4707 11.8125H8.0957ZM5.90723 11.8125H5.53223C5.53223 12.0196 5.70012 12.1875 5.90723 12.1875V11.8125ZM5.90723 11.3906L5.63299 11.1349C5.56824 11.2043 5.53223 11.2957 5.53223 11.3906H5.90723ZM6.94214 10.281L7.21642 10.5368L7.22105 10.5317L6.94214 10.281ZM7.18823 9.97559L7.49786 10.1872L7.49946 10.1848L7.18823 9.97559ZM7.31787 9.73608L6.96821 9.6005L6.96675 9.60441L7.31787 9.73608ZM7.31128 9.28345L6.97037 9.4397L6.97165 9.44242L7.31128 9.28345ZM7.16846 9.12085L6.97106 9.43972L6.97442 9.44175L7.16846 9.12085ZM6.68945 9.13403L6.48143 8.822L6.47841 8.82406L6.68945 9.13403ZM6.53125 9.32959L6.18779 9.17895L6.18564 9.18407L6.53125 9.32959ZM6.47852 9.61304V9.98804C6.68562 9.98804 6.85352 9.82014 6.85352 9.61304H6.47852ZM5.84351 9.61304H5.46851C5.46851 9.82014 5.6364 9.98804 5.84351 9.98804V9.61304ZM5.97974 9.09009L6.30496 9.27679L6.30569 9.2755L5.97974 9.09009ZM6.36426 8.70996L6.54907 9.03627L6.55124 9.03502L6.36426 8.70996ZM7.52002 8.677L7.35878 9.0156L7.36267 9.01739L7.52002 8.677ZM7.87158 8.98901L7.54726 9.17733L7.54971 9.18143L7.87158 8.98901ZM7.94189 9.78223L8.29713 9.90238L8.29765 9.90081L7.94189 9.78223ZM7.79688 10.0811L7.47993 9.88063L7.47914 9.88188L7.79688 10.0811ZM7.28052 10.6941L7.01355 10.4307C7.00909 10.4353 7.00474 10.4399 7.00051 10.4446L7.28052 10.6941ZM6.72461 11.3181L6.4446 11.0687C6.34633 11.179 6.32198 11.3367 6.38244 11.4715C6.44289 11.6064 6.57686 11.6931 6.72461 11.6931V11.3181ZM7.7207 11.3181V11.8125H8.4707V11.3181H7.7207ZM8.0957 11.4375H5.90723V12.1875H8.0957V11.4375ZM6.28223 11.8125V11.3906H5.53223V11.8125H6.28223ZM6.18146 11.6464L7.21637 10.5368L6.6679 10.0252L5.63299 11.1349L6.18146 11.6464ZM7.22105 10.5317C7.33158 10.4087 7.42524 10.2934 7.49785 10.1872L6.87862 9.76401C6.83111 9.83354 6.76071 9.92188 6.66323 10.0303L7.22105 10.5317ZM7.49946 10.1848C7.56941 10.0807 7.62903 9.97432 7.66899 9.86776L6.96675 9.60441C6.95398 9.63847 6.92717 9.69175 6.877 9.7664L7.49946 10.1848ZM7.66751 9.87166C7.70892 9.76485 7.73462 9.65062 7.73462 9.53174H6.98462C6.98462 9.54176 6.98249 9.56376 6.96824 9.60051L7.66751 9.87166ZM7.73462 9.53174C7.73462 9.39456 7.71186 9.25468 7.65091 9.12447L6.97165 9.44242C6.97515 9.44991 6.98462 9.47556 6.98462 9.53174H7.73462ZM7.65218 9.1272C7.5903 8.99219 7.49321 8.87899 7.36249 8.79995L6.97442 9.44175C6.97378 9.44136 6.97168 9.43985 6.96966 9.43754C6.96775 9.43536 6.96835 9.43527 6.97038 9.43969L7.65218 9.1272ZM7.36584 8.802C7.23161 8.7189 7.08283 8.68872 6.93994 8.68872V9.43872C6.95936 9.43872 6.97011 9.44077 6.97423 9.44181C6.97792 9.44273 6.97594 9.44271 6.97107 9.4397L7.36584 8.802ZM6.93994 8.68872C6.78021 8.68872 6.6219 8.72838 6.48144 8.82201L6.89747 9.44605C6.89763 9.44594 6.90631 9.43872 6.93994 9.43872V8.68872ZM6.47841 8.82406C6.34589 8.91428 6.24996 9.0373 6.18783 9.17897L6.87467 9.48021C6.88578 9.45488 6.89532 9.44753 6.9005 9.44401L6.47841 8.82406ZM6.18564 9.18407C6.12817 9.32056 6.10352 9.4657 6.10352 9.61304H6.85352C6.85352 9.54944 6.86402 9.50562 6.87686 9.47511L6.18564 9.18407ZM6.47852 9.23804H5.84351V9.98804H6.47852V9.23804ZM6.21851 9.61304C6.21851 9.48512 6.24821 9.37563 6.30496 9.27679L5.65452 8.90339C5.52962 9.12095 5.46851 9.36009 5.46851 9.61304H6.21851ZM6.30569 9.2755C6.36182 9.17683 6.44025 9.09789 6.54906 9.03626L6.17945 8.38366C5.95722 8.50953 5.7793 8.68401 5.65378 8.90468L6.30569 9.2755ZM6.55124 9.03502C6.64999 8.97822 6.77925 8.94214 6.95312 8.94214V8.19214C6.6729 8.19214 6.40958 8.25127 6.17728 8.3849L6.55124 9.03502ZM6.95312 8.94214C7.13832 8.94214 7.26862 8.97264 7.35879 9.01557L7.68124 8.33843C7.4638 8.23488 7.21618 8.19214 6.95312 8.19214V8.94214ZM7.36267 9.01739C7.4543 9.05975 7.51024 9.1135 7.54729 9.17731L8.19588 8.80071C8.07473 8.59206 7.89628 8.43781 7.67737 8.33661L7.36267 9.01739ZM7.54971 9.18143C7.5893 9.24764 7.61743 9.33944 7.61743 9.47241H8.36743C8.36743 9.23038 8.315 8.99991 8.19345 8.79659L7.54971 9.18143ZM7.61743 9.47241C7.61743 9.53716 7.60722 9.60041 7.58614 9.66364L8.29765 9.90081C8.34396 9.7619 8.36743 9.6186 8.36743 9.47241H7.61743ZM7.58666 9.66208C7.56357 9.73035 7.5289 9.80319 7.47993 9.88063L8.11382 10.2815C8.19083 10.1597 8.25284 10.0333 8.29712 9.90238L7.58666 9.66208ZM7.47914 9.88188C7.42942 9.9612 7.36681 10.0452 7.28978 10.1338L7.85573 10.6259C7.95448 10.5124 8.04128 10.3972 8.11461 10.2802L7.47914 9.88188ZM7.28978 10.1338C7.20768 10.2282 7.1157 10.3272 7.01355 10.4307L7.54748 10.9574C7.6592 10.8442 7.76205 10.7337 7.85573 10.6259L7.28978 10.1338ZM7.00051 10.4446L6.4446 11.0687L7.00462 11.5676L7.56052 10.9435L7.00051 10.4446ZM6.72461 11.6931H8.0957V10.9431H6.72461V11.6931Z" fill="#81A5B0" mask="url(#path-25-outside-1_1857_3793)"/>
</svg>
