<svg width="24" height="24" viewBox="0 0 24 24" fill="none" xmlns="http://www.w3.org/2000/svg">
<path d="M20 11C20 15.4183 16.4183 19 12 19C7.58172 19 4 15.4183 4 11C4 6.58172 7.58172 3 12 3C16.4183 3 20 6.58172 20 11Z" fill="#DCA16A"/>
<path fill-rule="evenodd" clip-rule="evenodd" d="M20.5934 11.0008C20.5934 15.7464 16.7464 19.5934 12.0008 19.5934C7.25524 19.5934 3.4082 15.7464 3.4082 11.0008C3.4082 6.25524 7.25524 2.4082 12.0008 2.4082C16.7464 2.4082 20.5934 6.25524 20.5934 11.0008ZM12.0008 19.0008C16.4191 19.0008 20.0008 15.4191 20.0008 11.0008C20.0008 6.58252 16.4191 3.0008 12.0008 3.0008C7.58252 3.0008 4.0008 6.58252 4.0008 11.0008C4.0008 15.4191 7.58252 19.0008 12.0008 19.0008Z" fill="#C38144"/>
<path fill-rule="evenodd" clip-rule="evenodd" d="M4.59317 11.2969C4.42953 11.2969 4.29688 11.1642 4.29688 11.0006C4.29688 6.74594 7.74594 3.29687 12.0006 3.29687C12.1642 3.29687 12.2969 3.42953 12.2969 3.59317C12.2969 3.75681 12.1642 3.88947 12.0006 3.88947C8.07322 3.88947 4.88947 7.07322 4.88947 11.0006C4.88947 11.1642 4.75681 11.2969 4.59317 11.2969Z" fill="#F0B57F"/>
<path fill-rule="evenodd" clip-rule="evenodd" d="M19.4068 10.7031C19.5705 10.7031 19.7031 10.8358 19.7031 10.9994C19.7031 15.2541 16.2541 18.7031 11.9994 18.7031C11.8358 18.7031 11.7031 18.5705 11.7031 18.4068C11.7031 18.2432 11.8358 18.1105 11.9994 18.1105C15.9268 18.1105 19.1105 14.9268 19.1105 10.9994C19.1105 10.8358 19.2432 10.7031 19.4068 10.7031Z" fill="#CF945D"/>
<path d="M17.9261 11.0001C17.9261 14.2729 15.2729 16.9261 12.0001 16.9261C8.72735 16.9261 6.07422 14.2729 6.07422 11.0001C6.07422 7.72735 8.72735 5.07422 12.0001 5.07422C15.2729 5.07422 17.9261 7.72735 17.9261 11.0001Z" fill="#F7BA82"/>
<path fill-rule="evenodd" clip-rule="evenodd" d="M18.5195 11.0009C18.5195 14.601 15.601 17.5195 12.0009 17.5195C8.40086 17.5195 5.48242 14.601 5.48242 11.0009C5.48242 7.40086 8.40086 4.48242 12.0009 4.48242C15.601 4.48242 18.5195 7.40086 18.5195 11.0009ZM12.0009 16.9269C15.2737 16.9269 17.9269 14.2737 17.9269 11.0009C17.9269 7.72814 15.2737 5.07501 12.0009 5.07501C8.72814 5.07501 6.07501 7.72814 6.07501 11.0009C6.07501 14.2737 8.72814 16.9269 12.0009 16.9269Z" fill="#C38144"/>
<path fill-rule="evenodd" clip-rule="evenodd" d="M11.9993 16.0363C14.7812 16.0363 17.0363 13.7812 17.0363 10.9993C17.0363 10.8356 17.169 10.703 17.3326 10.703C17.4963 10.703 17.6289 10.8356 17.6289 10.9993C17.6289 14.1084 15.1084 16.6289 11.9993 16.6289C11.8356 16.6289 11.703 16.4962 11.703 16.3326C11.703 16.169 11.8356 16.0363 11.9993 16.0363Z" fill="#E6A66C"/>
<path fill-rule="evenodd" clip-rule="evenodd" d="M12.0007 5.96369C9.21884 5.96369 6.96369 8.21884 6.96369 11.0007C6.96369 11.1644 6.83103 11.297 6.66739 11.297C6.50375 11.297 6.37109 11.1644 6.37109 11.0007C6.37109 7.89156 8.89156 5.37109 12.0007 5.37109C12.1644 5.37109 12.297 5.50375 12.297 5.66739C12.297 5.83103 12.1644 5.96369 12.0007 5.96369Z" fill="#FFD5AE"/>
<path d="M2.94399 18.8882L2.18079 17.3618C2.09768 17.1956 2.21855 17 2.4044 17L5.74989 17C5.88796 17 5.99989 17.1119 5.99989 17.25L5.99989 20.75C5.99989 20.8881 5.88796 21 5.74989 21L2.4044 21C2.21855 21 2.09768 20.8044 2.18079 20.6382L2.94399 19.1118C2.97918 19.0414 2.97918 18.9586 2.94399 18.8882Z" fill="#C52229"/>
<path d="M21.0558 18.8882L21.819 17.3618C21.9021 17.1956 21.7812 17 21.5954 17L18.2499 17C18.1118 17 17.9999 17.1119 17.9999 17.25L17.9999 20.75C17.9999 20.8881 18.1118 21 18.2499 21L21.5954 21C21.7812 21 21.9021 20.8044 21.819 20.6382L21.0558 19.1118C21.0206 19.0414 21.0206 18.9586 21.0558 18.8882Z" fill="#C52229"/>
<path fill-rule="evenodd" clip-rule="evenodd" d="M2.44023 19L1.73293 17.5854C1.4836 17.0867 1.84621 16.5 2.40375 16.5L5.74924 16.5C6.16346 16.5 6.49924 16.8358 6.49924 17.25L6.49924 20.75C6.49924 21.1642 6.16346 21.5 5.74924 21.5L2.40375 21.5C1.84621 21.5 1.4836 20.9133 1.73293 20.4146L2.44023 19ZM2.49598 19.1115C2.49603 19.1116 2.49608 19.1117 2.49613 19.1118L2.71974 19L2.49613 19.1118L2.49598 19.1115ZM21.5583 19L22.2656 17.5854C22.5149 17.0867 22.1523 16.5 21.5947 16.5L18.2492 16.5C17.835 16.5 17.4992 16.8358 17.4992 17.25L17.4992 20.75C17.4992 21.1642 17.835 21.5 18.2492 21.5L21.5947 21.5C22.1523 21.5 22.5149 20.9133 22.2656 20.4146L21.5583 19ZM21.8183 17.3618L21.0551 18.8882C21.02 18.9586 21.02 19.0414 21.0551 19.1118L21.8183 20.6382C21.9015 20.8044 21.7806 21 21.5947 21L18.2492 21C18.1112 21 17.9992 20.8881 17.9992 20.75L17.9992 17.25C17.9992 17.1119 18.1112 17 18.2492 17L21.5947 17C21.7806 17 21.9015 17.1956 21.8183 17.3618ZM2.18015 17.3618L2.94334 18.8882C2.97853 18.9586 2.97853 19.0414 2.94334 19.1118L2.18015 20.6382C2.09703 20.8044 2.21791 21 2.40375 21L5.74924 21C5.88732 21 5.99924 20.8881 5.99924 20.75L5.99924 17.25C5.99924 17.1119 5.88732 17 5.74924 17L2.40375 17C2.21791 17 2.09703 17.1956 2.18015 17.3618Z" fill="#9B0F15"/>
<path fill-rule="evenodd" clip-rule="evenodd" d="M2.5385 17.2261C2.58428 17.1534 2.66414 17.1094 2.75 17.1094H3.8125C3.95057 17.1094 4.0625 17.2213 4.0625 17.3594C4.0625 17.4974 3.95057 17.6094 3.8125 17.6094H3.14669L3.66303 18.689C3.72261 18.8136 3.66992 18.9628 3.54536 19.0224C3.42081 19.082 3.27154 19.0293 3.21197 18.9047L2.52447 17.4672C2.48742 17.3898 2.49272 17.2987 2.5385 17.2261Z" fill="#DF3840"/>
<path d="M19 19.75L19 16.25C19 16.1119 18.8881 16 18.75 16L5.25 16C5.11193 16 5 16.1119 5 16.25L5 19.75C5 19.8881 5.11193 20 5.25 20L18.75 20C18.8881 20 19 19.8881 19 19.75Z" fill="#F1333B"/>
<path fill-rule="evenodd" clip-rule="evenodd" d="M19.5 16.25L19.5 19.75C19.5 20.1642 19.1642 20.5 18.75 20.5L5.25 20.5C4.83579 20.5 4.5 20.1642 4.5 19.75L4.5 16.25C4.5 15.8358 4.83579 15.5 5.25 15.5L18.75 15.5C19.1642 15.5 19.5 15.8358 19.5 16.25ZM19 16.25L19 19.75C19 19.8881 18.8881 20 18.75 20L5.25 20C5.11193 20 5 19.8881 5 19.75L5 16.25C5 16.1119 5.11193 16 5.25 16L18.75 16C18.8881 16 19 16.1119 19 16.25Z" fill="#9B0F15"/>
<path d="M18.3081 18.0959C18.1666 18.0959 18.0518 17.9839 18.0518 17.8458C18.0518 17.7077 18.1666 17.5957 18.3081 17.5957C18.4497 17.5957 18.5645 17.7077 18.5645 17.8458C18.5645 17.9839 18.4497 18.0959 18.3081 18.0959Z" fill="#DB1B24"/>
<path d="M17.3335 17.9952C17.1574 17.9952 17.0147 17.8559 17.0147 17.6841C17.0147 17.5123 17.1574 17.373 17.3335 17.373C17.5096 17.373 17.6523 17.5123 17.6523 17.6841C17.6523 17.8559 17.5096 17.9952 17.3335 17.9952Z" fill="#DB1B24"/>
<path d="M17.7683 18.7056C17.6803 18.7056 17.6089 18.636 17.6089 18.5501C17.6089 18.4642 17.6803 18.3945 17.7683 18.3945C17.8564 18.3945 17.9277 18.4642 17.9277 18.5501C17.9277 18.636 17.8564 18.7056 17.7683 18.7056Z" fill="#DB1B24"/>
<path d="M17.4929 17.0611C17.4049 17.0611 17.3335 16.9914 17.3335 16.9055C17.3335 16.8196 17.4049 16.75 17.4929 16.75C17.581 16.75 17.6523 16.8196 17.6523 16.9055C17.6523 16.9914 17.581 17.0611 17.4929 17.0611Z" fill="#DB1B24"/>
<path d="M16.655 18.5513C16.567 18.5513 16.4956 18.4817 16.4956 18.3958C16.4956 18.3099 16.567 18.2402 16.655 18.2402C16.7431 18.2402 16.8145 18.3099 16.8145 18.3958C16.8145 18.4817 16.7431 18.5513 16.655 18.5513Z" fill="#DB1B24"/>
<path d="M16.4949 17.7505C16.4068 17.7505 16.3355 17.6809 16.3355 17.595C16.3355 17.5091 16.4068 17.4395 16.4949 17.4395C16.5829 17.4395 16.6543 17.5091 16.6543 17.595C16.6543 17.6809 16.5829 17.7505 16.4949 17.7505Z" fill="#DB1B24"/>
<path d="M15.4089 19.5552C15.3209 19.5552 15.2495 19.4856 15.2495 19.3997C15.2495 19.3138 15.3209 19.2441 15.4089 19.2441C15.497 19.2441 15.5684 19.3138 15.5684 19.3997C15.5684 19.4856 15.497 19.5552 15.4089 19.5552Z" fill="#DB1B24"/>
<path d="M18.5808 18.9615C18.4928 18.9615 18.4214 18.8918 18.4214 18.8059C18.4214 18.72 18.4928 18.6504 18.5808 18.6504C18.6689 18.6504 18.7402 18.72 18.7402 18.8059C18.7402 18.8918 18.6689 18.9615 18.5808 18.9615Z" fill="#DB1B24"/>
<path d="M17.0745 19.3012C16.9312 19.3012 16.8151 19.1878 16.8151 19.048C16.8151 18.9082 16.9312 18.7949 17.0745 18.7949C17.2178 18.7949 17.334 18.9082 17.334 19.048C17.334 19.1878 17.2178 19.3012 17.0745 19.3012Z" fill="#DB1B24"/>
<path d="M18.1878 19.5551C18.0445 19.5551 17.9284 19.4418 17.9284 19.302C17.9284 19.1622 18.0445 19.0488 18.1878 19.0488C18.3311 19.0488 18.4473 19.1622 18.4473 19.302C18.4473 19.4418 18.3311 19.5551 18.1878 19.5551Z" fill="#DB1B24"/>
<path d="M15.9183 19.057C15.775 19.057 15.6588 18.9437 15.6588 18.8039C15.6588 18.6641 15.775 18.5508 15.9183 18.5508C16.0616 18.5508 16.1777 18.6641 16.1777 18.8039C16.1777 18.9437 16.0616 19.057 15.9183 19.057Z" fill="#DB1B24"/>
<path d="M16.3367 19.6314C16.2486 19.6314 16.1772 19.5617 16.1772 19.4758C16.1772 19.3899 16.2486 19.3203 16.3367 19.3203C16.4247 19.3203 16.4961 19.3899 16.4961 19.4758C16.4961 19.5617 16.4247 19.6314 16.3367 19.6314Z" fill="#DB1B24"/>
<path fill-rule="evenodd" clip-rule="evenodd" d="M5.15625 16.3594C5.15625 16.2213 5.26818 16.1094 5.40625 16.1094H14.7812C14.9193 16.1094 15.0312 16.2213 15.0312 16.3594C15.0312 16.4974 14.9193 16.6094 14.7812 16.6094H5.65625V18.3594C5.65625 18.4974 5.54432 18.6094 5.40625 18.6094C5.26818 18.6094 5.15625 18.4974 5.15625 18.3594V16.3594Z" fill="#FE666D"/>
<path d="M11.3575 10.4549H11.8421C12.0729 10.4549 12.2439 10.3972 12.355 10.2818C12.4662 10.1664 12.5218 10.0133 12.5218 9.82237C12.5218 9.63777 12.4662 9.49407 12.355 9.39128C12.2459 9.28848 12.0949 9.23709 11.9019 9.23709C11.7278 9.23709 11.582 9.28534 11.4645 9.38184C11.347 9.47624 11.2883 9.60001 11.2883 9.75315H10.3789C10.3789 9.514 10.4429 9.30002 10.5709 9.11122C10.7009 8.92032 10.8813 8.77138 11.1121 8.66439C11.3449 8.5574 11.6009 8.50391 11.8799 8.50391C12.3645 8.50391 12.7442 8.62033 13.019 8.85319C13.2938 9.08395 13.4312 9.40281 13.4312 9.80979C13.4312 10.0196 13.3672 10.2126 13.2393 10.3888C13.1113 10.565 12.9435 10.7003 12.7358 10.7947C12.9938 10.887 13.1858 11.0255 13.3116 11.2101C13.4396 11.3947 13.5036 11.6128 13.5036 11.8646C13.5036 12.2716 13.3546 12.5978 13.0567 12.8432C12.761 13.0887 12.3687 13.2114 11.8799 13.2114C11.4226 13.2114 11.0481 13.0907 10.7565 12.8495C10.467 12.6083 10.3223 12.2894 10.3223 11.8929H11.2317C11.2317 12.0649 11.2956 12.2055 11.4236 12.3146C11.5537 12.4236 11.7131 12.4782 11.9019 12.4782C12.118 12.4782 12.2869 12.4215 12.4085 12.3083C12.5323 12.1929 12.5942 12.0408 12.5942 11.852C12.5942 11.3947 12.3424 11.166 11.839 11.166H11.3575V10.4549Z" fill="#FFD5AE"/>
<path fill-rule="evenodd" clip-rule="evenodd" d="M10.8461 10.2901H10.3788C10.0822 10.2901 9.8418 10.0497 9.8418 9.75307C9.8418 9.41201 9.93498 9.09202 10.1262 8.80984L10.127 8.80877C10.3171 8.52975 10.5765 8.32064 10.8861 8.1771L10.8878 8.17632C11.197 8.03423 11.5304 7.9668 11.8798 7.9668C12.447 7.9668 12.9644 8.1035 13.3652 8.44262C13.778 8.78976 13.9682 9.26832 13.9682 9.80972C13.9682 10.1374 13.8656 10.4401 13.6737 10.7043C13.6613 10.7214 13.6486 10.7382 13.6357 10.7547C13.678 10.802 13.7175 10.8522 13.7541 10.9057C13.9509 11.1905 14.0405 11.5178 14.0405 11.8645C14.0405 12.4216 13.8277 12.9034 13.3989 13.257C12.9831 13.6017 12.4587 13.7483 11.8798 13.7483C11.3246 13.7483 10.821 13.5998 10.4141 13.2632L10.4126 13.262C9.99356 12.9128 9.78516 12.4392 9.78516 11.8928C9.78516 11.5962 10.0256 11.3558 10.3222 11.3558H10.8549C10.8326 11.2968 10.8204 11.2328 10.8204 11.1659V10.4548C10.8204 10.3973 10.8294 10.342 10.8461 10.2901ZM11.7341 11.703C11.7564 11.762 11.7686 11.826 11.7686 11.8928C11.7686 11.8973 11.7688 11.9007 11.769 11.9032C11.7695 11.9036 11.77 11.9041 11.7705 11.9045C11.7929 11.9228 11.8262 11.9411 11.9018 11.9411C11.9638 11.9411 12.0007 11.9329 12.0198 11.9265C12.0357 11.9211 12.0409 11.9166 12.0423 11.9154M11.7341 11.703H11.8389C11.9724 11.703 12.0268 11.7259 12.0416 11.7339C12.042 11.7347 12.0423 11.7357 12.0427 11.7368C12.0478 11.7505 12.0571 11.7855 12.0571 11.8519C12.0571 11.8872 12.0514 11.9023 12.0503 11.9052C12.0495 11.907 12.049 11.9078 12.0485 11.9086C12.048 11.9093 12.0462 11.9117 12.0423 11.9154M13.0567 12.8431C13.3546 12.5977 13.5035 12.2715 13.5035 11.8645C13.5035 11.6128 13.4395 11.3946 13.3116 11.21C13.2908 11.1796 13.2683 11.1505 13.244 11.1226C13.1207 10.9811 12.9513 10.8717 12.7357 10.7946C12.93 10.7063 13.0893 10.5823 13.2139 10.4224C13.2225 10.4113 13.2309 10.4001 13.2392 10.3887C13.3672 10.2125 13.4311 10.0195 13.4311 9.80972C13.4311 9.40274 13.2937 9.08388 13.0189 8.85312C12.7441 8.62026 12.3644 8.50383 11.8798 8.50383C11.6008 8.50383 11.3449 8.55733 11.112 8.66432C10.8813 8.7713 10.7008 8.92025 10.5708 9.11115C10.5476 9.14529 10.5266 9.18025 10.5076 9.21604C10.4218 9.37816 10.3788 9.55717 10.3788 9.75307H11.2882C11.2882 9.59994 11.347 9.47616 11.4644 9.38176C11.5819 9.28526 11.7277 9.23702 11.9018 9.23702C12.0948 9.23702 12.2459 9.28841 12.355 9.3912C12.4661 9.494 12.5217 9.6377 12.5217 9.8223C12.5217 10.0132 12.4661 10.1663 12.355 10.2817C12.2438 10.3971 12.0728 10.4548 11.8421 10.4548H11.3575V11.1659H11.8389C12.3424 11.1659 12.5941 11.3946 12.5941 11.8519C12.5941 12.0407 12.5322 12.1928 12.4085 12.3082C12.2868 12.4215 12.1179 12.4781 11.9018 12.4781C11.713 12.4781 11.5536 12.4236 11.4235 12.3145C11.2956 12.2054 11.2316 12.0649 11.2316 11.8928H10.3222C10.3222 12.0913 10.3585 12.2703 10.431 12.4299C10.5034 12.5891 10.6118 12.7289 10.7564 12.8494C11.048 13.0907 11.4225 13.2113 11.8798 13.2113C12.3686 13.2113 12.7609 13.0886 13.0567 12.8431ZM11.7995 9.91775C11.8131 9.87566 11.8216 9.8313 11.8243 9.7854C11.8385 9.77955 11.862 9.77405 11.9018 9.77405C11.9447 9.77405 11.9698 9.77903 11.982 9.78248C11.9834 9.7909 11.9847 9.80386 11.9847 9.8223C11.9847 9.86577 11.9784 9.88838 11.9752 9.89708C11.9745 9.89913 11.9738 9.90078 11.9731 9.90216C11.9727 9.90232 11.9722 9.90249 11.9716 9.90267C11.9544 9.90848 11.9145 9.91775 11.8421 9.91775H11.7995Z" fill="#C28044"/>
</svg>
