<svg width="24" height="19" viewBox="0 0 24 19" fill="none" xmlns="http://www.w3.org/2000/svg">
<path d="M23.1562 0.876023L19.2853 4.52918L22.9882 10.7617L23.1562 10.5527V0.876023ZM0.84375 0.92932V11.5181C1.05375 11.5453 1.30608 11.5604 1.5607 11.5631C2.11711 11.5689 2.57573 11.5326 2.83336 11.5094L5.30156 5.26404L0.84375 0.92932ZM19.0853 5.84463L18.7553 6.0582C18.7483 6.06274 18.504 6.21457 18.4322 6.25929L17.9351 6.56023L17.9422 6.56445C17.7118 6.70774 17.6478 6.74805 17.3864 6.91038C17.2537 6.99274 17.2504 6.99466 17.1246 7.0728C16.1735 6.56154 15.1415 6.16859 13.9372 5.85959C12.4226 6.31718 10.818 6.97934 9.21586 7.60062C9.88102 8.40157 10.6202 8.66238 11.3648 8.67171C12.2283 8.68249 13.1109 8.30702 13.7188 7.88637L14.0657 7.64637L14.4138 8.14934L19.8256 12.0554L21.9403 10.6498L19.0853 5.84463ZM5.92861 5.97307L3.80203 11.3537L4.5825 11.9539L6.02602 10.3177L6.14166 10.1867L6.31603 10.1758C6.38634 10.1714 6.45572 10.1693 6.52416 10.1697C7.00284 10.1728 7.43081 10.297 7.75181 10.5803C7.98956 10.7899 8.14763 11.069 8.23931 11.3922L8.34619 11.3855C8.90845 11.3504 9.41503 11.4664 9.78197 11.7901C10.1489 12.1138 10.3271 12.6021 10.3623 13.1644L10.3656 13.2151C10.6674 13.2721 10.9377 13.3909 11.1574 13.5848C11.5244 13.9085 11.7026 14.3967 11.7377 14.9591L11.747 15.1053C11.7771 15.1148 11.8067 15.1252 11.836 15.1361L11.9313 15.0024L12.1877 14.6425L12.3196 14.4574L12.6632 14.7022L15.4489 16.6867C15.7519 16.612 15.9325 16.4957 16.0329 16.3545C16.1336 16.2133 16.1845 16.0044 16.1559 15.6933L12.8157 13.3012L12.4727 13.0556L12.716 12.7159L13.0286 12.277L13.3722 12.5218L17.1379 15.2043C17.4409 15.1296 17.6217 15.0133 17.7221 14.8721C17.8226 14.7311 17.8735 14.5226 17.8452 14.2121L13.514 11.1394L13.17 10.8952L13.6581 10.2071L14.0023 10.4512L18.3342 13.5245C18.6375 13.4498 18.8183 13.3335 18.9189 13.1923C19.0196 13.051 19.0704 12.8419 19.0417 12.5302L13.8648 8.79377C13.1779 9.20102 12.2991 9.52727 11.3543 9.51546C10.2487 9.50163 9.06605 8.9733 8.19605 7.63812C8.16164 7.58532 8.13949 7.52548 8.13124 7.463C8.12299 7.40052 8.12885 7.33698 8.14837 7.27706C8.1679 7.21714 8.20061 7.16235 8.24408 7.11673C8.28756 7.0711 8.34071 7.0358 8.39963 7.01341C9.00966 6.78162 9.62602 6.5367 10.2438 6.2937L5.9287 5.97335L5.92861 5.97307ZM6.53339 11.0178L4.30383 13.5448C4.34728 13.861 4.44633 14.0577 4.57978 14.1754C4.71323 14.2932 4.9208 14.3669 5.23997 14.3706L7.46948 11.8437C7.42603 11.5274 7.32698 11.3306 7.19353 11.2129C7.06008 11.0951 6.85256 11.0215 6.53334 11.0178L6.53339 11.0178ZM8.56345 12.2276L6.04566 15.0814C6.08906 15.3976 6.18816 15.5944 6.32156 15.7121C6.45516 15.8298 6.66258 15.9035 6.9818 15.9071L9.49959 13.0535C9.45619 12.7372 9.35709 12.5405 9.22364 12.4227C9.09023 12.3049 8.88272 12.2312 8.5635 12.2275L8.56345 12.2276ZM9.93877 14.0223L7.70939 16.5493C7.75284 16.8655 7.85189 17.0622 7.98534 17.18C8.11884 17.2978 8.32636 17.3714 8.64553 17.3751L10.875 14.8484C10.8315 14.532 10.7325 14.3352 10.599 14.2174C10.4656 14.0997 10.2581 14.0261 9.93886 14.0224L9.93877 14.0223ZM11.0967 15.8568L9.2782 17.9324C9.32156 18.2493 9.42061 18.4463 9.5542 18.5641C9.68756 18.6818 9.89484 18.7555 10.2136 18.7593L12.0322 16.6836C11.9888 16.3669 11.8897 16.1699 11.7561 16.0519C11.6228 15.9343 11.4155 15.8607 11.0967 15.8569L11.0967 15.8568ZM12.7533 16.0813C12.8327 16.2979 12.8786 16.5379 12.8946 16.7935L12.9055 16.9671L12.5175 17.41L13.7702 18.3023C14.0732 18.2276 14.2537 18.1113 14.3542 17.9702C14.4548 17.8291 14.5058 17.6203 14.4774 17.3096L12.7534 16.0814L12.7533 16.0813Z" fill="url(#paint0_linear_3062_9131)"/>
<defs>
<linearGradient id="paint0_linear_3062_9131" x1="0.84375" y1="9.81762" x2="23.1562" y2="9.81762" gradientUnits="userSpaceOnUse">
<stop stop-color="#232526"/>
<stop offset="1" stop-color="#434343"/>
</linearGradient>
</defs>
</svg>
