<svg width="14" height="14" viewBox="0 0 14 14" fill="none" xmlns="http://www.w3.org/2000/svg">
<path d="M11.0948 2.02964C9.96317 0.897977 8.85484 0.868811 7.69401 2.02964L6.98817 2.73548C6.92984 2.79381 6.90651 2.88714 6.92984 2.96881C7.37317 4.51464 8.60984 5.75131 10.1557 6.19464C10.179 6.20048 10.2023 6.20631 10.2257 6.20631C10.2898 6.20631 10.3482 6.18298 10.3948 6.13631L11.0948 5.43048C11.6723 4.85881 11.9523 4.30464 11.9523 3.74464C11.9582 3.16714 11.6782 2.60714 11.0948 2.02964Z" fill="url(#paint0_linear_3086_9525)"/>
<path d="M9.10586 6.72596C8.93669 6.6443 8.77336 6.56263 8.61586 6.4693C8.48752 6.39346 8.36502 6.3118 8.24252 6.2243C8.14336 6.16013 8.02669 6.0668 7.91586 5.97346C7.90419 5.96763 7.86336 5.93263 7.81669 5.88596C7.62419 5.72263 7.40836 5.51263 7.21586 5.2793C7.19836 5.26763 7.16919 5.2268 7.12836 5.1743C7.07002 5.1043 6.97086 4.98763 6.88336 4.85346C6.81336 4.76596 6.73169 4.63763 6.65586 4.5093C6.56252 4.3518 6.48086 4.1943 6.39919 4.03096C6.38683 4.00448 6.37488 3.97814 6.36328 3.95194C6.2772 3.75751 6.02366 3.70066 5.8733 3.85102L2.53169 7.19263C2.45586 7.26846 2.38586 7.4143 2.36836 7.51346L2.05336 9.74763C1.99502 10.1443 2.10586 10.5176 2.35086 10.7685C2.56086 10.9726 2.85252 11.0835 3.16752 11.0835C3.23752 11.0835 3.30752 11.0776 3.37752 11.066L5.61752 10.751C5.72252 10.7335 5.86836 10.6635 5.93836 10.5876L9.27579 7.2502C9.42719 7.09879 9.37008 6.83894 9.17314 6.7549C9.15097 6.74545 9.12856 6.7358 9.10586 6.72596Z" fill="url(#paint1_linear_3086_9525)"/>
<defs>
<linearGradient id="paint0_linear_3086_9525" x1="6.9209" y1="3.68812" x2="11.9524" y2="3.68812" gradientUnits="userSpaceOnUse">
<stop stop-color="#232526"/>
<stop offset="1" stop-color="#434343"/>
</linearGradient>
<linearGradient id="paint1_linear_3086_9525" x1="2.03809" y1="7.30638" x2="9.60169" y2="7.30638" gradientUnits="userSpaceOnUse">
<stop stop-color="#232526"/>
<stop offset="1" stop-color="#434343"/>
</linearGradient>
</defs>
</svg>
