<svg width="75" height="104" viewBox="0 0 75 104" fill="none" xmlns="http://www.w3.org/2000/svg">
<path d="M12.3535 45.5616C13.9548 43.9602 15.8422 43.1596 18.0155 43.1596C20.2459 43.1024 22.1619 43.9031 23.7632 45.5616C24.4496 46.2479 25.0215 47.0772 25.479 48.0495C25.9365 49.0217 26.1653 50.0798 26.1653 51.2236V76.6168C26.1653 78.9045 25.3646 80.8205 23.7632 82.3646C22.2191 83.9088 20.3317 84.6809 18.1012 84.6809C15.8136 84.6809 13.8976 83.9088 12.3535 82.3646C10.8093 80.8205 10.0372 78.9045 10.0372 76.6168V63.4055C9.97999 63.0052 9.75122 62.805 9.35088 62.805C8.95054 62.805 8.43581 62.805 7.8067 62.805C7.23478 62.805 6.63426 62.7764 6.00515 62.7192C5.37604 62.6048 4.80412 62.2617 4.28939 61.6897C2.8024 60.0312 2.25908 58.4584 2.65942 56.9714C3.05977 55.4844 4.06062 53.9116 5.662 52.2531L12.3535 45.5616Z" fill="#AFA335"/>
<mask id="path-2-outside-1_1218_12368" maskUnits="userSpaceOnUse" x="3.36133" y="38" width="27" height="46" fill="black">
<rect fill="white" x="3.36133" y="38" width="27" height="46"/>
<path d="M14.7148 42.8807C16.3162 41.2793 18.2035 40.4786 20.3768 40.4786C22.6073 40.4215 24.5232 41.2221 26.1246 42.8807C26.8109 43.567 27.3828 44.3963 27.8403 45.3686C28.2979 46.3408 28.5266 47.3989 28.5266 48.5427V73.9359C28.5266 76.2236 27.726 78.1395 26.1246 79.6837C24.5804 81.2279 22.6931 82 20.4626 82C18.1749 82 16.259 81.2279 14.7148 79.6837C13.1706 78.1395 12.3985 76.2236 12.3985 73.9359V60.7246C12.3413 60.3243 12.1126 60.1241 11.7122 60.1241C11.3119 60.1241 10.7971 60.1241 10.168 60.1241C9.59611 60.1241 8.99559 60.0955 8.36648 60.0383C7.73737 59.9239 7.16545 59.5808 6.65072 59.0088C5.16373 57.3503 4.62041 55.7775 5.02075 54.2905C5.4211 52.8035 6.42196 51.2307 8.02333 49.5722L14.7148 42.8807Z"/>
</mask>
<path d="M20.3768 40.4786V41.9786H20.396L20.4152 41.9782L20.3768 40.4786ZM26.1246 42.8807L25.0455 43.9226L25.0546 43.9321L25.0639 43.9414L26.1246 42.8807ZM27.8403 45.3686L29.1976 44.7299L27.8403 45.3686ZM26.1246 79.6837L25.0834 78.604L25.0736 78.6134L25.0639 78.6231L26.1246 79.6837ZM14.7148 79.6837L15.7754 78.6231L14.7148 79.6837ZM12.3985 60.7246H13.8985V60.618L13.8834 60.5125L12.3985 60.7246ZM8.36648 60.0383L8.09815 61.5141L8.16401 61.5261L8.23068 61.5321L8.36648 60.0383ZM6.65072 59.0088L5.53387 60.0102L5.53578 60.0123L6.65072 59.0088ZM8.02333 49.5722L6.96267 48.5115L6.95337 48.5208L6.94423 48.5303L8.02333 49.5722ZM15.7754 43.9414C17.1087 42.6081 18.6196 41.9786 20.3768 41.9786V38.9786C17.7874 38.9786 15.5236 39.9506 13.6541 41.82L15.7754 43.9414ZM20.4152 41.9782C22.21 41.9321 23.725 42.555 25.0455 43.9226L27.2037 41.8388C25.3214 39.8893 23.0046 38.9108 20.3383 38.9791L20.4152 41.9782ZM25.0639 43.9414C25.6153 44.4928 26.0915 45.175 26.4831 46.0073L29.1976 44.7299C28.6741 43.6176 28.0064 42.6412 27.1852 41.82L25.0639 43.9414ZM26.4831 46.0073C26.8406 46.767 27.0266 47.6052 27.0266 48.5427H30.0266C30.0266 47.1926 29.7551 45.9147 29.1976 44.7299L26.4831 46.0073ZM27.0266 48.5427V73.9359H30.0266V48.5427H27.0266ZM27.0266 73.9359C27.0266 75.8293 26.3823 77.3514 25.0834 78.604L27.1658 80.7635C29.0696 78.9277 30.0266 76.6179 30.0266 73.9359H27.0266ZM25.0639 78.6231C23.8077 79.8793 22.3048 80.5 20.4626 80.5V83.5C23.0814 83.5 25.3531 82.5765 27.1852 80.7444L25.0639 78.6231ZM20.4626 80.5C18.5517 80.5 17.0238 79.8714 15.7754 78.6231L13.6541 80.7444C15.4942 82.5844 17.7981 83.5 20.4626 83.5V80.5ZM15.7754 78.6231C14.5271 77.3747 13.8985 75.8469 13.8985 73.9359H10.8985C10.8985 76.6004 11.8141 78.9043 13.6541 80.7444L15.7754 78.6231ZM13.8985 73.9359V60.7246H10.8985V73.9359H13.8985ZM13.8834 60.5125C13.8211 60.0758 13.6345 59.5502 13.1718 59.1453C12.7071 58.7387 12.1585 58.6241 11.7122 58.6241V61.6241C11.6662 61.6241 11.4322 61.6095 11.1963 61.4031C10.9623 61.1984 10.9188 60.9731 10.9136 60.9367L13.8834 60.5125ZM11.7122 58.6241C11.7114 58.6241 11.7106 58.6241 11.7099 58.6241C11.7091 58.6241 11.7083 58.6241 11.7075 58.6241C11.7067 58.6241 11.7059 58.6241 11.7052 58.6241C11.7044 58.6241 11.7036 58.6241 11.7028 58.6241C11.702 58.6241 11.7012 58.6241 11.7004 58.6241C11.6997 58.6241 11.6989 58.6241 11.6981 58.6241C11.6973 58.6241 11.6965 58.6241 11.6957 58.6241C11.6949 58.6241 11.6941 58.6241 11.6934 58.6241C11.6926 58.6241 11.6918 58.6241 11.691 58.6241C11.6902 58.6241 11.6894 58.6241 11.6886 58.6241C11.6878 58.6241 11.687 58.6241 11.6862 58.6241C11.6855 58.6241 11.6847 58.6241 11.6839 58.6241C11.6831 58.6241 11.6823 58.6241 11.6815 58.6241C11.6807 58.6241 11.6799 58.6241 11.6791 58.6241C11.6783 58.6241 11.6775 58.6241 11.6767 58.6241C11.6759 58.6241 11.6751 58.6241 11.6743 58.6241C11.6735 58.6241 11.6728 58.6241 11.672 58.6241C11.6712 58.6241 11.6704 58.6241 11.6696 58.6241C11.6688 58.6241 11.668 58.6241 11.6672 58.6241C11.6664 58.6241 11.6656 58.6241 11.6648 58.6241C11.664 58.6241 11.6632 58.6241 11.6624 58.6241C11.6616 58.6241 11.6608 58.6241 11.66 58.6241C11.6592 58.6241 11.6584 58.6241 11.6576 58.6241C11.6568 58.6241 11.656 58.6241 11.6552 58.6241C11.6544 58.6241 11.6536 58.6241 11.6527 58.6241C11.6519 58.6241 11.6511 58.6241 11.6503 58.6241C11.6495 58.6241 11.6487 58.6241 11.6479 58.6241C11.6471 58.6241 11.6463 58.6241 11.6455 58.6241C11.6447 58.6241 11.6439 58.6241 11.6431 58.6241C11.6423 58.6241 11.6415 58.6241 11.6407 58.6241C11.6399 58.6241 11.639 58.6241 11.6382 58.6241C11.6374 58.6241 11.6366 58.6241 11.6358 58.6241C11.635 58.6241 11.6342 58.6241 11.6334 58.6241C11.6326 58.6241 11.6318 58.6241 11.6309 58.6241C11.6301 58.6241 11.6293 58.6241 11.6285 58.6241C11.6277 58.6241 11.6269 58.6241 11.6261 58.6241C11.6253 58.6241 11.6244 58.6241 11.6236 58.6241C11.6228 58.6241 11.622 58.6241 11.6212 58.6241C11.6204 58.6241 11.6196 58.6241 11.6187 58.6241C11.6179 58.6241 11.6171 58.6241 11.6163 58.6241C11.6155 58.6241 11.6147 58.6241 11.6138 58.6241C11.613 58.6241 11.6122 58.6241 11.6114 58.6241C11.6106 58.6241 11.6097 58.6241 11.6089 58.6241C11.6081 58.6241 11.6073 58.6241 11.6065 58.6241C11.6056 58.6241 11.6048 58.6241 11.604 58.6241C11.6032 58.6241 11.6024 58.6241 11.6015 58.6241C11.6007 58.6241 11.5999 58.6241 11.5991 58.6241C11.5982 58.6241 11.5974 58.6241 11.5966 58.6241C11.5958 58.6241 11.5949 58.6241 11.5941 58.6241C11.5933 58.6241 11.5925 58.6241 11.5917 58.6241C11.5908 58.6241 11.59 58.6241 11.5892 58.6241C11.5883 58.6241 11.5875 58.6241 11.5867 58.6241C11.5859 58.6241 11.585 58.6241 11.5842 58.6241C11.5834 58.6241 11.5826 58.6241 11.5817 58.6241C11.5809 58.6241 11.5801 58.6241 11.5792 58.6241C11.5784 58.6241 11.5776 58.6241 11.5767 58.6241C11.5759 58.6241 11.5751 58.6241 11.5742 58.6241C11.5734 58.6241 11.5726 58.6241 11.5718 58.6241C11.5709 58.6241 11.5701 58.6241 11.5693 58.6241C11.5684 58.6241 11.5676 58.6241 11.5668 58.6241C11.5659 58.6241 11.5651 58.6241 11.5642 58.6241C11.5634 58.6241 11.5626 58.6241 11.5617 58.6241C11.5609 58.6241 11.5601 58.6241 11.5592 58.6241C11.5584 58.6241 11.5576 58.6241 11.5567 58.6241C11.5559 58.6241 11.555 58.6241 11.5542 58.6241C11.5534 58.6241 11.5525 58.6241 11.5517 58.6241C11.5508 58.6241 11.55 58.6241 11.5492 58.6241C11.5483 58.6241 11.5475 58.6241 11.5466 58.6241C11.5458 58.6241 11.545 58.6241 11.5441 58.6241C11.5433 58.6241 11.5424 58.6241 11.5416 58.6241C11.5408 58.6241 11.5399 58.6241 11.5391 58.6241C11.5382 58.6241 11.5374 58.6241 11.5365 58.6241C11.5357 58.6241 11.5348 58.6241 11.534 58.6241C11.5331 58.6241 11.5323 58.6241 11.5315 58.6241C11.5306 58.6241 11.5298 58.6241 11.5289 58.6241C11.5281 58.6241 11.5272 58.6241 11.5264 58.6241C11.5255 58.6241 11.5247 58.6241 11.5238 58.6241C11.523 58.6241 11.5221 58.6241 11.5213 58.6241C11.5204 58.6241 11.5196 58.6241 11.5187 58.6241C11.5179 58.6241 11.517 58.6241 11.5162 58.6241C11.5153 58.6241 11.5145 58.6241 11.5136 58.6241C11.5128 58.6241 11.5119 58.6241 11.5111 58.6241C11.5102 58.6241 11.5093 58.6241 11.5085 58.6241C11.5076 58.6241 11.5068 58.6241 11.5059 58.6241C11.5051 58.6241 11.5042 58.6241 11.5034 58.6241C11.5025 58.6241 11.5017 58.6241 11.5008 58.6241C11.4999 58.6241 11.4991 58.6241 11.4982 58.6241C11.4974 58.6241 11.4965 58.6241 11.4956 58.6241C11.4948 58.6241 11.4939 58.6241 11.4931 58.6241C11.4922 58.6241 11.4913 58.6241 11.4905 58.6241C11.4896 58.6241 11.4888 58.6241 11.4879 58.6241C11.487 58.6241 11.4862 58.6241 11.4853 58.6241C11.4845 58.6241 11.4836 58.6241 11.4827 58.6241C11.4819 58.6241 11.481 58.6241 11.4801 58.6241C11.4793 58.6241 11.4784 58.6241 11.4775 58.6241C11.4767 58.6241 11.4758 58.6241 11.475 58.6241C11.4741 58.6241 11.4732 58.6241 11.4724 58.6241C11.4715 58.6241 11.4706 58.6241 11.4698 58.6241C11.4689 58.6241 11.468 58.6241 11.4672 58.6241C11.4663 58.6241 11.4654 58.6241 11.4645 58.6241C11.4637 58.6241 11.4628 58.6241 11.4619 58.6241C11.4611 58.6241 11.4602 58.6241 11.4593 58.6241C11.4585 58.6241 11.4576 58.6241 11.4567 58.6241C11.4558 58.6241 11.455 58.6241 11.4541 58.6241C11.4532 58.6241 11.4523 58.6241 11.4515 58.6241C11.4506 58.6241 11.4497 58.6241 11.4489 58.6241C11.448 58.6241 11.4471 58.6241 11.4462 58.6241C11.4454 58.6241 11.4445 58.6241 11.4436 58.6241C11.4427 58.6241 11.4418 58.6241 11.441 58.6241C11.4401 58.6241 11.4392 58.6241 11.4383 58.6241C11.4375 58.6241 11.4366 58.6241 11.4357 58.6241C11.4348 58.6241 11.4339 58.6241 11.4331 58.6241C11.4322 58.6241 11.4313 58.6241 11.4304 58.6241C11.4295 58.6241 11.4287 58.6241 11.4278 58.6241C11.4269 58.6241 11.426 58.6241 11.4251 58.6241C11.4243 58.6241 11.4234 58.6241 11.4225 58.6241C11.4216 58.6241 11.4207 58.6241 11.4198 58.6241C11.419 58.6241 11.4181 58.6241 11.4172 58.6241C11.4163 58.6241 11.4154 58.6241 11.4145 58.6241C11.4136 58.6241 11.4128 58.6241 11.4119 58.6241C11.411 58.6241 11.4101 58.6241 11.4092 58.6241C11.4083 58.6241 11.4074 58.6241 11.4065 58.6241C11.4057 58.6241 11.4048 58.6241 11.4039 58.6241C11.403 58.6241 11.4021 58.6241 11.4012 58.6241C11.4003 58.6241 11.3994 58.6241 11.3985 58.6241C11.3976 58.6241 11.3968 58.6241 11.3959 58.6241C11.395 58.6241 11.3941 58.6241 11.3932 58.6241C11.3923 58.6241 11.3914 58.6241 11.3905 58.6241C11.3896 58.6241 11.3887 58.6241 11.3878 58.6241C11.3869 58.6241 11.386 58.6241 11.3851 58.6241C11.3842 58.6241 11.3833 58.6241 11.3825 58.6241C11.3816 58.6241 11.3807 58.6241 11.3798 58.6241C11.3789 58.6241 11.378 58.6241 11.3771 58.6241C11.3762 58.6241 11.3753 58.6241 11.3744 58.6241C11.3735 58.6241 11.3726 58.6241 11.3717 58.6241C11.3708 58.6241 11.3699 58.6241 11.369 58.6241C11.3681 58.6241 11.3672 58.6241 11.3663 58.6241C11.3654 58.6241 11.3645 58.6241 11.3636 58.6241C11.3627 58.6241 11.3618 58.6241 11.3609 58.6241C11.36 58.6241 11.3591 58.6241 11.3581 58.6241C11.3572 58.6241 11.3563 58.6241 11.3554 58.6241C11.3545 58.6241 11.3536 58.6241 11.3527 58.6241C11.3518 58.6241 11.3509 58.6241 11.35 58.6241C11.3491 58.6241 11.3482 58.6241 11.3473 58.6241C11.3464 58.6241 11.3455 58.6241 11.3446 58.6241C11.3436 58.6241 11.3427 58.6241 11.3418 58.6241C11.3409 58.6241 11.34 58.6241 11.3391 58.6241C11.3382 58.6241 11.3373 58.6241 11.3364 58.6241C11.3355 58.6241 11.3345 58.6241 11.3336 58.6241C11.3327 58.6241 11.3318 58.6241 11.3309 58.6241C11.33 58.6241 11.3291 58.6241 11.3282 58.6241C11.3272 58.6241 11.3263 58.6241 11.3254 58.6241C11.3245 58.6241 11.3236 58.6241 11.3227 58.6241C11.3218 58.6241 11.3208 58.6241 11.3199 58.6241C11.319 58.6241 11.3181 58.6241 11.3172 58.6241C11.3163 58.6241 11.3153 58.6241 11.3144 58.6241C11.3135 58.6241 11.3126 58.6241 11.3117 58.6241C11.3107 58.6241 11.3098 58.6241 11.3089 58.6241C11.308 58.6241 11.3071 58.6241 11.3061 58.6241C11.3052 58.6241 11.3043 58.6241 11.3034 58.6241C11.3025 58.6241 11.3015 58.6241 11.3006 58.6241C11.2997 58.6241 11.2988 58.6241 11.2978 58.6241C11.2969 58.6241 11.296 58.6241 11.2951 58.6241C11.2941 58.6241 11.2932 58.6241 11.2923 58.6241C11.2914 58.6241 11.2904 58.6241 11.2895 58.6241C11.2886 58.6241 11.2877 58.6241 11.2867 58.6241C11.2858 58.6241 11.2849 58.6241 11.284 58.6241C11.283 58.6241 11.2821 58.6241 11.2812 58.6241C11.2802 58.6241 11.2793 58.6241 11.2784 58.6241C11.2775 58.6241 11.2765 58.6241 11.2756 58.6241C11.2747 58.6241 11.2737 58.6241 11.2728 58.6241C11.2719 58.6241 11.2709 58.6241 11.27 58.6241C11.2691 58.6241 11.2681 58.6241 11.2672 58.6241C11.2663 58.6241 11.2654 58.6241 11.2644 58.6241C11.2635 58.6241 11.2625 58.6241 11.2616 58.6241C11.2607 58.6241 11.2597 58.6241 11.2588 58.6241C11.2579 58.6241 11.2569 58.6241 11.256 58.6241C11.2551 58.6241 11.2541 58.6241 11.2532 58.6241C11.2523 58.6241 11.2513 58.6241 11.2504 58.6241C11.2494 58.6241 11.2485 58.6241 11.2476 58.6241C11.2466 58.6241 11.2457 58.6241 11.2447 58.6241C11.2438 58.6241 11.2429 58.6241 11.2419 58.6241C11.241 58.6241 11.24 58.6241 11.2391 58.6241C11.2382 58.6241 11.2372 58.6241 11.2363 58.6241C11.2353 58.6241 11.2344 58.6241 11.2334 58.6241C11.2325 58.6241 11.2316 58.6241 11.2306 58.6241C11.2297 58.6241 11.2287 58.6241 11.2278 58.6241C11.2268 58.6241 11.2259 58.6241 11.2249 58.6241C11.224 58.6241 11.223 58.6241 11.2221 58.6241C11.2212 58.6241 11.2202 58.6241 11.2193 58.6241C11.2183 58.6241 11.2174 58.6241 11.2164 58.6241C11.2155 58.6241 11.2145 58.6241 11.2136 58.6241C11.2126 58.6241 11.2117 58.6241 11.2107 58.6241C11.2098 58.6241 11.2088 58.6241 11.2079 58.6241C11.2069 58.6241 11.206 58.6241 11.205 58.6241C11.2041 58.6241 11.2031 58.6241 11.2022 58.6241C11.2012 58.6241 11.2002 58.6241 11.1993 58.6241C11.1983 58.6241 11.1974 58.6241 11.1964 58.6241C11.1955 58.6241 11.1945 58.6241 11.1936 58.6241C11.1926 58.6241 11.1917 58.6241 11.1907 58.6241C11.1897 58.6241 11.1888 58.6241 11.1878 58.6241C11.1869 58.6241 11.1859 58.6241 11.185 58.6241C11.184 58.6241 11.183 58.6241 11.1821 58.6241C11.1811 58.6241 11.1802 58.6241 11.1792 58.6241C11.1782 58.6241 11.1773 58.6241 11.1763 58.6241C11.1754 58.6241 11.1744 58.6241 11.1734 58.6241C11.1725 58.6241 11.1715 58.6241 11.1705 58.6241C11.1696 58.6241 11.1686 58.6241 11.1677 58.6241C11.1667 58.6241 11.1657 58.6241 11.1648 58.6241C11.1638 58.6241 11.1628 58.6241 11.1619 58.6241C11.1609 58.6241 11.1599 58.6241 11.159 58.6241C11.158 58.6241 11.157 58.6241 11.1561 58.6241C11.1551 58.6241 11.1541 58.6241 11.1532 58.6241C11.1522 58.6241 11.1512 58.6241 11.1503 58.6241C11.1493 58.6241 11.1483 58.6241 11.1474 58.6241C11.1464 58.6241 11.1454 58.6241 11.1445 58.6241C11.1435 58.6241 11.1425 58.6241 11.1415 58.6241C11.1406 58.6241 11.1396 58.6241 11.1386 58.6241C11.1377 58.6241 11.1367 58.6241 11.1357 58.6241C11.1347 58.6241 11.1338 58.6241 11.1328 58.6241C11.1318 58.6241 11.1308 58.6241 11.1299 58.6241C11.1289 58.6241 11.1279 58.6241 11.1269 58.6241C11.126 58.6241 11.125 58.6241 11.124 58.6241C11.123 58.6241 11.1221 58.6241 11.1211 58.6241C11.1201 58.6241 11.1191 58.6241 11.1181 58.6241C11.1172 58.6241 11.1162 58.6241 11.1152 58.6241C11.1142 58.6241 11.1132 58.6241 11.1123 58.6241C11.1113 58.6241 11.1103 58.6241 11.1093 58.6241C11.1083 58.6241 11.1074 58.6241 11.1064 58.6241C11.1054 58.6241 11.1044 58.6241 11.1034 58.6241C11.1025 58.6241 11.1015 58.6241 11.1005 58.6241C11.0995 58.6241 11.0985 58.6241 11.0975 58.6241C11.0966 58.6241 11.0956 58.6241 11.0946 58.6241C11.0936 58.6241 11.0926 58.6241 11.0916 58.6241C11.0906 58.6241 11.0897 58.6241 11.0887 58.6241C11.0877 58.6241 11.0867 58.6241 11.0857 58.6241C11.0847 58.6241 11.0837 58.6241 11.0827 58.6241C11.0817 58.6241 11.0808 58.6241 11.0798 58.6241C11.0788 58.6241 11.0778 58.6241 11.0768 58.6241C11.0758 58.6241 11.0748 58.6241 11.0738 58.6241C11.0728 58.6241 11.0718 58.6241 11.0709 58.6241C11.0699 58.6241 11.0689 58.6241 11.0679 58.6241C11.0669 58.6241 11.0659 58.6241 11.0649 58.6241C11.0639 58.6241 11.0629 58.6241 11.0619 58.6241C11.0609 58.6241 11.0599 58.6241 11.0589 58.6241C11.0579 58.6241 11.0569 58.6241 11.0559 58.6241C11.0549 58.6241 11.0539 58.6241 11.0529 58.6241C11.0519 58.6241 11.051 58.6241 11.05 58.6241C11.049 58.6241 11.048 58.6241 11.047 58.6241C11.046 58.6241 11.045 58.6241 11.044 58.6241C11.043 58.6241 11.042 58.6241 11.041 58.6241C11.04 58.6241 11.039 58.6241 11.038 58.6241C11.0369 58.6241 11.0359 58.6241 11.0349 58.6241C11.0339 58.6241 11.0329 58.6241 11.0319 58.6241C11.0309 58.6241 11.0299 58.6241 11.0289 58.6241C11.0279 58.6241 11.0269 58.6241 11.0259 58.6241C11.0249 58.6241 11.0239 58.6241 11.0229 58.6241C11.0219 58.6241 11.0209 58.6241 11.0199 58.6241C11.0189 58.6241 11.0179 58.6241 11.0168 58.6241C11.0158 58.6241 11.0148 58.6241 11.0138 58.6241C11.0128 58.6241 11.0118 58.6241 11.0108 58.6241C11.0098 58.6241 11.0088 58.6241 11.0078 58.6241C11.0068 58.6241 11.0057 58.6241 11.0047 58.6241C11.0037 58.6241 11.0027 58.6241 11.0017 58.6241C11.0007 58.6241 10.9997 58.6241 10.9987 58.6241C10.9976 58.6241 10.9966 58.6241 10.9956 58.6241C10.9946 58.6241 10.9936 58.6241 10.9926 58.6241C10.9916 58.6241 10.9905 58.6241 10.9895 58.6241C10.9885 58.6241 10.9875 58.6241 10.9865 58.6241C10.9855 58.6241 10.9844 58.6241 10.9834 58.6241C10.9824 58.6241 10.9814 58.6241 10.9804 58.6241C10.9794 58.6241 10.9783 58.6241 10.9773 58.6241C10.9763 58.6241 10.9753 58.6241 10.9743 58.6241C10.9732 58.6241 10.9722 58.6241 10.9712 58.6241C10.9702 58.6241 10.9692 58.6241 10.9681 58.6241C10.9671 58.6241 10.9661 58.6241 10.9651 58.6241C10.964 58.6241 10.963 58.6241 10.962 58.6241C10.961 58.6241 10.9599 58.6241 10.9589 58.6241C10.9579 58.6241 10.9569 58.6241 10.9558 58.6241C10.9548 58.6241 10.9538 58.6241 10.9528 58.6241C10.9517 58.6241 10.9507 58.6241 10.9497 58.6241C10.9487 58.6241 10.9476 58.6241 10.9466 58.6241C10.9456 58.6241 10.9446 58.6241 10.9435 58.6241C10.9425 58.6241 10.9415 58.6241 10.9404 58.6241C10.9394 58.6241 10.9384 58.6241 10.9373 58.6241C10.9363 58.6241 10.9353 58.6241 10.9342 58.6241C10.9332 58.6241 10.9322 58.6241 10.9312 58.6241C10.9301 58.6241 10.9291 58.6241 10.9281 58.6241C10.927 58.6241 10.926 58.6241 10.925 58.6241C10.9239 58.6241 10.9229 58.6241 10.9219 58.6241C10.9208 58.6241 10.9198 58.6241 10.9187 58.6241C10.9177 58.6241 10.9167 58.6241 10.9156 58.6241C10.9146 58.6241 10.9136 58.6241 10.9125 58.6241C10.9115 58.6241 10.9104 58.6241 10.9094 58.6241C10.9084 58.6241 10.9073 58.6241 10.9063 58.6241C10.9053 58.6241 10.9042 58.6241 10.9032 58.6241C10.9021 58.6241 10.9011 58.6241 10.9001 58.6241C10.899 58.6241 10.898 58.6241 10.8969 58.6241C10.8959 58.6241 10.8948 58.6241 10.8938 58.6241C10.8928 58.6241 10.8917 58.6241 10.8907 58.6241C10.8896 58.6241 10.8886 58.6241 10.8875 58.6241C10.8865 58.6241 10.8854 58.6241 10.8844 58.6241C10.8834 58.6241 10.8823 58.6241 10.8813 58.6241C10.8802 58.6241 10.8792 58.6241 10.8781 58.6241C10.8771 58.6241 10.876 58.6241 10.875 58.6241C10.8739 58.6241 10.8729 58.6241 10.8718 58.6241C10.8708 58.6241 10.8697 58.6241 10.8687 58.6241C10.8676 58.6241 10.8666 58.6241 10.8655 58.6241C10.8645 58.6241 10.8634 58.6241 10.8624 58.6241C10.8613 58.6241 10.8603 58.6241 10.8592 58.6241C10.8582 58.6241 10.8571 58.6241 10.8561 58.6241C10.855 58.6241 10.854 58.6241 10.8529 58.6241C10.8519 58.6241 10.8508 58.6241 10.8497 58.6241C10.8487 58.6241 10.8476 58.6241 10.8466 58.6241C10.8455 58.6241 10.8445 58.6241 10.8434 58.6241C10.8424 58.6241 10.8413 58.6241 10.8402 58.6241C10.8392 58.6241 10.8381 58.6241 10.8371 58.6241C10.836 58.6241 10.8349 58.6241 10.8339 58.6241C10.8328 58.6241 10.8318 58.6241 10.8307 58.6241C10.8296 58.6241 10.8286 58.6241 10.8275 58.6241C10.8265 58.6241 10.8254 58.6241 10.8243 58.6241C10.8233 58.6241 10.8222 58.6241 10.8212 58.6241C10.8201 58.6241 10.819 58.6241 10.818 58.6241C10.8169 58.6241 10.8158 58.6241 10.8148 58.6241C10.8137 58.6241 10.8126 58.6241 10.8116 58.6241C10.8105 58.6241 10.8094 58.6241 10.8084 58.6241C10.8073 58.6241 10.8062 58.6241 10.8052 58.6241C10.8041 58.6241 10.803 58.6241 10.802 58.6241C10.8009 58.6241 10.7998 58.6241 10.7988 58.6241C10.7977 58.6241 10.7966 58.6241 10.7956 58.6241C10.7945 58.6241 10.7934 58.6241 10.7923 58.6241C10.7913 58.6241 10.7902 58.6241 10.7891 58.6241C10.7881 58.6241 10.787 58.6241 10.7859 58.6241C10.7848 58.6241 10.7838 58.6241 10.7827 58.6241C10.7816 58.6241 10.7806 58.6241 10.7795 58.6241C10.7784 58.6241 10.7773 58.6241 10.7763 58.6241C10.7752 58.6241 10.7741 58.6241 10.773 58.6241C10.7719 58.6241 10.7709 58.6241 10.7698 58.6241C10.7687 58.6241 10.7676 58.6241 10.7666 58.6241C10.7655 58.6241 10.7644 58.6241 10.7633 58.6241C10.7622 58.6241 10.7612 58.6241 10.7601 58.6241C10.759 58.6241 10.7579 58.6241 10.7569 58.6241C10.7558 58.6241 10.7547 58.6241 10.7536 58.6241C10.7525 58.6241 10.7514 58.6241 10.7504 58.6241C10.7493 58.6241 10.7482 58.6241 10.7471 58.6241C10.746 58.6241 10.745 58.6241 10.7439 58.6241C10.7428 58.6241 10.7417 58.6241 10.7406 58.6241C10.7395 58.6241 10.7384 58.6241 10.7374 58.6241C10.7363 58.6241 10.7352 58.6241 10.7341 58.6241C10.733 58.6241 10.7319 58.6241 10.7308 58.6241C10.7298 58.6241 10.7287 58.6241 10.7276 58.6241C10.7265 58.6241 10.7254 58.6241 10.7243 58.6241C10.7232 58.6241 10.7221 58.6241 10.721 58.6241C10.72 58.6241 10.7189 58.6241 10.7178 58.6241C10.7167 58.6241 10.7156 58.6241 10.7145 58.6241C10.7134 58.6241 10.7123 58.6241 10.7112 58.6241C10.7101 58.6241 10.709 58.6241 10.7079 58.6241C10.7068 58.6241 10.7058 58.6241 10.7047 58.6241C10.7036 58.6241 10.7025 58.6241 10.7014 58.6241C10.7003 58.6241 10.6992 58.6241 10.6981 58.6241C10.697 58.6241 10.6959 58.6241 10.6948 58.6241C10.6937 58.6241 10.6926 58.6241 10.6915 58.6241C10.6904 58.6241 10.6893 58.6241 10.6882 58.6241C10.6871 58.6241 10.686 58.6241 10.6849 58.6241C10.6838 58.6241 10.6827 58.6241 10.6816 58.6241C10.6805 58.6241 10.6794 58.6241 10.6783 58.6241C10.6772 58.6241 10.6761 58.6241 10.675 58.6241C10.6739 58.6241 10.6728 58.6241 10.6717 58.6241C10.6706 58.6241 10.6695 58.6241 10.6684 58.6241C10.6673 58.6241 10.6662 58.6241 10.6651 58.6241C10.664 58.6241 10.6629 58.6241 10.6618 58.6241C10.6607 58.6241 10.6595 58.6241 10.6584 58.6241C10.6573 58.6241 10.6562 58.6241 10.6551 58.6241C10.654 58.6241 10.6529 58.6241 10.6518 58.6241C10.6507 58.6241 10.6496 58.6241 10.6485 58.6241C10.6474 58.6241 10.6462 58.6241 10.6451 58.6241C10.644 58.6241 10.6429 58.6241 10.6418 58.6241C10.6407 58.6241 10.6396 58.6241 10.6385 58.6241C10.6374 58.6241 10.6363 58.6241 10.6351 58.6241C10.634 58.6241 10.6329 58.6241 10.6318 58.6241C10.6307 58.6241 10.6296 58.6241 10.6285 58.6241C10.6273 58.6241 10.6262 58.6241 10.6251 58.6241C10.624 58.6241 10.6229 58.6241 10.6218 58.6241C10.6206 58.6241 10.6195 58.6241 10.6184 58.6241C10.6173 58.6241 10.6162 58.6241 10.6151 58.6241C10.6139 58.6241 10.6128 58.6241 10.6117 58.6241C10.6106 58.6241 10.6095 58.6241 10.6083 58.6241C10.6072 58.6241 10.6061 58.6241 10.605 58.6241C10.6039 58.6241 10.6027 58.6241 10.6016 58.6241C10.6005 58.6241 10.5994 58.6241 10.5983 58.6241C10.5971 58.6241 10.596 58.6241 10.5949 58.6241C10.5938 58.6241 10.5926 58.6241 10.5915 58.6241C10.5904 58.6241 10.5893 58.6241 10.5881 58.6241C10.587 58.6241 10.5859 58.6241 10.5848 58.6241C10.5836 58.6241 10.5825 58.6241 10.5814 58.6241C10.5803 58.6241 10.5791 58.6241 10.578 58.6241C10.5769 58.6241 10.5758 58.6241 10.5746 58.6241C10.5735 58.6241 10.5724 58.6241 10.5712 58.6241C10.5701 58.6241 10.569 58.6241 10.5679 58.6241C10.5667 58.6241 10.5656 58.6241 10.5645 58.6241C10.5633 58.6241 10.5622 58.6241 10.5611 58.6241C10.5599 58.6241 10.5588 58.6241 10.5577 58.6241C10.5565 58.6241 10.5554 58.6241 10.5543 58.6241C10.5531 58.6241 10.552 58.6241 10.5509 58.6241C10.5497 58.6241 10.5486 58.6241 10.5475 58.6241C10.5463 58.6241 10.5452 58.6241 10.5441 58.6241C10.5429 58.6241 10.5418 58.6241 10.5406 58.6241C10.5395 58.6241 10.5384 58.6241 10.5372 58.6241C10.5361 58.6241 10.535 58.6241 10.5338 58.6241C10.5327 58.6241 10.5315 58.6241 10.5304 58.6241C10.5293 58.6241 10.5281 58.6241 10.527 58.6241C10.5258 58.6241 10.5247 58.6241 10.5236 58.6241C10.5224 58.6241 10.5213 58.6241 10.5201 58.6241C10.519 58.6241 10.5178 58.6241 10.5167 58.6241C10.5156 58.6241 10.5144 58.6241 10.5133 58.6241C10.5121 58.6241 10.511 58.6241 10.5098 58.6241C10.5087 58.6241 10.5075 58.6241 10.5064 58.6241C10.5053 58.6241 10.5041 58.6241 10.503 58.6241C10.5018 58.6241 10.5007 58.6241 10.4995 58.6241C10.4984 58.6241 10.4972 58.6241 10.4961 58.6241C10.4949 58.6241 10.4938 58.6241 10.4926 58.6241C10.4915 58.6241 10.4903 58.6241 10.4892 58.6241C10.488 58.6241 10.4869 58.6241 10.4857 58.6241C10.4846 58.6241 10.4834 58.6241 10.4823 58.6241C10.4811 58.6241 10.48 58.6241 10.4788 58.6241C10.4777 58.6241 10.4765 58.6241 10.4754 58.6241C10.4742 58.6241 10.4731 58.6241 10.4719 58.6241C10.4707 58.6241 10.4696 58.6241 10.4684 58.6241C10.4673 58.6241 10.4661 58.6241 10.465 58.6241C10.4638 58.6241 10.4627 58.6241 10.4615 58.6241C10.4603 58.6241 10.4592 58.6241 10.458 58.6241C10.4569 58.6241 10.4557 58.6241 10.4545 58.6241C10.4534 58.6241 10.4522 58.6241 10.4511 58.6241C10.4499 58.6241 10.4487 58.6241 10.4476 58.6241C10.4464 58.6241 10.4453 58.6241 10.4441 58.6241C10.4429 58.6241 10.4418 58.6241 10.4406 58.6241C10.4395 58.6241 10.4383 58.6241 10.4371 58.6241C10.436 58.6241 10.4348 58.6241 10.4336 58.6241C10.4325 58.6241 10.4313 58.6241 10.4301 58.6241C10.429 58.6241 10.4278 58.6241 10.4266 58.6241C10.4255 58.6241 10.4243 58.6241 10.4232 58.6241C10.422 58.6241 10.4208 58.6241 10.4196 58.6241C10.4185 58.6241 10.4173 58.6241 10.4161 58.6241C10.415 58.6241 10.4138 58.6241 10.4126 58.6241C10.4115 58.6241 10.4103 58.6241 10.4091 58.6241C10.408 58.6241 10.4068 58.6241 10.4056 58.6241C10.4044 58.6241 10.4033 58.6241 10.4021 58.6241C10.4009 58.6241 10.3998 58.6241 10.3986 58.6241C10.3974 58.6241 10.3962 58.6241 10.3951 58.6241C10.3939 58.6241 10.3927 58.6241 10.3915 58.6241C10.3904 58.6241 10.3892 58.6241 10.388 58.6241C10.3868 58.6241 10.3857 58.6241 10.3845 58.6241C10.3833 58.6241 10.3821 58.6241 10.381 58.6241C10.3798 58.6241 10.3786 58.6241 10.3774 58.6241C10.3762 58.6241 10.3751 58.6241 10.3739 58.6241C10.3727 58.6241 10.3715 58.6241 10.3704 58.6241C10.3692 58.6241 10.368 58.6241 10.3668 58.6241C10.3656 58.6241 10.3644 58.6241 10.3633 58.6241C10.3621 58.6241 10.3609 58.6241 10.3597 58.6241C10.3585 58.6241 10.3574 58.6241 10.3562 58.6241C10.355 58.6241 10.3538 58.6241 10.3526 58.6241C10.3514 58.6241 10.3503 58.6241 10.3491 58.6241C10.3479 58.6241 10.3467 58.6241 10.3455 58.6241C10.3443 58.6241 10.3431 58.6241 10.3419 58.6241C10.3408 58.6241 10.3396 58.6241 10.3384 58.6241C10.3372 58.6241 10.336 58.6241 10.3348 58.6241C10.3336 58.6241 10.3324 58.6241 10.3313 58.6241C10.3301 58.6241 10.3289 58.6241 10.3277 58.6241C10.3265 58.6241 10.3253 58.6241 10.3241 58.6241C10.3229 58.6241 10.3217 58.6241 10.3205 58.6241C10.3193 58.6241 10.3182 58.6241 10.317 58.6241C10.3158 58.6241 10.3146 58.6241 10.3134 58.6241C10.3122 58.6241 10.311 58.6241 10.3098 58.6241C10.3086 58.6241 10.3074 58.6241 10.3062 58.6241C10.305 58.6241 10.3038 58.6241 10.3026 58.6241C10.3014 58.6241 10.3002 58.6241 10.299 58.6241C10.2978 58.6241 10.2966 58.6241 10.2954 58.6241C10.2942 58.6241 10.293 58.6241 10.2918 58.6241C10.2906 58.6241 10.2894 58.6241 10.2882 58.6241C10.287 58.6241 10.2858 58.6241 10.2846 58.6241C10.2834 58.6241 10.2822 58.6241 10.281 58.6241C10.2798 58.6241 10.2786 58.6241 10.2774 58.6241C10.2762 58.6241 10.275 58.6241 10.2738 58.6241C10.2726 58.6241 10.2714 58.6241 10.2702 58.6241C10.269 58.6241 10.2678 58.6241 10.2666 58.6241C10.2654 58.6241 10.2642 58.6241 10.263 58.6241C10.2618 58.6241 10.2606 58.6241 10.2594 58.6241C10.2582 58.6241 10.257 58.6241 10.2557 58.6241C10.2545 58.6241 10.2533 58.6241 10.2521 58.6241C10.2509 58.6241 10.2497 58.6241 10.2485 58.6241C10.2473 58.6241 10.2461 58.6241 10.2449 58.6241C10.2437 58.6241 10.2424 58.6241 10.2412 58.6241C10.24 58.6241 10.2388 58.6241 10.2376 58.6241C10.2364 58.6241 10.2352 58.6241 10.234 58.6241C10.2327 58.6241 10.2315 58.6241 10.2303 58.6241C10.2291 58.6241 10.2279 58.6241 10.2267 58.6241C10.2255 58.6241 10.2242 58.6241 10.223 58.6241C10.2218 58.6241 10.2206 58.6241 10.2194 58.6241C10.2182 58.6241 10.2169 58.6241 10.2157 58.6241C10.2145 58.6241 10.2133 58.6241 10.2121 58.6241C10.2109 58.6241 10.2096 58.6241 10.2084 58.6241C10.2072 58.6241 10.206 58.6241 10.2048 58.6241C10.2035 58.6241 10.2023 58.6241 10.2011 58.6241C10.1999 58.6241 10.1987 58.6241 10.1974 58.6241C10.1962 58.6241 10.195 58.6241 10.1938 58.6241C10.1925 58.6241 10.1913 58.6241 10.1901 58.6241C10.1889 58.6241 10.1877 58.6241 10.1864 58.6241C10.1852 58.6241 10.184 58.6241 10.1828 58.6241C10.1815 58.6241 10.1803 58.6241 10.1791 58.6241C10.1778 58.6241 10.1766 58.6241 10.1754 58.6241C10.1742 58.6241 10.1729 58.6241 10.1717 58.6241C10.1705 58.6241 10.1693 58.6241 10.168 58.6241V61.6241C10.1693 61.6241 10.1705 61.6241 10.1717 61.6241C10.1729 61.6241 10.1742 61.6241 10.1754 61.6241C10.1766 61.6241 10.1778 61.6241 10.1791 61.6241C10.1803 61.6241 10.1815 61.6241 10.1828 61.6241C10.184 61.6241 10.1852 61.6241 10.1864 61.6241C10.1877 61.6241 10.1889 61.6241 10.1901 61.6241C10.1913 61.6241 10.1925 61.6241 10.1938 61.6241C10.195 61.6241 10.1962 61.6241 10.1974 61.6241C10.1987 61.6241 10.1999 61.6241 10.2011 61.6241C10.2023 61.6241 10.2035 61.6241 10.2048 61.6241C10.206 61.6241 10.2072 61.6241 10.2084 61.6241C10.2096 61.6241 10.2109 61.6241 10.2121 61.6241C10.2133 61.6241 10.2145 61.6241 10.2157 61.6241C10.2169 61.6241 10.2182 61.6241 10.2194 61.6241C10.2206 61.6241 10.2218 61.6241 10.223 61.6241C10.2242 61.6241 10.2255 61.6241 10.2267 61.6241C10.2279 61.6241 10.2291 61.6241 10.2303 61.6241C10.2315 61.6241 10.2327 61.6241 10.234 61.6241C10.2352 61.6241 10.2364 61.6241 10.2376 61.6241C10.2388 61.6241 10.24 61.6241 10.2412 61.6241C10.2424 61.6241 10.2437 61.6241 10.2449 61.6241C10.2461 61.6241 10.2473 61.6241 10.2485 61.6241C10.2497 61.6241 10.2509 61.6241 10.2521 61.6241C10.2533 61.6241 10.2545 61.6241 10.2557 61.6241C10.257 61.6241 10.2582 61.6241 10.2594 61.6241C10.2606 61.6241 10.2618 61.6241 10.263 61.6241C10.2642 61.6241 10.2654 61.6241 10.2666 61.6241C10.2678 61.6241 10.269 61.6241 10.2702 61.6241C10.2714 61.6241 10.2726 61.6241 10.2738 61.6241C10.275 61.6241 10.2762 61.6241 10.2774 61.6241C10.2786 61.6241 10.2798 61.6241 10.281 61.6241C10.2822 61.6241 10.2834 61.6241 10.2846 61.6241C10.2858 61.6241 10.287 61.6241 10.2882 61.6241C10.2894 61.6241 10.2906 61.6241 10.2918 61.6241C10.293 61.6241 10.2942 61.6241 10.2954 61.6241C10.2966 61.6241 10.2978 61.6241 10.299 61.6241C10.3002 61.6241 10.3014 61.6241 10.3026 61.6241C10.3038 61.6241 10.305 61.6241 10.3062 61.6241C10.3074 61.6241 10.3086 61.6241 10.3098 61.6241C10.311 61.6241 10.3122 61.6241 10.3134 61.6241C10.3146 61.6241 10.3158 61.6241 10.317 61.6241C10.3182 61.6241 10.3193 61.6241 10.3205 61.6241C10.3217 61.6241 10.3229 61.6241 10.3241 61.6241C10.3253 61.6241 10.3265 61.6241 10.3277 61.6241C10.3289 61.6241 10.3301 61.6241 10.3313 61.6241C10.3324 61.6241 10.3336 61.6241 10.3348 61.6241C10.336 61.6241 10.3372 61.6241 10.3384 61.6241C10.3396 61.6241 10.3408 61.6241 10.3419 61.6241C10.3431 61.6241 10.3443 61.6241 10.3455 61.6241C10.3467 61.6241 10.3479 61.6241 10.3491 61.6241C10.3503 61.6241 10.3514 61.6241 10.3526 61.6241C10.3538 61.6241 10.355 61.6241 10.3562 61.6241C10.3574 61.6241 10.3585 61.6241 10.3597 61.6241C10.3609 61.6241 10.3621 61.6241 10.3633 61.6241C10.3644 61.6241 10.3656 61.6241 10.3668 61.6241C10.368 61.6241 10.3692 61.6241 10.3704 61.6241C10.3715 61.6241 10.3727 61.6241 10.3739 61.6241C10.3751 61.6241 10.3762 61.6241 10.3774 61.6241C10.3786 61.6241 10.3798 61.6241 10.381 61.6241C10.3821 61.6241 10.3833 61.6241 10.3845 61.6241C10.3857 61.6241 10.3868 61.6241 10.388 61.6241C10.3892 61.6241 10.3904 61.6241 10.3915 61.6241C10.3927 61.6241 10.3939 61.6241 10.3951 61.6241C10.3962 61.6241 10.3974 61.6241 10.3986 61.6241C10.3998 61.6241 10.4009 61.6241 10.4021 61.6241C10.4033 61.6241 10.4044 61.6241 10.4056 61.6241C10.4068 61.6241 10.408 61.6241 10.4091 61.6241C10.4103 61.6241 10.4115 61.6241 10.4126 61.6241C10.4138 61.6241 10.415 61.6241 10.4161 61.6241C10.4173 61.6241 10.4185 61.6241 10.4196 61.6241C10.4208 61.6241 10.422 61.6241 10.4232 61.6241C10.4243 61.6241 10.4255 61.6241 10.4266 61.6241C10.4278 61.6241 10.429 61.6241 10.4301 61.6241C10.4313 61.6241 10.4325 61.6241 10.4336 61.6241C10.4348 61.6241 10.436 61.6241 10.4371 61.6241C10.4383 61.6241 10.4395 61.6241 10.4406 61.6241C10.4418 61.6241 10.4429 61.6241 10.4441 61.6241C10.4453 61.6241 10.4464 61.6241 10.4476 61.6241C10.4487 61.6241 10.4499 61.6241 10.4511 61.6241C10.4522 61.6241 10.4534 61.6241 10.4545 61.6241C10.4557 61.6241 10.4569 61.6241 10.458 61.6241C10.4592 61.6241 10.4603 61.6241 10.4615 61.6241C10.4627 61.6241 10.4638 61.6241 10.465 61.6241C10.4661 61.6241 10.4673 61.6241 10.4684 61.6241C10.4696 61.6241 10.4707 61.6241 10.4719 61.6241C10.4731 61.6241 10.4742 61.6241 10.4754 61.6241C10.4765 61.6241 10.4777 61.6241 10.4788 61.6241C10.48 61.6241 10.4811 61.6241 10.4823 61.6241C10.4834 61.6241 10.4846 61.6241 10.4857 61.6241C10.4869 61.6241 10.488 61.6241 10.4892 61.6241C10.4903 61.6241 10.4915 61.6241 10.4926 61.6241C10.4938 61.6241 10.4949 61.6241 10.4961 61.6241C10.4972 61.6241 10.4984 61.6241 10.4995 61.6241C10.5007 61.6241 10.5018 61.6241 10.503 61.6241C10.5041 61.6241 10.5053 61.6241 10.5064 61.6241C10.5075 61.6241 10.5087 61.6241 10.5098 61.6241C10.511 61.6241 10.5121 61.6241 10.5133 61.6241C10.5144 61.6241 10.5156 61.6241 10.5167 61.6241C10.5178 61.6241 10.519 61.6241 10.5201 61.6241C10.5213 61.6241 10.5224 61.6241 10.5236 61.6241C10.5247 61.6241 10.5258 61.6241 10.527 61.6241C10.5281 61.6241 10.5293 61.6241 10.5304 61.6241C10.5315 61.6241 10.5327 61.6241 10.5338 61.6241C10.535 61.6241 10.5361 61.6241 10.5372 61.6241C10.5384 61.6241 10.5395 61.6241 10.5406 61.6241C10.5418 61.6241 10.5429 61.6241 10.5441 61.6241C10.5452 61.6241 10.5463 61.6241 10.5475 61.6241C10.5486 61.6241 10.5497 61.6241 10.5509 61.6241C10.552 61.6241 10.5531 61.6241 10.5543 61.6241C10.5554 61.6241 10.5565 61.6241 10.5577 61.6241C10.5588 61.6241 10.5599 61.6241 10.5611 61.6241C10.5622 61.6241 10.5633 61.6241 10.5645 61.6241C10.5656 61.6241 10.5667 61.6241 10.5679 61.6241C10.569 61.6241 10.5701 61.6241 10.5712 61.6241C10.5724 61.6241 10.5735 61.6241 10.5746 61.6241C10.5758 61.6241 10.5769 61.6241 10.578 61.6241C10.5791 61.6241 10.5803 61.6241 10.5814 61.6241C10.5825 61.6241 10.5836 61.6241 10.5848 61.6241C10.5859 61.6241 10.587 61.6241 10.5881 61.6241C10.5893 61.6241 10.5904 61.6241 10.5915 61.6241C10.5926 61.6241 10.5938 61.6241 10.5949 61.6241C10.596 61.6241 10.5971 61.6241 10.5983 61.6241C10.5994 61.6241 10.6005 61.6241 10.6016 61.6241C10.6027 61.6241 10.6039 61.6241 10.605 61.6241C10.6061 61.6241 10.6072 61.6241 10.6083 61.6241C10.6095 61.6241 10.6106 61.6241 10.6117 61.6241C10.6128 61.6241 10.6139 61.6241 10.6151 61.6241C10.6162 61.6241 10.6173 61.6241 10.6184 61.6241C10.6195 61.6241 10.6206 61.6241 10.6218 61.6241C10.6229 61.6241 10.624 61.6241 10.6251 61.6241C10.6262 61.6241 10.6273 61.6241 10.6285 61.6241C10.6296 61.6241 10.6307 61.6241 10.6318 61.6241C10.6329 61.6241 10.634 61.6241 10.6351 61.6241C10.6363 61.6241 10.6374 61.6241 10.6385 61.6241C10.6396 61.6241 10.6407 61.6241 10.6418 61.6241C10.6429 61.6241 10.644 61.6241 10.6451 61.6241C10.6462 61.6241 10.6474 61.6241 10.6485 61.6241C10.6496 61.6241 10.6507 61.6241 10.6518 61.6241C10.6529 61.6241 10.654 61.6241 10.6551 61.6241C10.6562 61.6241 10.6573 61.6241 10.6584 61.6241C10.6595 61.6241 10.6607 61.6241 10.6618 61.6241C10.6629 61.6241 10.664 61.6241 10.6651 61.6241C10.6662 61.6241 10.6673 61.6241 10.6684 61.6241C10.6695 61.6241 10.6706 61.6241 10.6717 61.6241C10.6728 61.6241 10.6739 61.6241 10.675 61.6241C10.6761 61.6241 10.6772 61.6241 10.6783 61.6241C10.6794 61.6241 10.6805 61.6241 10.6816 61.6241C10.6827 61.6241 10.6838 61.6241 10.6849 61.6241C10.686 61.6241 10.6871 61.6241 10.6882 61.6241C10.6893 61.6241 10.6904 61.6241 10.6915 61.6241C10.6926 61.6241 10.6937 61.6241 10.6948 61.6241C10.6959 61.6241 10.697 61.6241 10.6981 61.6241C10.6992 61.6241 10.7003 61.6241 10.7014 61.6241C10.7025 61.6241 10.7036 61.6241 10.7047 61.6241C10.7058 61.6241 10.7068 61.6241 10.7079 61.6241C10.709 61.6241 10.7101 61.6241 10.7112 61.6241C10.7123 61.6241 10.7134 61.6241 10.7145 61.6241C10.7156 61.6241 10.7167 61.6241 10.7178 61.6241C10.7189 61.6241 10.72 61.6241 10.721 61.6241C10.7221 61.6241 10.7232 61.6241 10.7243 61.6241C10.7254 61.6241 10.7265 61.6241 10.7276 61.6241C10.7287 61.6241 10.7298 61.6241 10.7308 61.6241C10.7319 61.6241 10.733 61.6241 10.7341 61.6241C10.7352 61.6241 10.7363 61.6241 10.7374 61.6241C10.7384 61.6241 10.7395 61.6241 10.7406 61.6241C10.7417 61.6241 10.7428 61.6241 10.7439 61.6241C10.745 61.6241 10.746 61.6241 10.7471 61.6241C10.7482 61.6241 10.7493 61.6241 10.7504 61.6241C10.7514 61.6241 10.7525 61.6241 10.7536 61.6241C10.7547 61.6241 10.7558 61.6241 10.7569 61.6241C10.7579 61.6241 10.759 61.6241 10.7601 61.6241C10.7612 61.6241 10.7622 61.6241 10.7633 61.6241C10.7644 61.6241 10.7655 61.6241 10.7666 61.6241C10.7676 61.6241 10.7687 61.6241 10.7698 61.6241C10.7709 61.6241 10.7719 61.6241 10.773 61.6241C10.7741 61.6241 10.7752 61.6241 10.7763 61.6241C10.7773 61.6241 10.7784 61.6241 10.7795 61.6241C10.7806 61.6241 10.7816 61.6241 10.7827 61.6241C10.7838 61.6241 10.7848 61.6241 10.7859 61.6241C10.787 61.6241 10.7881 61.6241 10.7891 61.6241C10.7902 61.6241 10.7913 61.6241 10.7923 61.6241C10.7934 61.6241 10.7945 61.6241 10.7956 61.6241C10.7966 61.6241 10.7977 61.6241 10.7988 61.6241C10.7998 61.6241 10.8009 61.6241 10.802 61.6241C10.803 61.6241 10.8041 61.6241 10.8052 61.6241C10.8062 61.6241 10.8073 61.6241 10.8084 61.6241C10.8094 61.6241 10.8105 61.6241 10.8116 61.6241C10.8126 61.6241 10.8137 61.6241 10.8148 61.6241C10.8158 61.6241 10.8169 61.6241 10.818 61.6241C10.819 61.6241 10.8201 61.6241 10.8212 61.6241C10.8222 61.6241 10.8233 61.6241 10.8243 61.6241C10.8254 61.6241 10.8265 61.6241 10.8275 61.6241C10.8286 61.6241 10.8296 61.6241 10.8307 61.6241C10.8318 61.6241 10.8328 61.6241 10.8339 61.6241C10.8349 61.6241 10.836 61.6241 10.8371 61.6241C10.8381 61.6241 10.8392 61.6241 10.8402 61.6241C10.8413 61.6241 10.8424 61.6241 10.8434 61.6241C10.8445 61.6241 10.8455 61.6241 10.8466 61.6241C10.8476 61.6241 10.8487 61.6241 10.8497 61.6241C10.8508 61.6241 10.8519 61.6241 10.8529 61.6241C10.854 61.6241 10.855 61.6241 10.8561 61.6241C10.8571 61.6241 10.8582 61.6241 10.8592 61.6241C10.8603 61.6241 10.8613 61.6241 10.8624 61.6241C10.8634 61.6241 10.8645 61.6241 10.8655 61.6241C10.8666 61.6241 10.8676 61.6241 10.8687 61.6241C10.8697 61.6241 10.8708 61.6241 10.8718 61.6241C10.8729 61.6241 10.8739 61.6241 10.875 61.6241C10.876 61.6241 10.8771 61.6241 10.8781 61.6241C10.8792 61.6241 10.8802 61.6241 10.8813 61.6241C10.8823 61.6241 10.8834 61.6241 10.8844 61.6241C10.8854 61.6241 10.8865 61.6241 10.8875 61.6241C10.8886 61.6241 10.8896 61.6241 10.8907 61.6241C10.8917 61.6241 10.8928 61.6241 10.8938 61.6241C10.8948 61.6241 10.8959 61.6241 10.8969 61.6241C10.898 61.6241 10.899 61.6241 10.9001 61.6241C10.9011 61.6241 10.9021 61.6241 10.9032 61.6241C10.9042 61.6241 10.9053 61.6241 10.9063 61.6241C10.9073 61.6241 10.9084 61.6241 10.9094 61.6241C10.9104 61.6241 10.9115 61.6241 10.9125 61.6241C10.9136 61.6241 10.9146 61.6241 10.9156 61.6241C10.9167 61.6241 10.9177 61.6241 10.9187 61.6241C10.9198 61.6241 10.9208 61.6241 10.9219 61.6241C10.9229 61.6241 10.9239 61.6241 10.925 61.6241C10.926 61.6241 10.927 61.6241 10.9281 61.6241C10.9291 61.6241 10.9301 61.6241 10.9312 61.6241C10.9322 61.6241 10.9332 61.6241 10.9342 61.6241C10.9353 61.6241 10.9363 61.6241 10.9373 61.6241C10.9384 61.6241 10.9394 61.6241 10.9404 61.6241C10.9415 61.6241 10.9425 61.6241 10.9435 61.6241C10.9446 61.6241 10.9456 61.6241 10.9466 61.6241C10.9476 61.6241 10.9487 61.6241 10.9497 61.6241C10.9507 61.6241 10.9517 61.6241 10.9528 61.6241C10.9538 61.6241 10.9548 61.6241 10.9558 61.6241C10.9569 61.6241 10.9579 61.6241 10.9589 61.6241C10.9599 61.6241 10.961 61.6241 10.962 61.6241C10.963 61.6241 10.964 61.6241 10.9651 61.6241C10.9661 61.6241 10.9671 61.6241 10.9681 61.6241C10.9692 61.6241 10.9702 61.6241 10.9712 61.6241C10.9722 61.6241 10.9732 61.6241 10.9743 61.6241C10.9753 61.6241 10.9763 61.6241 10.9773 61.6241C10.9783 61.6241 10.9794 61.6241 10.9804 61.6241C10.9814 61.6241 10.9824 61.6241 10.9834 61.6241C10.9844 61.6241 10.9855 61.6241 10.9865 61.6241C10.9875 61.6241 10.9885 61.6241 10.9895 61.6241C10.9905 61.6241 10.9916 61.6241 10.9926 61.6241C10.9936 61.6241 10.9946 61.6241 10.9956 61.6241C10.9966 61.6241 10.9976 61.6241 10.9987 61.6241C10.9997 61.6241 11.0007 61.6241 11.0017 61.6241C11.0027 61.6241 11.0037 61.6241 11.0047 61.6241C11.0057 61.6241 11.0068 61.6241 11.0078 61.6241C11.0088 61.6241 11.0098 61.6241 11.0108 61.6241C11.0118 61.6241 11.0128 61.6241 11.0138 61.6241C11.0148 61.6241 11.0158 61.6241 11.0168 61.6241C11.0179 61.6241 11.0189 61.6241 11.0199 61.6241C11.0209 61.6241 11.0219 61.6241 11.0229 61.6241C11.0239 61.6241 11.0249 61.6241 11.0259 61.6241C11.0269 61.6241 11.0279 61.6241 11.0289 61.6241C11.0299 61.6241 11.0309 61.6241 11.0319 61.6241C11.0329 61.6241 11.0339 61.6241 11.0349 61.6241C11.0359 61.6241 11.0369 61.6241 11.038 61.6241C11.039 61.6241 11.04 61.6241 11.041 61.6241C11.042 61.6241 11.043 61.6241 11.044 61.6241C11.045 61.6241 11.046 61.6241 11.047 61.6241C11.048 61.6241 11.049 61.6241 11.05 61.6241C11.051 61.6241 11.0519 61.6241 11.0529 61.6241C11.0539 61.6241 11.0549 61.6241 11.0559 61.6241C11.0569 61.6241 11.0579 61.6241 11.0589 61.6241C11.0599 61.6241 11.0609 61.6241 11.0619 61.6241C11.0629 61.6241 11.0639 61.6241 11.0649 61.6241C11.0659 61.6241 11.0669 61.6241 11.0679 61.6241C11.0689 61.6241 11.0699 61.6241 11.0709 61.6241C11.0718 61.6241 11.0728 61.6241 11.0738 61.6241C11.0748 61.6241 11.0758 61.6241 11.0768 61.6241C11.0778 61.6241 11.0788 61.6241 11.0798 61.6241C11.0808 61.6241 11.0817 61.6241 11.0827 61.6241C11.0837 61.6241 11.0847 61.6241 11.0857 61.6241C11.0867 61.6241 11.0877 61.6241 11.0887 61.6241C11.0897 61.6241 11.0906 61.6241 11.0916 61.6241C11.0926 61.6241 11.0936 61.6241 11.0946 61.6241C11.0956 61.6241 11.0966 61.6241 11.0975 61.6241C11.0985 61.6241 11.0995 61.6241 11.1005 61.6241C11.1015 61.6241 11.1025 61.6241 11.1034 61.6241C11.1044 61.6241 11.1054 61.6241 11.1064 61.6241C11.1074 61.6241 11.1083 61.6241 11.1093 61.6241C11.1103 61.6241 11.1113 61.6241 11.1123 61.6241C11.1132 61.6241 11.1142 61.6241 11.1152 61.6241C11.1162 61.6241 11.1172 61.6241 11.1181 61.6241C11.1191 61.6241 11.1201 61.6241 11.1211 61.6241C11.1221 61.6241 11.123 61.6241 11.124 61.6241C11.125 61.6241 11.126 61.6241 11.1269 61.6241C11.1279 61.6241 11.1289 61.6241 11.1299 61.6241C11.1308 61.6241 11.1318 61.6241 11.1328 61.6241C11.1338 61.6241 11.1347 61.6241 11.1357 61.6241C11.1367 61.6241 11.1377 61.6241 11.1386 61.6241C11.1396 61.6241 11.1406 61.6241 11.1415 61.6241C11.1425 61.6241 11.1435 61.6241 11.1445 61.6241C11.1454 61.6241 11.1464 61.6241 11.1474 61.6241C11.1483 61.6241 11.1493 61.6241 11.1503 61.6241C11.1512 61.6241 11.1522 61.6241 11.1532 61.6241C11.1541 61.6241 11.1551 61.6241 11.1561 61.6241C11.157 61.6241 11.158 61.6241 11.159 61.6241C11.1599 61.6241 11.1609 61.6241 11.1619 61.6241C11.1628 61.6241 11.1638 61.6241 11.1648 61.6241C11.1657 61.6241 11.1667 61.6241 11.1677 61.6241C11.1686 61.6241 11.1696 61.6241 11.1705 61.6241C11.1715 61.6241 11.1725 61.6241 11.1734 61.6241C11.1744 61.6241 11.1754 61.6241 11.1763 61.6241C11.1773 61.6241 11.1782 61.6241 11.1792 61.6241C11.1802 61.6241 11.1811 61.6241 11.1821 61.6241C11.183 61.6241 11.184 61.6241 11.185 61.6241C11.1859 61.6241 11.1869 61.6241 11.1878 61.6241C11.1888 61.6241 11.1897 61.6241 11.1907 61.6241C11.1917 61.6241 11.1926 61.6241 11.1936 61.6241C11.1945 61.6241 11.1955 61.6241 11.1964 61.6241C11.1974 61.6241 11.1983 61.6241 11.1993 61.6241C11.2002 61.6241 11.2012 61.6241 11.2022 61.6241C11.2031 61.6241 11.2041 61.6241 11.205 61.6241C11.206 61.6241 11.2069 61.6241 11.2079 61.6241C11.2088 61.6241 11.2098 61.6241 11.2107 61.6241C11.2117 61.6241 11.2126 61.6241 11.2136 61.6241C11.2145 61.6241 11.2155 61.6241 11.2164 61.6241C11.2174 61.6241 11.2183 61.6241 11.2193 61.6241C11.2202 61.6241 11.2212 61.6241 11.2221 61.6241C11.223 61.6241 11.224 61.6241 11.2249 61.6241C11.2259 61.6241 11.2268 61.6241 11.2278 61.6241C11.2287 61.6241 11.2297 61.6241 11.2306 61.6241C11.2316 61.6241 11.2325 61.6241 11.2334 61.6241C11.2344 61.6241 11.2353 61.6241 11.2363 61.6241C11.2372 61.6241 11.2382 61.6241 11.2391 61.6241C11.24 61.6241 11.241 61.6241 11.2419 61.6241C11.2429 61.6241 11.2438 61.6241 11.2447 61.6241C11.2457 61.6241 11.2466 61.6241 11.2476 61.6241C11.2485 61.6241 11.2494 61.6241 11.2504 61.6241C11.2513 61.6241 11.2523 61.6241 11.2532 61.6241C11.2541 61.6241 11.2551 61.6241 11.256 61.6241C11.2569 61.6241 11.2579 61.6241 11.2588 61.6241C11.2597 61.6241 11.2607 61.6241 11.2616 61.6241C11.2625 61.6241 11.2635 61.6241 11.2644 61.6241C11.2654 61.6241 11.2663 61.6241 11.2672 61.6241C11.2681 61.6241 11.2691 61.6241 11.27 61.6241C11.2709 61.6241 11.2719 61.6241 11.2728 61.6241C11.2737 61.6241 11.2747 61.6241 11.2756 61.6241C11.2765 61.6241 11.2775 61.6241 11.2784 61.6241C11.2793 61.6241 11.2802 61.6241 11.2812 61.6241C11.2821 61.6241 11.283 61.6241 11.284 61.6241C11.2849 61.6241 11.2858 61.6241 11.2867 61.6241C11.2877 61.6241 11.2886 61.6241 11.2895 61.6241C11.2904 61.6241 11.2914 61.6241 11.2923 61.6241C11.2932 61.6241 11.2941 61.6241 11.2951 61.6241C11.296 61.6241 11.2969 61.6241 11.2978 61.6241C11.2988 61.6241 11.2997 61.6241 11.3006 61.6241C11.3015 61.6241 11.3025 61.6241 11.3034 61.6241C11.3043 61.6241 11.3052 61.6241 11.3061 61.6241C11.3071 61.6241 11.308 61.6241 11.3089 61.6241C11.3098 61.6241 11.3107 61.6241 11.3117 61.6241C11.3126 61.6241 11.3135 61.6241 11.3144 61.6241C11.3153 61.6241 11.3163 61.6241 11.3172 61.6241C11.3181 61.6241 11.319 61.6241 11.3199 61.6241C11.3208 61.6241 11.3218 61.6241 11.3227 61.6241C11.3236 61.6241 11.3245 61.6241 11.3254 61.6241C11.3263 61.6241 11.3272 61.6241 11.3282 61.6241C11.3291 61.6241 11.33 61.6241 11.3309 61.6241C11.3318 61.6241 11.3327 61.6241 11.3336 61.6241C11.3345 61.6241 11.3355 61.6241 11.3364 61.6241C11.3373 61.6241 11.3382 61.6241 11.3391 61.6241C11.34 61.6241 11.3409 61.6241 11.3418 61.6241C11.3427 61.6241 11.3436 61.6241 11.3446 61.6241C11.3455 61.6241 11.3464 61.6241 11.3473 61.6241C11.3482 61.6241 11.3491 61.6241 11.35 61.6241C11.3509 61.6241 11.3518 61.6241 11.3527 61.6241C11.3536 61.6241 11.3545 61.6241 11.3554 61.6241C11.3563 61.6241 11.3572 61.6241 11.3581 61.6241C11.3591 61.6241 11.36 61.6241 11.3609 61.6241C11.3618 61.6241 11.3627 61.6241 11.3636 61.6241C11.3645 61.6241 11.3654 61.6241 11.3663 61.6241C11.3672 61.6241 11.3681 61.6241 11.369 61.6241C11.3699 61.6241 11.3708 61.6241 11.3717 61.6241C11.3726 61.6241 11.3735 61.6241 11.3744 61.6241C11.3753 61.6241 11.3762 61.6241 11.3771 61.6241C11.378 61.6241 11.3789 61.6241 11.3798 61.6241C11.3807 61.6241 11.3816 61.6241 11.3825 61.6241C11.3833 61.6241 11.3842 61.6241 11.3851 61.6241C11.386 61.6241 11.3869 61.6241 11.3878 61.6241C11.3887 61.6241 11.3896 61.6241 11.3905 61.6241C11.3914 61.6241 11.3923 61.6241 11.3932 61.6241C11.3941 61.6241 11.395 61.6241 11.3959 61.6241C11.3968 61.6241 11.3976 61.6241 11.3985 61.6241C11.3994 61.6241 11.4003 61.6241 11.4012 61.6241C11.4021 61.6241 11.403 61.6241 11.4039 61.6241C11.4048 61.6241 11.4057 61.6241 11.4065 61.6241C11.4074 61.6241 11.4083 61.6241 11.4092 61.6241C11.4101 61.6241 11.411 61.6241 11.4119 61.6241C11.4128 61.6241 11.4136 61.6241 11.4145 61.6241C11.4154 61.6241 11.4163 61.6241 11.4172 61.6241C11.4181 61.6241 11.419 61.6241 11.4198 61.6241C11.4207 61.6241 11.4216 61.6241 11.4225 61.6241C11.4234 61.6241 11.4243 61.6241 11.4251 61.6241C11.426 61.6241 11.4269 61.6241 11.4278 61.6241C11.4287 61.6241 11.4295 61.6241 11.4304 61.6241C11.4313 61.6241 11.4322 61.6241 11.4331 61.6241C11.4339 61.6241 11.4348 61.6241 11.4357 61.6241C11.4366 61.6241 11.4375 61.6241 11.4383 61.6241C11.4392 61.6241 11.4401 61.6241 11.441 61.6241C11.4418 61.6241 11.4427 61.6241 11.4436 61.6241C11.4445 61.6241 11.4454 61.6241 11.4462 61.6241C11.4471 61.6241 11.448 61.6241 11.4489 61.6241C11.4497 61.6241 11.4506 61.6241 11.4515 61.6241C11.4523 61.6241 11.4532 61.6241 11.4541 61.6241C11.455 61.6241 11.4558 61.6241 11.4567 61.6241C11.4576 61.6241 11.4585 61.6241 11.4593 61.6241C11.4602 61.6241 11.4611 61.6241 11.4619 61.6241C11.4628 61.6241 11.4637 61.6241 11.4645 61.6241C11.4654 61.6241 11.4663 61.6241 11.4672 61.6241C11.468 61.6241 11.4689 61.6241 11.4698 61.6241C11.4706 61.6241 11.4715 61.6241 11.4724 61.6241C11.4732 61.6241 11.4741 61.6241 11.475 61.6241C11.4758 61.6241 11.4767 61.6241 11.4775 61.6241C11.4784 61.6241 11.4793 61.6241 11.4801 61.6241C11.481 61.6241 11.4819 61.6241 11.4827 61.6241C11.4836 61.6241 11.4845 61.6241 11.4853 61.6241C11.4862 61.6241 11.487 61.6241 11.4879 61.6241C11.4888 61.6241 11.4896 61.6241 11.4905 61.6241C11.4913 61.6241 11.4922 61.6241 11.4931 61.6241C11.4939 61.6241 11.4948 61.6241 11.4956 61.6241C11.4965 61.6241 11.4974 61.6241 11.4982 61.6241C11.4991 61.6241 11.4999 61.6241 11.5008 61.6241C11.5017 61.6241 11.5025 61.6241 11.5034 61.6241C11.5042 61.6241 11.5051 61.6241 11.5059 61.6241C11.5068 61.6241 11.5076 61.6241 11.5085 61.6241C11.5093 61.6241 11.5102 61.6241 11.5111 61.6241C11.5119 61.6241 11.5128 61.6241 11.5136 61.6241C11.5145 61.6241 11.5153 61.6241 11.5162 61.6241C11.517 61.6241 11.5179 61.6241 11.5187 61.6241C11.5196 61.6241 11.5204 61.6241 11.5213 61.6241C11.5221 61.6241 11.523 61.6241 11.5238 61.6241C11.5247 61.6241 11.5255 61.6241 11.5264 61.6241C11.5272 61.6241 11.5281 61.6241 11.5289 61.6241C11.5298 61.6241 11.5306 61.6241 11.5315 61.6241C11.5323 61.6241 11.5331 61.6241 11.534 61.6241C11.5348 61.6241 11.5357 61.6241 11.5365 61.6241C11.5374 61.6241 11.5382 61.6241 11.5391 61.6241C11.5399 61.6241 11.5408 61.6241 11.5416 61.6241C11.5424 61.6241 11.5433 61.6241 11.5441 61.6241C11.545 61.6241 11.5458 61.6241 11.5466 61.6241C11.5475 61.6241 11.5483 61.6241 11.5492 61.6241C11.55 61.6241 11.5508 61.6241 11.5517 61.6241C11.5525 61.6241 11.5534 61.6241 11.5542 61.6241C11.555 61.6241 11.5559 61.6241 11.5567 61.6241C11.5576 61.6241 11.5584 61.6241 11.5592 61.6241C11.5601 61.6241 11.5609 61.6241 11.5617 61.6241C11.5626 61.6241 11.5634 61.6241 11.5642 61.6241C11.5651 61.6241 11.5659 61.6241 11.5668 61.6241C11.5676 61.6241 11.5684 61.6241 11.5693 61.6241C11.5701 61.6241 11.5709 61.6241 11.5718 61.6241C11.5726 61.6241 11.5734 61.6241 11.5742 61.6241C11.5751 61.6241 11.5759 61.6241 11.5767 61.6241C11.5776 61.6241 11.5784 61.6241 11.5792 61.6241C11.5801 61.6241 11.5809 61.6241 11.5817 61.6241C11.5826 61.6241 11.5834 61.6241 11.5842 61.6241C11.585 61.6241 11.5859 61.6241 11.5867 61.6241C11.5875 61.6241 11.5883 61.6241 11.5892 61.6241C11.59 61.6241 11.5908 61.6241 11.5917 61.6241C11.5925 61.6241 11.5933 61.6241 11.5941 61.6241C11.5949 61.6241 11.5958 61.6241 11.5966 61.6241C11.5974 61.6241 11.5982 61.6241 11.5991 61.6241C11.5999 61.6241 11.6007 61.6241 11.6015 61.6241C11.6024 61.6241 11.6032 61.6241 11.604 61.6241C11.6048 61.6241 11.6056 61.6241 11.6065 61.6241C11.6073 61.6241 11.6081 61.6241 11.6089 61.6241C11.6097 61.6241 11.6106 61.6241 11.6114 61.6241C11.6122 61.6241 11.613 61.6241 11.6138 61.6241C11.6147 61.6241 11.6155 61.6241 11.6163 61.6241C11.6171 61.6241 11.6179 61.6241 11.6187 61.6241C11.6196 61.6241 11.6204 61.6241 11.6212 61.6241C11.622 61.6241 11.6228 61.6241 11.6236 61.6241C11.6244 61.6241 11.6253 61.6241 11.6261 61.6241C11.6269 61.6241 11.6277 61.6241 11.6285 61.6241C11.6293 61.6241 11.6301 61.6241 11.6309 61.6241C11.6318 61.6241 11.6326 61.6241 11.6334 61.6241C11.6342 61.6241 11.635 61.6241 11.6358 61.6241C11.6366 61.6241 11.6374 61.6241 11.6382 61.6241C11.639 61.6241 11.6399 61.6241 11.6407 61.6241C11.6415 61.6241 11.6423 61.6241 11.6431 61.6241C11.6439 61.6241 11.6447 61.6241 11.6455 61.6241C11.6463 61.6241 11.6471 61.6241 11.6479 61.6241C11.6487 61.6241 11.6495 61.6241 11.6503 61.6241C11.6511 61.6241 11.6519 61.6241 11.6527 61.6241C11.6536 61.6241 11.6544 61.6241 11.6552 61.6241C11.656 61.6241 11.6568 61.6241 11.6576 61.6241C11.6584 61.6241 11.6592 61.6241 11.66 61.6241C11.6608 61.6241 11.6616 61.6241 11.6624 61.6241C11.6632 61.6241 11.664 61.6241 11.6648 61.6241C11.6656 61.6241 11.6664 61.6241 11.6672 61.6241C11.668 61.6241 11.6688 61.6241 11.6696 61.6241C11.6704 61.6241 11.6712 61.6241 11.672 61.6241C11.6728 61.6241 11.6735 61.6241 11.6743 61.6241C11.6751 61.6241 11.6759 61.6241 11.6767 61.6241C11.6775 61.6241 11.6783 61.6241 11.6791 61.6241C11.6799 61.6241 11.6807 61.6241 11.6815 61.6241C11.6823 61.6241 11.6831 61.6241 11.6839 61.6241C11.6847 61.6241 11.6855 61.6241 11.6862 61.6241C11.687 61.6241 11.6878 61.6241 11.6886 61.6241C11.6894 61.6241 11.6902 61.6241 11.691 61.6241C11.6918 61.6241 11.6926 61.6241 11.6934 61.6241C11.6941 61.6241 11.6949 61.6241 11.6957 61.6241C11.6965 61.6241 11.6973 61.6241 11.6981 61.6241C11.6989 61.6241 11.6997 61.6241 11.7004 61.6241C11.7012 61.6241 11.702 61.6241 11.7028 61.6241C11.7036 61.6241 11.7044 61.6241 11.7052 61.6241C11.7059 61.6241 11.7067 61.6241 11.7075 61.6241C11.7083 61.6241 11.7091 61.6241 11.7099 61.6241C11.7106 61.6241 11.7114 61.6241 11.7122 61.6241V58.6241ZM10.168 58.6241C9.64584 58.6241 9.09085 58.598 8.50228 58.5445L8.23068 61.5321C8.90034 61.593 9.54637 61.6241 10.168 61.6241V58.6241ZM8.63481 58.5625C8.39488 58.5189 8.10484 58.3822 7.76566 58.0054L5.53578 60.0123C6.22607 60.7793 7.07986 61.329 8.09815 61.5141L8.63481 58.5625ZM7.76758 58.0075C6.4561 56.5447 6.25371 55.4808 6.46918 54.6805L3.57233 53.9005C2.98711 56.0742 3.87137 58.1558 5.53387 60.0102L7.76758 58.0075ZM6.46918 54.6805C6.77875 53.5306 7.59644 52.1738 9.10243 50.6141L6.94423 48.5303C5.24747 50.2876 4.06345 52.0764 3.57233 53.9005L6.46918 54.6805ZM9.08399 50.6328L15.7754 43.9414L13.6541 41.82L6.96267 48.5115L9.08399 50.6328Z" fill="#FFF500" mask="url(#path-2-outside-1_1218_12368)"/>
<path d="M34.971 38.6942C35.0666 37.8103 35.3055 36.986 35.6878 36.2215C36.07 35.457 36.5956 34.8 37.2646 34.2505C37.9574 33.6771 38.7697 33.2351 39.7015 32.9245C40.6571 32.59 41.7322 32.4228 42.9268 32.4228C43.3807 32.4228 43.9063 32.4945 44.5036 32.6378C45.1248 32.7573 45.734 32.9484 46.3313 33.2112C46.9525 33.4501 47.5378 33.7607 48.0873 34.143C48.6607 34.5013 49.1266 34.9075 49.4849 35.3614C49.7716 35.6959 49.9747 36.0782 50.0942 36.5082C50.2375 36.9144 50.2972 37.3444 50.2733 37.7983C50.2495 38.2284 50.1539 38.6465 49.9867 39.0526C49.8433 39.4588 49.6163 39.8171 49.3058 40.1277C48.9713 40.4622 48.589 40.7131 48.159 40.8803C47.7289 41.0236 47.2869 41.1073 46.833 41.1312C46.3791 41.1312 45.9251 41.0595 45.4712 40.9161C45.0412 40.7728 44.647 40.5578 44.2886 40.2711C44.1453 40.1516 44.0258 40.0083 43.9302 39.841C43.8347 39.6499 43.7272 39.4707 43.6077 39.3035C43.5121 39.1362 43.3807 38.9929 43.2135 38.8734C43.0463 38.754 42.8193 38.6942 42.5326 38.6942C42.1742 38.6942 41.8995 38.754 41.7083 38.8734C41.5172 38.969 41.4097 39.1004 41.3858 39.2676C41.3619 39.411 41.4097 39.5663 41.5292 39.7335C41.6486 39.9008 41.8159 40.0441 42.0309 40.1636L46.0088 42.4213C47.06 42.923 47.9201 43.4725 48.589 44.0698C49.258 44.6671 49.7597 45.2763 50.0942 45.8974C50.4525 46.4947 50.6676 47.104 50.7392 47.7251C50.8109 48.3224 50.7751 48.8958 50.6317 49.4453C50.4406 50.4248 50.0464 51.273 49.4491 51.9897C48.8757 52.6826 48.2187 53.2559 47.4781 53.7099C46.7374 54.1399 45.961 54.4624 45.1487 54.6775C44.3603 54.8925 43.6435 55 42.9985 55C41.4933 55.0239 40.3107 54.8925 39.4506 54.6058C38.5905 54.2952 37.8977 53.9368 37.3721 53.5307C36.8704 53.1484 36.4164 52.7184 36.0103 52.2406C35.628 51.7388 35.3413 51.2252 35.1502 50.6996C34.9591 50.1501 34.8994 49.6125 34.971 49.0869C35.0427 48.5374 35.2816 48.0238 35.6878 47.5459C35.9028 47.2831 36.2134 47.0562 36.6195 46.865C37.0496 46.6739 37.5035 46.5664 37.9813 46.5425C38.483 46.5186 38.9847 46.6142 39.4865 46.8292C40.0121 47.0203 40.4899 47.3787 40.9199 47.9043C41.2544 48.3344 41.6247 48.5852 42.0309 48.6569C42.437 48.7047 42.7357 48.7047 42.9268 48.6569C43.3091 48.5852 43.5121 48.3582 43.536 47.976C43.5599 47.5937 43.3568 47.2712 42.9268 47.0084C42.4729 46.7217 41.7681 46.3394 40.8124 45.8616C39.8807 45.3599 38.7936 44.8104 37.5513 44.2131C37.2885 44.0937 36.9779 43.9264 36.6195 43.7114C36.285 43.4725 35.9745 43.15 35.6878 42.7438C35.425 42.3138 35.2099 41.7762 35.0427 41.1312C34.8994 40.4861 34.8755 39.6738 34.971 38.6942ZM68.3382 32.4228C69.2699 32.4228 70.0583 32.7453 70.7034 33.3904C71.3724 34.0355 71.7068 34.8358 71.7068 35.7915C71.7068 36.2693 71.6113 36.7113 71.4201 37.1174C71.2529 37.5236 71.014 37.8819 70.7034 38.1925C70.4167 38.4792 70.0583 38.7181 69.6283 38.9093C69.2222 39.0765 68.7921 39.1601 68.3382 39.1601H66.2238L66.1521 51.6313C66.1521 52.587 65.8296 53.3873 65.1845 54.0324C64.5634 54.6775 63.7869 55 62.8551 55C61.8995 55 61.1111 54.6775 60.4899 54.0324C59.8687 53.3873 59.5582 52.587 59.5582 51.6313L59.4865 39.1601H57.3721C56.4165 39.1601 55.6161 38.8376 54.971 38.1925C54.326 37.5236 54.0035 36.7232 54.0035 35.7915C54.0035 34.8358 54.326 34.0355 54.971 33.3904C55.6161 32.7453 56.4165 32.4228 57.3721 32.4228H68.3382Z" fill="#AFA335"/>
<mask id="path-5-outside-2_1218_12368" maskUnits="userSpaceOnUse" x="34.1699" y="31" width="40" height="26" fill="black">
<rect fill="white" x="34.1699" y="31" width="40" height="26"/>
<path d="M36.1409 38.6942C36.2365 37.8103 36.4754 36.986 36.8577 36.2215C37.2399 35.457 37.7655 34.8 38.4345 34.2505C39.1273 33.6771 39.9396 33.2351 40.8714 32.9245C41.8271 32.59 42.9022 32.4228 44.0967 32.4228C44.5507 32.4228 45.0763 32.4945 45.6735 32.6378C46.2947 32.7573 46.9039 32.9484 47.5012 33.2112C48.1224 33.4501 48.7077 33.7607 49.2572 34.143C49.8306 34.5013 50.2965 34.9075 50.6549 35.3614C50.9416 35.6959 51.1446 36.0782 51.2641 36.5082C51.4074 36.9144 51.4672 37.3444 51.4433 37.7983C51.4194 38.2284 51.3238 38.6465 51.1566 39.0526C51.0132 39.4588 50.7863 39.8171 50.4757 40.1277C50.1412 40.4622 49.7589 40.7131 49.3289 40.8803C48.8989 41.0236 48.4569 41.1073 48.0029 41.1312C47.549 41.1312 47.0951 41.0595 46.6411 40.9161C46.2111 40.7728 45.8169 40.5578 45.4585 40.2711C45.3152 40.1516 45.1957 40.0083 45.1002 39.841C45.0046 39.6499 44.8971 39.4707 44.7776 39.3035C44.6821 39.1362 44.5507 38.9929 44.3834 38.8734C44.2162 38.754 43.9892 38.6942 43.7025 38.6942C43.3441 38.6942 43.0694 38.754 42.8783 38.8734C42.6871 38.969 42.5796 39.1004 42.5557 39.2676C42.5318 39.411 42.5796 39.5663 42.6991 39.7335C42.8185 39.9008 42.9858 40.0441 43.2008 40.1636L47.1787 42.4213C48.2299 42.923 49.09 43.4725 49.7589 44.0698C50.4279 44.6671 50.9296 45.2763 51.2641 45.8974C51.6225 46.4947 51.8375 47.104 51.9091 47.7251C51.9808 48.3224 51.945 48.8958 51.8016 49.4453C51.6105 50.4248 51.2163 51.273 50.619 51.9897C50.0456 52.6826 49.3886 53.2559 48.648 53.7099C47.9074 54.1399 47.1309 54.4624 46.3186 54.6775C45.5302 54.8925 44.8135 55 44.1684 55C42.6632 55.0239 41.4806 54.8925 40.6205 54.6058C39.7605 54.2952 39.0676 53.9368 38.542 53.5307C38.0403 53.1484 37.5864 52.7184 37.1802 52.2406C36.798 51.7388 36.5113 51.2252 36.3201 50.6996C36.129 50.1501 36.0693 49.6125 36.1409 49.0869C36.2126 48.5374 36.4515 48.0238 36.8577 47.5459C37.0727 47.2831 37.3833 47.0562 37.7894 46.865C38.2195 46.6739 38.6734 46.5664 39.1512 46.5425C39.653 46.5186 40.1547 46.6142 40.6564 46.8292C41.182 47.0203 41.6598 47.3787 42.0899 47.9043C42.4243 48.3344 42.7946 48.5852 43.2008 48.6569C43.607 48.7047 43.9056 48.7047 44.0967 48.6569C44.479 48.5852 44.6821 48.3582 44.7059 47.976C44.7298 47.5937 44.5268 47.2712 44.0967 47.0084C43.6428 46.7217 42.938 46.3394 41.9823 45.8616C41.0506 45.3599 39.9635 44.8104 38.7212 44.2131C38.4584 44.0937 38.1478 43.9264 37.7894 43.7114C37.455 43.4725 37.1444 43.15 36.8577 42.7438C36.5949 42.3138 36.3799 41.7762 36.2126 41.1312C36.0693 40.4861 36.0454 39.6738 36.1409 38.6942ZM69.5081 32.4228C70.4399 32.4228 71.2283 32.7453 71.8733 33.3904C72.5423 34.0355 72.8768 34.8358 72.8768 35.7915C72.8768 36.2693 72.7812 36.7113 72.5901 37.1174C72.4228 37.5236 72.1839 37.8819 71.8733 38.1925C71.5866 38.4792 71.2283 38.7181 70.7982 38.9093C70.3921 39.0765 69.962 39.1601 69.5081 39.1601H67.3937L67.3221 51.6313C67.3221 52.587 66.9995 53.3873 66.3545 54.0324C65.7333 54.6775 64.9568 55 64.0251 55C63.0694 55 62.281 54.6775 61.6598 54.0324C61.0387 53.3873 60.7281 52.587 60.7281 51.6313L60.6564 39.1601H58.542C57.5864 39.1601 56.786 38.8376 56.141 38.1925C55.4959 37.5236 55.1734 36.7232 55.1734 35.7915C55.1734 34.8358 55.4959 34.0355 56.141 33.3904C56.786 32.7453 57.5864 32.4228 58.542 32.4228H69.5081Z"/>
</mask>
<path d="M36.1409 38.6942L35.1026 38.582L35.1015 38.5928L36.1409 38.6942ZM36.8577 36.2215L35.9236 35.7545H35.9236L36.8577 36.2215ZM38.4345 34.2505L39.0974 35.0575L39.1003 35.055L38.4345 34.2505ZM40.8714 32.9245L41.2017 33.9153L41.2091 33.9128L41.2164 33.9102L40.8714 32.9245ZM45.6735 32.6378L45.4298 33.6533L45.453 33.6589L45.4763 33.6634L45.6735 32.6378ZM47.5012 33.2112L47.0806 34.1671L47.1032 34.1771L47.1263 34.1859L47.5012 33.2112ZM49.2572 34.143L48.6608 35.0003L48.6819 35.015L48.7037 35.0286L49.2572 34.143ZM50.6549 35.3614L49.8352 36.0085L49.8482 36.0251L49.8619 36.0411L50.6549 35.3614ZM51.2641 36.5082L50.2578 36.7877L50.2674 36.8221L50.2793 36.8558L51.2641 36.5082ZM51.4433 37.7983L52.486 37.8563L52.4862 37.8532L51.4433 37.7983ZM51.1566 39.0526L50.1909 38.655L50.1807 38.6798L50.1718 38.705L51.1566 39.0526ZM50.4757 40.1277L49.7372 39.3893L50.4757 40.1277ZM49.3289 40.8803L49.6591 41.871L49.6835 41.8629L49.7074 41.8536L49.3289 40.8803ZM48.0029 41.1312V42.1755H48.0304L48.0578 42.1741L48.0029 41.1312ZM46.6411 40.9161L46.3109 41.9069L46.3187 41.9095L46.3267 41.912L46.6411 40.9161ZM45.4585 40.2711L44.7899 41.0734L44.798 41.08L44.8061 41.0866L45.4585 40.2711ZM45.1002 39.841L44.1661 40.3081L44.179 40.334L44.1934 40.3592L45.1002 39.841ZM44.7776 39.3035L43.8709 39.8216L43.8971 39.8675L43.9278 39.9105L44.7776 39.3035ZM42.8783 38.8734L43.3453 39.8075L43.3897 39.7853L43.4318 39.759L42.8783 38.8734ZM42.5557 39.2676L43.5859 39.4393L43.5879 39.4274L43.5896 39.4153L42.5557 39.2676ZM42.6991 39.7335L41.8493 40.3405H41.8493L42.6991 39.7335ZM43.2008 40.1636L43.7163 39.2553L43.708 39.2506L43.2008 40.1636ZM47.1787 42.4213L46.6632 43.3295L46.6954 43.3478L46.7289 43.3638L47.1787 42.4213ZM49.7589 44.0698L50.4545 43.2908L49.7589 44.0698ZM51.2641 45.8974L50.3446 46.3926L50.3561 46.4139L50.3686 46.4348L51.2641 45.8974ZM51.9091 47.7251L50.8717 47.8448L50.8722 47.8496L51.9091 47.7251ZM51.8016 49.4453L50.7911 49.1817L50.7829 49.2133L50.7766 49.2453L51.8016 49.4453ZM50.619 51.9897L49.8167 51.3211L49.8145 51.3239L50.619 51.9897ZM48.648 53.7099L49.1724 54.613L49.1831 54.6068L49.1937 54.6003L48.648 53.7099ZM46.3186 54.6775L46.0514 53.6679L46.0438 53.6699L46.3186 54.6775ZM44.1684 55V53.9557H44.1601L44.1518 53.9558L44.1684 55ZM40.6205 54.6058L40.2658 55.5881L40.278 55.5925L40.2903 55.5965L40.6205 54.6058ZM38.542 53.5307L39.1806 52.7043L39.1749 52.7L38.542 53.5307ZM37.1802 52.2406L36.3495 52.8735L36.3664 52.8957L36.3845 52.9169L37.1802 52.2406ZM36.3201 50.6996L35.3338 51.0427L35.3362 51.0496L35.3387 51.0565L36.3201 50.6996ZM36.1409 49.0869L37.1757 49.228L37.1765 49.222L36.1409 49.0869ZM36.8577 47.5459L37.6534 48.2223L37.6598 48.2148L37.666 48.2073L36.8577 47.5459ZM37.7894 46.865L37.3653 45.9107L37.355 45.9153L37.3448 45.9201L37.7894 46.865ZM39.1512 46.5425L39.1016 45.4993L39.0991 45.4995L39.1512 46.5425ZM40.6564 46.8292L40.245 47.7891L40.2719 47.8007L40.2995 47.8107L40.6564 46.8292ZM42.0899 47.9043L42.9142 47.2631L42.9063 47.253L42.8981 47.243L42.0899 47.9043ZM43.2008 48.6569L43.0193 49.6853L43.0489 49.6906L43.0788 49.6941L43.2008 48.6569ZM44.0967 48.6569L43.9043 47.6304L43.8736 47.6362L43.8434 47.6437L44.0967 48.6569ZM44.7059 47.976L43.6636 47.9108V47.9108L44.7059 47.976ZM44.0967 47.0084L43.539 47.8914L43.5456 47.8955L43.5521 47.8995L44.0967 47.0084ZM41.9823 45.8616L41.4872 46.7811L41.5012 46.7886L41.5153 46.7957L41.9823 45.8616ZM38.7212 44.2131L39.1737 43.2719L39.1636 43.267L39.1533 43.2624L38.7212 44.2131ZM37.7894 43.7114L37.1824 44.5612L37.2164 44.5855L37.2521 44.6069L37.7894 43.7114ZM36.8577 42.7438L35.9666 43.2884L35.9846 43.3179L36.0045 43.3461L36.8577 42.7438ZM36.2126 41.1312L35.1931 41.3577L35.1971 41.3755L35.2017 41.3932L36.2126 41.1312ZM37.1792 38.8065C37.262 38.041 37.4673 37.3375 37.7918 36.6886L35.9236 35.7545C35.4836 36.6346 35.211 37.5795 35.1027 38.582L37.1792 38.8065ZM37.7918 36.6886C38.1076 36.0568 38.5402 35.5152 39.0974 35.0575L37.7716 33.4435C36.9909 34.0848 36.3723 34.8571 35.9236 35.7545L37.7918 36.6886ZM39.1003 35.055C39.685 34.5712 40.381 34.1888 41.2017 33.9153L40.5412 31.9338C39.4983 32.2814 38.5697 32.783 37.7687 33.4459L39.1003 35.055ZM41.2164 33.9102C42.0433 33.6208 42.999 33.4671 44.0967 33.4671V31.3785C42.8053 31.3785 41.6109 31.5593 40.5264 31.9388L41.2164 33.9102ZM44.0967 33.4671C44.4455 33.4671 44.8863 33.5229 45.4298 33.6533L45.9173 31.6223C45.2662 31.4661 44.6558 31.3785 44.0967 31.3785V33.4671ZM45.4763 33.6634C46.0183 33.7676 46.5527 33.9348 47.0806 34.1671L47.9218 32.2553C47.2552 31.962 46.5712 31.747 45.8708 31.6123L45.4763 33.6634ZM47.1263 34.1859C47.6688 34.3946 48.1798 34.6656 48.6608 35.0003L49.8536 33.2857C49.2357 32.8558 48.576 32.5057 47.8761 32.2365L47.1263 34.1859ZM48.7037 35.0286C49.1922 35.3339 49.5626 35.6632 49.8352 36.0085L51.4745 34.7143C51.0304 34.1517 50.469 33.6688 49.8107 33.2574L48.7037 35.0286ZM49.8619 36.0411C50.0477 36.2578 50.1788 36.5031 50.2578 36.7877L52.2703 36.2287C52.1105 35.6533 51.8354 35.134 51.4478 34.6818L49.8619 36.0411ZM50.2793 36.8558C50.3746 37.1258 50.4175 37.4185 50.4004 37.7434L52.4862 37.8532C52.5168 37.2703 52.4403 36.7029 52.2489 36.1606L50.2793 36.8558ZM50.4005 37.7404C50.3833 38.0514 50.3145 38.3548 50.1909 38.655L52.1223 39.4503C52.3331 38.9382 52.4555 38.4054 52.486 37.8563L50.4005 37.7404ZM50.1718 38.705C50.0814 38.9612 49.9398 39.1867 49.7372 39.3893L51.2141 40.8662C51.6327 40.4476 51.9451 39.9564 52.1414 39.4002L50.1718 38.705ZM49.7372 39.3893C49.5025 39.624 49.242 39.7935 48.9504 39.907L49.7074 41.8536C50.2759 41.6326 50.7799 41.3004 51.2141 40.8662L49.7372 39.3893ZM48.9986 39.8895C48.6579 40.0031 48.3085 40.0693 47.948 40.0883L48.0578 42.1741C48.6052 42.1452 49.1398 42.0442 49.6591 41.871L48.9986 39.8895ZM48.0029 40.0868C47.6608 40.0868 47.3128 40.0331 46.9556 39.9203L46.3267 41.912C46.8773 42.0859 47.4372 42.1755 48.0029 42.1755V40.0868ZM46.9714 39.9254C46.6597 39.8215 46.3743 39.6663 46.1109 39.4556L44.8061 41.0866C45.2595 41.4492 45.7625 41.7241 46.3109 41.9069L46.9714 39.9254ZM46.1271 39.4688C46.0825 39.4317 46.0427 39.3855 46.0069 39.3229L44.1934 40.3592C44.3488 40.631 44.5478 40.8716 44.7899 41.0734L46.1271 39.4688ZM46.0342 39.374C45.9152 39.136 45.7798 38.9098 45.6274 38.6965L43.9278 39.9105C44.0143 40.0316 44.0939 40.1638 44.1661 40.3081L46.0342 39.374ZM45.6844 38.7853C45.5091 38.4786 45.272 38.2247 44.9904 38.0236L43.7764 39.7232C43.8293 39.7611 43.855 39.7939 43.8709 39.8216L45.6844 38.7853ZM44.9904 38.0236C44.5884 37.7365 44.1233 37.6499 43.7025 37.6499V39.7386C43.7752 39.7386 43.8119 39.7463 43.822 39.749C43.8301 39.7512 43.8094 39.7468 43.7764 39.7232L44.9904 38.0236ZM43.7025 37.6499C43.2536 37.6499 42.7528 37.7203 42.3248 37.9878L43.4318 39.759C43.4037 39.7766 43.4017 39.7699 43.4495 39.7596C43.4973 39.7492 43.5787 39.7386 43.7025 39.7386V37.6499ZM42.4112 37.9393C42.0046 38.1427 41.607 38.5238 41.5219 39.1199L43.5896 39.4153C43.5744 39.5213 43.5288 39.624 43.4626 39.705C43.4023 39.7787 43.3485 39.8059 43.3453 39.8075L42.4112 37.9393ZM41.5256 39.0959C41.4401 39.6089 41.6362 40.0423 41.8493 40.3405L43.5489 39.1265C43.523 39.0903 43.6236 39.2131 43.5859 39.4393L41.5256 39.0959ZM41.8493 40.3405C42.0748 40.6563 42.3694 40.8964 42.6936 41.0765L43.708 39.2506C43.6021 39.1918 43.5623 39.1452 43.5489 39.1265L41.8493 40.3405ZM42.6853 41.0718L46.6632 43.3295L47.6942 41.513L43.7163 39.2553L42.6853 41.0718ZM46.7289 43.3638C47.7159 43.8349 48.4864 44.3336 49.0634 44.8488L50.4545 43.2908C49.6936 42.6114 48.7439 42.0111 47.6285 41.4788L46.7289 43.3638ZM49.0634 44.8488C49.6652 45.3861 50.0809 45.9029 50.3446 46.3926L52.1836 45.4023C51.7783 44.6497 51.1906 43.948 50.4545 43.2908L49.0634 44.8488ZM50.3686 46.4348C50.6592 46.9191 50.8189 47.3874 50.8717 47.8448L52.9466 47.6054C52.856 46.8205 52.5857 46.0703 52.1596 45.3601L50.3686 46.4348ZM50.8722 47.8496C50.9293 48.3248 50.8995 48.7661 50.7911 49.1817L52.8122 49.7089C52.9904 49.0255 53.0324 48.32 52.9461 47.6007L50.8722 47.8496ZM50.7766 49.2453C50.6167 50.0648 50.2937 50.7487 49.8167 51.3211L51.4213 52.6583C52.1389 51.7972 52.6043 50.7849 52.8266 49.6453L50.7766 49.2453ZM49.8145 51.3239C49.3118 51.9313 48.7414 52.4277 48.1023 52.8195L49.1937 54.6003C50.0358 54.0841 50.7795 53.4338 51.4236 52.6555L49.8145 51.3239ZM48.1236 52.8067C47.462 53.1909 46.7718 53.4772 46.0514 53.6679L46.5858 55.687C47.49 55.4477 48.3527 55.0889 49.1724 54.613L48.1236 52.8067ZM46.0438 53.6699C45.3223 53.8667 44.6998 53.9557 44.1684 53.9557V56.0443C44.9271 56.0443 45.738 55.9183 46.5934 55.685L46.0438 53.6699ZM44.1518 53.9558C42.6974 53.9789 41.6495 53.8479 40.9508 53.615L40.2903 55.5965C41.3118 55.937 42.6291 56.0689 44.185 56.0442L44.1518 53.9558ZM40.9753 53.6235C40.1817 53.337 39.5947 53.0243 39.1806 52.7043L37.9035 54.3571C38.5405 54.8494 39.3392 55.2534 40.2658 55.5881L40.9753 53.6235ZM39.1749 52.7C38.7325 52.3629 38.3332 51.9845 37.9759 51.5642L36.3845 52.9169C36.8395 53.4522 37.3481 53.9339 37.9091 54.3614L39.1749 52.7ZM38.0109 51.6076C37.6845 51.1792 37.4524 50.7575 37.3016 50.3427L35.3387 51.0565C35.5701 51.6929 35.9114 52.2985 36.3495 52.8735L38.0109 51.6076ZM37.3065 50.3565C37.1641 49.947 37.1284 49.5754 37.1757 49.228L35.1062 48.9458C35.0102 49.6497 35.0939 50.3531 35.3338 51.0427L37.3065 50.3565ZM37.1765 49.222C37.2188 48.8978 37.3601 48.5674 37.6534 48.2223L36.062 46.8696C35.543 47.4801 35.2064 48.1771 35.1054 48.9519L37.1765 49.222ZM37.666 48.2073C37.756 48.0972 37.9255 47.9552 38.2341 47.81L37.3448 45.9201C36.8411 46.1571 36.3894 46.4691 36.0494 46.8846L37.666 48.2073ZM38.2136 47.8194C38.5242 47.6813 38.8518 47.6031 39.2034 47.5856L39.0991 45.4995C38.495 45.5297 37.9148 45.6665 37.3653 45.9107L38.2136 47.8194ZM39.2009 47.5857C39.5312 47.5699 39.8759 47.6309 40.245 47.7891L41.0678 45.8693C40.4335 45.5975 39.7747 45.4673 39.1016 45.4993L39.2009 47.5857ZM40.2995 47.8107C40.6143 47.9251 40.945 48.1542 41.2816 48.5656L42.8981 47.243C42.3746 46.6032 41.7497 46.1155 41.0133 45.8477L40.2995 47.8107ZM41.2655 48.5455C41.7068 49.1129 42.2856 49.5558 43.0193 49.6853L43.3823 47.6284C43.3037 47.6146 43.1419 47.5558 42.9142 47.2631L41.2655 48.5455ZM43.0788 49.6941C43.5049 49.7442 43.9638 49.7666 44.35 49.67L43.8434 47.6437C43.8615 47.6392 43.8324 47.6484 43.7294 47.6484C43.6326 47.6484 43.499 47.6404 43.3228 47.6197L43.0788 49.6941ZM44.2892 49.6833C44.6433 49.617 45.0209 49.4569 45.314 49.1293C45.6086 48.8001 45.7255 48.4049 45.7483 48.0411L43.6636 47.9108C43.6625 47.9293 43.6659 47.8388 43.7574 47.7365C43.8475 47.6359 43.9324 47.6251 43.9043 47.6304L44.2892 49.6833ZM45.7483 48.0411C45.804 47.1486 45.2803 46.5078 44.6413 46.1173L43.5521 47.8995C43.6722 47.9729 43.6951 48.0154 43.6878 48.0038C43.6832 47.9966 43.6749 47.9805 43.6692 47.9578C43.6634 47.9351 43.6632 47.9179 43.6636 47.9108L45.7483 48.0411ZM44.6544 46.1254C44.1549 45.8099 43.4121 45.4089 42.4494 44.9275L41.5153 46.7957C42.4639 47.27 43.1307 47.6335 43.539 47.8914L44.6544 46.1254ZM42.4775 44.9421C41.5282 44.431 40.4264 43.8742 39.1737 43.2719L38.2687 45.1543C39.5007 45.7466 40.573 46.2888 41.4872 46.7811L42.4775 44.9421ZM39.1533 43.2624C38.9386 43.1648 38.6647 43.0187 38.3268 42.8159L37.2521 44.6069C37.6309 44.8342 37.9782 45.0225 38.289 45.1639L39.1533 43.2624ZM38.3965 42.8616C38.1749 42.7034 37.9437 42.4714 37.7109 42.1416L36.0045 43.3461C36.3451 43.8285 36.735 44.2416 37.1824 44.5612L38.3965 42.8616ZM37.7488 42.1992C37.5537 41.88 37.3728 41.4446 37.2235 40.8691L35.2017 41.3932C35.387 42.1078 35.6361 42.7476 35.9666 43.2884L37.7488 42.1992ZM37.2321 40.9046C37.1213 40.406 37.0908 39.7137 37.1804 38.7957L35.1015 38.5928C35 39.6338 35.0173 40.5662 35.1931 41.3577L37.2321 40.9046ZM71.8733 33.3904L71.1349 34.1289L71.1416 34.1356L71.1484 34.1422L71.8733 33.3904ZM72.5901 37.1174L71.6451 36.6728L71.6342 36.696L71.6244 36.7198L72.5901 37.1174ZM71.8733 38.1925L72.6118 38.931V38.931L71.8733 38.1925ZM70.7982 38.9093L71.1959 39.875L71.2092 39.8695L71.2224 39.8636L70.7982 38.9093ZM67.3937 39.1601V38.1158H66.3554L66.3494 39.1541L67.3937 39.1601ZM67.3221 51.6313L66.2777 51.6253V51.6313H67.3221ZM66.3545 54.0324L65.616 53.2939L65.609 53.3009L65.6022 53.308L66.3545 54.0324ZM61.6598 54.0324L62.4121 53.308L61.6598 54.0324ZM60.7281 51.6313H61.7724L61.7724 51.6253L60.7281 51.6313ZM60.6564 39.1601L61.7007 39.1541L61.6948 38.1158H60.6564V39.1601ZM56.141 38.1925L55.3892 38.9174L55.3958 38.9243L55.4025 38.931L56.141 38.1925ZM56.141 33.3904L55.4025 32.6519L56.141 33.3904ZM69.5081 33.4671C70.1695 33.4671 70.6903 33.6843 71.1349 34.1289L72.6118 32.6519C71.7662 31.8064 70.7102 31.3785 69.5081 31.3785V33.4671ZM71.1484 34.1422C71.6068 34.5842 71.8324 35.1103 71.8324 35.7915H73.9211C73.9211 34.5613 73.4777 33.4867 72.5982 32.6386L71.1484 34.1422ZM71.8324 35.7915C71.8324 36.1257 71.7666 36.4146 71.6451 36.6728L73.535 37.5621C73.7958 37.008 73.9211 36.4129 73.9211 35.7915H71.8324ZM71.6244 36.7198C71.5096 36.9985 71.348 37.241 71.1349 37.4541L72.6118 38.931C73.0199 38.5229 73.336 38.0487 73.5557 37.5151L71.6244 36.7198ZM71.1349 37.4541C70.9521 37.6368 70.7055 37.8076 70.3741 37.9549L71.2224 39.8636C71.751 39.6287 72.2211 39.3216 72.6118 38.931L71.1349 37.4541ZM70.4006 37.9436C70.1248 38.0571 69.8303 38.1158 69.5081 38.1158V40.2045C70.0938 40.2045 70.6593 40.0959 71.1959 39.875L70.4006 37.9436ZM69.5081 38.1158H67.3937V40.2045H69.5081V38.1158ZM66.3494 39.1541L66.2777 51.6253L68.3664 51.6373L68.4381 39.1661L66.3494 39.1541ZM66.2777 51.6313C66.2777 52.3247 66.0551 52.8549 65.616 53.2939L67.0929 54.7709C67.944 53.9198 68.3664 52.8493 68.3664 51.6313H66.2777ZM65.6022 53.308C65.1867 53.7395 64.6859 53.9557 64.0251 53.9557V56.0443C65.2277 56.0443 66.2799 55.6154 67.1067 54.7568L65.6022 53.308ZM64.0251 53.9557C63.332 53.9557 62.8221 53.7338 62.4121 53.308L60.9076 54.7568C61.7399 55.6211 62.8069 56.0443 64.0251 56.0443V53.9557ZM62.4121 53.308C61.9917 52.8715 61.7724 52.3368 61.7724 51.6313H59.6837C59.6837 52.8372 60.0856 53.9032 60.9076 54.7568L62.4121 53.308ZM61.7724 51.6253L61.7007 39.1541L59.6121 39.1661L59.6838 51.6373L61.7724 51.6253ZM60.6564 38.1158H58.542V40.2045H60.6564V38.1158ZM58.542 38.1158C57.8487 38.1158 57.3185 37.8931 56.8794 37.4541L55.4025 38.931C56.2536 39.782 57.3241 40.2045 58.542 40.2045V38.1158ZM56.8927 37.4676C56.4359 36.9939 56.2177 36.4536 56.2177 35.7915H54.129C54.129 36.9928 54.5559 38.0533 55.3892 38.9174L56.8927 37.4676ZM56.2177 35.7915C56.2177 35.0981 56.4404 34.5679 56.8794 34.1289L55.4025 32.6519C54.5515 33.503 54.129 34.5735 54.129 35.7915H56.2177ZM56.8794 34.1289C57.3185 33.6898 57.8487 33.4671 58.542 33.4671V31.3785C57.3241 31.3785 56.2536 31.8009 55.4025 32.6519L56.8794 34.1289ZM58.542 33.4671H69.5081V31.3785H58.542V33.4671Z" fill="#FFF500" mask="url(#path-5-outside-2_1218_12368)"/>
</svg>
