<svg width="50" height="50" viewBox="0 0 50 50" fill="none" xmlns="http://www.w3.org/2000/svg">
<path d="M1.89177 37.044C1.89177 36.356 2.13544 35.6823 2.62277 35.023C3.1101 34.3637 3.7121 33.733 4.42877 33.131C5.14544 32.529 5.91944 31.9557 6.75077 31.411C7.61077 30.8663 8.3991 30.3647 9.11577 29.906C9.83244 29.4187 10.4201 28.9887 10.8788 28.616C11.3374 28.2147 11.5668 27.8707 11.5668 27.584C11.5381 27.2687 11.4234 27.0967 11.2228 27.068C11.0508 27.0107 10.8358 27.0537 10.5778 27.197C10.3198 27.3117 10.0474 27.5123 9.76077 27.799C9.4741 28.0857 9.2161 28.4153 8.98677 28.788C8.5281 29.476 7.94044 29.9203 7.22377 30.121C6.5071 30.3217 5.79044 30.3217 5.07377 30.121C4.3571 29.8917 3.72644 29.476 3.18177 28.874C2.66577 28.272 2.36477 27.5123 2.27877 26.595C2.22144 25.7637 2.40777 24.9753 2.83777 24.23C3.26777 23.456 3.8411 22.811 4.55777 22.295C5.15977 21.951 5.8191 21.6213 6.53577 21.306C7.13777 21.048 7.8401 20.8187 8.64277 20.618C9.44544 20.3887 10.3054 20.2453 11.2228 20.188C12.6561 20.1593 13.8888 20.2453 14.9208 20.446C15.9528 20.6467 16.8271 20.9333 17.5438 21.306C18.2604 21.6787 18.8194 22.123 19.2208 22.639C19.6508 23.1263 19.9804 23.6423 20.2098 24.187C20.4678 24.875 20.5824 25.5343 20.5538 26.165C20.5538 26.767 20.4391 27.3403 20.2098 27.885C20.0091 28.4297 19.7224 28.9457 19.3498 29.433C18.9771 29.8917 18.5758 30.3073 18.1458 30.68C17.1424 31.5973 15.9098 32.4 14.4478 33.088C14.8204 33.2027 15.1788 33.217 15.5228 33.131C15.8668 33.045 16.3684 33.002 17.0278 33.002C17.5724 33.002 18.0884 33.1023 18.5758 33.303C19.0631 33.5037 19.4788 33.7903 19.8228 34.163C20.1954 34.5357 20.4821 34.9657 20.6828 35.453C20.8834 35.9403 20.9838 36.4563 20.9838 37.001C20.9838 37.5457 20.8834 38.0617 20.6828 38.549C20.4821 39.0363 20.1954 39.4663 19.8228 39.839C19.4788 40.183 19.0631 40.4697 18.5758 40.699C18.0884 40.8997 17.5724 41 17.0278 41H5.84777C5.27444 41 4.7441 40.8997 4.25677 40.699C3.7981 40.4983 3.38244 40.226 3.00977 39.882C2.66577 39.5093 2.39344 39.0793 2.19277 38.592C1.9921 38.1047 1.89177 37.5887 1.89177 37.044Z" fill="#2F3190"/>
<mask id="path-2-outside-1_1218_12343" maskUnits="userSpaceOnUse" x="2.6248" y="18" width="22" height="23" fill="black">
<rect fill="white" x="2.6248" y="18" width="22" height="23"/>
<path d="M4.4728 36.136C4.4728 35.464 4.7108 34.806 5.1868 34.162C5.6628 33.518 6.2508 32.902 6.9508 32.314C7.6508 31.726 8.4068 31.166 9.2188 30.634C10.0588 30.102 10.8288 29.612 11.5288 29.164C12.2288 28.688 12.8028 28.268 13.2508 27.904C13.6988 27.512 13.9228 27.176 13.9228 26.896C13.8948 26.588 13.7828 26.42 13.5868 26.392C13.4188 26.336 13.2088 26.378 12.9568 26.518C12.7048 26.63 12.4388 26.826 12.1588 27.106C11.8788 27.386 11.6268 27.708 11.4028 28.072C10.9548 28.744 10.3808 29.178 9.6808 29.374C8.9808 29.57 8.2808 29.57 7.5808 29.374C6.8808 29.15 6.2648 28.744 5.7328 28.156C5.2288 27.568 4.9348 26.826 4.8508 25.93C4.7948 25.118 4.9768 24.348 5.3968 23.62C5.8168 22.864 6.3768 22.234 7.0768 21.73C7.6648 21.394 8.3088 21.072 9.0088 20.764C9.5968 20.512 10.2828 20.288 11.0668 20.092C11.8508 19.868 12.6908 19.728 13.5868 19.672C14.9868 19.644 16.1908 19.728 17.1988 19.924C18.2068 20.12 19.0608 20.4 19.7608 20.764C20.4608 21.128 21.0068 21.562 21.3988 22.066C21.8188 22.542 22.1408 23.046 22.3648 23.578C22.6168 24.25 22.7288 24.894 22.7008 25.51C22.7008 26.098 22.5888 26.658 22.3648 27.19C22.1688 27.722 21.8888 28.226 21.5248 28.702C21.1608 29.15 20.7688 29.556 20.3488 29.92C19.3688 30.816 18.1648 31.6 16.7368 32.272C17.1008 32.384 17.4508 32.398 17.7868 32.314C18.1228 32.23 18.6128 32.188 19.2568 32.188C19.7888 32.188 20.2928 32.286 20.7688 32.482C21.2448 32.678 21.6508 32.958 21.9868 33.322C22.3508 33.686 22.6308 34.106 22.8268 34.582C23.0228 35.058 23.1208 35.562 23.1208 36.094C23.1208 36.626 23.0228 37.13 22.8268 37.606C22.6308 38.082 22.3508 38.502 21.9868 38.866C21.6508 39.202 21.2448 39.482 20.7688 39.706C20.2928 39.902 19.7888 40 19.2568 40H8.3368C7.7768 40 7.2588 39.902 6.7828 39.706C6.3348 39.51 5.9288 39.244 5.5648 38.908C5.2288 38.544 4.9628 38.124 4.7668 37.648C4.5708 37.172 4.4728 36.668 4.4728 36.136Z"/>
</mask>
<path d="M5.1868 34.162L4.38263 33.5676H4.38263L5.1868 34.162ZM6.9508 32.314L6.30761 31.5483L6.9508 32.314ZM9.2188 30.634L8.68375 29.7892L8.67723 29.7933L8.67078 29.7975L9.2188 30.634ZM11.5288 29.164L12.0679 30.0063L12.0796 29.9988L12.0911 29.9909L11.5288 29.164ZM13.2508 27.904L13.8814 28.6801L13.8956 28.6686L13.9093 28.6566L13.2508 27.904ZM13.9228 26.896H14.9228V26.8506L14.9187 26.8055L13.9228 26.896ZM13.5868 26.392L13.2706 27.3407L13.3561 27.3692L13.4454 27.382L13.5868 26.392ZM12.9568 26.518L13.3629 27.4318L13.4036 27.4138L13.4424 27.3922L12.9568 26.518ZM11.4028 28.072L12.2349 28.6267L12.2449 28.6116L12.2545 28.5961L11.4028 28.072ZM9.6808 29.374L9.41117 28.411H9.41117L9.6808 29.374ZM7.5808 29.374L7.27603 30.3264L7.2935 30.332L7.31117 30.337L7.5808 29.374ZM5.7328 28.156L4.97355 28.8068L4.98227 28.817L4.99127 28.8269L5.7328 28.156ZM4.8508 25.93L3.85317 25.9988L3.85402 26.0111L3.85517 26.0233L4.8508 25.93ZM5.3968 23.62L6.26299 24.1197L6.26703 24.1127L6.27096 24.1056L5.3968 23.62ZM7.0768 21.73L6.58066 20.8618L6.53509 20.8878L6.4925 20.9185L7.0768 21.73ZM9.0088 20.764L8.61487 19.8448L8.60606 19.8487L9.0088 20.764ZM11.0668 20.092L11.3093 21.0621L11.3255 21.0581L11.3415 21.0535L11.0668 20.092ZM13.5868 19.672L13.5668 18.6722L13.5456 18.6726L13.5244 18.6739L13.5868 19.672ZM17.1988 19.924L17.0079 20.9056L17.1988 19.924ZM19.7608 20.764L20.2222 19.8768L19.7608 20.764ZM21.3988 22.066L20.6095 22.6799L20.6285 22.7044L20.649 22.7276L21.3988 22.066ZM22.3648 23.578L23.3011 23.2269L23.2942 23.2083L23.2864 23.1899L22.3648 23.578ZM22.7008 25.51L21.7018 25.4646L21.7008 25.4873V25.51H22.7008ZM22.3648 27.19L21.4432 26.8019L21.4343 26.8229L21.4265 26.8443L22.3648 27.19ZM21.5248 28.702L22.3009 29.3326L22.3102 29.3212L22.3192 29.3095L21.5248 28.702ZM20.3488 29.92L19.6939 29.1643L19.6838 29.173L19.674 29.182L20.3488 29.92ZM16.7368 32.272L16.311 31.3672L13.9724 32.4677L16.4427 33.2278L16.7368 32.272ZM17.7868 32.314L17.5443 31.3439L17.7868 32.314ZM20.7688 32.482L20.3881 33.4067L20.7688 32.482ZM21.9868 33.322L21.252 34.0003L21.2656 34.015L21.2797 34.0291L21.9868 33.322ZM22.8268 37.606L21.9021 37.2253L22.8268 37.606ZM21.9868 38.866L21.2797 38.1589L21.9868 38.866ZM20.7688 39.706L21.1496 40.6307L21.1723 40.6213L21.1946 40.6108L20.7688 39.706ZM6.7828 39.706L6.38198 40.6222L6.39197 40.6265L6.40205 40.6307L6.7828 39.706ZM5.5648 38.908L4.83 39.5863L4.85713 39.6157L4.88652 39.6428L5.5648 38.908ZM4.7668 37.648L3.84212 38.0288L4.7668 37.648ZM5.4728 36.136C5.4728 35.7166 5.61708 35.2623 5.99098 34.7564L4.38263 33.5676C3.80452 34.3497 3.4728 35.2114 3.4728 36.136H5.4728ZM5.99098 34.7564C6.4142 34.1838 6.94589 33.6241 7.59399 33.0797L6.30761 31.5483C5.55571 32.1799 4.9114 32.8522 4.38263 33.5676L5.99098 34.7564ZM7.59399 33.0797C8.2619 32.5187 8.9859 31.9821 9.76683 31.4705L8.67078 29.7975C7.8277 30.3499 7.0397 30.9333 6.30761 31.5483L7.59399 33.0797ZM9.75385 31.4788C10.5949 30.9461 11.3663 30.4553 12.0679 30.0063L10.9897 28.3217C10.2913 28.7687 9.52266 29.2579 8.68375 29.7892L9.75385 31.4788ZM12.0911 29.9909C12.8049 29.5056 13.4038 29.0682 13.8814 28.6801L12.6202 27.1279C12.2018 27.4678 11.6528 27.8704 10.9665 28.3371L12.0911 29.9909ZM13.9093 28.6566C14.1714 28.4272 14.4088 28.1798 14.5869 27.9127C14.7622 27.6496 14.9228 27.3028 14.9228 26.896H12.9228C12.9228 26.7692 12.9714 26.7304 12.9228 26.8033C12.8768 26.8722 12.7782 26.9888 12.5923 27.1514L13.9093 28.6566ZM14.9187 26.8055C14.8969 26.5661 14.8347 26.2615 14.6499 25.9843C14.4396 25.6689 14.1142 25.4572 13.7282 25.4021L13.4454 27.382C13.3657 27.3706 13.2725 27.341 13.1812 27.2829C13.0903 27.2251 13.0267 27.1551 12.9858 27.0937C12.9129 26.9845 12.9207 26.9179 12.9269 26.9865L14.9187 26.8055ZM13.903 25.4433C13.3419 25.2563 12.8192 25.4505 12.4712 25.6438L13.4424 27.3922C13.5072 27.3562 13.5241 27.3572 13.4994 27.3621C13.4694 27.3681 13.383 27.3782 13.2706 27.3407L13.903 25.4433ZM12.5507 25.6042C12.149 25.7827 11.7838 26.0668 11.4517 26.3989L12.8659 27.8131C13.0938 27.5852 13.2606 27.4773 13.3629 27.4318L12.5507 25.6042ZM11.4517 26.3989C11.1124 26.7382 10.8128 27.1227 10.5511 27.5479L12.2545 28.5961C12.4408 28.2933 12.6452 28.0338 12.8659 27.8131L11.4517 26.3989ZM10.5708 27.5173C10.2396 28.014 9.85493 28.2868 9.41117 28.411L9.95043 30.337C10.9067 30.0692 11.67 29.474 12.2349 28.6267L10.5708 27.5173ZM9.41117 28.411C8.88753 28.5577 8.37407 28.5577 7.85043 28.411L7.31117 30.337C8.18753 30.5823 9.07407 30.5823 9.95043 30.337L9.41117 28.411ZM7.88558 28.4216C7.3666 28.2555 6.89774 27.9531 6.47434 27.4851L4.99127 28.8269C5.63187 29.5349 6.39501 30.0445 7.27603 30.3264L7.88558 28.4216ZM6.49206 27.5052C6.14342 27.0985 5.91437 26.5613 5.84644 25.8367L3.85517 26.0233C3.95524 27.0907 4.31418 28.0375 4.97355 28.8068L6.49206 27.5052ZM5.84843 25.8612C5.80658 25.2543 5.93891 24.6814 6.26299 24.1197L4.53062 23.1203C4.01469 24.0145 3.78303 24.9817 3.85317 25.9988L5.84843 25.8612ZM6.27096 24.1056C6.61969 23.4779 7.08085 22.9593 7.66111 22.5415L6.4925 20.9185C5.67275 21.5087 5.01391 22.2501 4.52264 23.1344L6.27096 24.1056ZM7.57294 22.5982C8.12708 22.2816 8.73947 21.975 9.41154 21.6793L8.60606 19.8487C7.87813 20.169 7.20253 20.5064 6.58066 20.8618L7.57294 22.5982ZM9.40272 21.6831C9.93091 21.4568 10.5643 21.2484 11.3093 21.0621L10.8243 19.1219C10.0013 19.3276 9.26269 19.5672 8.61488 19.8449L9.40272 21.6831ZM11.3415 21.0535C12.0497 20.8512 12.8179 20.722 13.6492 20.6701L13.5244 18.6739C12.5637 18.734 11.6519 18.8848 10.7921 19.1305L11.3415 21.0535ZM13.6068 20.6718C14.9597 20.6447 16.0893 20.727 17.0079 20.9056L17.3897 18.9424C16.2923 18.729 15.0139 18.6433 13.5668 18.6722L13.6068 20.6718ZM17.0079 20.9056C17.9484 21.0885 18.7058 21.3425 19.2994 21.6512L20.2222 19.8768C19.4158 19.4575 18.4652 19.1515 17.3897 18.9424L17.0079 20.9056ZM19.2994 21.6512C19.9011 21.9641 20.3241 22.3131 20.6095 22.6799L22.1882 21.4521C21.6895 20.8109 21.0205 20.2919 20.2222 19.8768L19.2994 21.6512ZM20.649 22.7276C21.0044 23.1304 21.2652 23.5434 21.4432 23.9661L23.2864 23.1899C23.0164 22.5486 22.6332 21.9536 22.1486 21.4044L20.649 22.7276ZM21.4285 23.9291C21.6407 24.4951 21.7228 25.0039 21.7018 25.4646L23.6998 25.5554C23.7348 24.7841 23.5929 24.0049 23.3011 23.2269L21.4285 23.9291ZM21.7008 25.51C21.7008 25.9673 21.6145 26.3951 21.4432 26.8019L23.2864 27.5781C23.5631 26.9209 23.7008 26.2287 23.7008 25.51H21.7008ZM21.4265 26.8443C21.267 27.2771 21.0371 27.6936 20.7304 28.0945L22.3192 29.3095C22.7405 28.7584 23.0706 28.1669 23.3031 27.5357L21.4265 26.8443ZM20.7487 28.0714C20.42 28.476 20.0683 28.8398 19.6939 29.1643L21.0037 30.6757C21.4693 30.2722 21.9016 29.824 22.3009 29.3326L20.7487 28.0714ZM19.674 29.182C18.7806 29.9988 17.6647 30.7301 16.311 31.3672L17.1626 33.1768C18.6649 32.4699 19.957 31.6332 21.0236 30.658L19.674 29.182ZM16.4427 33.2278C16.963 33.3879 17.4992 33.4167 18.0293 33.2841L17.5443 31.3439C17.4024 31.3793 17.2386 31.3801 17.0309 31.3162L16.4427 33.2278ZM18.0293 33.2841C18.2451 33.2302 18.6374 33.188 19.2568 33.188V31.188C18.5882 31.188 18.0005 31.2298 17.5443 31.3439L18.0293 33.2841ZM19.2568 33.188C19.6626 33.188 20.0369 33.2621 20.3881 33.4067L21.1496 31.5573C20.5487 31.3099 19.915 31.188 19.2568 31.188V33.188ZM20.3881 33.4067C20.7349 33.5495 21.0186 33.7474 21.252 34.0003L22.7216 32.6437C22.283 32.1686 21.7547 31.8065 21.1496 31.5573L20.3881 33.4067ZM21.2797 34.0291C21.5503 34.2998 21.7564 34.6088 21.9021 34.9627L23.7515 34.2012C23.5052 33.6032 23.1513 33.0723 22.6939 32.6149L21.2797 34.0291ZM21.9021 34.9627C22.0467 35.3139 22.1208 35.6882 22.1208 36.094H24.1208C24.1208 35.4358 23.9989 34.8021 23.7515 34.2012L21.9021 34.9627ZM22.1208 36.094C22.1208 36.4998 22.0467 36.8741 21.9021 37.2253L23.7515 37.9868C23.9989 37.3859 24.1208 36.7522 24.1208 36.094H22.1208ZM21.9021 37.2253C21.7564 37.5792 21.5503 37.8882 21.2797 38.1589L22.6939 39.5731C23.1513 39.1157 23.5052 38.5848 23.7515 37.9867L21.9021 37.2253ZM21.2797 38.1589C21.0336 38.405 20.7257 38.6211 20.343 38.8012L21.1946 40.6108C21.7639 40.3429 22.268 39.999 22.6939 39.5731L21.2797 38.1589ZM20.3881 38.7813C20.0369 38.9259 19.6626 39 19.2568 39V41C19.915 41 20.5487 40.8781 21.1496 40.6307L20.3881 38.7813ZM19.2568 39H8.3368V41H19.2568V39ZM8.3368 39C7.89587 39 7.50853 38.9234 7.16355 38.7813L6.40205 40.6307C7.00907 40.8806 7.65774 41 8.3368 41V39ZM7.18362 38.7898C6.8389 38.639 6.52641 38.4347 6.24308 38.1732L4.88652 39.6428C5.33119 40.0533 5.83071 40.381 6.38198 40.6222L7.18362 38.7898ZM6.29961 38.2297C6.04717 37.9562 5.84412 37.638 5.69148 37.2673L3.84212 38.0288C4.08148 38.61 4.41043 39.1318 4.83 39.5863L6.29961 38.2297ZM5.69148 37.2673C5.54688 36.9161 5.4728 36.5418 5.4728 36.136H3.4728C3.4728 36.7942 3.59472 37.4279 3.84212 38.0288L5.69148 37.2673Z" fill="#FFF500" mask="url(#path-2-outside-1_1218_12343)"/>
<path d="M35.1083 23.984C35.1083 24.2656 35.0699 24.5408 34.9931 24.8096C34.9163 25.0656 34.7691 25.296 34.5515 25.5008C34.3595 25.68 34.1483 25.8144 33.9179 25.904C33.7003 25.9808 33.4763 26.0128 33.2459 26C33.0155 25.9872 32.7915 25.936 32.5739 25.8464C32.3563 25.744 32.1643 25.5968 31.9979 25.4048L28.1195 20.72L28.1003 24.1952C28.1003 24.7072 27.9275 25.136 27.5819 25.4816C27.2491 25.8272 26.8331 26 26.3339 26C25.8219 26 25.3931 25.8272 25.0475 25.4816C24.7019 25.136 24.5291 24.7072 24.5291 24.1952V15.8432C24.5163 15.6128 24.4843 15.3824 24.4331 15.152C24.3819 14.9216 24.3627 14.7168 24.3755 14.5376C24.4011 14.3456 24.4907 14.192 24.6443 14.0768C24.7979 13.9616 25.0859 13.904 25.5083 13.904H26.3339C26.6155 13.904 26.8715 13.9744 27.1019 14.1152C27.3323 14.2432 27.5563 14.4224 27.7739 14.6528C27.7739 14.6528 27.7803 14.6656 27.7931 14.6912C27.8187 14.7168 27.8635 14.7744 27.9275 14.864C28.0043 14.9408 28.1195 15.0752 28.2731 15.2672C28.4267 15.4464 28.6379 15.7024 28.9067 16.0352C29.1883 16.368 29.5403 16.7904 29.9627 17.3024C30.3851 17.8016 30.9035 18.4224 31.5179 19.1648L31.4987 15.9008C31.4987 15.6704 31.4667 15.44 31.4027 15.2096C31.3515 14.9664 31.3323 14.7488 31.3451 14.5568C31.3579 14.3648 31.4411 14.2112 31.5947 14.096C31.7611 13.968 32.0555 13.904 32.4779 13.904H33.3035C33.5339 13.904 33.7579 13.9552 33.9755 14.0576C34.1931 14.1472 34.3851 14.2752 34.5515 14.4416C34.7179 14.608 34.8523 14.8 34.9547 15.0176C35.0571 15.2352 35.1083 15.4656 35.1083 15.7088V23.984ZM39.4134 26C38.9014 26 38.4726 25.8272 38.127 25.4816C37.7814 25.136 37.6086 24.7072 37.6086 24.1952V15.8432C37.5958 15.6128 37.5638 15.3824 37.5126 15.152C37.4614 14.9216 37.4422 14.7168 37.455 14.5376C37.4806 14.3456 37.5702 14.192 37.7238 14.0768C37.8774 13.9616 38.1654 13.904 38.5878 13.904H42.1974C43.0294 13.904 43.8102 14.064 44.5398 14.384C45.2822 14.704 45.9222 15.1392 46.4598 15.6896C47.0102 16.2272 47.4454 16.8672 47.7654 17.6096C48.0854 18.3392 48.2454 19.12 48.2454 19.952C48.2454 20.784 48.0854 21.5712 47.7654 22.3136C47.4454 23.0432 47.0102 23.6832 46.4598 24.2336C45.9222 24.784 45.2822 25.2192 44.5398 25.5392C43.8102 25.8464 43.0294 26 42.1974 26H39.4134ZM44.6358 19.952C44.6358 19.6192 44.5718 19.3056 44.4438 19.0112C44.3158 18.7168 44.1366 18.4608 43.9062 18.2432C43.6886 18.0256 43.4326 17.8528 43.1382 17.7248C42.8438 17.5968 42.5302 17.5264 42.1974 17.5136L41.2182 17.4752V22.448L42.1974 22.3904C42.5302 22.3776 42.8438 22.3072 43.1382 22.1792C43.4326 22.0384 43.6886 21.8592 43.9062 21.6416C44.1366 21.424 44.3158 21.1744 44.4438 20.8928C44.5718 20.5984 44.6358 20.2848 44.6358 19.952Z" fill="#2F3190"/>
<mask id="path-5-outside-2_1218_12343" maskUnits="userSpaceOnUse" x="23.6072" y="12" width="26" height="14" fill="black">
<rect fill="white" x="23.6072" y="12" width="26" height="14"/>
<path d="M35.2808 22.984C35.2808 23.2656 35.2424 23.5408 35.1656 23.8096C35.0888 24.0656 34.9416 24.296 34.724 24.5008C34.532 24.68 34.3208 24.8144 34.0904 24.904C33.8728 24.9808 33.6488 25.0128 33.4184 25C33.188 24.9872 32.964 24.936 32.7464 24.8464C32.5288 24.744 32.3368 24.5968 32.1704 24.4048L28.292 19.72L28.2728 23.1952C28.2728 23.7072 28.1 24.136 27.7544 24.4816C27.4216 24.8272 27.0056 25 26.5064 25C25.9944 25 25.5656 24.8272 25.22 24.4816C24.8744 24.136 24.7016 23.7072 24.7016 23.1952V14.8432C24.6888 14.6128 24.6568 14.3824 24.6056 14.152C24.5544 13.9216 24.5352 13.7168 24.548 13.5376C24.5736 13.3456 24.6632 13.192 24.8168 13.0768C24.9704 12.9616 25.2584 12.904 25.6808 12.904H26.5064C26.788 12.904 27.044 12.9744 27.2744 13.1152C27.5048 13.2432 27.7288 13.4224 27.9464 13.6528C27.9464 13.6528 27.9528 13.6656 27.9656 13.6912C27.9912 13.7168 28.036 13.7744 28.1 13.864C28.1768 13.9408 28.292 14.0752 28.4456 14.2672C28.5992 14.4464 28.8104 14.7024 29.0792 15.0352C29.3608 15.368 29.7128 15.7904 30.1352 16.3024C30.5576 16.8016 31.076 17.4224 31.6904 18.1648L31.6712 14.9008C31.6712 14.6704 31.6392 14.44 31.5752 14.2096C31.524 13.9664 31.5048 13.7488 31.5176 13.5568C31.5304 13.3648 31.6136 13.2112 31.7672 13.096C31.9336 12.968 32.228 12.904 32.6504 12.904H33.476C33.7064 12.904 33.9304 12.9552 34.148 13.0576C34.3656 13.1472 34.5576 13.2752 34.724 13.4416C34.8904 13.608 35.0248 13.8 35.1272 14.0176C35.2296 14.2352 35.2808 14.4656 35.2808 14.7088V22.984ZM39.5859 25C39.0739 25 38.6451 24.8272 38.2995 24.4816C37.9539 24.136 37.7811 23.7072 37.7811 23.1952V14.8432C37.7683 14.6128 37.7363 14.3824 37.6851 14.152C37.6339 13.9216 37.6147 13.7168 37.6275 13.5376C37.6531 13.3456 37.7427 13.192 37.8963 13.0768C38.0499 12.9616 38.3379 12.904 38.7603 12.904H42.3699C43.2019 12.904 43.9827 13.064 44.7123 13.384C45.4547 13.704 46.0947 14.1392 46.6323 14.6896C47.1827 15.2272 47.6179 15.8672 47.9379 16.6096C48.2579 17.3392 48.4179 18.12 48.4179 18.952C48.4179 19.784 48.2579 20.5712 47.9379 21.3136C47.6179 22.0432 47.1827 22.6832 46.6323 23.2336C46.0947 23.784 45.4547 24.2192 44.7123 24.5392C43.9827 24.8464 43.2019 25 42.3699 25H39.5859ZM44.8083 18.952C44.8083 18.6192 44.7443 18.3056 44.6163 18.0112C44.4883 17.7168 44.3091 17.4608 44.0787 17.2432C43.8611 17.0256 43.6051 16.8528 43.3107 16.7248C43.0163 16.5968 42.7027 16.5264 42.3699 16.5136L41.3907 16.4752V21.448L42.3699 21.3904C42.7027 21.3776 43.0163 21.3072 43.3107 21.1792C43.6051 21.0384 43.8611 20.8592 44.0787 20.6416C44.3091 20.424 44.4883 20.1744 44.6163 19.8928C44.7443 19.5984 44.8083 19.2848 44.8083 18.952Z"/>
</mask>
<path d="M35.1656 23.8096L35.6445 23.9533L35.6463 23.947L35.1656 23.8096ZM34.724 24.5008L35.0651 24.8663L35.0667 24.8649L34.724 24.5008ZM34.0904 24.904L34.2568 25.3755L34.2642 25.3729L34.2716 25.37L34.0904 24.904ZM32.7464 24.8464L32.5335 25.2988L32.5446 25.3041L32.556 25.3087L32.7464 24.8464ZM32.1704 24.4048L31.7851 24.7237L31.7925 24.7323L32.1704 24.4048ZM28.292 19.72L28.6771 19.4012L27.7996 18.3412L27.792 19.7172L28.292 19.72ZM28.2728 23.1952L27.7728 23.1924V23.1952H28.2728ZM27.7544 24.4816L27.4008 24.128L27.3942 24.1348L27.7544 24.4816ZM24.7016 14.8432H25.2016V14.8293L25.2008 14.8155L24.7016 14.8432ZM24.6056 14.152L24.1175 14.2605L24.1175 14.2605L24.6056 14.152ZM24.548 13.5376L24.0524 13.4715L24.0503 13.4867L24.0493 13.502L24.548 13.5376ZM24.8168 13.0768L24.5168 12.6768L24.5168 12.6768L24.8168 13.0768ZM27.2744 13.1152L27.0137 13.5418L27.0225 13.5472L27.0316 13.5523L27.2744 13.1152ZM27.9464 13.6528L28.3936 13.4292L28.3606 13.3632L28.3099 13.3095L27.9464 13.6528ZM27.9656 13.6912L27.5184 13.9148L27.5547 13.9874L27.612 14.0447L27.9656 13.6912ZM28.1 13.864L27.6931 14.1546L27.7172 14.1883L27.7464 14.2176L28.1 13.864ZM28.4456 14.2672L28.0552 14.5795L28.0604 14.5862L28.066 14.5926L28.4456 14.2672ZM29.0792 15.0352L28.6901 15.3494L28.6975 15.3582L29.0792 15.0352ZM30.1352 16.3024L29.7495 16.6206L29.7535 16.6254L30.1352 16.3024ZM31.6904 18.1648L31.3052 18.4836L32.1986 19.5631L32.1904 18.1619L31.6904 18.1648ZM31.6712 14.9008H31.1712L31.1712 14.9037L31.6712 14.9008ZM31.5752 14.2096L31.0859 14.3126L31.0892 14.3281L31.0934 14.3434L31.5752 14.2096ZM31.5176 13.5568L32.0165 13.5901V13.5901L31.5176 13.5568ZM31.7672 13.096L32.0672 13.496L32.072 13.4923L31.7672 13.096ZM34.148 13.0576L33.9351 13.51L33.9462 13.5153L33.9576 13.5199L34.148 13.0576ZM34.724 13.4416L35.0775 13.088L35.0775 13.088L34.724 13.4416ZM34.7808 22.984C34.7808 23.2195 34.7488 23.4484 34.6848 23.6722L35.6463 23.947C35.736 23.6332 35.7808 23.3117 35.7808 22.984H34.7808ZM34.6867 23.6659C34.638 23.8281 34.5426 23.9849 34.3813 24.1367L35.0667 24.8649C35.3405 24.6071 35.5396 24.3031 35.6445 23.9533L34.6867 23.6659ZM34.3828 24.1353C34.2343 24.2739 34.0767 24.3728 33.9092 24.438L34.2716 25.37C34.5648 25.256 34.8296 25.0861 35.0651 24.8663L34.3828 24.1353ZM33.924 24.4325C33.7686 24.4873 33.6106 24.5099 33.4461 24.5008L33.3907 25.4992C33.687 25.5157 33.9769 25.4743 34.2568 25.3755L33.924 24.4325ZM33.4461 24.5008C33.2727 24.4911 33.1036 24.4528 32.9368 24.3841L32.556 25.3087C32.8243 25.4192 33.1032 25.4833 33.3907 25.4992L33.4461 24.5008ZM32.9593 24.394C32.8083 24.3229 32.6716 24.2197 32.5482 24.0773L31.7925 24.7323C32.002 24.9739 32.2493 25.1651 32.5335 25.2988L32.9593 24.394ZM32.5555 24.086L28.6771 19.4012L27.9068 20.0388L31.7852 24.7236L32.5555 24.086ZM27.792 19.7172L27.7728 23.1924L28.7728 23.198L28.792 19.7228L27.792 19.7172ZM27.7728 23.1952C27.7728 23.5816 27.6478 23.8811 27.4008 24.128L28.1079 24.8352C28.5522 24.3909 28.7728 23.8328 28.7728 23.1952H27.7728ZM27.3942 24.1348C27.1599 24.3781 26.8759 24.5 26.5064 24.5V25.5C27.1353 25.5 27.6833 25.2763 28.1145 24.8284L27.3942 24.1348ZM26.5064 24.5C26.12 24.5 25.8205 24.375 25.5735 24.128L24.8664 24.8352C25.3107 25.2794 25.8688 25.5 26.5064 25.5V24.5ZM25.5735 24.128C25.3266 23.8811 25.2016 23.5816 25.2016 23.1952H24.2016C24.2016 23.8328 24.4222 24.3909 24.8664 24.8352L25.5735 24.128ZM25.2016 23.1952V14.8432H24.2016V23.1952H25.2016ZM25.2008 14.8155C25.1865 14.5573 25.1506 14.2999 25.0937 14.0435L24.1175 14.2605C24.1629 14.4649 24.1911 14.6683 24.2024 14.8709L25.2008 14.8155ZM25.0937 14.0435C25.0499 13.8465 25.0382 13.6917 25.0467 13.5732L24.0493 13.502C24.0321 13.7419 24.0589 13.9967 24.1175 14.2605L25.0937 14.0435ZM25.0436 13.6037C25.0516 13.5434 25.0716 13.5107 25.1168 13.4768L24.5168 12.6768C24.2547 12.8733 24.0955 13.1478 24.0524 13.4715L25.0436 13.6037ZM25.1168 13.4768C25.1106 13.4814 25.1401 13.4587 25.246 13.4375C25.3471 13.4173 25.4895 13.404 25.6808 13.404V12.404C25.4497 12.404 25.2369 12.4195 25.0499 12.4569C24.8678 12.4933 24.6765 12.557 24.5168 12.6768L25.1168 13.4768ZM25.6808 13.404H26.5064V12.404H25.6808V13.404ZM26.5064 13.404C26.7001 13.404 26.8652 13.4511 27.0137 13.5418L27.5351 12.6886C27.2228 12.4977 26.8759 12.404 26.5064 12.404V13.404ZM27.0316 13.5523C27.2092 13.6509 27.3936 13.7957 27.5829 13.9961L28.3099 13.3095C28.064 13.0491 27.8004 12.8354 27.5172 12.6781L27.0316 13.5523ZM27.9464 13.6528C27.4992 13.8764 27.4992 13.8764 27.4992 13.8764C27.4992 13.8764 27.4992 13.8764 27.4992 13.8764C27.4992 13.8764 27.4992 13.8764 27.4992 13.8764C27.4992 13.8764 27.4992 13.8764 27.4992 13.8764C27.4992 13.8764 27.4992 13.8764 27.4992 13.8764C27.4992 13.8764 27.4992 13.8764 27.4992 13.8764C27.4992 13.8764 27.4992 13.8764 27.4992 13.8764C27.4992 13.8764 27.4992 13.8764 27.4992 13.8764C27.4992 13.8764 27.4992 13.8764 27.4992 13.8764C27.4992 13.8764 27.4992 13.8764 27.4992 13.8764C27.4992 13.8764 27.4992 13.8764 27.4992 13.8764C27.4992 13.8765 27.4992 13.8764 27.4992 13.8766C27.4996 13.8773 27.499 13.8761 27.4995 13.877C27.5001 13.8782 27.4996 13.8772 27.5004 13.8788C27.5052 13.8884 27.4969 13.8718 27.5019 13.8818C27.5081 13.8942 27.4976 13.8732 27.504 13.886C27.5136 13.9052 27.4996 13.8772 27.51 13.898C27.5154 13.9088 27.5083 13.8946 27.5139 13.9058C27.5165 13.9111 27.5155 13.9091 27.5184 13.9148L28.4128 13.4676C28.395 13.432 28.4259 13.4938 28.4083 13.4586C28.4076 13.4572 28.4049 13.4518 28.4044 13.4508C28.4027 13.4474 28.4026 13.4472 28.4011 13.4442C28.4005 13.4429 28.401 13.444 28.4004 13.4427C28.399 13.44 28.401 13.4441 28.3997 13.4413C28.3994 13.4409 28.3992 13.4405 28.399 13.44C28.3988 13.4395 28.399 13.4399 28.3987 13.4394C28.3984 13.4388 28.3987 13.4394 28.3984 13.4388C28.3936 13.4292 28.3988 13.4396 28.3948 13.4316C28.3932 13.4284 28.3953 13.4326 28.3939 13.4298C28.3937 13.4293 28.3939 13.4297 28.3937 13.4293C28.3936 13.4292 28.3937 13.4293 28.3936 13.4292C28.3936 13.4292 28.3936 13.4292 28.3936 13.4292C28.3936 13.4292 28.3936 13.4292 28.3936 13.4292C28.3936 13.4292 28.3936 13.4292 28.3936 13.4292C28.3936 13.4292 28.3936 13.4292 28.3936 13.4292C28.3936 13.4292 28.3936 13.4292 28.3936 13.4292C28.3936 13.4292 28.3936 13.4292 28.3936 13.4292C28.3936 13.4292 28.3936 13.4292 28.3936 13.4292C28.3936 13.4292 28.3936 13.4292 28.3936 13.4292C28.3936 13.4292 28.3936 13.4292 28.3936 13.4292C28.3936 13.4292 28.3936 13.4292 28.3936 13.4292C28.3936 13.4292 28.3936 13.4292 28.3936 13.4292C28.3936 13.4292 28.3936 13.4292 27.9464 13.6528ZM27.612 14.0447C27.6051 14.0378 27.6029 14.0348 27.6067 14.0394C27.6099 14.0431 27.6154 14.0499 27.6237 14.0606C27.6404 14.082 27.6633 14.1129 27.6931 14.1546L28.5069 13.5734C28.4472 13.4898 28.379 13.3975 28.3191 13.3376L27.612 14.0447ZM27.7464 14.2176C27.802 14.2731 27.9024 14.3886 28.0552 14.5795L28.836 13.9549C28.6816 13.7618 28.5515 13.6085 28.4535 13.5104L27.7464 14.2176ZM28.066 14.5926C28.2148 14.7663 28.4225 15.0179 28.6902 15.3494L29.4682 14.721C29.1983 14.3869 28.9835 14.1265 28.8252 13.9418L28.066 14.5926ZM28.6975 15.3582C28.9773 15.6888 29.3278 16.1095 29.7495 16.6206L30.5209 15.9842C30.0978 15.4713 29.7443 15.0472 29.4609 14.7122L28.6975 15.3582ZM29.7535 16.6254C30.1743 17.1227 30.6915 17.742 31.3052 18.4836L32.0756 17.846C31.4605 17.1028 30.9409 16.4805 30.5169 15.9794L29.7535 16.6254ZM32.1904 18.1619L32.1712 14.8979L31.1712 14.9037L31.1904 18.1677L32.1904 18.1619ZM32.1712 14.9008C32.1712 14.6235 32.1326 14.3481 32.0569 14.0758L31.0934 14.3434C31.1458 14.5319 31.1712 14.7173 31.1712 14.9008H32.1712ZM32.0645 14.1066C32.0201 13.8959 32.0075 13.7254 32.0165 13.5901L31.0187 13.5235C31.0021 13.7722 31.0279 14.0369 31.0859 14.3126L32.0645 14.1066ZM32.0165 13.5901C32.0196 13.5431 32.0305 13.5235 32.0672 13.496L31.4672 12.696C31.1967 12.8988 31.0412 13.1865 31.0187 13.5235L32.0165 13.5901ZM32.072 13.4923C32.0983 13.4721 32.2449 13.404 32.6504 13.404V12.404C32.2111 12.404 31.7689 12.4639 31.4623 12.6997L32.072 13.4923ZM32.6504 13.404H33.476V12.404H32.6504V13.404ZM33.476 13.404C33.6295 13.404 33.7811 13.4375 33.9351 13.51L34.3609 12.6052C34.0797 12.4729 33.7832 12.404 33.476 12.404V13.404ZM33.9576 13.5199C34.1142 13.5844 34.2507 13.6754 34.3704 13.7952L35.0775 13.088C34.8645 12.875 34.617 12.71 34.3384 12.5953L33.9576 13.5199ZM34.3704 13.7952C34.4951 13.9198 34.5964 14.064 34.6748 14.2305L35.5796 13.8047C35.4532 13.536 35.2857 13.2962 35.0775 13.088L34.3704 13.7952ZM34.6748 14.2305C34.7455 14.3807 34.7808 14.5383 34.7808 14.7088H35.7808C35.7808 14.3929 35.7137 14.0897 35.5796 13.8047L34.6748 14.2305ZM34.7808 14.7088V22.984H35.7808V14.7088H34.7808ZM38.2995 24.4816L37.946 24.8352L38.2995 24.4816ZM37.7811 14.8432H38.2811V14.8293L38.2804 14.8155L37.7811 14.8432ZM37.6851 14.152L37.197 14.2605L37.6851 14.152ZM37.6275 13.5376L37.1319 13.4715L37.1299 13.4867L37.1288 13.502L37.6275 13.5376ZM44.7123 13.384L44.5115 13.8419L44.5144 13.8432L44.7123 13.384ZM46.6323 14.6896L46.2745 15.0391L46.283 15.0473L46.6323 14.6896ZM47.9379 16.6096L47.4788 16.8075L47.48 16.8104L47.9379 16.6096ZM47.9379 21.3136L48.3958 21.5144L48.3971 21.5115L47.9379 21.3136ZM46.6323 23.2336L46.2788 22.88L46.2746 22.8842L46.6323 23.2336ZM44.7123 24.5392L44.9064 25L44.9103 24.9984L44.7123 24.5392ZM44.6163 18.0112L44.1578 18.2106L44.1578 18.2106L44.6163 18.0112ZM44.0787 17.2432L43.7252 17.5968L43.7302 17.6018L43.7354 17.6067L44.0787 17.2432ZM42.3699 16.5136L42.3503 17.0132L42.3507 17.0132L42.3699 16.5136ZM41.3907 16.4752L41.4103 15.9756L40.8907 15.9552V16.4752H41.3907ZM41.3907 21.448H40.8907V21.9783L41.4201 21.9471L41.3907 21.448ZM42.3699 21.3904L42.3507 20.8907L42.3406 20.8913L42.3699 21.3904ZM43.3107 21.1792L43.5101 21.6377L43.5183 21.6341L43.5265 21.6303L43.3107 21.1792ZM44.0787 20.6416L43.7354 20.2781L43.7302 20.283L43.7252 20.288L44.0787 20.6416ZM44.6163 19.8928L45.0716 20.0997L45.0749 20.0922L44.6163 19.8928ZM39.5859 24.5C39.1995 24.5 38.9001 24.375 38.6531 24.128L37.946 24.8352C38.3902 25.2794 38.9484 25.5 39.5859 25.5V24.5ZM38.6531 24.128C38.4061 23.8811 38.2811 23.5816 38.2811 23.1952H37.2811C37.2811 23.8328 37.5018 24.3909 37.946 24.8352L38.6531 24.128ZM38.2811 23.1952V14.8432H37.2811V23.1952H38.2811ZM38.2804 14.8155C38.266 14.5573 38.2302 14.2999 38.1732 14.0435L37.197 14.2605C37.2425 14.4649 37.2706 14.6683 37.2819 14.8709L38.2804 14.8155ZM38.1732 14.0435C38.1294 13.8465 38.1178 13.6917 38.1263 13.5732L37.1288 13.502C37.1117 13.7419 37.1384 13.9967 37.197 14.2605L38.1732 14.0435ZM38.1231 13.6037C38.1312 13.5434 38.1512 13.5107 38.1963 13.4768L37.5963 12.6768C37.3343 12.8733 37.1751 13.1478 37.1319 13.4715L38.1231 13.6037ZM38.1963 13.4768C38.1902 13.4814 38.2197 13.4587 38.3256 13.4375C38.4267 13.4173 38.5691 13.404 38.7603 13.404V12.404C38.5292 12.404 38.3164 12.4195 38.1295 12.4569C37.9474 12.4933 37.7561 12.557 37.5963 12.6768L38.1963 13.4768ZM38.7603 13.404H42.3699V12.404H38.7603V13.404ZM42.3699 13.404C43.1359 13.404 43.848 13.5509 44.5115 13.8419L44.9132 12.9261C44.1175 12.5771 43.2679 12.404 42.3699 12.404V13.404ZM44.5144 13.8432C45.2 14.1387 45.7849 14.5376 46.2746 15.039L46.99 14.3402C46.4045 13.7408 45.7095 13.2693 44.9103 12.9248L44.5144 13.8432ZM46.283 15.0473C46.7843 15.537 47.1833 16.1219 47.4788 16.8075L48.3971 16.4117C48.0526 15.6125 47.5811 14.9174 46.9817 14.3319L46.283 15.0473ZM47.48 16.8104C47.771 17.4739 47.9179 18.186 47.9179 18.952H48.9179C48.9179 18.054 48.7448 17.2045 48.3958 16.4088L47.48 16.8104ZM47.9179 18.952C47.9179 19.718 47.771 20.4376 47.4788 21.1157L48.3971 21.5115C48.7448 20.7048 48.9179 19.85 48.9179 18.952H47.9179ZM47.48 21.1128C47.1844 21.7868 46.7842 22.3747 46.2788 22.88L46.9859 23.5872C47.5813 22.9917 48.0515 22.2996 48.3958 21.5144L47.48 21.1128ZM46.2746 22.8842C45.7849 23.3856 45.2 23.7845 44.5144 24.08L44.9103 24.9984C45.7095 24.6539 46.4045 24.1824 46.99 23.583L46.2746 22.8842ZM44.5183 24.0784C43.8532 24.3584 43.1388 24.5 42.3699 24.5V25.5C43.2651 25.5 44.1122 25.3344 44.9064 25L44.5183 24.0784ZM42.3699 24.5H39.5859V25.5H42.3699V24.5ZM45.3083 18.952C45.3083 18.5532 45.2312 18.1715 45.0749 17.8118L44.1578 18.2106C44.2574 18.4397 44.3083 18.6852 44.3083 18.952H45.3083ZM45.0749 17.8118C44.9203 17.4563 44.7022 17.1443 44.422 16.8797L43.7354 17.6067C43.9161 17.7773 44.0564 17.9773 44.1578 18.2106L45.0749 17.8118ZM44.4323 16.8896C44.1684 16.6258 43.8595 16.4182 43.5101 16.2663L43.1114 17.1833C43.3508 17.2874 43.5538 17.4254 43.7252 17.5968L44.4323 16.8896ZM43.5101 16.2663C43.1566 16.1126 42.7817 16.0291 42.3892 16.014L42.3507 17.0132C42.6238 17.0237 42.8761 17.081 43.1114 17.1833L43.5101 16.2663ZM42.3895 16.014L41.4103 15.9756L41.3711 16.9748L42.3503 17.0132L42.3895 16.014ZM40.8907 16.4752V21.448H41.8907V16.4752H40.8907ZM41.4201 21.9471L42.3993 21.8895L42.3406 20.8913L41.3614 20.9489L41.4201 21.9471ZM42.3892 21.89C42.7817 21.8749 43.1566 21.7914 43.5101 21.6377L43.1114 20.7207C42.8761 20.823 42.6238 20.8803 42.3507 20.8908L42.3892 21.89ZM43.5265 21.6303C43.8689 21.4665 44.1722 21.2552 44.4323 20.9952L43.7252 20.288C43.55 20.4632 43.3414 20.6103 43.095 20.7281L43.5265 21.6303ZM44.422 21.0051C44.6983 20.7442 44.9161 20.4417 45.0715 20.0997L44.1612 19.6859C44.0606 19.9071 43.9199 20.1038 43.7354 20.2781L44.422 21.0051ZM45.0749 20.0922C45.2312 19.7325 45.3083 19.3508 45.3083 18.952H44.3083C44.3083 19.2188 44.2574 19.4643 44.1578 19.6934L45.0749 20.0922Z" fill="#FFF500" mask="url(#path-5-outside-2_1218_12343)"/>
</svg>
