<svg width="50" height="50" viewBox="0 0 50 50" fill="none" xmlns="http://www.w3.org/2000/svg">
<path d="M16.8558 19.93C17.7158 19.93 18.4754 20.2023 19.1348 20.747C19.8228 21.2917 20.3244 21.951 20.6398 22.725C20.9551 23.4703 21.0554 24.2587 20.9408 25.09C20.8261 25.9213 20.3818 26.6093 19.6078 27.154L16.8128 29.218C17.8734 29.562 18.7764 30.121 19.5218 30.895C20.2671 31.669 20.8548 32.572 21.2848 33.604C21.7148 34.6073 21.9584 35.6823 22.0158 36.829C22.0731 37.9757 21.9441 39.0793 21.6288 40.14C21.2274 41.516 20.5824 42.7343 19.6938 43.795C18.8338 44.8557 17.8161 45.7013 16.6408 46.332C15.4941 46.9627 14.2328 47.364 12.8568 47.536C11.5094 47.708 10.1478 47.5933 8.77176 47.192C7.8831 46.934 7.08043 46.5757 6.36376 46.117C5.67576 45.687 5.07376 45.257 4.55776 44.827C3.95576 44.311 3.42543 43.7663 2.96676 43.193C2.4221 42.419 2.02076 41.688 1.76276 41C1.50476 40.312 1.49043 39.5667 1.71976 38.764C2.0351 37.6747 2.5941 36.915 3.39676 36.485C4.2281 36.055 5.18843 35.9977 6.27776 36.313C7.1091 36.5423 7.7971 36.9867 8.34176 37.646C8.5711 37.9327 8.92943 38.291 9.41676 38.721C9.9041 39.151 10.4344 39.452 11.0078 39.624C11.6384 39.7673 12.2261 39.667 12.7708 39.323C13.3441 38.9503 13.7168 38.463 13.8888 37.861C14.0608 37.2303 14.0034 36.5853 13.7168 35.926C13.4588 35.2667 13.0288 34.8367 12.4268 34.636C11.8534 34.464 11.2371 34.464 10.5778 34.636C9.9471 34.7793 9.45976 34.9083 9.11576 35.023C8.34176 35.281 7.52476 35.2953 6.66476 35.066C5.57543 34.7507 4.90176 34.2203 4.64376 33.475C4.38576 32.7297 4.47176 31.841 4.90176 30.809C5.0451 30.465 5.31743 30.1497 5.71876 29.863C6.14876 29.5763 6.60743 29.3327 7.09476 29.132C7.5821 28.9027 8.04076 28.702 8.47076 28.53C8.92943 28.358 9.27343 28.186 9.50276 28.014H5.67576C4.5291 28.014 3.56876 27.627 2.79476 26.853C2.02076 26.0503 1.63376 25.09 1.63376 23.972C1.63376 22.8253 2.02076 21.865 2.79476 21.091C3.56876 20.317 4.5291 19.93 5.67576 19.93H16.8558Z" fill="#C90707"/>
<mask id="path-2-outside-1_1218_12356" maskUnits="userSpaceOnUse" x="1.64304" y="18" width="23" height="30" fill="black">
<rect fill="white" x="1.64304" y="18" width="23" height="30"/>
<path d="M18.107 19.42C18.947 19.42 19.689 19.686 20.333 20.218C21.005 20.75 21.495 21.394 21.803 22.15C22.111 22.878 22.209 23.648 22.097 24.46C21.985 25.272 21.551 25.944 20.795 26.476L18.065 28.492C19.101 28.828 19.983 29.374 20.711 30.13C21.439 30.886 22.013 31.768 22.433 32.776C22.853 33.756 23.091 34.806 23.147 35.926C23.203 37.046 23.077 38.124 22.769 39.16C22.377 40.504 21.747 41.694 20.879 42.73C20.039 43.766 19.045 44.592 17.897 45.208C16.777 45.824 15.545 46.216 14.201 46.384C12.885 46.552 11.555 46.44 10.211 46.048C9.34304 45.796 8.55904 45.446 7.85904 44.998C7.18704 44.578 6.59904 44.158 6.09504 43.738C5.50704 43.234 4.98904 42.702 4.54104 42.142C4.00904 41.386 3.61704 40.672 3.36504 40C3.11304 39.328 3.09904 38.6 3.32304 37.816C3.63104 36.752 4.17704 36.01 4.96104 35.59C5.77304 35.17 6.71104 35.114 7.77504 35.422C8.58704 35.646 9.25904 36.08 9.79104 36.724C10.015 37.004 10.365 37.354 10.841 37.774C11.317 38.194 11.835 38.488 12.395 38.656C13.011 38.796 13.585 38.698 14.117 38.362C14.677 37.998 15.041 37.522 15.209 36.934C15.377 36.318 15.321 35.688 15.041 35.044C14.789 34.4 14.369 33.98 13.781 33.784C13.221 33.616 12.619 33.616 11.975 33.784C11.359 33.924 10.883 34.05 10.547 34.162C9.79104 34.414 8.99304 34.428 8.15304 34.204C7.08904 33.896 6.43104 33.378 6.17904 32.65C5.92704 31.922 6.01104 31.054 6.43104 30.046C6.57104 29.71 6.83704 29.402 7.22904 29.122C7.64904 28.842 8.09704 28.604 8.57304 28.408C9.04904 28.184 9.49704 27.988 9.91704 27.82C10.365 27.652 10.701 27.484 10.925 27.316H7.18704C6.06704 27.316 5.12904 26.938 4.37304 26.182C3.61704 25.398 3.23904 24.46 3.23904 23.368C3.23904 22.248 3.61704 21.31 4.37304 20.554C5.12904 19.798 6.06704 19.42 7.18704 19.42H18.107Z"/>
</mask>
<path d="M20.333 20.218L19.6962 20.989L19.7042 20.9956L19.7123 21.002L20.333 20.218ZM21.803 22.15L20.8769 22.5273L20.8821 22.5396L21.803 22.15ZM22.097 24.46L23.0877 24.5966L22.097 24.46ZM20.795 26.476L20.2195 25.6582L20.2102 25.6648L20.201 25.6716L20.795 26.476ZM18.065 28.492L17.471 27.6876L15.9062 28.8431L17.7565 29.4432L18.065 28.492ZM22.433 32.776L21.5099 33.1606L21.5139 33.1699L22.433 32.776ZM23.147 35.926L22.1483 35.9759L23.147 35.926ZM22.769 39.16L21.8105 38.875L21.809 38.88L22.769 39.16ZM20.879 42.73L20.1125 42.0878L20.1073 42.0939L20.1023 42.1002L20.879 42.73ZM17.897 45.208L17.4242 44.3268L17.4151 44.3318L17.897 45.208ZM14.201 46.384L14.077 45.3917L14.0744 45.3921L14.201 46.384ZM10.211 46.048L10.491 45.088L10.4898 45.0877L10.211 46.048ZM7.85904 44.998L8.39812 44.1557L8.38903 44.15L7.85904 44.998ZM6.09504 43.738L5.44418 44.4973L5.45485 44.5062L6.09504 43.738ZM4.54104 42.142L3.72323 42.7175L3.74094 42.7427L3.76017 42.7667L4.54104 42.142ZM3.32304 37.816L2.36247 37.5379L2.36151 37.5413L3.32304 37.816ZM4.96104 35.59L4.50161 34.7018L4.49519 34.7051L4.48881 34.7085L4.96104 35.59ZM7.77504 35.422L7.49696 36.3826L7.50911 36.386L7.77504 35.422ZM9.79104 36.724L10.5719 36.0993L10.567 36.0932L10.562 36.0871L9.79104 36.724ZM12.395 38.656L12.1077 39.6138L12.1403 39.6236L12.1734 39.6311L12.395 38.656ZM14.117 38.362L14.6511 39.2076L14.662 39.2004L14.117 38.362ZM15.209 36.934L16.1706 37.2087L16.1738 37.1971L15.209 36.934ZM15.041 35.044L14.1098 35.4084L14.1166 35.4257L14.124 35.4427L15.041 35.044ZM13.781 33.784L14.0973 32.8353L14.0829 32.8305L14.0684 32.8262L13.781 33.784ZM11.975 33.784L12.1967 34.7591L12.2121 34.7556L12.2275 34.7516L11.975 33.784ZM10.547 34.162L10.2308 33.2133H10.2308L10.547 34.162ZM8.15304 34.204L7.87498 35.1646L7.88515 35.1675L7.89537 35.1702L8.15304 34.204ZM6.17904 32.65L5.23405 32.9771H5.23405L6.17904 32.65ZM6.43104 30.046L7.35411 30.4306L6.43104 30.046ZM7.22904 29.122L6.67434 28.2899L6.66092 28.2989L6.6478 28.3083L7.22904 29.122ZM8.57304 28.408L8.95379 29.3327L8.97655 29.3233L8.99883 29.3128L8.57304 28.408ZM9.91704 27.82L9.56591 26.8837L9.55574 26.8875L9.54565 26.8915L9.91704 27.82ZM10.925 27.316L11.525 28.116L13.925 26.316H10.925V27.316ZM4.37304 26.182L3.65319 26.8761L3.6595 26.8827L3.66593 26.8891L4.37304 26.182ZM4.37304 20.554L3.66593 19.8469H3.66593L4.37304 20.554ZM18.107 20.42C18.716 20.42 19.2325 20.6059 19.6962 20.989L20.9699 19.447C20.1456 18.7661 19.1781 18.42 18.107 18.42V20.42ZM19.7123 21.002C20.2562 21.4326 20.6373 21.939 20.8769 22.5273L22.7291 21.7727C22.3528 20.849 21.7539 20.0674 20.9537 19.434L19.7123 21.002ZM20.8821 22.5396C21.1172 23.0954 21.1947 23.683 21.1064 24.3234L23.0877 24.5966C23.2233 23.613 23.1049 22.6606 22.724 21.7604L20.8821 22.5396ZM21.1064 24.3234C21.0374 24.8241 20.7807 25.2633 20.2195 25.6582L21.3705 27.2938C22.3214 26.6247 22.9327 25.7199 23.0877 24.5966L21.1064 24.3234ZM20.201 25.6716L17.471 27.6876L18.6591 29.2964L21.3891 27.2804L20.201 25.6716ZM17.7565 29.4432C18.6423 29.7305 19.3811 30.1906 19.9907 30.8236L21.4314 29.4364C20.585 28.5574 19.5598 27.9255 18.3735 27.5408L17.7565 29.4432ZM19.9907 30.8236C20.629 31.4865 21.1358 32.2626 21.51 33.1606L23.3561 32.3914C22.8903 31.2734 22.249 30.2855 21.4314 29.4364L19.9907 30.8236ZM21.5139 33.1699C21.8848 34.0353 22.0979 34.9682 22.1483 35.9759L24.1458 35.8761C24.0842 34.6438 23.8213 33.4767 23.3522 32.3821L21.5139 33.1699ZM22.1483 35.9759C22.1988 36.9871 22.085 37.9516 21.8105 38.875L23.7276 39.445C24.069 38.2964 24.2072 37.1049 24.1458 35.8761L22.1483 35.9759ZM21.809 38.88C21.4544 40.096 20.8885 41.1617 20.1125 42.0878L21.6456 43.3722C22.6056 42.2263 23.2997 40.912 23.729 39.44L21.809 38.88ZM20.1023 42.1002C19.3439 43.0356 18.4524 43.7751 17.4242 44.3268L18.3699 46.0892C19.6377 45.4089 20.7342 44.4964 21.6558 43.3598L20.1023 42.1002ZM17.4151 44.3318C16.4125 44.8832 15.303 45.2385 14.077 45.3917L14.3251 47.3763C15.7871 47.1935 17.1416 46.7648 18.379 46.0842L17.4151 44.3318ZM14.0744 45.3921C12.9022 45.5417 11.7105 45.4437 10.491 45.088L9.93104 47.008C11.3995 47.4363 12.8679 47.5623 14.3277 47.3759L14.0744 45.3921ZM10.4898 45.0877C9.7058 44.86 9.01072 44.5478 8.39809 44.1557L7.31998 45.8403C8.10736 46.3442 8.98027 46.732 9.93223 47.0083L10.4898 45.0877ZM8.38903 44.15C7.74791 43.7493 7.19807 43.3555 6.73522 42.9698L5.45485 44.5062C6.00001 44.9605 6.62616 45.4067 7.32904 45.846L8.38903 44.15ZM6.74583 42.9787C6.20156 42.5122 5.72789 42.0248 5.32191 41.5173L3.76017 42.7667C4.25019 43.3792 4.81252 43.9558 5.44424 44.4973L6.74583 42.9787ZM5.35884 41.5665C4.86248 40.8611 4.51642 40.2224 4.30137 39.6489L2.42871 40.3511C2.71765 41.1216 3.15559 41.9109 3.72323 42.7175L5.35884 41.5665ZM4.30137 39.6489C4.13459 39.2041 4.11104 38.6981 4.28456 38.0907L2.36151 37.5413C2.08703 38.5019 2.09148 39.4519 2.42871 40.3511L4.30137 39.6489ZM4.2836 38.0941C4.53622 37.2214 4.94209 36.7346 5.43326 36.4715L4.48881 34.7085C3.41198 35.2854 2.72585 36.2826 2.36247 37.5379L4.2836 38.0941ZM5.42046 36.4782C5.95866 36.1998 6.62388 36.1298 7.49698 36.3826L8.05309 34.4614C6.79819 34.0982 5.58742 34.1402 4.50161 34.7018L5.42046 36.4782ZM7.50911 36.386C8.12495 36.5559 8.62002 36.8766 9.02007 37.3609L10.562 36.0871C9.89806 35.2834 9.04912 34.7361 8.04097 34.458L7.50911 36.386ZM9.01017 37.3487C9.28759 37.6955 9.68769 38.09 10.1794 38.5238L11.5027 37.0242C11.0424 36.618 10.7425 36.3125 10.5719 36.0993L9.01017 37.3487ZM10.1794 38.5238C10.7543 39.0311 11.3978 39.4009 12.1077 39.6138L12.6824 37.6982C12.2722 37.5751 11.8798 37.3569 11.5027 37.0242L10.1794 38.5238ZM12.1734 39.6311C13.0474 39.8298 13.8934 39.686 14.651 39.2075L13.583 37.5165C13.2767 37.71 12.9747 37.7622 12.6167 37.6809L12.1734 39.6311ZM14.662 39.2004C15.4042 38.718 15.93 38.0508 16.1706 37.2087L14.2475 36.6593C14.1521 36.9932 13.9499 37.278 13.572 37.5236L14.662 39.2004ZM16.1738 37.1971C16.4078 36.3393 16.3192 35.4758 15.9581 34.6453L14.124 35.4427C14.3228 35.9002 14.3463 36.2967 14.2443 36.6709L16.1738 37.1971ZM15.9723 34.6796C15.6263 33.7953 15.0016 33.1368 14.0973 32.8353L13.4648 34.7327C13.7365 34.8232 13.9518 35.0047 14.1098 35.4084L15.9723 34.6796ZM14.0684 32.8262C13.3095 32.5985 12.5189 32.6086 11.7226 32.8164L12.2275 34.7516C12.7191 34.6234 13.1326 34.6335 13.4937 34.7418L14.0684 32.8262ZM11.7534 32.8089C11.126 32.9515 10.613 33.0859 10.2308 33.2133L10.8633 35.1107C11.1531 35.0141 11.5921 34.8965 12.1967 34.7591L11.7534 32.8089ZM10.2308 33.2133C9.67711 33.3979 9.07971 33.4162 8.4107 33.2378L7.89537 35.1702C8.90637 35.4398 9.90496 35.4301 10.8633 35.1107L10.2308 33.2133ZM8.43109 33.2434C7.53352 32.9836 7.22836 32.6243 7.12402 32.3229L5.23405 32.9771C5.63371 34.1317 6.64455 34.8084 7.87498 35.1646L8.43109 33.2434ZM7.12402 32.3229C6.98029 31.9077 6.98936 31.306 7.35411 30.4306L5.50796 29.6614C5.03271 30.802 4.87378 31.9363 5.23405 32.9771L7.12402 32.3229ZM7.35411 30.4306C7.40271 30.314 7.52212 30.1416 7.81027 29.9357L6.6478 28.3083C6.15196 28.6624 5.73936 29.106 5.50796 29.6614L7.35411 30.4306ZM7.78374 29.9541C8.14787 29.7113 8.53747 29.5041 8.95379 29.3327L8.19229 27.4833C7.6566 27.7039 7.1502 27.9727 6.67434 28.2899L7.78374 29.9541ZM8.99883 29.3128C9.45974 29.0959 9.88946 28.9081 10.2884 28.7485L9.54565 26.8915C9.10462 27.0679 8.63834 27.2721 8.14724 27.5032L8.99883 29.3128ZM10.2682 28.7563C10.7517 28.575 11.1899 28.3674 11.525 28.116L10.325 26.516C10.2122 26.6006 9.97835 26.729 9.56591 26.8837L10.2682 28.7563ZM10.925 26.316H7.18704V28.316H10.925V26.316ZM7.18704 26.316C6.31821 26.316 5.6389 26.0337 5.08014 25.4749L3.66593 26.8891C4.61917 27.8423 5.81587 28.316 7.18704 28.316V26.316ZM5.09288 25.4879C4.51714 24.8908 4.23904 24.2018 4.23904 23.368H2.23904C2.23904 24.7182 2.71693 25.9052 3.65319 26.8761L5.09288 25.4879ZM4.23904 23.368C4.23904 22.4992 4.52138 21.8199 5.08014 21.2611L3.66593 19.8469C2.71269 20.8001 2.23904 21.9968 2.23904 23.368H4.23904ZM5.08014 21.2611C5.6389 20.7023 6.3182 20.42 7.18704 20.42V18.42C5.81587 18.42 4.61917 18.8937 3.66593 19.8469L5.08014 21.2611ZM7.18704 20.42H18.107V18.42H7.18704V20.42Z" fill="#FFF500" mask="url(#path-2-outside-1_1218_12356)"/>
<path d="M28.5283 23.504V24.1952C28.5283 24.7072 28.3491 25.136 27.9907 25.4816C27.6451 25.8272 27.2227 26 26.7235 26C26.2115 26 25.7827 25.8272 25.4371 25.4816C25.0915 25.136 24.9187 24.7072 24.9187 24.1952V15.7088C24.9059 15.4784 24.8739 15.248 24.8227 15.0176C24.7715 14.7872 24.7523 14.5824 24.7651 14.4032C24.7907 14.2112 24.8803 14.0576 25.0339 13.9424C25.1875 13.8272 25.4755 13.7696 25.8979 13.7696H29.5459C30.2115 13.7696 30.8387 13.8976 31.4275 14.1536C32.0291 14.4096 32.5475 14.7616 32.9827 15.2096C33.4307 15.6448 33.7827 16.1632 34.0387 16.7648C34.2947 17.3536 34.4227 17.9808 34.4227 18.6464C34.4227 19.0304 34.3651 19.408 34.2499 19.7792C34.1347 20.1504 33.9747 20.5024 33.7699 20.8352C33.5779 21.168 33.3475 21.4688 33.0787 21.7376C32.8227 22.0064 32.5475 22.224 32.2531 22.3904L33.1363 22.8896C33.3411 23.0304 33.4883 23.2096 33.5779 23.4272C33.6675 23.6448 33.7123 23.8752 33.7123 24.1184C33.7123 24.3488 33.6611 24.5856 33.5587 24.8288C33.4691 25.072 33.3411 25.2832 33.1747 25.4624C32.8163 25.808 32.3939 25.9872 31.9075 26C31.4211 26.0128 30.9923 25.8336 30.6211 25.4624L28.5283 23.504ZM30.8515 18.6848C30.8515 18.3392 30.7171 18.0448 30.4483 17.8016C30.1923 17.5456 29.8915 17.4112 29.5459 17.3984L28.5283 17.36V19.952L29.5459 19.9136C29.8915 19.9008 30.1923 19.7792 30.4483 19.5488C30.7171 19.3184 30.8515 19.0304 30.8515 18.6848ZM38.6053 26C38.0933 26 37.6645 25.8272 37.3189 25.4816C36.9733 25.136 36.8005 24.7072 36.8005 24.1952V15.8432C36.7877 15.6128 36.7557 15.3824 36.7045 15.152C36.6533 14.9216 36.6341 14.7168 36.6469 14.5376C36.6725 14.3456 36.7621 14.192 36.9157 14.0768C37.0693 13.9616 37.3573 13.904 37.7797 13.904H41.3893C42.2213 13.904 43.0021 14.064 43.7317 14.384C44.4741 14.704 45.1141 15.1392 45.6517 15.6896C46.2021 16.2272 46.6373 16.8672 46.9573 17.6096C47.2773 18.3392 47.4373 19.12 47.4373 19.952C47.4373 20.784 47.2773 21.5712 46.9573 22.3136C46.6373 23.0432 46.2021 23.6832 45.6517 24.2336C45.1141 24.784 44.4741 25.2192 43.7317 25.5392C43.0021 25.8464 42.2213 26 41.3893 26H38.6053ZM43.8277 19.952C43.8277 19.6192 43.7637 19.3056 43.6357 19.0112C43.5077 18.7168 43.3285 18.4608 43.0981 18.2432C42.8805 18.0256 42.6245 17.8528 42.3301 17.7248C42.0357 17.5968 41.7221 17.5264 41.3893 17.5136L40.4101 17.4752V22.448L41.3893 22.3904C41.7221 22.3776 42.0357 22.3072 42.3301 22.1792C42.6245 22.0384 42.8805 21.8592 43.0981 21.6416C43.3285 21.424 43.5077 21.1744 43.6357 20.8928C43.7637 20.5984 43.8277 20.2848 43.8277 19.952Z" fill="#C90707"/>
<mask id="path-5-outside-2_1218_12356" maskUnits="userSpaceOnUse" x="24.0964" y="12" width="25" height="14" fill="black">
<rect fill="white" x="24.0964" y="12" width="25" height="14"/>
<path d="M28.7044 22.504V23.1952C28.7044 23.7072 28.5252 24.136 28.1668 24.4816C27.8212 24.8272 27.3988 25 26.8996 25C26.3876 25 25.9588 24.8272 25.6132 24.4816C25.2676 24.136 25.0948 23.7072 25.0948 23.1952V14.7088C25.082 14.4784 25.05 14.248 24.9988 14.0176C24.9476 13.7872 24.9284 13.5824 24.9412 13.4032C24.9668 13.2112 25.0564 13.0576 25.21 12.9424C25.3636 12.8272 25.6516 12.7696 26.074 12.7696H29.722C30.3876 12.7696 31.0148 12.8976 31.6036 13.1536C32.2052 13.4096 32.7236 13.7616 33.1588 14.2096C33.6068 14.6448 33.9588 15.1632 34.2148 15.7648C34.4708 16.3536 34.5988 16.9808 34.5988 17.6464C34.5988 18.0304 34.5412 18.408 34.426 18.7792C34.3108 19.1504 34.1508 19.5024 33.946 19.8352C33.754 20.168 33.5236 20.4688 33.2548 20.7376C32.9988 21.0064 32.7236 21.224 32.4292 21.3904L33.3124 21.8896C33.5172 22.0304 33.6644 22.2096 33.754 22.4272C33.8436 22.6448 33.8884 22.8752 33.8884 23.1184C33.8884 23.3488 33.8372 23.5856 33.7348 23.8288C33.6452 24.072 33.5172 24.2832 33.3508 24.4624C32.9924 24.808 32.57 24.9872 32.0836 25C31.5972 25.0128 31.1684 24.8336 30.7972 24.4624L28.7044 22.504ZM31.0276 17.6848C31.0276 17.3392 30.8932 17.0448 30.6244 16.8016C30.3684 16.5456 30.0676 16.4112 29.722 16.3984L28.7044 16.36V18.952L29.722 18.9136C30.0676 18.9008 30.3684 18.7792 30.6244 18.5488C30.8932 18.3184 31.0276 18.0304 31.0276 17.6848ZM38.7814 25C38.2694 25 37.8406 24.8272 37.495 24.4816C37.1494 24.136 36.9766 23.7072 36.9766 23.1952V14.8432C36.9638 14.6128 36.9318 14.3824 36.8806 14.152C36.8294 13.9216 36.8102 13.7168 36.823 13.5376C36.8486 13.3456 36.9382 13.192 37.0918 13.0768C37.2454 12.9616 37.5334 12.904 37.9558 12.904H41.5654C42.3974 12.904 43.1782 13.064 43.9078 13.384C44.6502 13.704 45.2902 14.1392 45.8278 14.6896C46.3782 15.2272 46.8134 15.8672 47.1334 16.6096C47.4534 17.3392 47.6134 18.12 47.6134 18.952C47.6134 19.784 47.4534 20.5712 47.1334 21.3136C46.8134 22.0432 46.3782 22.6832 45.8278 23.2336C45.2902 23.784 44.6502 24.2192 43.9078 24.5392C43.1782 24.8464 42.3974 25 41.5654 25H38.7814ZM44.0038 18.952C44.0038 18.6192 43.9398 18.3056 43.8118 18.0112C43.6838 17.7168 43.5046 17.4608 43.2742 17.2432C43.0566 17.0256 42.8006 16.8528 42.5062 16.7248C42.2118 16.5968 41.8982 16.5264 41.5654 16.5136L40.5862 16.4752V21.448L41.5654 21.3904C41.8982 21.3776 42.2118 21.3072 42.5062 21.1792C42.8006 21.0384 43.0566 20.8592 43.2742 20.6416C43.5046 20.424 43.6838 20.1744 43.8118 19.8928C43.9398 19.5984 44.0038 19.2848 44.0038 18.952Z"/>
</mask>
<path d="M28.7044 22.504L29.046 22.1389L28.2044 21.3513V22.504H28.7044ZM28.1668 24.4816L27.8197 24.1216L27.8132 24.128L28.1668 24.4816ZM25.6132 24.4816L25.2596 24.8352L25.6132 24.4816ZM25.0948 14.7088H25.5948V14.6949L25.594 14.6811L25.0948 14.7088ZM24.9412 13.4032L24.4456 13.3371L24.4436 13.3523L24.4425 13.3676L24.9412 13.4032ZM31.6036 13.1536L31.4042 13.6121L31.4078 13.6137L31.6036 13.1536ZM33.1588 14.2096L32.8002 14.558L32.8052 14.5632L32.8104 14.5682L33.1588 14.2096ZM34.2148 15.7648L33.7547 15.9606L33.7563 15.9642L34.2148 15.7648ZM34.426 18.7792L34.9035 18.9274L34.426 18.7792ZM33.946 19.8352L33.5202 19.5732L33.5164 19.5792L33.5129 19.5853L33.946 19.8352ZM33.2548 20.7376L32.9011 20.3839L32.8927 20.3928L33.2548 20.7376ZM32.4292 21.3904L32.1832 20.9551L31.413 21.3904L32.1832 21.8257L32.4292 21.3904ZM33.3124 21.8896L33.5957 21.4776L33.5775 21.4651L33.5584 21.4543L33.3124 21.8896ZM33.754 22.4272L33.2917 22.6176L33.754 22.4272ZM33.7348 23.8288L33.274 23.6348L33.2696 23.6453L33.2656 23.6559L33.7348 23.8288ZM33.3508 24.4624L33.6979 24.8223L33.7078 24.8127L33.7172 24.8026L33.3508 24.4624ZM32.0836 25L32.0704 24.5002L32.0836 25ZM30.7972 24.4624L31.1507 24.1088L31.1449 24.103L31.1388 24.0973L30.7972 24.4624ZM30.6244 16.8016L30.2708 17.1552L30.2797 17.164L30.2889 17.1724L30.6244 16.8016ZM29.722 16.3984L29.7031 16.898L29.7035 16.8981L29.722 16.3984ZM28.7044 16.36L28.7232 15.8604L28.2044 15.8408V16.36H28.7044ZM28.7044 18.952H28.2044V19.4712L28.7232 19.4516L28.7044 18.952ZM29.722 18.9136L29.7035 18.4139L29.7031 18.414L29.722 18.9136ZM30.6244 18.5488L30.2989 18.1691L30.2899 18.1772L30.6244 18.5488ZM28.2044 22.504V23.1952H29.2044V22.504H28.2044ZM28.2044 23.1952C28.2044 23.5758 28.0773 23.8733 27.8197 24.1217L28.5139 24.8415C28.9731 24.3987 29.2044 23.8386 29.2044 23.1952H28.2044ZM27.8132 24.128C27.5636 24.3777 27.2694 24.5 26.8996 24.5V25.5C27.5282 25.5 28.0788 25.2767 28.5203 24.8352L27.8132 24.128ZM26.8996 24.5C26.5132 24.5 26.2137 24.375 25.9667 24.128L25.2596 24.8352C25.7039 25.2794 26.262 25.5 26.8996 25.5V24.5ZM25.9667 24.128C25.7198 23.8811 25.5948 23.5816 25.5948 23.1952H24.5948C24.5948 23.8328 24.8154 24.3909 25.2596 24.8352L25.9667 24.128ZM25.5948 23.1952V14.7088H24.5948V23.1952H25.5948ZM25.594 14.6811C25.5797 14.4229 25.5439 14.1655 25.4869 13.9091L24.5107 14.1261C24.5561 14.3305 24.5843 14.5339 24.5956 14.7365L25.594 14.6811ZM25.4869 13.9091C25.4431 13.7121 25.4315 13.5573 25.4399 13.4388L24.4425 13.3676C24.4253 13.6075 24.4521 13.8623 24.5107 14.1261L25.4869 13.9091ZM25.4368 13.4693C25.4448 13.409 25.4648 13.3763 25.51 13.3424L24.91 12.5424C24.6479 12.7389 24.4887 13.0134 24.4456 13.3371L25.4368 13.4693ZM25.51 13.3424C25.5038 13.347 25.5333 13.3243 25.6392 13.3031C25.7403 13.2829 25.8827 13.2696 26.074 13.2696V12.2696C25.8429 12.2696 25.6301 12.2851 25.4431 12.3225C25.2611 12.3589 25.0697 12.4226 24.91 12.5424L25.51 13.3424ZM26.074 13.2696H29.722V12.2696H26.074V13.2696ZM29.722 13.2696C30.3216 13.2696 30.8807 13.3845 31.4042 13.6121L31.803 12.6951C31.1489 12.4107 30.4536 12.2696 29.722 12.2696V13.2696ZM31.4078 13.6137C31.9512 13.8449 32.4134 14.1599 32.8002 14.558L33.5174 13.8612C33.0338 13.3633 32.4592 12.9743 31.7994 12.6935L31.4078 13.6137ZM32.8104 14.5682C33.2085 14.955 33.5235 15.4172 33.7547 15.9606L34.6749 15.569C34.3941 14.9092 34.0051 14.3346 33.5072 13.851L32.8104 14.5682ZM33.7563 15.9642C33.9839 16.4877 34.0988 17.0468 34.0988 17.6464H35.0988C35.0988 16.9148 34.9577 16.2195 34.6733 15.5654L33.7563 15.9642ZM34.0988 17.6464C34.0988 17.9795 34.0489 18.3072 33.9485 18.631L34.9035 18.9274C35.0334 18.5088 35.0988 18.0813 35.0988 17.6464H34.0988ZM33.9485 18.631C33.8457 18.962 33.7032 19.2758 33.5202 19.5732L34.3718 20.0972C34.5984 19.729 34.7759 19.3388 34.9035 18.9274L33.9485 18.631ZM33.5129 19.5853C33.3425 19.8807 33.1388 20.1465 32.9012 20.384L33.6083 21.0912C33.9084 20.7911 34.1655 20.4553 34.3791 20.0851L33.5129 19.5853ZM32.8927 20.3928C32.6674 20.6293 32.4307 20.8152 32.1832 20.9551L32.6752 21.8257C33.0165 21.6328 33.3301 21.3835 33.6169 21.0824L32.8927 20.3928ZM32.1832 21.8257L33.0664 22.3249L33.5584 21.4543L32.6752 20.9551L32.1832 21.8257ZM33.0291 22.3016C33.1587 22.3907 33.2411 22.4948 33.2917 22.6176L34.2163 22.2368C34.0877 21.9244 33.8757 21.6701 33.5957 21.4776L33.0291 22.3016ZM33.2917 22.6176C33.3555 22.7728 33.3884 22.9383 33.3884 23.1184H34.3884C34.3884 22.8121 34.3316 22.5168 34.2163 22.2368L33.2917 22.6176ZM33.3884 23.1184C33.3884 23.2732 33.3542 23.4441 33.274 23.6348L34.1956 24.0228C34.3201 23.7271 34.3884 23.4244 34.3884 23.1184H33.3884ZM33.2656 23.6559C33.1975 23.8409 33.1032 23.9943 32.9844 24.1222L33.7172 24.8026C33.9312 24.5721 34.0929 24.3031 34.204 24.0017L33.2656 23.6559ZM33.0037 24.1025C32.7329 24.3636 32.4288 24.4907 32.0704 24.5002L32.0967 25.4998C32.7112 25.4837 33.2518 25.2524 33.6979 24.8223L33.0037 24.1025ZM32.0704 24.5002C31.7328 24.5091 31.4335 24.3916 31.1507 24.1088L30.4436 24.816C30.9033 25.2756 31.4616 25.5165 32.0967 25.4998L32.0704 24.5002ZM31.1388 24.0973L29.046 22.1389L28.3628 22.8691L30.4556 24.8275L31.1388 24.0973ZM31.5276 17.6848C31.5276 17.1903 31.3276 16.7636 30.9598 16.4308L30.2889 17.1724C30.4588 17.326 30.5276 17.4881 30.5276 17.6848H31.5276ZM30.9779 16.448C30.6373 16.1074 30.2186 15.9164 29.7405 15.8987L29.7035 16.8981C29.9166 16.906 30.0995 16.9838 30.2708 17.1552L30.9779 16.448ZM29.7408 15.8988L28.7232 15.8604L28.6855 16.8596L29.7031 16.898L29.7408 15.8988ZM28.2044 16.36V18.952H29.2044V16.36H28.2044ZM28.7232 19.4516L29.7408 19.4132L29.7031 18.414L28.6855 18.4524L28.7232 19.4516ZM29.7405 19.4133C30.2026 19.3961 30.6154 19.2296 30.9589 18.9204L30.2899 18.1772C30.1214 18.3288 29.9325 18.4055 29.7035 18.4139L29.7405 19.4133ZM30.9498 18.9284C31.3263 18.6057 31.5276 18.1804 31.5276 17.6848H30.5276C30.5276 17.8804 30.4601 18.0311 30.299 18.1692L30.9498 18.9284ZM37.495 24.4816L37.1414 24.8352L37.495 24.4816ZM36.9766 14.8432H37.4766V14.8293L37.4758 14.8155L36.9766 14.8432ZM36.8806 14.152L36.3925 14.2605L36.8806 14.152ZM36.823 13.5376L36.3274 13.4715L36.3254 13.4867L36.3243 13.502L36.823 13.5376ZM43.9078 13.384L43.707 13.8419L43.7099 13.8432L43.9078 13.384ZM45.8278 14.6896L45.47 15.0391L45.4784 15.0473L45.8278 14.6896ZM47.1334 16.6096L46.6742 16.8075L46.6755 16.8104L47.1334 16.6096ZM47.1334 21.3136L47.5913 21.5144L47.5926 21.5115L47.1334 21.3136ZM45.8278 23.2336L45.4742 22.88L45.4701 22.8842L45.8278 23.2336ZM43.9078 24.5392L44.1018 25L44.1057 24.9984L43.9078 24.5392ZM43.8118 18.0112L43.3533 18.2106V18.2106L43.8118 18.0112ZM43.2742 17.2432L42.9206 17.5968L42.9257 17.6018L42.9309 17.6067L43.2742 17.2432ZM41.5654 16.5136L41.5458 17.0132L41.5462 17.0132L41.5654 16.5136ZM40.5862 16.4752L40.6058 15.9756L40.0862 15.9552V16.4752H40.5862ZM40.5862 21.448H40.0862V21.9783L40.6156 21.9471L40.5862 21.448ZM41.5654 21.3904L41.5462 20.8907L41.536 20.8913L41.5654 21.3904ZM42.5062 21.1792L42.7056 21.6377L42.7138 21.6341L42.7219 21.6303L42.5062 21.1792ZM43.2742 20.6416L42.9309 20.2781L42.9257 20.283L42.9206 20.288L43.2742 20.6416ZM43.8118 19.8928L44.267 20.0997L44.2703 20.0922L43.8118 19.8928ZM38.7814 24.5C38.395 24.5 38.0955 24.375 37.8485 24.128L37.1414 24.8352C37.5857 25.2794 38.1438 25.5 38.7814 25.5V24.5ZM37.8485 24.128C37.6016 23.8811 37.4766 23.5816 37.4766 23.1952H36.4766C36.4766 23.8328 36.6972 24.3909 37.1414 24.8352L37.8485 24.128ZM37.4766 23.1952V14.8432H36.4766V23.1952H37.4766ZM37.4758 14.8155C37.4615 14.5573 37.4257 14.2999 37.3687 14.0435L36.3925 14.2605C36.4379 14.4649 36.4661 14.6683 36.4774 14.8709L37.4758 14.8155ZM37.3687 14.0435C37.3249 13.8465 37.3133 13.6917 37.3217 13.5732L36.3243 13.502C36.3071 13.7419 36.3339 13.9967 36.3925 14.2605L37.3687 14.0435ZM37.3186 13.6037C37.3266 13.5434 37.3466 13.5107 37.3918 13.4768L36.7918 12.6768C36.5297 12.8733 36.3705 13.1478 36.3274 13.4715L37.3186 13.6037ZM37.3918 13.4768C37.3856 13.4814 37.4151 13.4587 37.521 13.4375C37.6221 13.4173 37.7645 13.404 37.9558 13.404V12.404C37.7247 12.404 37.5119 12.4195 37.3249 12.4569C37.1429 12.4933 36.9516 12.557 36.7918 12.6768L37.3918 13.4768ZM37.9558 13.404H41.5654V12.404H37.9558V13.404ZM41.5654 13.404C42.3314 13.404 43.0435 13.5509 43.707 13.8419L44.1086 12.9261C43.3129 12.5771 42.4634 12.404 41.5654 12.404V13.404ZM43.7099 13.8432C44.3955 14.1387 44.9804 14.5376 45.4701 15.039L46.1855 14.3402C45.6 13.7408 44.9049 13.2693 44.1057 12.9248L43.7099 13.8432ZM45.4784 15.0473C45.9798 15.537 46.3787 16.1219 46.6742 16.8075L47.5926 16.4117C47.2481 15.6125 46.7766 14.9174 46.1772 14.3319L45.4784 15.0473ZM46.6755 16.8104C46.9665 17.4739 47.1134 18.186 47.1134 18.952H48.1134C48.1134 18.054 47.9403 17.2045 47.5913 16.4088L46.6755 16.8104ZM47.1134 18.952C47.1134 19.718 46.9665 20.4376 46.6742 21.1157L47.5926 21.5115C47.9403 20.7048 48.1134 19.85 48.1134 18.952H47.1134ZM46.6755 21.1128C46.3799 21.7868 45.9796 22.3747 45.4742 22.88L46.1813 23.5872C46.7768 22.9917 47.2469 22.2996 47.5913 21.5144L46.6755 21.1128ZM45.4701 22.8842C44.9804 23.3856 44.3955 23.7845 43.7099 24.08L44.1057 24.9984C44.9049 24.6539 45.6 24.1824 46.1855 23.583L45.4701 22.8842ZM43.7138 24.0784C43.0487 24.3584 42.3342 24.5 41.5654 24.5V25.5C42.4606 25.5 43.3077 25.3344 44.1018 25L43.7138 24.0784ZM41.5654 24.5H38.7814V25.5H41.5654V24.5ZM44.5038 18.952C44.5038 18.5532 44.4267 18.1715 44.2703 17.8118L43.3533 18.2106C43.4529 18.4397 43.5038 18.6852 43.5038 18.952H44.5038ZM44.2703 17.8118C44.1158 17.4563 43.8977 17.1443 43.6175 16.8797L42.9309 17.6067C43.1115 17.7773 43.2518 17.9773 43.3533 18.2106L44.2703 17.8118ZM43.6277 16.8896C43.3639 16.6258 43.055 16.4182 42.7056 16.2663L42.3068 17.1833C42.5462 17.2874 42.7493 17.4254 42.9206 17.5968L43.6277 16.8896ZM42.7056 16.2663C42.352 16.1126 41.9771 16.0291 41.5846 16.014L41.5462 17.0132C41.8193 17.0237 42.0715 17.081 42.3068 17.1833L42.7056 16.2663ZM41.585 16.014L40.6058 15.9756L40.5666 16.9748L41.5458 17.0132L41.585 16.014ZM40.0862 16.4752V21.448H41.0862V16.4752H40.0862ZM40.6156 21.9471L41.5948 21.8895L41.536 20.8913L40.5568 20.9489L40.6156 21.9471ZM41.5846 21.89C41.9771 21.8749 42.3521 21.7914 42.7056 21.6377L42.3068 20.7207C42.0715 20.823 41.8193 20.8803 41.5462 20.8908L41.5846 21.89ZM42.7219 21.6303C43.0643 21.4665 43.3677 21.2552 43.6277 20.9952L42.9206 20.288C42.7455 20.4632 42.5368 20.6103 42.2905 20.7281L42.7219 21.6303ZM43.6175 21.0051C43.8938 20.7442 44.1115 20.4417 44.267 20.0997L43.3566 19.6859C43.2561 19.9071 43.1154 20.1038 42.9309 20.2781L43.6175 21.0051ZM44.2703 20.0922C44.4267 19.7325 44.5038 19.3508 44.5038 18.952H43.5038C43.5038 19.2188 43.4529 19.4643 43.3533 19.6934L44.2703 20.0922Z" fill="#FFF500" mask="url(#path-5-outside-2_1218_12356)"/>
</svg>
