<svg width="20" height="21" viewBox="0 0 20 21" fill="none" xmlns="http://www.w3.org/2000/svg">
<path d="M18.333 5.50033V7.51699C18.333 8.83366 17.4997 9.66699 16.183 9.66699H13.333V3.84199C13.333 2.91699 14.0914 2.16699 15.0164 2.16699C15.9247 2.17533 16.758 2.54199 17.358 3.14199C17.958 3.75033 18.333 4.58366 18.333 5.50033Z" stroke="#232526" stroke-width="1.5" stroke-miterlimit="10" stroke-linecap="round" stroke-linejoin="round"/>
<path d="M1.66699 6.33366V18.0003C1.66699 18.692 2.45031 19.0837 3.00031 18.667L4.42532 17.6003C4.75866 17.3503 5.22533 17.3837 5.52533 17.6837L6.90864 19.0753C7.23364 19.4003 7.76701 19.4003 8.09201 19.0753L9.492 17.6753C9.78367 17.3837 10.2503 17.3503 10.5753 17.6003L12.0003 18.667C12.5503 19.0753 13.3337 18.6837 13.3337 18.0003V3.83366C13.3337 2.91699 14.0837 2.16699 15.0003 2.16699H5.83366H5.00033C2.50033 2.16699 1.66699 3.65866 1.66699 5.50033V6.33366Z" stroke="#232526" stroke-width="1.5" stroke-miterlimit="10" stroke-linecap="round" stroke-linejoin="round"/>
<path d="M5 8H10" stroke="#292D32" stroke-width="1.5" stroke-linecap="round" stroke-linejoin="round"/>
<path d="M5.625 11.333H9.375" stroke="#292D32" stroke-width="1.5" stroke-linecap="round" stroke-linejoin="round"/>
</svg>
