<svg width="20" height="20" viewBox="0 0 20 20" fill="none" xmlns="http://www.w3.org/2000/svg">
<path d="M9.9987 1.6665C7.6987 1.6665 5.83203 3.53317 5.83203 5.83317C5.83203 8.13317 7.6987 9.99984 9.9987 9.99984C12.2987 9.99984 14.1654 8.13317 14.1654 5.83317C14.1654 3.53317 12.2987 1.6665 9.9987 1.6665ZM11.807 5.42484L9.55703 7.67484C9.4737 7.75817 9.2987 7.8415 9.18203 7.8665L8.3237 7.98317C8.00703 8.02484 7.79036 7.80817 7.84036 7.49984L7.96537 6.6415C7.98203 6.52484 8.06536 6.34984 8.15703 6.2665L10.407 4.0165C10.7904 3.63317 11.2487 3.44984 11.8154 4.0165C12.3737 4.5915 12.1904 5.0415 11.807 5.42484Z" fill="url(#paint0_linear_3120_2693)"/>
<path d="M10.0008 11.6665C5.82578 11.6665 2.42578 14.4665 2.42578 17.9165C2.42578 18.1498 2.60911 18.3332 2.84245 18.3332H17.1591C17.3924 18.3332 17.5758 18.1498 17.5758 17.9165C17.5758 14.4665 14.1758 11.6665 10.0008 11.6665Z" fill="url(#paint1_linear_3120_2693)"/>
<defs>
<linearGradient id="paint0_linear_3120_2693" x1="5.83203" y1="5.83317" x2="14.1654" y2="5.83317" gradientUnits="userSpaceOnUse">
<stop stop-color="#232526"/>
<stop offset="1" stop-color="#434343"/>
</linearGradient>
<linearGradient id="paint1_linear_3120_2693" x1="2.42578" y1="14.9998" x2="17.5758" y2="14.9998" gradientUnits="userSpaceOnUse">
<stop stop-color="#232526"/>
<stop offset="1" stop-color="#434343"/>
</linearGradient>
</defs>
</svg>
